%TF.GenerationSoftware,KiCad,Pcbnew,5.1.6-c6e7f7d~87~ubuntu20.04.1*%
%TF.CreationDate,2020-07-30T11:34:07+02:00*%
%TF.ProjectId,piezo,7069657a-6f2e-46b6-9963-61645f706362,rev?*%
%TF.SameCoordinates,Original*%
%TF.FileFunction,Copper,L1,Top*%
%TF.FilePolarity,Positive*%
%FSLAX46Y46*%
G04 Gerber Fmt 4.6, Leading zero omitted, Abs format (unit mm)*
G04 Created by KiCad (PCBNEW 5.1.6-c6e7f7d~87~ubuntu20.04.1) date 2020-07-30 11:34:07*
%MOMM*%
%LPD*%
G01*
G04 APERTURE LIST*
%TA.AperFunction,ComponentPad*%
%ADD10R,1.500000X1.500000*%
%TD*%
%TA.AperFunction,ComponentPad*%
%ADD11C,1.500000*%
%TD*%
%TA.AperFunction,ComponentPad*%
%ADD12C,3.800000*%
%TD*%
%TA.AperFunction,SMDPad,CuDef*%
%ADD13R,1.550000X0.600000*%
%TD*%
%TA.AperFunction,SMDPad,CuDef*%
%ADD14R,2.710000X3.400000*%
%TD*%
%TA.AperFunction,ComponentPad*%
%ADD15R,3.960000X1.980000*%
%TD*%
%TA.AperFunction,ComponentPad*%
%ADD16O,3.960000X1.980000*%
%TD*%
%TA.AperFunction,ComponentPad*%
%ADD17O,1.600000X1.600000*%
%TD*%
%TA.AperFunction,ComponentPad*%
%ADD18R,1.600000X1.600000*%
%TD*%
%TA.AperFunction,ViaPad*%
%ADD19C,0.800000*%
%TD*%
%TA.AperFunction,Conductor*%
%ADD20C,0.250000*%
%TD*%
%TA.AperFunction,Conductor*%
%ADD21C,0.254000*%
%TD*%
G04 APERTURE END LIST*
%TO.P,C1,1*%
%TO.N,Net-(C1-Pad1)*%
%TA.AperFunction,SMDPad,CuDef*%
G36*
G01*
X136500000Y-135450000D02*
X136500000Y-136550000D01*
G75*
G02*
X136250000Y-136800000I-250000J0D01*
G01*
X133750000Y-136800000D01*
G75*
G02*
X133500000Y-136550000I0J250000D01*
G01*
X133500000Y-135450000D01*
G75*
G02*
X133750000Y-135200000I250000J0D01*
G01*
X136250000Y-135200000D01*
G75*
G02*
X136500000Y-135450000I0J-250000D01*
G01*
G37*
%TD.AperFunction*%
%TO.P,C1,2*%
%TO.N,Net-(C1-Pad2)*%
%TA.AperFunction,SMDPad,CuDef*%
G36*
G01*
X132100000Y-135450000D02*
X132100000Y-136550000D01*
G75*
G02*
X131850000Y-136800000I-250000J0D01*
G01*
X129350000Y-136800000D01*
G75*
G02*
X129100000Y-136550000I0J250000D01*
G01*
X129100000Y-135450000D01*
G75*
G02*
X129350000Y-135200000I250000J0D01*
G01*
X131850000Y-135200000D01*
G75*
G02*
X132100000Y-135450000I0J-250000D01*
G01*
G37*
%TD.AperFunction*%
%TD*%
D10*
%TO.P,J5,1*%
%TO.N,Net-(C1-Pad1)*%
X142500000Y-130500000D03*
D11*
%TO.P,J5,2*%
%TO.N,GND*%
X139960000Y-131520000D03*
%TO.P,J5,3*%
%TO.N,Net-(C2-Pad1)*%
X142500000Y-132540000D03*
%TO.P,J5,4*%
%TO.N,VCC*%
X139960000Y-133560000D03*
%TD*%
D12*
%TO.P,J1,1*%
%TO.N,GND*%
X145500000Y-119000000D03*
%TD*%
%TO.P,J2,1*%
%TO.N,GND*%
X145500000Y-145500000D03*
%TD*%
%TO.P,J3,1*%
%TO.N,GND*%
X102000000Y-119000000D03*
%TD*%
%TO.P,J4,1*%
%TO.N,GND*%
X102000000Y-145500000D03*
%TD*%
%TO.P,C2,1*%
%TO.N,Net-(C2-Pad1)*%
%TA.AperFunction,SMDPad,CuDef*%
G36*
G01*
X136500000Y-127450000D02*
X136500000Y-128550000D01*
G75*
G02*
X136250000Y-128800000I-250000J0D01*
G01*
X133750000Y-128800000D01*
G75*
G02*
X133500000Y-128550000I0J250000D01*
G01*
X133500000Y-127450000D01*
G75*
G02*
X133750000Y-127200000I250000J0D01*
G01*
X136250000Y-127200000D01*
G75*
G02*
X136500000Y-127450000I0J-250000D01*
G01*
G37*
%TD.AperFunction*%
%TO.P,C2,2*%
%TO.N,Net-(C2-Pad2)*%
%TA.AperFunction,SMDPad,CuDef*%
G36*
G01*
X132100000Y-127450000D02*
X132100000Y-128550000D01*
G75*
G02*
X131850000Y-128800000I-250000J0D01*
G01*
X129350000Y-128800000D01*
G75*
G02*
X129100000Y-128550000I0J250000D01*
G01*
X129100000Y-127450000D01*
G75*
G02*
X129350000Y-127200000I250000J0D01*
G01*
X131850000Y-127200000D01*
G75*
G02*
X132100000Y-127450000I0J-250000D01*
G01*
G37*
%TD.AperFunction*%
%TD*%
%TO.P,C3,2*%
%TO.N,GND*%
%TA.AperFunction,SMDPad,CuDef*%
G36*
G01*
X137900000Y-144050000D02*
X137900000Y-142950000D01*
G75*
G02*
X138150000Y-142700000I250000J0D01*
G01*
X140650000Y-142700000D01*
G75*
G02*
X140900000Y-142950000I0J-250000D01*
G01*
X140900000Y-144050000D01*
G75*
G02*
X140650000Y-144300000I-250000J0D01*
G01*
X138150000Y-144300000D01*
G75*
G02*
X137900000Y-144050000I0J250000D01*
G01*
G37*
%TD.AperFunction*%
%TO.P,C3,1*%
%TO.N,Net-(C3-Pad1)*%
%TA.AperFunction,SMDPad,CuDef*%
G36*
G01*
X133500000Y-144050000D02*
X133500000Y-142950000D01*
G75*
G02*
X133750000Y-142700000I250000J0D01*
G01*
X136250000Y-142700000D01*
G75*
G02*
X136500000Y-142950000I0J-250000D01*
G01*
X136500000Y-144050000D01*
G75*
G02*
X136250000Y-144300000I-250000J0D01*
G01*
X133750000Y-144300000D01*
G75*
G02*
X133500000Y-144050000I0J250000D01*
G01*
G37*
%TD.AperFunction*%
%TD*%
%TO.P,C4,1*%
%TO.N,VCC*%
%TA.AperFunction,SMDPad,CuDef*%
G36*
G01*
X114550000Y-136000000D02*
X113450000Y-136000000D01*
G75*
G02*
X113200000Y-135750000I0J250000D01*
G01*
X113200000Y-133250000D01*
G75*
G02*
X113450000Y-133000000I250000J0D01*
G01*
X114550000Y-133000000D01*
G75*
G02*
X114800000Y-133250000I0J-250000D01*
G01*
X114800000Y-135750000D01*
G75*
G02*
X114550000Y-136000000I-250000J0D01*
G01*
G37*
%TD.AperFunction*%
%TO.P,C4,2*%
%TO.N,GND*%
%TA.AperFunction,SMDPad,CuDef*%
G36*
G01*
X114550000Y-131600000D02*
X113450000Y-131600000D01*
G75*
G02*
X113200000Y-131350000I0J250000D01*
G01*
X113200000Y-128850000D01*
G75*
G02*
X113450000Y-128600000I250000J0D01*
G01*
X114550000Y-128600000D01*
G75*
G02*
X114800000Y-128850000I0J-250000D01*
G01*
X114800000Y-131350000D01*
G75*
G02*
X114550000Y-131600000I-250000J0D01*
G01*
G37*
%TD.AperFunction*%
%TD*%
%TO.P,C5,2*%
%TO.N,GND*%
%TA.AperFunction,SMDPad,CuDef*%
G36*
G01*
X139500000Y-121550000D02*
X139500000Y-120450000D01*
G75*
G02*
X139750000Y-120200000I250000J0D01*
G01*
X142250000Y-120200000D01*
G75*
G02*
X142500000Y-120450000I0J-250000D01*
G01*
X142500000Y-121550000D01*
G75*
G02*
X142250000Y-121800000I-250000J0D01*
G01*
X139750000Y-121800000D01*
G75*
G02*
X139500000Y-121550000I0J250000D01*
G01*
G37*
%TD.AperFunction*%
%TO.P,C5,1*%
%TO.N,VCC*%
%TA.AperFunction,SMDPad,CuDef*%
G36*
G01*
X135100000Y-121550000D02*
X135100000Y-120450000D01*
G75*
G02*
X135350000Y-120200000I250000J0D01*
G01*
X137850000Y-120200000D01*
G75*
G02*
X138100000Y-120450000I0J-250000D01*
G01*
X138100000Y-121550000D01*
G75*
G02*
X137850000Y-121800000I-250000J0D01*
G01*
X135350000Y-121800000D01*
G75*
G02*
X135100000Y-121550000I0J250000D01*
G01*
G37*
%TD.AperFunction*%
%TD*%
%TO.P,R1,2*%
%TO.N,Net-(R1-Pad2)*%
%TA.AperFunction,SMDPad,CuDef*%
G36*
G01*
X114200000Y-138349999D02*
X114200000Y-139650001D01*
G75*
G02*
X113950001Y-139900000I-249999J0D01*
G01*
X112874999Y-139900000D01*
G75*
G02*
X112625000Y-139650001I0J249999D01*
G01*
X112625000Y-138349999D01*
G75*
G02*
X112874999Y-138100000I249999J0D01*
G01*
X113950001Y-138100000D01*
G75*
G02*
X114200000Y-138349999I0J-249999D01*
G01*
G37*
%TD.AperFunction*%
%TO.P,R1,1*%
%TO.N,Net-(D1-Pad2)*%
%TA.AperFunction,SMDPad,CuDef*%
G36*
G01*
X118375000Y-138349999D02*
X118375000Y-139650001D01*
G75*
G02*
X118125001Y-139900000I-249999J0D01*
G01*
X117049999Y-139900000D01*
G75*
G02*
X116800000Y-139650001I0J249999D01*
G01*
X116800000Y-138349999D01*
G75*
G02*
X117049999Y-138100000I249999J0D01*
G01*
X118125001Y-138100000D01*
G75*
G02*
X118375000Y-138349999I0J-249999D01*
G01*
G37*
%TD.AperFunction*%
%TD*%
%TO.P,R2,1*%
%TO.N,Net-(D2-Pad2)*%
%TA.AperFunction,SMDPad,CuDef*%
G36*
G01*
X118287000Y-123849999D02*
X118287000Y-125150001D01*
G75*
G02*
X118037001Y-125400000I-249999J0D01*
G01*
X116961999Y-125400000D01*
G75*
G02*
X116712000Y-125150001I0J249999D01*
G01*
X116712000Y-123849999D01*
G75*
G02*
X116961999Y-123600000I249999J0D01*
G01*
X118037001Y-123600000D01*
G75*
G02*
X118287000Y-123849999I0J-249999D01*
G01*
G37*
%TD.AperFunction*%
%TO.P,R2,2*%
%TO.N,Net-(R2-Pad2)*%
%TA.AperFunction,SMDPad,CuDef*%
G36*
G01*
X114112000Y-123849999D02*
X114112000Y-125150001D01*
G75*
G02*
X113862001Y-125400000I-249999J0D01*
G01*
X112786999Y-125400000D01*
G75*
G02*
X112537000Y-125150001I0J249999D01*
G01*
X112537000Y-123849999D01*
G75*
G02*
X112786999Y-123600000I249999J0D01*
G01*
X113862001Y-123600000D01*
G75*
G02*
X114112000Y-123849999I0J-249999D01*
G01*
G37*
%TD.AperFunction*%
%TD*%
%TO.P,R3,2*%
%TO.N,Net-(D1-Pad2)*%
%TA.AperFunction,SMDPad,CuDef*%
G36*
G01*
X121288000Y-138349999D02*
X121288000Y-139650001D01*
G75*
G02*
X121038001Y-139900000I-249999J0D01*
G01*
X119962999Y-139900000D01*
G75*
G02*
X119713000Y-139650001I0J249999D01*
G01*
X119713000Y-138349999D01*
G75*
G02*
X119962999Y-138100000I249999J0D01*
G01*
X121038001Y-138100000D01*
G75*
G02*
X121288000Y-138349999I0J-249999D01*
G01*
G37*
%TD.AperFunction*%
%TO.P,R3,1*%
%TO.N,Net-(R3-Pad1)*%
%TA.AperFunction,SMDPad,CuDef*%
G36*
G01*
X125463000Y-138349999D02*
X125463000Y-139650001D01*
G75*
G02*
X125213001Y-139900000I-249999J0D01*
G01*
X124137999Y-139900000D01*
G75*
G02*
X123888000Y-139650001I0J249999D01*
G01*
X123888000Y-138349999D01*
G75*
G02*
X124137999Y-138100000I249999J0D01*
G01*
X125213001Y-138100000D01*
G75*
G02*
X125463000Y-138349999I0J-249999D01*
G01*
G37*
%TD.AperFunction*%
%TD*%
%TO.P,R4,1*%
%TO.N,Net-(R4-Pad1)*%
%TA.AperFunction,SMDPad,CuDef*%
G36*
G01*
X125463000Y-123849999D02*
X125463000Y-125150001D01*
G75*
G02*
X125213001Y-125400000I-249999J0D01*
G01*
X124137999Y-125400000D01*
G75*
G02*
X123888000Y-125150001I0J249999D01*
G01*
X123888000Y-123849999D01*
G75*
G02*
X124137999Y-123600000I249999J0D01*
G01*
X125213001Y-123600000D01*
G75*
G02*
X125463000Y-123849999I0J-249999D01*
G01*
G37*
%TD.AperFunction*%
%TO.P,R4,2*%
%TO.N,Net-(D2-Pad2)*%
%TA.AperFunction,SMDPad,CuDef*%
G36*
G01*
X121288000Y-123849999D02*
X121288000Y-125150001D01*
G75*
G02*
X121038001Y-125400000I-249999J0D01*
G01*
X119962999Y-125400000D01*
G75*
G02*
X119713000Y-125150001I0J249999D01*
G01*
X119713000Y-123849999D01*
G75*
G02*
X119962999Y-123600000I249999J0D01*
G01*
X121038001Y-123600000D01*
G75*
G02*
X121288000Y-123849999I0J-249999D01*
G01*
G37*
%TD.AperFunction*%
%TD*%
%TO.P,R5,2*%
%TO.N,Net-(R3-Pad1)*%
%TA.AperFunction,SMDPad,CuDef*%
G36*
G01*
X128150001Y-133788000D02*
X126849999Y-133788000D01*
G75*
G02*
X126600000Y-133538001I0J249999D01*
G01*
X126600000Y-132462999D01*
G75*
G02*
X126849999Y-132213000I249999J0D01*
G01*
X128150001Y-132213000D01*
G75*
G02*
X128400000Y-132462999I0J-249999D01*
G01*
X128400000Y-133538001D01*
G75*
G02*
X128150001Y-133788000I-249999J0D01*
G01*
G37*
%TD.AperFunction*%
%TO.P,R5,1*%
%TO.N,Net-(C1-Pad2)*%
%TA.AperFunction,SMDPad,CuDef*%
G36*
G01*
X128150001Y-137963000D02*
X126849999Y-137963000D01*
G75*
G02*
X126600000Y-137713001I0J249999D01*
G01*
X126600000Y-136637999D01*
G75*
G02*
X126849999Y-136388000I249999J0D01*
G01*
X128150001Y-136388000D01*
G75*
G02*
X128400000Y-136637999I0J-249999D01*
G01*
X128400000Y-137713001D01*
G75*
G02*
X128150001Y-137963000I-249999J0D01*
G01*
G37*
%TD.AperFunction*%
%TD*%
%TO.P,R6,1*%
%TO.N,Net-(C2-Pad2)*%
%TA.AperFunction,SMDPad,CuDef*%
G36*
G01*
X128150001Y-131287000D02*
X126849999Y-131287000D01*
G75*
G02*
X126600000Y-131037001I0J249999D01*
G01*
X126600000Y-129961999D01*
G75*
G02*
X126849999Y-129712000I249999J0D01*
G01*
X128150001Y-129712000D01*
G75*
G02*
X128400000Y-129961999I0J-249999D01*
G01*
X128400000Y-131037001D01*
G75*
G02*
X128150001Y-131287000I-249999J0D01*
G01*
G37*
%TD.AperFunction*%
%TO.P,R6,2*%
%TO.N,Net-(R4-Pad1)*%
%TA.AperFunction,SMDPad,CuDef*%
G36*
G01*
X128150001Y-127112000D02*
X126849999Y-127112000D01*
G75*
G02*
X126600000Y-126862001I0J249999D01*
G01*
X126600000Y-125786999D01*
G75*
G02*
X126849999Y-125537000I249999J0D01*
G01*
X128150001Y-125537000D01*
G75*
G02*
X128400000Y-125786999I0J-249999D01*
G01*
X128400000Y-126862001D01*
G75*
G02*
X128150001Y-127112000I-249999J0D01*
G01*
G37*
%TD.AperFunction*%
%TD*%
D13*
%TO.P,U1,8*%
%TO.N,Net-(D2-Pad2)*%
X118800000Y-133905000D03*
%TO.P,U1,1*%
%TO.N,Net-(D1-Pad2)*%
X124200000Y-133905000D03*
%TO.P,U1,7*%
%TO.N,VCC*%
X118800000Y-132635000D03*
%TO.P,U1,2*%
%TO.N,Net-(C3-Pad1)*%
X124200000Y-132635000D03*
%TO.P,U1,6*%
%TO.N,GND*%
X118800000Y-131365000D03*
%TO.P,U1,3*%
%TO.N,VCC*%
X124200000Y-131365000D03*
%TO.P,U1,5*%
%TO.N,Net-(R4-Pad1)*%
X118800000Y-130095000D03*
%TO.P,U1,4*%
%TO.N,Net-(R3-Pad1)*%
X124200000Y-130095000D03*
D14*
%TO.P,U1,9*%
%TO.N,N/C*%
X121500000Y-132000000D03*
%TD*%
D15*
%TO.P,X1,1*%
%TO.N,Net-(R1-Pad2)*%
X104500000Y-134500000D03*
D16*
%TO.P,X1,2*%
%TO.N,Net-(R2-Pad2)*%
X104500000Y-129500000D03*
%TD*%
D17*
%TO.P,D1,2*%
%TO.N,Net-(D1-Pad2)*%
X109580000Y-139000000D03*
D18*
%TO.P,D1,1*%
%TO.N,Net-(D1-Pad1)*%
X104500000Y-139000000D03*
%TD*%
%TO.P,D2,1*%
%TO.N,Net-(D1-Pad1)*%
X104500000Y-124500000D03*
D17*
%TO.P,D2,2*%
%TO.N,Net-(D2-Pad2)*%
X109580000Y-124500000D03*
%TD*%
D19*
%TO.N,GND*%
X123500000Y-127500000D03*
X132000000Y-126000000D03*
X136000000Y-124500000D03*
X111500000Y-139500000D03*
X139000000Y-136500000D03*
X111500000Y-124000000D03*
X115500000Y-134000000D03*
%TO.N,VCC*%
X117421600Y-132784100D03*
%TD*%
D20*
%TO.N,GND*%
X141000000Y-121000000D02*
X139351400Y-119351400D01*
X139351400Y-119351400D02*
X125893600Y-119351400D01*
X125893600Y-119351400D02*
X121634700Y-123610300D01*
X145500000Y-119000000D02*
X143500000Y-121000000D01*
X143500000Y-121000000D02*
X141000000Y-121000000D01*
X121634700Y-123610300D02*
X117024400Y-119000000D01*
X117024400Y-119000000D02*
X102000000Y-119000000D01*
X116914400Y-130100000D02*
X121634700Y-125379700D01*
X121634700Y-125379700D02*
X121634700Y-123610300D01*
X114000000Y-130100000D02*
X116914400Y-130100000D01*
X116914400Y-130100000D02*
X116914400Y-130579700D01*
X116914400Y-130579700D02*
X117699700Y-131365000D01*
X118800000Y-131365000D02*
X117699700Y-131365000D01*
X139400000Y-143500000D02*
X143500000Y-143500000D01*
X143500000Y-143500000D02*
X145500000Y-145500000D01*
%TO.N,Net-(C1-Pad1)*%
X142500000Y-130500000D02*
X143596200Y-131596200D01*
X143596200Y-131596200D02*
X143596200Y-132969000D01*
X143596200Y-132969000D02*
X140565200Y-136000000D01*
X140565200Y-136000000D02*
X135000000Y-136000000D01*
%TO.N,VCC*%
X124200000Y-131365000D02*
X125300300Y-131365000D01*
X125300300Y-131365000D02*
X125589000Y-131653700D01*
X125589000Y-131653700D02*
X130188300Y-131653700D01*
X130188300Y-131653700D02*
X133098200Y-128743800D01*
X117421600Y-132784100D02*
X115715900Y-132784100D01*
X115715900Y-132784100D02*
X114000000Y-134500000D01*
X117699700Y-132635000D02*
X117550600Y-132784100D01*
X117550600Y-132784100D02*
X117421600Y-132784100D01*
X118800000Y-132635000D02*
X117699700Y-132635000D01*
X133098200Y-128743800D02*
X137914400Y-133560000D01*
X137914400Y-133560000D02*
X139960000Y-133560000D01*
X136600000Y-121000000D02*
X133098200Y-124501800D01*
X133098200Y-124501800D02*
X133098200Y-128743800D01*
%TO.N,Net-(C1-Pad2)*%
X127500000Y-137175500D02*
X129424500Y-137175500D01*
X129424500Y-137175500D02*
X130600000Y-136000000D01*
%TO.N,Net-(C2-Pad1)*%
X135000000Y-128000000D02*
X137986700Y-128000000D01*
X137986700Y-128000000D02*
X142500000Y-132513300D01*
X142500000Y-132513300D02*
X142500000Y-132540000D01*
%TO.N,Net-(C2-Pad2)*%
X127500000Y-130499500D02*
X129999500Y-128000000D01*
X129999500Y-128000000D02*
X130600000Y-128000000D01*
%TO.N,Net-(C3-Pad1)*%
X124200000Y-132635000D02*
X125300300Y-132635000D01*
X135000000Y-143500000D02*
X127137600Y-143500000D01*
X127137600Y-143500000D02*
X123550800Y-139913200D01*
X123550800Y-139913200D02*
X123550800Y-137901600D01*
X123550800Y-137901600D02*
X125300300Y-136152100D01*
X125300300Y-136152100D02*
X125300300Y-132635000D01*
%TO.N,Net-(R1-Pad2)*%
X104500000Y-134500000D02*
X104500000Y-135815300D01*
X104500000Y-135815300D02*
X108834500Y-140149800D01*
X108834500Y-140149800D02*
X112262700Y-140149800D01*
X112262700Y-140149800D02*
X113412500Y-139000000D01*
%TO.N,Net-(R2-Pad2)*%
X104500000Y-129500000D02*
X104500000Y-127982600D01*
X104500000Y-127982600D02*
X109114200Y-123368400D01*
X109114200Y-123368400D02*
X112192900Y-123368400D01*
X112192900Y-123368400D02*
X113324500Y-124500000D01*
%TO.N,Net-(R3-Pad1)*%
X127500000Y-133000500D02*
X127500000Y-134589300D01*
X127500000Y-134589300D02*
X124675500Y-137413800D01*
X124675500Y-137413800D02*
X124675500Y-139000000D01*
X124200000Y-130095000D02*
X125740200Y-130095000D01*
X125740200Y-130095000D02*
X134039600Y-121795600D01*
X134039600Y-121795600D02*
X134039600Y-120834500D01*
X134039600Y-120834500D02*
X135040200Y-119833900D01*
X135040200Y-119833900D02*
X138049500Y-119833900D01*
X138049500Y-119833900D02*
X138800000Y-120584400D01*
X138800000Y-120584400D02*
X138800000Y-124142300D01*
X138800000Y-124142300D02*
X144101900Y-129444200D01*
X144101900Y-129444200D02*
X144101900Y-133171800D01*
X144101900Y-133171800D02*
X140147300Y-137126400D01*
X140147300Y-137126400D02*
X133511500Y-137126400D01*
X133511500Y-137126400D02*
X132800000Y-136414900D01*
X132800000Y-136414900D02*
X132800000Y-135547900D01*
X132800000Y-135547900D02*
X130252600Y-133000500D01*
X130252600Y-133000500D02*
X127500000Y-133000500D01*
%TO.N,Net-(R4-Pad1)*%
X127500000Y-126324500D02*
X125675500Y-124500000D01*
X125675500Y-124500000D02*
X124675500Y-124500000D01*
X118800000Y-130095000D02*
X124395000Y-124500000D01*
X124395000Y-124500000D02*
X124675500Y-124500000D01*
%TO.N,Net-(D1-Pad2)*%
X109580000Y-139000000D02*
X110705300Y-139000000D01*
X110705300Y-139000000D02*
X111938400Y-137766900D01*
X111938400Y-137766900D02*
X116354400Y-137766900D01*
X116354400Y-137766900D02*
X117587500Y-139000000D01*
X120500500Y-139000000D02*
X117587500Y-139000000D01*
X124200000Y-133905000D02*
X124200000Y-135300500D01*
X124200000Y-135300500D02*
X120500500Y-139000000D01*
%TO.N,Net-(D2-Pad2)*%
X112869600Y-125773100D02*
X116226400Y-125773100D01*
X116226400Y-125773100D02*
X117499500Y-124500000D01*
X110705300Y-124500000D02*
X111978400Y-125773100D01*
X111978400Y-125773100D02*
X112869600Y-125773100D01*
X117699700Y-133905000D02*
X115268000Y-136336700D01*
X115268000Y-136336700D02*
X113217000Y-136336700D01*
X113217000Y-136336700D02*
X112869600Y-135989300D01*
X112869600Y-135989300D02*
X112869600Y-125773100D01*
X118800000Y-133905000D02*
X117699700Y-133905000D01*
X109580000Y-124500000D02*
X110705300Y-124500000D01*
X120500500Y-124500000D02*
X117499500Y-124500000D01*
%TD*%
D21*
%TO.N,GND*%
G36*
X148923000Y-148923000D02*
G01*
X98577000Y-148923000D01*
X98577000Y-129500000D01*
X101985660Y-129500000D01*
X102014950Y-129797384D01*
X102101693Y-130083340D01*
X102242558Y-130346878D01*
X102432129Y-130577871D01*
X102663122Y-130767442D01*
X102926660Y-130908307D01*
X103212616Y-130995050D01*
X103435476Y-131017000D01*
X105564524Y-131017000D01*
X105787384Y-130995050D01*
X106073340Y-130908307D01*
X106336878Y-130767442D01*
X106567871Y-130577871D01*
X106757442Y-130346878D01*
X106898307Y-130083340D01*
X106985050Y-129797384D01*
X107014340Y-129500000D01*
X106985050Y-129202616D01*
X106898307Y-128916660D01*
X106757442Y-128653122D01*
X106567871Y-128422129D01*
X106336878Y-128232558D01*
X106073340Y-128091693D01*
X105787384Y-128004950D01*
X105564524Y-127983000D01*
X105421666Y-127983000D01*
X108366558Y-125038109D01*
X108404028Y-125128570D01*
X108549252Y-125345913D01*
X108734087Y-125530748D01*
X108951430Y-125675972D01*
X109192928Y-125776004D01*
X109449302Y-125827000D01*
X109710698Y-125827000D01*
X109967072Y-125776004D01*
X110208570Y-125675972D01*
X110425913Y-125530748D01*
X110610748Y-125345913D01*
X110618117Y-125334884D01*
X111494720Y-126211487D01*
X111515136Y-126236364D01*
X111614416Y-126317841D01*
X111727683Y-126378383D01*
X111850585Y-126415665D01*
X111978399Y-126428254D01*
X112010421Y-126425100D01*
X112217601Y-126425100D01*
X112217600Y-135957278D01*
X112214446Y-135989300D01*
X112227035Y-136117114D01*
X112254874Y-136208886D01*
X112264317Y-136240016D01*
X112324859Y-136353283D01*
X112406336Y-136452564D01*
X112431219Y-136472985D01*
X112733315Y-136775081D01*
X112753736Y-136799964D01*
X112853016Y-136881441D01*
X112966283Y-136941983D01*
X112994479Y-136950536D01*
X113089185Y-136979265D01*
X113217000Y-136991854D01*
X113249022Y-136988700D01*
X115235978Y-136988700D01*
X115268000Y-136991854D01*
X115300022Y-136988700D01*
X115395814Y-136979265D01*
X115518717Y-136941983D01*
X115631984Y-136881441D01*
X115731264Y-136799964D01*
X115751685Y-136775081D01*
X117830159Y-134696608D01*
X117921690Y-134724374D01*
X118025000Y-134734549D01*
X119575000Y-134734549D01*
X119678310Y-134724374D01*
X119777650Y-134694239D01*
X119869202Y-134645304D01*
X119949448Y-134579448D01*
X120015304Y-134499202D01*
X120064239Y-134407650D01*
X120094374Y-134308310D01*
X120102543Y-134225367D01*
X120145000Y-134229549D01*
X122855000Y-134229549D01*
X122897457Y-134225367D01*
X122905626Y-134308310D01*
X122935761Y-134407650D01*
X122984696Y-134499202D01*
X123050552Y-134579448D01*
X123130798Y-134645304D01*
X123222350Y-134694239D01*
X123321690Y-134724374D01*
X123425000Y-134734549D01*
X123548001Y-134734549D01*
X123548001Y-135030432D01*
X121007983Y-137570451D01*
X119962999Y-137570451D01*
X119810917Y-137585430D01*
X119664679Y-137629791D01*
X119529905Y-137701829D01*
X119411775Y-137798775D01*
X119314829Y-137916905D01*
X119242791Y-138051679D01*
X119198430Y-138197917D01*
X119183648Y-138348000D01*
X118904352Y-138348000D01*
X118889570Y-138197917D01*
X118845209Y-138051679D01*
X118773171Y-137916905D01*
X118676225Y-137798775D01*
X118558095Y-137701829D01*
X118423321Y-137629791D01*
X118277083Y-137585430D01*
X118125001Y-137570451D01*
X117080017Y-137570451D01*
X116838085Y-137328519D01*
X116817664Y-137303636D01*
X116718384Y-137222159D01*
X116605117Y-137161617D01*
X116482214Y-137124335D01*
X116386422Y-137114900D01*
X116354400Y-137111746D01*
X116322378Y-137114900D01*
X111970422Y-137114900D01*
X111938400Y-137111746D01*
X111810585Y-137124335D01*
X111687683Y-137161617D01*
X111574416Y-137222159D01*
X111475136Y-137303636D01*
X111454720Y-137328513D01*
X110618117Y-138165116D01*
X110610748Y-138154087D01*
X110425913Y-137969252D01*
X110208570Y-137824028D01*
X109967072Y-137723996D01*
X109710698Y-137673000D01*
X109449302Y-137673000D01*
X109192928Y-137723996D01*
X108951430Y-137824028D01*
X108734087Y-137969252D01*
X108549252Y-138154087D01*
X108404028Y-138371430D01*
X108303996Y-138612928D01*
X108290010Y-138683243D01*
X105626315Y-136019549D01*
X106480000Y-136019549D01*
X106583310Y-136009374D01*
X106682650Y-135979239D01*
X106774202Y-135930304D01*
X106854448Y-135864448D01*
X106920304Y-135784202D01*
X106969239Y-135692650D01*
X106999374Y-135593310D01*
X107009549Y-135490000D01*
X107009549Y-133510000D01*
X106999374Y-133406690D01*
X106969239Y-133307350D01*
X106920304Y-133215798D01*
X106854448Y-133135552D01*
X106774202Y-133069696D01*
X106682650Y-133020761D01*
X106583310Y-132990626D01*
X106480000Y-132980451D01*
X102520000Y-132980451D01*
X102416690Y-132990626D01*
X102317350Y-133020761D01*
X102225798Y-133069696D01*
X102145552Y-133135552D01*
X102079696Y-133215798D01*
X102030761Y-133307350D01*
X102000626Y-133406690D01*
X101990451Y-133510000D01*
X101990451Y-135490000D01*
X102000626Y-135593310D01*
X102030761Y-135692650D01*
X102079696Y-135784202D01*
X102145552Y-135864448D01*
X102225798Y-135930304D01*
X102317350Y-135979239D01*
X102416690Y-136009374D01*
X102520000Y-136019549D01*
X103880621Y-136019549D01*
X103894717Y-136066016D01*
X103905813Y-136086775D01*
X103955260Y-136179284D01*
X104036737Y-136278564D01*
X104061614Y-136298980D01*
X105460656Y-137698022D01*
X105403310Y-137680626D01*
X105300000Y-137670451D01*
X103700000Y-137670451D01*
X103596690Y-137680626D01*
X103497350Y-137710761D01*
X103405798Y-137759696D01*
X103325552Y-137825552D01*
X103259696Y-137905798D01*
X103210761Y-137997350D01*
X103180626Y-138096690D01*
X103170451Y-138200000D01*
X103170451Y-139800000D01*
X103180626Y-139903310D01*
X103210761Y-140002650D01*
X103259696Y-140094202D01*
X103325552Y-140174448D01*
X103405798Y-140240304D01*
X103497350Y-140289239D01*
X103596690Y-140319374D01*
X103700000Y-140329549D01*
X105300000Y-140329549D01*
X105403310Y-140319374D01*
X105502650Y-140289239D01*
X105594202Y-140240304D01*
X105674448Y-140174448D01*
X105740304Y-140094202D01*
X105789239Y-140002650D01*
X105819374Y-139903310D01*
X105829549Y-139800000D01*
X105829549Y-138200000D01*
X105819374Y-138096690D01*
X105801978Y-138039345D01*
X108350820Y-140588187D01*
X108371236Y-140613064D01*
X108470516Y-140694541D01*
X108583783Y-140755083D01*
X108645235Y-140773724D01*
X108706685Y-140792365D01*
X108834500Y-140804954D01*
X108866522Y-140801800D01*
X112230678Y-140801800D01*
X112262700Y-140804954D01*
X112294722Y-140801800D01*
X112390514Y-140792365D01*
X112513417Y-140755083D01*
X112626684Y-140694541D01*
X112725964Y-140613064D01*
X112746385Y-140588181D01*
X112905017Y-140429549D01*
X113950001Y-140429549D01*
X114102083Y-140414570D01*
X114248321Y-140370209D01*
X114383095Y-140298171D01*
X114501225Y-140201225D01*
X114598171Y-140083095D01*
X114670209Y-139948321D01*
X114714570Y-139802083D01*
X114729549Y-139650001D01*
X114729549Y-138418900D01*
X116084334Y-138418900D01*
X116270451Y-138605017D01*
X116270451Y-139650001D01*
X116285430Y-139802083D01*
X116329791Y-139948321D01*
X116401829Y-140083095D01*
X116498775Y-140201225D01*
X116616905Y-140298171D01*
X116751679Y-140370209D01*
X116897917Y-140414570D01*
X117049999Y-140429549D01*
X118125001Y-140429549D01*
X118277083Y-140414570D01*
X118423321Y-140370209D01*
X118558095Y-140298171D01*
X118676225Y-140201225D01*
X118773171Y-140083095D01*
X118845209Y-139948321D01*
X118889570Y-139802083D01*
X118904352Y-139652000D01*
X119183648Y-139652000D01*
X119198430Y-139802083D01*
X119242791Y-139948321D01*
X119314829Y-140083095D01*
X119411775Y-140201225D01*
X119529905Y-140298171D01*
X119664679Y-140370209D01*
X119810917Y-140414570D01*
X119962999Y-140429549D01*
X121038001Y-140429549D01*
X121190083Y-140414570D01*
X121336321Y-140370209D01*
X121471095Y-140298171D01*
X121589225Y-140201225D01*
X121686171Y-140083095D01*
X121758209Y-139948321D01*
X121802570Y-139802083D01*
X121817549Y-139650001D01*
X121817549Y-138605017D01*
X124638387Y-135784180D01*
X124648300Y-135776045D01*
X124648300Y-135882033D01*
X123112414Y-137417920D01*
X123087537Y-137438336D01*
X123006060Y-137537616D01*
X122980503Y-137585430D01*
X122945517Y-137650884D01*
X122908235Y-137773786D01*
X122895646Y-137901600D01*
X122898801Y-137933632D01*
X122898800Y-139881178D01*
X122895646Y-139913200D01*
X122908235Y-140041014D01*
X122941235Y-140149800D01*
X122945517Y-140163916D01*
X123006059Y-140277183D01*
X123087536Y-140376464D01*
X123112419Y-140396885D01*
X126653920Y-143938387D01*
X126674336Y-143963264D01*
X126773616Y-144044741D01*
X126886883Y-144105283D01*
X127009785Y-144142565D01*
X127137599Y-144155154D01*
X127169621Y-144152000D01*
X132980497Y-144152000D01*
X132985430Y-144202082D01*
X133029791Y-144348320D01*
X133101829Y-144483094D01*
X133198776Y-144601224D01*
X133316906Y-144698171D01*
X133451680Y-144770209D01*
X133597918Y-144814570D01*
X133750000Y-144829549D01*
X136250000Y-144829549D01*
X136402082Y-144814570D01*
X136548320Y-144770209D01*
X136683094Y-144698171D01*
X136801224Y-144601224D01*
X136898171Y-144483094D01*
X136970209Y-144348320D01*
X137014570Y-144202082D01*
X137029549Y-144050000D01*
X137029549Y-142950000D01*
X137014570Y-142797918D01*
X136970209Y-142651680D01*
X136898171Y-142516906D01*
X136801224Y-142398776D01*
X136683094Y-142301829D01*
X136548320Y-142229791D01*
X136402082Y-142185430D01*
X136250000Y-142170451D01*
X133750000Y-142170451D01*
X133597918Y-142185430D01*
X133451680Y-142229791D01*
X133316906Y-142301829D01*
X133198776Y-142398776D01*
X133101829Y-142516906D01*
X133029791Y-142651680D01*
X132985430Y-142797918D01*
X132980497Y-142848000D01*
X127407667Y-142848000D01*
X124989215Y-140429549D01*
X125213001Y-140429549D01*
X125365083Y-140414570D01*
X125511321Y-140370209D01*
X125646095Y-140298171D01*
X125764225Y-140201225D01*
X125861171Y-140083095D01*
X125933209Y-139948321D01*
X125977570Y-139802083D01*
X125992549Y-139650001D01*
X125992549Y-138349999D01*
X125977570Y-138197917D01*
X125933209Y-138051679D01*
X125861171Y-137916905D01*
X125764225Y-137798775D01*
X125646095Y-137701829D01*
X125511321Y-137629791D01*
X125411773Y-137599593D01*
X126070451Y-136940915D01*
X126070451Y-137713001D01*
X126085430Y-137865083D01*
X126129791Y-138011321D01*
X126201829Y-138146095D01*
X126298775Y-138264225D01*
X126416905Y-138361171D01*
X126551679Y-138433209D01*
X126697917Y-138477570D01*
X126849999Y-138492549D01*
X128150001Y-138492549D01*
X128302083Y-138477570D01*
X128448321Y-138433209D01*
X128583095Y-138361171D01*
X128701225Y-138264225D01*
X128798171Y-138146095D01*
X128870209Y-138011321D01*
X128914570Y-137865083D01*
X128914594Y-137864830D01*
X143123000Y-137864830D01*
X143123000Y-138195170D01*
X143187446Y-138519163D01*
X143313862Y-138824357D01*
X143497389Y-139099025D01*
X143730975Y-139332611D01*
X144005643Y-139516138D01*
X144310837Y-139642554D01*
X144634830Y-139707000D01*
X144965170Y-139707000D01*
X145289163Y-139642554D01*
X145594357Y-139516138D01*
X145869025Y-139332611D01*
X146102611Y-139099025D01*
X146286138Y-138824357D01*
X146412554Y-138519163D01*
X146477000Y-138195170D01*
X146477000Y-137864830D01*
X146412554Y-137540837D01*
X146286138Y-137235643D01*
X146102611Y-136960975D01*
X145869025Y-136727389D01*
X145594357Y-136543862D01*
X145289163Y-136417446D01*
X144965170Y-136353000D01*
X144634830Y-136353000D01*
X144310837Y-136417446D01*
X144005643Y-136543862D01*
X143730975Y-136727389D01*
X143497389Y-136960975D01*
X143313862Y-137235643D01*
X143187446Y-137540837D01*
X143123000Y-137864830D01*
X128914594Y-137864830D01*
X128918272Y-137827500D01*
X129392478Y-137827500D01*
X129424500Y-137830654D01*
X129456522Y-137827500D01*
X129552314Y-137818065D01*
X129675217Y-137780783D01*
X129788484Y-137720241D01*
X129887764Y-137638764D01*
X129908185Y-137613881D01*
X130192517Y-137329549D01*
X131850000Y-137329549D01*
X132002082Y-137314570D01*
X132148320Y-137270209D01*
X132283094Y-137198171D01*
X132401224Y-137101224D01*
X132474712Y-137011678D01*
X133027820Y-137564787D01*
X133048236Y-137589664D01*
X133147516Y-137671141D01*
X133260783Y-137731683D01*
X133383685Y-137768965D01*
X133511500Y-137781554D01*
X133543522Y-137778400D01*
X140115278Y-137778400D01*
X140147300Y-137781554D01*
X140179322Y-137778400D01*
X140275114Y-137768965D01*
X140398017Y-137731683D01*
X140511284Y-137671141D01*
X140610564Y-137589664D01*
X140630985Y-137564781D01*
X144540287Y-133655480D01*
X144565164Y-133635064D01*
X144646641Y-133535784D01*
X144707183Y-133422517D01*
X144734342Y-133332985D01*
X144744465Y-133299615D01*
X144757054Y-133171800D01*
X144753900Y-133139778D01*
X144753900Y-129476222D01*
X144757054Y-129444200D01*
X144744465Y-129316385D01*
X144718450Y-129230626D01*
X144707183Y-129193483D01*
X144646641Y-129080216D01*
X144565164Y-128980936D01*
X144540288Y-128960521D01*
X141444597Y-125864830D01*
X143123000Y-125864830D01*
X143123000Y-126195170D01*
X143187446Y-126519163D01*
X143313862Y-126824357D01*
X143497389Y-127099025D01*
X143730975Y-127332611D01*
X144005643Y-127516138D01*
X144310837Y-127642554D01*
X144634830Y-127707000D01*
X144965170Y-127707000D01*
X145289163Y-127642554D01*
X145594357Y-127516138D01*
X145869025Y-127332611D01*
X146102611Y-127099025D01*
X146286138Y-126824357D01*
X146412554Y-126519163D01*
X146477000Y-126195170D01*
X146477000Y-125864830D01*
X146412554Y-125540837D01*
X146286138Y-125235643D01*
X146102611Y-124960975D01*
X145869025Y-124727389D01*
X145594357Y-124543862D01*
X145289163Y-124417446D01*
X144965170Y-124353000D01*
X144634830Y-124353000D01*
X144310837Y-124417446D01*
X144005643Y-124543862D01*
X143730975Y-124727389D01*
X143497389Y-124960975D01*
X143313862Y-125235643D01*
X143187446Y-125540837D01*
X143123000Y-125864830D01*
X141444597Y-125864830D01*
X139452000Y-123872234D01*
X139452000Y-120616421D01*
X139455154Y-120584399D01*
X139442565Y-120456585D01*
X139405283Y-120333683D01*
X139381805Y-120289759D01*
X139344741Y-120220416D01*
X139263264Y-120121136D01*
X139238388Y-120100721D01*
X138533184Y-119395518D01*
X138512764Y-119370636D01*
X138413484Y-119289159D01*
X138300217Y-119228617D01*
X138177314Y-119191335D01*
X138081522Y-119181900D01*
X138049500Y-119178746D01*
X138017478Y-119181900D01*
X135072221Y-119181900D01*
X135040199Y-119178746D01*
X134912385Y-119191335D01*
X134789483Y-119228617D01*
X134676216Y-119289159D01*
X134576936Y-119370636D01*
X134556520Y-119395513D01*
X133601214Y-120350820D01*
X133576337Y-120371236D01*
X133494860Y-120470516D01*
X133470375Y-120516324D01*
X133434317Y-120583784D01*
X133397035Y-120706686D01*
X133384446Y-120834500D01*
X133387601Y-120866532D01*
X133387600Y-121525533D01*
X128929549Y-125983585D01*
X128929549Y-125786999D01*
X128914570Y-125634917D01*
X128870209Y-125488679D01*
X128798171Y-125353905D01*
X128701225Y-125235775D01*
X128583095Y-125138829D01*
X128448321Y-125066791D01*
X128302083Y-125022430D01*
X128150001Y-125007451D01*
X127105018Y-125007451D01*
X126159185Y-124061619D01*
X126138764Y-124036736D01*
X126039484Y-123955259D01*
X125992549Y-123930172D01*
X125992549Y-123849999D01*
X125977570Y-123697917D01*
X125933209Y-123551679D01*
X125861171Y-123416905D01*
X125764225Y-123298775D01*
X125646095Y-123201829D01*
X125511321Y-123129791D01*
X125365083Y-123085430D01*
X125213001Y-123070451D01*
X124137999Y-123070451D01*
X123985917Y-123085430D01*
X123839679Y-123129791D01*
X123704905Y-123201829D01*
X123586775Y-123298775D01*
X123489829Y-123416905D01*
X123417791Y-123551679D01*
X123373430Y-123697917D01*
X123358451Y-123849999D01*
X123358451Y-124614482D01*
X118707483Y-129265451D01*
X118025000Y-129265451D01*
X117921690Y-129275626D01*
X117822350Y-129305761D01*
X117730798Y-129354696D01*
X117650552Y-129420552D01*
X117584696Y-129500798D01*
X117535761Y-129592350D01*
X117505626Y-129691690D01*
X117495451Y-129795000D01*
X117495451Y-130395000D01*
X117505626Y-130498310D01*
X117535761Y-130597650D01*
X117584696Y-130689202D01*
X117650552Y-130769448D01*
X117730798Y-130835304D01*
X117822350Y-130884239D01*
X117921690Y-130914374D01*
X118025000Y-130924549D01*
X119575000Y-130924549D01*
X119615451Y-130920565D01*
X119615451Y-131809435D01*
X119575000Y-131805451D01*
X118025000Y-131805451D01*
X117921690Y-131815626D01*
X117822350Y-131845761D01*
X117730798Y-131894696D01*
X117719380Y-131904067D01*
X117691996Y-131892724D01*
X117512901Y-131857100D01*
X117330299Y-131857100D01*
X117151204Y-131892724D01*
X116982501Y-131962604D01*
X116830672Y-132064052D01*
X116762624Y-132132100D01*
X115747921Y-132132100D01*
X115715899Y-132128946D01*
X115588085Y-132141535D01*
X115488526Y-132171736D01*
X115465183Y-132178817D01*
X115351916Y-132239359D01*
X115252636Y-132320836D01*
X115232220Y-132345713D01*
X114978539Y-132599394D01*
X114848320Y-132529791D01*
X114702082Y-132485430D01*
X114550000Y-132470451D01*
X113521600Y-132470451D01*
X113521600Y-126425100D01*
X116194378Y-126425100D01*
X116226400Y-126428254D01*
X116258422Y-126425100D01*
X116354214Y-126415665D01*
X116477117Y-126378383D01*
X116590384Y-126317841D01*
X116689664Y-126236364D01*
X116710085Y-126211481D01*
X116992017Y-125929549D01*
X118037001Y-125929549D01*
X118189083Y-125914570D01*
X118335321Y-125870209D01*
X118470095Y-125798171D01*
X118588225Y-125701225D01*
X118685171Y-125583095D01*
X118757209Y-125448321D01*
X118801570Y-125302083D01*
X118816352Y-125152000D01*
X119183648Y-125152000D01*
X119198430Y-125302083D01*
X119242791Y-125448321D01*
X119314829Y-125583095D01*
X119411775Y-125701225D01*
X119529905Y-125798171D01*
X119664679Y-125870209D01*
X119810917Y-125914570D01*
X119962999Y-125929549D01*
X121038001Y-125929549D01*
X121190083Y-125914570D01*
X121336321Y-125870209D01*
X121471095Y-125798171D01*
X121589225Y-125701225D01*
X121686171Y-125583095D01*
X121758209Y-125448321D01*
X121802570Y-125302083D01*
X121817549Y-125150001D01*
X121817549Y-123849999D01*
X121802570Y-123697917D01*
X121758209Y-123551679D01*
X121686171Y-123416905D01*
X121589225Y-123298775D01*
X121471095Y-123201829D01*
X121336321Y-123129791D01*
X121190083Y-123085430D01*
X121038001Y-123070451D01*
X119962999Y-123070451D01*
X119810917Y-123085430D01*
X119664679Y-123129791D01*
X119529905Y-123201829D01*
X119411775Y-123298775D01*
X119314829Y-123416905D01*
X119242791Y-123551679D01*
X119198430Y-123697917D01*
X119183648Y-123848000D01*
X118816352Y-123848000D01*
X118801570Y-123697917D01*
X118757209Y-123551679D01*
X118685171Y-123416905D01*
X118588225Y-123298775D01*
X118470095Y-123201829D01*
X118335321Y-123129791D01*
X118189083Y-123085430D01*
X118037001Y-123070451D01*
X116961999Y-123070451D01*
X116809917Y-123085430D01*
X116663679Y-123129791D01*
X116528905Y-123201829D01*
X116410775Y-123298775D01*
X116313829Y-123416905D01*
X116241791Y-123551679D01*
X116197430Y-123697917D01*
X116182451Y-123849999D01*
X116182451Y-124894983D01*
X115956334Y-125121100D01*
X114641549Y-125121100D01*
X114641549Y-123849999D01*
X114626570Y-123697917D01*
X114582209Y-123551679D01*
X114510171Y-123416905D01*
X114413225Y-123298775D01*
X114295095Y-123201829D01*
X114160321Y-123129791D01*
X114014083Y-123085430D01*
X113862001Y-123070451D01*
X112817017Y-123070451D01*
X112676585Y-122930019D01*
X112656164Y-122905136D01*
X112556884Y-122823659D01*
X112443617Y-122763117D01*
X112320714Y-122725835D01*
X112224922Y-122716400D01*
X112192900Y-122713246D01*
X112160878Y-122716400D01*
X109146221Y-122716400D01*
X109114199Y-122713246D01*
X108986385Y-122725835D01*
X108863483Y-122763117D01*
X108750216Y-122823659D01*
X108650936Y-122905136D01*
X108630520Y-122930013D01*
X104061614Y-127498920D01*
X104036737Y-127519336D01*
X103955260Y-127618616D01*
X103951009Y-127626570D01*
X103894717Y-127731884D01*
X103857435Y-127854786D01*
X103844846Y-127982600D01*
X103844885Y-127983000D01*
X103435476Y-127983000D01*
X103212616Y-128004950D01*
X102926660Y-128091693D01*
X102663122Y-128232558D01*
X102432129Y-128422129D01*
X102242558Y-128653122D01*
X102101693Y-128916660D01*
X102014950Y-129202616D01*
X101985660Y-129500000D01*
X98577000Y-129500000D01*
X98577000Y-123700000D01*
X103170451Y-123700000D01*
X103170451Y-125300000D01*
X103180626Y-125403310D01*
X103210761Y-125502650D01*
X103259696Y-125594202D01*
X103325552Y-125674448D01*
X103405798Y-125740304D01*
X103497350Y-125789239D01*
X103596690Y-125819374D01*
X103700000Y-125829549D01*
X105300000Y-125829549D01*
X105403310Y-125819374D01*
X105502650Y-125789239D01*
X105594202Y-125740304D01*
X105674448Y-125674448D01*
X105740304Y-125594202D01*
X105789239Y-125502650D01*
X105819374Y-125403310D01*
X105829549Y-125300000D01*
X105829549Y-123700000D01*
X105819374Y-123596690D01*
X105789239Y-123497350D01*
X105740304Y-123405798D01*
X105674448Y-123325552D01*
X105594202Y-123259696D01*
X105502650Y-123210761D01*
X105403310Y-123180626D01*
X105300000Y-123170451D01*
X103700000Y-123170451D01*
X103596690Y-123180626D01*
X103497350Y-123210761D01*
X103405798Y-123259696D01*
X103325552Y-123325552D01*
X103259696Y-123405798D01*
X103210761Y-123497350D01*
X103180626Y-123596690D01*
X103170451Y-123700000D01*
X98577000Y-123700000D01*
X98577000Y-115577000D01*
X148923001Y-115577000D01*
X148923000Y-148923000D01*
G37*
X148923000Y-148923000D02*
X98577000Y-148923000D01*
X98577000Y-129500000D01*
X101985660Y-129500000D01*
X102014950Y-129797384D01*
X102101693Y-130083340D01*
X102242558Y-130346878D01*
X102432129Y-130577871D01*
X102663122Y-130767442D01*
X102926660Y-130908307D01*
X103212616Y-130995050D01*
X103435476Y-131017000D01*
X105564524Y-131017000D01*
X105787384Y-130995050D01*
X106073340Y-130908307D01*
X106336878Y-130767442D01*
X106567871Y-130577871D01*
X106757442Y-130346878D01*
X106898307Y-130083340D01*
X106985050Y-129797384D01*
X107014340Y-129500000D01*
X106985050Y-129202616D01*
X106898307Y-128916660D01*
X106757442Y-128653122D01*
X106567871Y-128422129D01*
X106336878Y-128232558D01*
X106073340Y-128091693D01*
X105787384Y-128004950D01*
X105564524Y-127983000D01*
X105421666Y-127983000D01*
X108366558Y-125038109D01*
X108404028Y-125128570D01*
X108549252Y-125345913D01*
X108734087Y-125530748D01*
X108951430Y-125675972D01*
X109192928Y-125776004D01*
X109449302Y-125827000D01*
X109710698Y-125827000D01*
X109967072Y-125776004D01*
X110208570Y-125675972D01*
X110425913Y-125530748D01*
X110610748Y-125345913D01*
X110618117Y-125334884D01*
X111494720Y-126211487D01*
X111515136Y-126236364D01*
X111614416Y-126317841D01*
X111727683Y-126378383D01*
X111850585Y-126415665D01*
X111978399Y-126428254D01*
X112010421Y-126425100D01*
X112217601Y-126425100D01*
X112217600Y-135957278D01*
X112214446Y-135989300D01*
X112227035Y-136117114D01*
X112254874Y-136208886D01*
X112264317Y-136240016D01*
X112324859Y-136353283D01*
X112406336Y-136452564D01*
X112431219Y-136472985D01*
X112733315Y-136775081D01*
X112753736Y-136799964D01*
X112853016Y-136881441D01*
X112966283Y-136941983D01*
X112994479Y-136950536D01*
X113089185Y-136979265D01*
X113217000Y-136991854D01*
X113249022Y-136988700D01*
X115235978Y-136988700D01*
X115268000Y-136991854D01*
X115300022Y-136988700D01*
X115395814Y-136979265D01*
X115518717Y-136941983D01*
X115631984Y-136881441D01*
X115731264Y-136799964D01*
X115751685Y-136775081D01*
X117830159Y-134696608D01*
X117921690Y-134724374D01*
X118025000Y-134734549D01*
X119575000Y-134734549D01*
X119678310Y-134724374D01*
X119777650Y-134694239D01*
X119869202Y-134645304D01*
X119949448Y-134579448D01*
X120015304Y-134499202D01*
X120064239Y-134407650D01*
X120094374Y-134308310D01*
X120102543Y-134225367D01*
X120145000Y-134229549D01*
X122855000Y-134229549D01*
X122897457Y-134225367D01*
X122905626Y-134308310D01*
X122935761Y-134407650D01*
X122984696Y-134499202D01*
X123050552Y-134579448D01*
X123130798Y-134645304D01*
X123222350Y-134694239D01*
X123321690Y-134724374D01*
X123425000Y-134734549D01*
X123548001Y-134734549D01*
X123548001Y-135030432D01*
X121007983Y-137570451D01*
X119962999Y-137570451D01*
X119810917Y-137585430D01*
X119664679Y-137629791D01*
X119529905Y-137701829D01*
X119411775Y-137798775D01*
X119314829Y-137916905D01*
X119242791Y-138051679D01*
X119198430Y-138197917D01*
X119183648Y-138348000D01*
X118904352Y-138348000D01*
X118889570Y-138197917D01*
X118845209Y-138051679D01*
X118773171Y-137916905D01*
X118676225Y-137798775D01*
X118558095Y-137701829D01*
X118423321Y-137629791D01*
X118277083Y-137585430D01*
X118125001Y-137570451D01*
X117080017Y-137570451D01*
X116838085Y-137328519D01*
X116817664Y-137303636D01*
X116718384Y-137222159D01*
X116605117Y-137161617D01*
X116482214Y-137124335D01*
X116386422Y-137114900D01*
X116354400Y-137111746D01*
X116322378Y-137114900D01*
X111970422Y-137114900D01*
X111938400Y-137111746D01*
X111810585Y-137124335D01*
X111687683Y-137161617D01*
X111574416Y-137222159D01*
X111475136Y-137303636D01*
X111454720Y-137328513D01*
X110618117Y-138165116D01*
X110610748Y-138154087D01*
X110425913Y-137969252D01*
X110208570Y-137824028D01*
X109967072Y-137723996D01*
X109710698Y-137673000D01*
X109449302Y-137673000D01*
X109192928Y-137723996D01*
X108951430Y-137824028D01*
X108734087Y-137969252D01*
X108549252Y-138154087D01*
X108404028Y-138371430D01*
X108303996Y-138612928D01*
X108290010Y-138683243D01*
X105626315Y-136019549D01*
X106480000Y-136019549D01*
X106583310Y-136009374D01*
X106682650Y-135979239D01*
X106774202Y-135930304D01*
X106854448Y-135864448D01*
X106920304Y-135784202D01*
X106969239Y-135692650D01*
X106999374Y-135593310D01*
X107009549Y-135490000D01*
X107009549Y-133510000D01*
X106999374Y-133406690D01*
X106969239Y-133307350D01*
X106920304Y-133215798D01*
X106854448Y-133135552D01*
X106774202Y-133069696D01*
X106682650Y-133020761D01*
X106583310Y-132990626D01*
X106480000Y-132980451D01*
X102520000Y-132980451D01*
X102416690Y-132990626D01*
X102317350Y-133020761D01*
X102225798Y-133069696D01*
X102145552Y-133135552D01*
X102079696Y-133215798D01*
X102030761Y-133307350D01*
X102000626Y-133406690D01*
X101990451Y-133510000D01*
X101990451Y-135490000D01*
X102000626Y-135593310D01*
X102030761Y-135692650D01*
X102079696Y-135784202D01*
X102145552Y-135864448D01*
X102225798Y-135930304D01*
X102317350Y-135979239D01*
X102416690Y-136009374D01*
X102520000Y-136019549D01*
X103880621Y-136019549D01*
X103894717Y-136066016D01*
X103905813Y-136086775D01*
X103955260Y-136179284D01*
X104036737Y-136278564D01*
X104061614Y-136298980D01*
X105460656Y-137698022D01*
X105403310Y-137680626D01*
X105300000Y-137670451D01*
X103700000Y-137670451D01*
X103596690Y-137680626D01*
X103497350Y-137710761D01*
X103405798Y-137759696D01*
X103325552Y-137825552D01*
X103259696Y-137905798D01*
X103210761Y-137997350D01*
X103180626Y-138096690D01*
X103170451Y-138200000D01*
X103170451Y-139800000D01*
X103180626Y-139903310D01*
X103210761Y-140002650D01*
X103259696Y-140094202D01*
X103325552Y-140174448D01*
X103405798Y-140240304D01*
X103497350Y-140289239D01*
X103596690Y-140319374D01*
X103700000Y-140329549D01*
X105300000Y-140329549D01*
X105403310Y-140319374D01*
X105502650Y-140289239D01*
X105594202Y-140240304D01*
X105674448Y-140174448D01*
X105740304Y-140094202D01*
X105789239Y-140002650D01*
X105819374Y-139903310D01*
X105829549Y-139800000D01*
X105829549Y-138200000D01*
X105819374Y-138096690D01*
X105801978Y-138039345D01*
X108350820Y-140588187D01*
X108371236Y-140613064D01*
X108470516Y-140694541D01*
X108583783Y-140755083D01*
X108645235Y-140773724D01*
X108706685Y-140792365D01*
X108834500Y-140804954D01*
X108866522Y-140801800D01*
X112230678Y-140801800D01*
X112262700Y-140804954D01*
X112294722Y-140801800D01*
X112390514Y-140792365D01*
X112513417Y-140755083D01*
X112626684Y-140694541D01*
X112725964Y-140613064D01*
X112746385Y-140588181D01*
X112905017Y-140429549D01*
X113950001Y-140429549D01*
X114102083Y-140414570D01*
X114248321Y-140370209D01*
X114383095Y-140298171D01*
X114501225Y-140201225D01*
X114598171Y-140083095D01*
X114670209Y-139948321D01*
X114714570Y-139802083D01*
X114729549Y-139650001D01*
X114729549Y-138418900D01*
X116084334Y-138418900D01*
X116270451Y-138605017D01*
X116270451Y-139650001D01*
X116285430Y-139802083D01*
X116329791Y-139948321D01*
X116401829Y-140083095D01*
X116498775Y-140201225D01*
X116616905Y-140298171D01*
X116751679Y-140370209D01*
X116897917Y-140414570D01*
X117049999Y-140429549D01*
X118125001Y-140429549D01*
X118277083Y-140414570D01*
X118423321Y-140370209D01*
X118558095Y-140298171D01*
X118676225Y-140201225D01*
X118773171Y-140083095D01*
X118845209Y-139948321D01*
X118889570Y-139802083D01*
X118904352Y-139652000D01*
X119183648Y-139652000D01*
X119198430Y-139802083D01*
X119242791Y-139948321D01*
X119314829Y-140083095D01*
X119411775Y-140201225D01*
X119529905Y-140298171D01*
X119664679Y-140370209D01*
X119810917Y-140414570D01*
X119962999Y-140429549D01*
X121038001Y-140429549D01*
X121190083Y-140414570D01*
X121336321Y-140370209D01*
X121471095Y-140298171D01*
X121589225Y-140201225D01*
X121686171Y-140083095D01*
X121758209Y-139948321D01*
X121802570Y-139802083D01*
X121817549Y-139650001D01*
X121817549Y-138605017D01*
X124638387Y-135784180D01*
X124648300Y-135776045D01*
X124648300Y-135882033D01*
X123112414Y-137417920D01*
X123087537Y-137438336D01*
X123006060Y-137537616D01*
X122980503Y-137585430D01*
X122945517Y-137650884D01*
X122908235Y-137773786D01*
X122895646Y-137901600D01*
X122898801Y-137933632D01*
X122898800Y-139881178D01*
X122895646Y-139913200D01*
X122908235Y-140041014D01*
X122941235Y-140149800D01*
X122945517Y-140163916D01*
X123006059Y-140277183D01*
X123087536Y-140376464D01*
X123112419Y-140396885D01*
X126653920Y-143938387D01*
X126674336Y-143963264D01*
X126773616Y-144044741D01*
X126886883Y-144105283D01*
X127009785Y-144142565D01*
X127137599Y-144155154D01*
X127169621Y-144152000D01*
X132980497Y-144152000D01*
X132985430Y-144202082D01*
X133029791Y-144348320D01*
X133101829Y-144483094D01*
X133198776Y-144601224D01*
X133316906Y-144698171D01*
X133451680Y-144770209D01*
X133597918Y-144814570D01*
X133750000Y-144829549D01*
X136250000Y-144829549D01*
X136402082Y-144814570D01*
X136548320Y-144770209D01*
X136683094Y-144698171D01*
X136801224Y-144601224D01*
X136898171Y-144483094D01*
X136970209Y-144348320D01*
X137014570Y-144202082D01*
X137029549Y-144050000D01*
X137029549Y-142950000D01*
X137014570Y-142797918D01*
X136970209Y-142651680D01*
X136898171Y-142516906D01*
X136801224Y-142398776D01*
X136683094Y-142301829D01*
X136548320Y-142229791D01*
X136402082Y-142185430D01*
X136250000Y-142170451D01*
X133750000Y-142170451D01*
X133597918Y-142185430D01*
X133451680Y-142229791D01*
X133316906Y-142301829D01*
X133198776Y-142398776D01*
X133101829Y-142516906D01*
X133029791Y-142651680D01*
X132985430Y-142797918D01*
X132980497Y-142848000D01*
X127407667Y-142848000D01*
X124989215Y-140429549D01*
X125213001Y-140429549D01*
X125365083Y-140414570D01*
X125511321Y-140370209D01*
X125646095Y-140298171D01*
X125764225Y-140201225D01*
X125861171Y-140083095D01*
X125933209Y-139948321D01*
X125977570Y-139802083D01*
X125992549Y-139650001D01*
X125992549Y-138349999D01*
X125977570Y-138197917D01*
X125933209Y-138051679D01*
X125861171Y-137916905D01*
X125764225Y-137798775D01*
X125646095Y-137701829D01*
X125511321Y-137629791D01*
X125411773Y-137599593D01*
X126070451Y-136940915D01*
X126070451Y-137713001D01*
X126085430Y-137865083D01*
X126129791Y-138011321D01*
X126201829Y-138146095D01*
X126298775Y-138264225D01*
X126416905Y-138361171D01*
X126551679Y-138433209D01*
X126697917Y-138477570D01*
X126849999Y-138492549D01*
X128150001Y-138492549D01*
X128302083Y-138477570D01*
X128448321Y-138433209D01*
X128583095Y-138361171D01*
X128701225Y-138264225D01*
X128798171Y-138146095D01*
X128870209Y-138011321D01*
X128914570Y-137865083D01*
X128914594Y-137864830D01*
X143123000Y-137864830D01*
X143123000Y-138195170D01*
X143187446Y-138519163D01*
X143313862Y-138824357D01*
X143497389Y-139099025D01*
X143730975Y-139332611D01*
X144005643Y-139516138D01*
X144310837Y-139642554D01*
X144634830Y-139707000D01*
X144965170Y-139707000D01*
X145289163Y-139642554D01*
X145594357Y-139516138D01*
X145869025Y-139332611D01*
X146102611Y-139099025D01*
X146286138Y-138824357D01*
X146412554Y-138519163D01*
X146477000Y-138195170D01*
X146477000Y-137864830D01*
X146412554Y-137540837D01*
X146286138Y-137235643D01*
X146102611Y-136960975D01*
X145869025Y-136727389D01*
X145594357Y-136543862D01*
X145289163Y-136417446D01*
X144965170Y-136353000D01*
X144634830Y-136353000D01*
X144310837Y-136417446D01*
X144005643Y-136543862D01*
X143730975Y-136727389D01*
X143497389Y-136960975D01*
X143313862Y-137235643D01*
X143187446Y-137540837D01*
X143123000Y-137864830D01*
X128914594Y-137864830D01*
X128918272Y-137827500D01*
X129392478Y-137827500D01*
X129424500Y-137830654D01*
X129456522Y-137827500D01*
X129552314Y-137818065D01*
X129675217Y-137780783D01*
X129788484Y-137720241D01*
X129887764Y-137638764D01*
X129908185Y-137613881D01*
X130192517Y-137329549D01*
X131850000Y-137329549D01*
X132002082Y-137314570D01*
X132148320Y-137270209D01*
X132283094Y-137198171D01*
X132401224Y-137101224D01*
X132474712Y-137011678D01*
X133027820Y-137564787D01*
X133048236Y-137589664D01*
X133147516Y-137671141D01*
X133260783Y-137731683D01*
X133383685Y-137768965D01*
X133511500Y-137781554D01*
X133543522Y-137778400D01*
X140115278Y-137778400D01*
X140147300Y-137781554D01*
X140179322Y-137778400D01*
X140275114Y-137768965D01*
X140398017Y-137731683D01*
X140511284Y-137671141D01*
X140610564Y-137589664D01*
X140630985Y-137564781D01*
X144540287Y-133655480D01*
X144565164Y-133635064D01*
X144646641Y-133535784D01*
X144707183Y-133422517D01*
X144734342Y-133332985D01*
X144744465Y-133299615D01*
X144757054Y-133171800D01*
X144753900Y-133139778D01*
X144753900Y-129476222D01*
X144757054Y-129444200D01*
X144744465Y-129316385D01*
X144718450Y-129230626D01*
X144707183Y-129193483D01*
X144646641Y-129080216D01*
X144565164Y-128980936D01*
X144540288Y-128960521D01*
X141444597Y-125864830D01*
X143123000Y-125864830D01*
X143123000Y-126195170D01*
X143187446Y-126519163D01*
X143313862Y-126824357D01*
X143497389Y-127099025D01*
X143730975Y-127332611D01*
X144005643Y-127516138D01*
X144310837Y-127642554D01*
X144634830Y-127707000D01*
X144965170Y-127707000D01*
X145289163Y-127642554D01*
X145594357Y-127516138D01*
X145869025Y-127332611D01*
X146102611Y-127099025D01*
X146286138Y-126824357D01*
X146412554Y-126519163D01*
X146477000Y-126195170D01*
X146477000Y-125864830D01*
X146412554Y-125540837D01*
X146286138Y-125235643D01*
X146102611Y-124960975D01*
X145869025Y-124727389D01*
X145594357Y-124543862D01*
X145289163Y-124417446D01*
X144965170Y-124353000D01*
X144634830Y-124353000D01*
X144310837Y-124417446D01*
X144005643Y-124543862D01*
X143730975Y-124727389D01*
X143497389Y-124960975D01*
X143313862Y-125235643D01*
X143187446Y-125540837D01*
X143123000Y-125864830D01*
X141444597Y-125864830D01*
X139452000Y-123872234D01*
X139452000Y-120616421D01*
X139455154Y-120584399D01*
X139442565Y-120456585D01*
X139405283Y-120333683D01*
X139381805Y-120289759D01*
X139344741Y-120220416D01*
X139263264Y-120121136D01*
X139238388Y-120100721D01*
X138533184Y-119395518D01*
X138512764Y-119370636D01*
X138413484Y-119289159D01*
X138300217Y-119228617D01*
X138177314Y-119191335D01*
X138081522Y-119181900D01*
X138049500Y-119178746D01*
X138017478Y-119181900D01*
X135072221Y-119181900D01*
X135040199Y-119178746D01*
X134912385Y-119191335D01*
X134789483Y-119228617D01*
X134676216Y-119289159D01*
X134576936Y-119370636D01*
X134556520Y-119395513D01*
X133601214Y-120350820D01*
X133576337Y-120371236D01*
X133494860Y-120470516D01*
X133470375Y-120516324D01*
X133434317Y-120583784D01*
X133397035Y-120706686D01*
X133384446Y-120834500D01*
X133387601Y-120866532D01*
X133387600Y-121525533D01*
X128929549Y-125983585D01*
X128929549Y-125786999D01*
X128914570Y-125634917D01*
X128870209Y-125488679D01*
X128798171Y-125353905D01*
X128701225Y-125235775D01*
X128583095Y-125138829D01*
X128448321Y-125066791D01*
X128302083Y-125022430D01*
X128150001Y-125007451D01*
X127105018Y-125007451D01*
X126159185Y-124061619D01*
X126138764Y-124036736D01*
X126039484Y-123955259D01*
X125992549Y-123930172D01*
X125992549Y-123849999D01*
X125977570Y-123697917D01*
X125933209Y-123551679D01*
X125861171Y-123416905D01*
X125764225Y-123298775D01*
X125646095Y-123201829D01*
X125511321Y-123129791D01*
X125365083Y-123085430D01*
X125213001Y-123070451D01*
X124137999Y-123070451D01*
X123985917Y-123085430D01*
X123839679Y-123129791D01*
X123704905Y-123201829D01*
X123586775Y-123298775D01*
X123489829Y-123416905D01*
X123417791Y-123551679D01*
X123373430Y-123697917D01*
X123358451Y-123849999D01*
X123358451Y-124614482D01*
X118707483Y-129265451D01*
X118025000Y-129265451D01*
X117921690Y-129275626D01*
X117822350Y-129305761D01*
X117730798Y-129354696D01*
X117650552Y-129420552D01*
X117584696Y-129500798D01*
X117535761Y-129592350D01*
X117505626Y-129691690D01*
X117495451Y-129795000D01*
X117495451Y-130395000D01*
X117505626Y-130498310D01*
X117535761Y-130597650D01*
X117584696Y-130689202D01*
X117650552Y-130769448D01*
X117730798Y-130835304D01*
X117822350Y-130884239D01*
X117921690Y-130914374D01*
X118025000Y-130924549D01*
X119575000Y-130924549D01*
X119615451Y-130920565D01*
X119615451Y-131809435D01*
X119575000Y-131805451D01*
X118025000Y-131805451D01*
X117921690Y-131815626D01*
X117822350Y-131845761D01*
X117730798Y-131894696D01*
X117719380Y-131904067D01*
X117691996Y-131892724D01*
X117512901Y-131857100D01*
X117330299Y-131857100D01*
X117151204Y-131892724D01*
X116982501Y-131962604D01*
X116830672Y-132064052D01*
X116762624Y-132132100D01*
X115747921Y-132132100D01*
X115715899Y-132128946D01*
X115588085Y-132141535D01*
X115488526Y-132171736D01*
X115465183Y-132178817D01*
X115351916Y-132239359D01*
X115252636Y-132320836D01*
X115232220Y-132345713D01*
X114978539Y-132599394D01*
X114848320Y-132529791D01*
X114702082Y-132485430D01*
X114550000Y-132470451D01*
X113521600Y-132470451D01*
X113521600Y-126425100D01*
X116194378Y-126425100D01*
X116226400Y-126428254D01*
X116258422Y-126425100D01*
X116354214Y-126415665D01*
X116477117Y-126378383D01*
X116590384Y-126317841D01*
X116689664Y-126236364D01*
X116710085Y-126211481D01*
X116992017Y-125929549D01*
X118037001Y-125929549D01*
X118189083Y-125914570D01*
X118335321Y-125870209D01*
X118470095Y-125798171D01*
X118588225Y-125701225D01*
X118685171Y-125583095D01*
X118757209Y-125448321D01*
X118801570Y-125302083D01*
X118816352Y-125152000D01*
X119183648Y-125152000D01*
X119198430Y-125302083D01*
X119242791Y-125448321D01*
X119314829Y-125583095D01*
X119411775Y-125701225D01*
X119529905Y-125798171D01*
X119664679Y-125870209D01*
X119810917Y-125914570D01*
X119962999Y-125929549D01*
X121038001Y-125929549D01*
X121190083Y-125914570D01*
X121336321Y-125870209D01*
X121471095Y-125798171D01*
X121589225Y-125701225D01*
X121686171Y-125583095D01*
X121758209Y-125448321D01*
X121802570Y-125302083D01*
X121817549Y-125150001D01*
X121817549Y-123849999D01*
X121802570Y-123697917D01*
X121758209Y-123551679D01*
X121686171Y-123416905D01*
X121589225Y-123298775D01*
X121471095Y-123201829D01*
X121336321Y-123129791D01*
X121190083Y-123085430D01*
X121038001Y-123070451D01*
X119962999Y-123070451D01*
X119810917Y-123085430D01*
X119664679Y-123129791D01*
X119529905Y-123201829D01*
X119411775Y-123298775D01*
X119314829Y-123416905D01*
X119242791Y-123551679D01*
X119198430Y-123697917D01*
X119183648Y-123848000D01*
X118816352Y-123848000D01*
X118801570Y-123697917D01*
X118757209Y-123551679D01*
X118685171Y-123416905D01*
X118588225Y-123298775D01*
X118470095Y-123201829D01*
X118335321Y-123129791D01*
X118189083Y-123085430D01*
X118037001Y-123070451D01*
X116961999Y-123070451D01*
X116809917Y-123085430D01*
X116663679Y-123129791D01*
X116528905Y-123201829D01*
X116410775Y-123298775D01*
X116313829Y-123416905D01*
X116241791Y-123551679D01*
X116197430Y-123697917D01*
X116182451Y-123849999D01*
X116182451Y-124894983D01*
X115956334Y-125121100D01*
X114641549Y-125121100D01*
X114641549Y-123849999D01*
X114626570Y-123697917D01*
X114582209Y-123551679D01*
X114510171Y-123416905D01*
X114413225Y-123298775D01*
X114295095Y-123201829D01*
X114160321Y-123129791D01*
X114014083Y-123085430D01*
X113862001Y-123070451D01*
X112817017Y-123070451D01*
X112676585Y-122930019D01*
X112656164Y-122905136D01*
X112556884Y-122823659D01*
X112443617Y-122763117D01*
X112320714Y-122725835D01*
X112224922Y-122716400D01*
X112192900Y-122713246D01*
X112160878Y-122716400D01*
X109146221Y-122716400D01*
X109114199Y-122713246D01*
X108986385Y-122725835D01*
X108863483Y-122763117D01*
X108750216Y-122823659D01*
X108650936Y-122905136D01*
X108630520Y-122930013D01*
X104061614Y-127498920D01*
X104036737Y-127519336D01*
X103955260Y-127618616D01*
X103951009Y-127626570D01*
X103894717Y-127731884D01*
X103857435Y-127854786D01*
X103844846Y-127982600D01*
X103844885Y-127983000D01*
X103435476Y-127983000D01*
X103212616Y-128004950D01*
X102926660Y-128091693D01*
X102663122Y-128232558D01*
X102432129Y-128422129D01*
X102242558Y-128653122D01*
X102101693Y-128916660D01*
X102014950Y-129202616D01*
X101985660Y-129500000D01*
X98577000Y-129500000D01*
X98577000Y-123700000D01*
X103170451Y-123700000D01*
X103170451Y-125300000D01*
X103180626Y-125403310D01*
X103210761Y-125502650D01*
X103259696Y-125594202D01*
X103325552Y-125674448D01*
X103405798Y-125740304D01*
X103497350Y-125789239D01*
X103596690Y-125819374D01*
X103700000Y-125829549D01*
X105300000Y-125829549D01*
X105403310Y-125819374D01*
X105502650Y-125789239D01*
X105594202Y-125740304D01*
X105674448Y-125674448D01*
X105740304Y-125594202D01*
X105789239Y-125502650D01*
X105819374Y-125403310D01*
X105829549Y-125300000D01*
X105829549Y-123700000D01*
X105819374Y-123596690D01*
X105789239Y-123497350D01*
X105740304Y-123405798D01*
X105674448Y-123325552D01*
X105594202Y-123259696D01*
X105502650Y-123210761D01*
X105403310Y-123180626D01*
X105300000Y-123170451D01*
X103700000Y-123170451D01*
X103596690Y-123180626D01*
X103497350Y-123210761D01*
X103405798Y-123259696D01*
X103325552Y-123325552D01*
X103259696Y-123405798D01*
X103210761Y-123497350D01*
X103180626Y-123596690D01*
X103170451Y-123700000D01*
X98577000Y-123700000D01*
X98577000Y-115577000D01*
X148923001Y-115577000D01*
X148923000Y-148923000D01*
G36*
X116830672Y-133504148D02*
G01*
X116982501Y-133605596D01*
X117049348Y-133633285D01*
X115329549Y-135353085D01*
X115329549Y-134092518D01*
X115985967Y-133436100D01*
X116762624Y-133436100D01*
X116830672Y-133504148D01*
G37*
X116830672Y-133504148D02*
X116982501Y-133605596D01*
X117049348Y-133633285D01*
X115329549Y-135353085D01*
X115329549Y-134092518D01*
X115985967Y-133436100D01*
X116762624Y-133436100D01*
X116830672Y-133504148D01*
G36*
X141265450Y-132200816D02*
G01*
X141223000Y-132414226D01*
X141223000Y-132665774D01*
X141272074Y-132912487D01*
X141368337Y-133144886D01*
X141508089Y-133354040D01*
X141685960Y-133531911D01*
X141895114Y-133671663D01*
X141949106Y-133694027D01*
X140295134Y-135348000D01*
X137019503Y-135348000D01*
X137014570Y-135297918D01*
X136970209Y-135151680D01*
X136898171Y-135016906D01*
X136801224Y-134898776D01*
X136683094Y-134801829D01*
X136548320Y-134729791D01*
X136402082Y-134685430D01*
X136250000Y-134670451D01*
X133750000Y-134670451D01*
X133597918Y-134685430D01*
X133451680Y-134729791D01*
X133316906Y-134801829D01*
X133198776Y-134898776D01*
X133142056Y-134967889D01*
X130736285Y-132562119D01*
X130715864Y-132537236D01*
X130616584Y-132455759D01*
X130503317Y-132395217D01*
X130380414Y-132357935D01*
X130284622Y-132348500D01*
X130252600Y-132345346D01*
X130220578Y-132348500D01*
X128918272Y-132348500D01*
X128914570Y-132310917D01*
X128912987Y-132305700D01*
X130156278Y-132305700D01*
X130188300Y-132308854D01*
X130220322Y-132305700D01*
X130316114Y-132296265D01*
X130439017Y-132258983D01*
X130552284Y-132198441D01*
X130651564Y-132116964D01*
X130671985Y-132092081D01*
X133098200Y-129665866D01*
X137430720Y-133998387D01*
X137451136Y-134023264D01*
X137550416Y-134104741D01*
X137662940Y-134164886D01*
X137663683Y-134165283D01*
X137786585Y-134202565D01*
X137799227Y-134203810D01*
X137882378Y-134212000D01*
X137882385Y-134212000D01*
X137914399Y-134215153D01*
X137946414Y-134212000D01*
X138859818Y-134212000D01*
X138968089Y-134374040D01*
X139145960Y-134551911D01*
X139355114Y-134691663D01*
X139587513Y-134787926D01*
X139834226Y-134837000D01*
X140085774Y-134837000D01*
X140332487Y-134787926D01*
X140564886Y-134691663D01*
X140774040Y-134551911D01*
X140951911Y-134374040D01*
X141091663Y-134164886D01*
X141187926Y-133932487D01*
X141237000Y-133685774D01*
X141237000Y-133434226D01*
X141187926Y-133187513D01*
X141091663Y-132955114D01*
X140951911Y-132745960D01*
X140774040Y-132568089D01*
X140564886Y-132428337D01*
X140332487Y-132332074D01*
X140085774Y-132283000D01*
X139834226Y-132283000D01*
X139587513Y-132332074D01*
X139355114Y-132428337D01*
X139145960Y-132568089D01*
X138968089Y-132745960D01*
X138859818Y-132908000D01*
X138184467Y-132908000D01*
X134606015Y-129329549D01*
X136250000Y-129329549D01*
X136402082Y-129314570D01*
X136548320Y-129270209D01*
X136683094Y-129198171D01*
X136801224Y-129101224D01*
X136898171Y-128983094D01*
X136970209Y-128848320D01*
X137014570Y-128702082D01*
X137019503Y-128652000D01*
X137716634Y-128652000D01*
X141265450Y-132200816D01*
G37*
X141265450Y-132200816D02*
X141223000Y-132414226D01*
X141223000Y-132665774D01*
X141272074Y-132912487D01*
X141368337Y-133144886D01*
X141508089Y-133354040D01*
X141685960Y-133531911D01*
X141895114Y-133671663D01*
X141949106Y-133694027D01*
X140295134Y-135348000D01*
X137019503Y-135348000D01*
X137014570Y-135297918D01*
X136970209Y-135151680D01*
X136898171Y-135016906D01*
X136801224Y-134898776D01*
X136683094Y-134801829D01*
X136548320Y-134729791D01*
X136402082Y-134685430D01*
X136250000Y-134670451D01*
X133750000Y-134670451D01*
X133597918Y-134685430D01*
X133451680Y-134729791D01*
X133316906Y-134801829D01*
X133198776Y-134898776D01*
X133142056Y-134967889D01*
X130736285Y-132562119D01*
X130715864Y-132537236D01*
X130616584Y-132455759D01*
X130503317Y-132395217D01*
X130380414Y-132357935D01*
X130284622Y-132348500D01*
X130252600Y-132345346D01*
X130220578Y-132348500D01*
X128918272Y-132348500D01*
X128914570Y-132310917D01*
X128912987Y-132305700D01*
X130156278Y-132305700D01*
X130188300Y-132308854D01*
X130220322Y-132305700D01*
X130316114Y-132296265D01*
X130439017Y-132258983D01*
X130552284Y-132198441D01*
X130651564Y-132116964D01*
X130671985Y-132092081D01*
X133098200Y-129665866D01*
X137430720Y-133998387D01*
X137451136Y-134023264D01*
X137550416Y-134104741D01*
X137662940Y-134164886D01*
X137663683Y-134165283D01*
X137786585Y-134202565D01*
X137799227Y-134203810D01*
X137882378Y-134212000D01*
X137882385Y-134212000D01*
X137914399Y-134215153D01*
X137946414Y-134212000D01*
X138859818Y-134212000D01*
X138968089Y-134374040D01*
X139145960Y-134551911D01*
X139355114Y-134691663D01*
X139587513Y-134787926D01*
X139834226Y-134837000D01*
X140085774Y-134837000D01*
X140332487Y-134787926D01*
X140564886Y-134691663D01*
X140774040Y-134551911D01*
X140951911Y-134374040D01*
X141091663Y-134164886D01*
X141187926Y-133932487D01*
X141237000Y-133685774D01*
X141237000Y-133434226D01*
X141187926Y-133187513D01*
X141091663Y-132955114D01*
X140951911Y-132745960D01*
X140774040Y-132568089D01*
X140564886Y-132428337D01*
X140332487Y-132332074D01*
X140085774Y-132283000D01*
X139834226Y-132283000D01*
X139587513Y-132332074D01*
X139355114Y-132428337D01*
X139145960Y-132568089D01*
X138968089Y-132745960D01*
X138859818Y-132908000D01*
X138184467Y-132908000D01*
X134606015Y-129329549D01*
X136250000Y-129329549D01*
X136402082Y-129314570D01*
X136548320Y-129270209D01*
X136683094Y-129198171D01*
X136801224Y-129101224D01*
X136898171Y-128983094D01*
X136970209Y-128848320D01*
X137014570Y-128702082D01*
X137019503Y-128652000D01*
X137716634Y-128652000D01*
X141265450Y-132200816D01*
G36*
X138148001Y-124110268D02*
G01*
X138144846Y-124142300D01*
X138157435Y-124270114D01*
X138194717Y-124393016D01*
X138194718Y-124393017D01*
X138255260Y-124506284D01*
X138336737Y-124605564D01*
X138361614Y-124625980D01*
X142956084Y-129220451D01*
X141750000Y-129220451D01*
X141646690Y-129230626D01*
X141547350Y-129260761D01*
X141455798Y-129309696D01*
X141375552Y-129375552D01*
X141309696Y-129455798D01*
X141260761Y-129547350D01*
X141230626Y-129646690D01*
X141220451Y-129750000D01*
X141220451Y-130311684D01*
X138470385Y-127561619D01*
X138449964Y-127536736D01*
X138350684Y-127455259D01*
X138237417Y-127394717D01*
X138114514Y-127357435D01*
X138018722Y-127348000D01*
X137986700Y-127344846D01*
X137954678Y-127348000D01*
X137019503Y-127348000D01*
X137014570Y-127297918D01*
X136970209Y-127151680D01*
X136898171Y-127016906D01*
X136801224Y-126898776D01*
X136683094Y-126801829D01*
X136548320Y-126729791D01*
X136402082Y-126685430D01*
X136250000Y-126670451D01*
X133750200Y-126670451D01*
X133750200Y-124771866D01*
X136192518Y-122329549D01*
X137850000Y-122329549D01*
X138002082Y-122314570D01*
X138148000Y-122270306D01*
X138148001Y-124110268D01*
G37*
X138148001Y-124110268D02*
X138144846Y-124142300D01*
X138157435Y-124270114D01*
X138194717Y-124393016D01*
X138194718Y-124393017D01*
X138255260Y-124506284D01*
X138336737Y-124605564D01*
X138361614Y-124625980D01*
X142956084Y-129220451D01*
X141750000Y-129220451D01*
X141646690Y-129230626D01*
X141547350Y-129260761D01*
X141455798Y-129309696D01*
X141375552Y-129375552D01*
X141309696Y-129455798D01*
X141260761Y-129547350D01*
X141230626Y-129646690D01*
X141220451Y-129750000D01*
X141220451Y-130311684D01*
X138470385Y-127561619D01*
X138449964Y-127536736D01*
X138350684Y-127455259D01*
X138237417Y-127394717D01*
X138114514Y-127357435D01*
X138018722Y-127348000D01*
X137986700Y-127344846D01*
X137954678Y-127348000D01*
X137019503Y-127348000D01*
X137014570Y-127297918D01*
X136970209Y-127151680D01*
X136898171Y-127016906D01*
X136801224Y-126898776D01*
X136683094Y-126801829D01*
X136548320Y-126729791D01*
X136402082Y-126685430D01*
X136250000Y-126670451D01*
X133750200Y-126670451D01*
X133750200Y-124771866D01*
X136192518Y-122329549D01*
X137850000Y-122329549D01*
X138002082Y-122314570D01*
X138148000Y-122270306D01*
X138148001Y-124110268D01*
G36*
X126070451Y-125817017D02*
G01*
X126070451Y-126862001D01*
X126085430Y-127014083D01*
X126129791Y-127160321D01*
X126201829Y-127295095D01*
X126298775Y-127413225D01*
X126416905Y-127510171D01*
X126551679Y-127582209D01*
X126697917Y-127626570D01*
X126849999Y-127641549D01*
X127271585Y-127641549D01*
X125470134Y-129443000D01*
X125367871Y-129443000D01*
X125349448Y-129420552D01*
X125269202Y-129354696D01*
X125177650Y-129305761D01*
X125078310Y-129275626D01*
X124975000Y-129265451D01*
X123425000Y-129265451D01*
X123321690Y-129275626D01*
X123222350Y-129305761D01*
X123130798Y-129354696D01*
X123050552Y-129420552D01*
X122984696Y-129500798D01*
X122935761Y-129592350D01*
X122905626Y-129691690D01*
X122897457Y-129774633D01*
X122855000Y-129770451D01*
X120145000Y-129770451D01*
X120102543Y-129774633D01*
X120097154Y-129719913D01*
X123921912Y-125895154D01*
X123985917Y-125914570D01*
X124137999Y-125929549D01*
X125213001Y-125929549D01*
X125365083Y-125914570D01*
X125511321Y-125870209D01*
X125646095Y-125798171D01*
X125764225Y-125701225D01*
X125850063Y-125596630D01*
X126070451Y-125817017D01*
G37*
X126070451Y-125817017D02*
X126070451Y-126862001D01*
X126085430Y-127014083D01*
X126129791Y-127160321D01*
X126201829Y-127295095D01*
X126298775Y-127413225D01*
X126416905Y-127510171D01*
X126551679Y-127582209D01*
X126697917Y-127626570D01*
X126849999Y-127641549D01*
X127271585Y-127641549D01*
X125470134Y-129443000D01*
X125367871Y-129443000D01*
X125349448Y-129420552D01*
X125269202Y-129354696D01*
X125177650Y-129305761D01*
X125078310Y-129275626D01*
X124975000Y-129265451D01*
X123425000Y-129265451D01*
X123321690Y-129275626D01*
X123222350Y-129305761D01*
X123130798Y-129354696D01*
X123050552Y-129420552D01*
X122984696Y-129500798D01*
X122935761Y-129592350D01*
X122905626Y-129691690D01*
X122897457Y-129774633D01*
X122855000Y-129770451D01*
X120145000Y-129770451D01*
X120102543Y-129774633D01*
X120097154Y-129719913D01*
X123921912Y-125895154D01*
X123985917Y-125914570D01*
X124137999Y-125929549D01*
X125213001Y-125929549D01*
X125365083Y-125914570D01*
X125511321Y-125870209D01*
X125646095Y-125798171D01*
X125764225Y-125701225D01*
X125850063Y-125596630D01*
X126070451Y-125817017D01*
G36*
X132455635Y-124373986D02*
G01*
X132443046Y-124501800D01*
X132446200Y-124533822D01*
X132446201Y-126953580D01*
X132401224Y-126898776D01*
X132283094Y-126801829D01*
X132148320Y-126729791D01*
X132002082Y-126685430D01*
X131850000Y-126670451D01*
X130086815Y-126670451D01*
X132487141Y-124270126D01*
X132455635Y-124373986D01*
G37*
X132455635Y-124373986D02*
X132443046Y-124501800D01*
X132446200Y-124533822D01*
X132446201Y-126953580D01*
X132401224Y-126898776D01*
X132283094Y-126801829D01*
X132148320Y-126729791D01*
X132002082Y-126685430D01*
X131850000Y-126670451D01*
X130086815Y-126670451D01*
X132487141Y-124270126D01*
X132455635Y-124373986D01*
%TD*%
M02*
