M48
; DRILL file {KiCad 5.1.9-73d0e3b20d~88~ubuntu20.04.1} date Tue Apr 13 11:53:48 2021
; FORMAT={-:-/ absolute / metric / decimal}
; #@! TF.CreationDate,2021-04-13T11:53:48+02:00
; #@! TF.GenerationSoftware,Kicad,Pcbnew,5.1.9-73d0e3b20d~88~ubuntu20.04.1
; #@! TF.FileFunction,Plated,1,2,PTH
FMAT,2
METRIC
T1C0.400
T2C0.800
T3C0.900
T4C2.200
%
G90
G05
T1
X112.5Y-132.5
X117.0Y-127.0
X117.5Y-136.5
X119.5Y-137.0
X122.0Y-135.5
X123.5Y-136.5
X124.0Y-140.5
X126.353Y-136.0
X129.5Y-124.5
X129.5Y-131.0
X130.5Y-132.5
X131.0Y-136.5
X132.0Y-141.5
X135.681Y-135.045
T2
X105.0Y-129.6
X105.0Y-134.5
T3
X139.96Y-131.52
X139.96Y-133.56
X142.5Y-130.5
X142.5Y-132.54
T4
X102.0Y-145.5
X102.5Y-121.5
X145.5Y-121.5
X145.5Y-145.0
T0
M30
