%TF.GenerationSoftware,KiCad,Pcbnew,5.1.9-73d0e3b20d~88~ubuntu20.04.1*%
%TF.CreationDate,2021-04-13T12:06:45+02:00*%
%TF.ProjectId,piezo,7069657a-6f2e-46b6-9963-61645f706362,rev?*%
%TF.SameCoordinates,Original*%
%TF.FileFunction,Copper,L2,Bot*%
%TF.FilePolarity,Positive*%
%FSLAX46Y46*%
G04 Gerber Fmt 4.6, Leading zero omitted, Abs format (unit mm)*
G04 Created by KiCad (PCBNEW 5.1.9-73d0e3b20d~88~ubuntu20.04.1) date 2021-04-13 12:06:45*
%MOMM*%
%LPD*%
G01*
G04 APERTURE LIST*
%TA.AperFunction,ComponentPad*%
%ADD10C,1.500000*%
%TD*%
%TA.AperFunction,ComponentPad*%
%ADD11R,1.500000X1.500000*%
%TD*%
%TA.AperFunction,ComponentPad*%
%ADD12C,3.800000*%
%TD*%
%TA.AperFunction,ViaPad*%
%ADD13C,0.800000*%
%TD*%
%TA.AperFunction,Conductor*%
%ADD14C,0.250000*%
%TD*%
%TA.AperFunction,Conductor*%
%ADD15C,0.254000*%
%TD*%
%TA.AperFunction,Conductor*%
%ADD16C,0.100000*%
%TD*%
G04 APERTURE END LIST*
D10*
%TO.P,X1,1*%
%TO.N,Net-(D1-Pad2)*%
X105000000Y-134500000D03*
%TO.P,X1,2*%
%TO.N,GND*%
X105000000Y-129600000D03*
%TD*%
D11*
%TO.P,J1,1*%
%TO.N,Net-(C4-Pad1)*%
X142500000Y-130500000D03*
D10*
%TO.P,J1,2*%
%TO.N,GND*%
X139960000Y-131520000D03*
%TO.P,J1,3*%
%TO.N,Net-(C6-Pad1)*%
X142500000Y-132540000D03*
%TO.P,J1,4*%
%TO.N,VCC*%
X139960000Y-133560000D03*
%TD*%
D12*
%TO.P,J2,1*%
%TO.N,GND*%
X145500000Y-121500000D03*
%TD*%
%TO.P,J3,1*%
%TO.N,GND*%
X145500000Y-145000000D03*
%TD*%
%TO.P,J4,1*%
%TO.N,GND*%
X102500000Y-121500000D03*
%TD*%
%TO.P,J5,1*%
%TO.N,GND*%
X102000000Y-145500000D03*
%TD*%
D13*
%TO.N,GND*%
X117000000Y-139500000D03*
X109500000Y-140500000D03*
X123000000Y-135500000D03*
X132000000Y-141500000D03*
X130500000Y-137000000D03*
X116000000Y-127000000D03*
X129500000Y-124500000D03*
%TO.N,VCC*%
X120887100Y-132617500D03*
X129095500Y-131365000D03*
%TO.N,Net-(R5-Pad1)*%
X123000000Y-137906400D03*
X121231500Y-129205200D03*
%TD*%
D14*
%TO.N,GND*%
X145500000Y-121500000D02*
X139960000Y-127040000D01*
X139960000Y-127040000D02*
X139960000Y-131520000D01*
X145500000Y-145000000D02*
X141424600Y-140924600D01*
X141424600Y-140924600D02*
X141424600Y-132984600D01*
X141424600Y-132984600D02*
X139960000Y-131520000D01*
%TO.N,VCC*%
X129095500Y-131365000D02*
X122139600Y-131365000D01*
X122139600Y-131365000D02*
X120887100Y-132617500D01*
X139960000Y-133560000D02*
X131290500Y-133560000D01*
X131290500Y-133560000D02*
X129095500Y-131365000D01*
%TO.N,Net-(R5-Pad1)*%
X123000000Y-137906400D02*
X120161700Y-135068100D01*
X120161700Y-135068100D02*
X120161700Y-130275000D01*
X120161700Y-130275000D02*
X121231500Y-129205200D01*
%TD*%
D15*
%TO.N,GND*%
X148815000Y-123533646D02*
X148815001Y-123533656D01*
X148815000Y-148815000D01*
X98685000Y-148815000D01*
X98685000Y-147276349D01*
X100403256Y-147276349D01*
X100607362Y-147632867D01*
X101050223Y-147863575D01*
X101529583Y-148003452D01*
X102027021Y-148047123D01*
X102523422Y-147992909D01*
X102999707Y-147842894D01*
X103392638Y-147632867D01*
X103596744Y-147276349D01*
X102000000Y-145679605D01*
X100403256Y-147276349D01*
X98685000Y-147276349D01*
X98685000Y-145527021D01*
X99452877Y-145527021D01*
X99507091Y-146023422D01*
X99657106Y-146499707D01*
X99867133Y-146892638D01*
X100223651Y-147096744D01*
X101820395Y-145500000D01*
X102179605Y-145500000D01*
X103776349Y-147096744D01*
X104132867Y-146892638D01*
X104193447Y-146776349D01*
X143903256Y-146776349D01*
X144107362Y-147132867D01*
X144550223Y-147363575D01*
X145029583Y-147503452D01*
X145527021Y-147547123D01*
X146023422Y-147492909D01*
X146499707Y-147342894D01*
X146892638Y-147132867D01*
X147096744Y-146776349D01*
X145500000Y-145179605D01*
X143903256Y-146776349D01*
X104193447Y-146776349D01*
X104363575Y-146449777D01*
X104503452Y-145970417D01*
X104547123Y-145472979D01*
X104498419Y-145027021D01*
X142952877Y-145027021D01*
X143007091Y-145523422D01*
X143157106Y-145999707D01*
X143367133Y-146392638D01*
X143723651Y-146596744D01*
X145320395Y-145000000D01*
X145679605Y-145000000D01*
X147276349Y-146596744D01*
X147632867Y-146392638D01*
X147863575Y-145949777D01*
X148003452Y-145470417D01*
X148047123Y-144972979D01*
X147992909Y-144476578D01*
X147842894Y-144000293D01*
X147632867Y-143607362D01*
X147276349Y-143403256D01*
X145679605Y-145000000D01*
X145320395Y-145000000D01*
X143723651Y-143403256D01*
X143367133Y-143607362D01*
X143136425Y-144050223D01*
X142996548Y-144529583D01*
X142952877Y-145027021D01*
X104498419Y-145027021D01*
X104492909Y-144976578D01*
X104342894Y-144500293D01*
X104132867Y-144107362D01*
X103776349Y-143903256D01*
X102179605Y-145500000D01*
X101820395Y-145500000D01*
X100223651Y-143903256D01*
X99867133Y-144107362D01*
X99636425Y-144550223D01*
X99496548Y-145029583D01*
X99452877Y-145527021D01*
X98685000Y-145527021D01*
X98685000Y-143723651D01*
X100403256Y-143723651D01*
X102000000Y-145320395D01*
X103596744Y-143723651D01*
X103392638Y-143367133D01*
X103117214Y-143223651D01*
X143903256Y-143223651D01*
X145500000Y-144820395D01*
X147096744Y-143223651D01*
X146892638Y-142867133D01*
X146449777Y-142636425D01*
X145970417Y-142496548D01*
X145472979Y-142452877D01*
X144976578Y-142507091D01*
X144500293Y-142657106D01*
X144107362Y-142867133D01*
X143903256Y-143223651D01*
X103117214Y-143223651D01*
X102949777Y-143136425D01*
X102470417Y-142996548D01*
X101972979Y-142952877D01*
X101476578Y-143007091D01*
X101000293Y-143157106D01*
X100607362Y-143367133D01*
X100403256Y-143723651D01*
X98685000Y-143723651D01*
X98685000Y-134363589D01*
X103615000Y-134363589D01*
X103615000Y-134636411D01*
X103668225Y-134903989D01*
X103772629Y-135156043D01*
X103924201Y-135382886D01*
X104117114Y-135575799D01*
X104343957Y-135727371D01*
X104596011Y-135831775D01*
X104863589Y-135885000D01*
X105136411Y-135885000D01*
X105403989Y-135831775D01*
X105656043Y-135727371D01*
X105882886Y-135575799D01*
X106075799Y-135382886D01*
X106227371Y-135156043D01*
X106331775Y-134903989D01*
X106385000Y-134636411D01*
X106385000Y-134363589D01*
X106331775Y-134096011D01*
X106227371Y-133843957D01*
X106075799Y-133617114D01*
X105882886Y-133424201D01*
X105656043Y-133272629D01*
X105403989Y-133168225D01*
X105136411Y-133115000D01*
X104863589Y-133115000D01*
X104596011Y-133168225D01*
X104343957Y-133272629D01*
X104117114Y-133424201D01*
X103924201Y-133617114D01*
X103772629Y-133843957D01*
X103668225Y-134096011D01*
X103615000Y-134363589D01*
X98685000Y-134363589D01*
X98685000Y-130556993D01*
X104222612Y-130556993D01*
X104288137Y-130795860D01*
X104535116Y-130911760D01*
X104799960Y-130977250D01*
X105072492Y-130989812D01*
X105342238Y-130948965D01*
X105598832Y-130856277D01*
X105711863Y-130795860D01*
X105777388Y-130556993D01*
X105000000Y-129779605D01*
X104222612Y-130556993D01*
X98685000Y-130556993D01*
X98685000Y-129672492D01*
X103610188Y-129672492D01*
X103651035Y-129942238D01*
X103743723Y-130198832D01*
X103804140Y-130311863D01*
X104043007Y-130377388D01*
X104820395Y-129600000D01*
X105179605Y-129600000D01*
X105956993Y-130377388D01*
X106195860Y-130311863D01*
X106213158Y-130275000D01*
X119398024Y-130275000D01*
X119401701Y-130312332D01*
X119401700Y-135030777D01*
X119398024Y-135068100D01*
X119401700Y-135105422D01*
X119401700Y-135105432D01*
X119412697Y-135217085D01*
X119456154Y-135360346D01*
X119526726Y-135492376D01*
X119566571Y-135540926D01*
X119621699Y-135608101D01*
X119650703Y-135631904D01*
X121965000Y-137946202D01*
X121965000Y-138008339D01*
X122004774Y-138208298D01*
X122082795Y-138396656D01*
X122196063Y-138566174D01*
X122340226Y-138710337D01*
X122509744Y-138823605D01*
X122698102Y-138901626D01*
X122898061Y-138941400D01*
X123101939Y-138941400D01*
X123301898Y-138901626D01*
X123490256Y-138823605D01*
X123659774Y-138710337D01*
X123803937Y-138566174D01*
X123917205Y-138396656D01*
X123995226Y-138208298D01*
X124035000Y-138008339D01*
X124035000Y-137854193D01*
X143015000Y-137854193D01*
X143015000Y-138205807D01*
X143083596Y-138550665D01*
X143218153Y-138875515D01*
X143413500Y-139167871D01*
X143662129Y-139416500D01*
X143954485Y-139611847D01*
X144279335Y-139746404D01*
X144624193Y-139815000D01*
X144975807Y-139815000D01*
X145320665Y-139746404D01*
X145645515Y-139611847D01*
X145937871Y-139416500D01*
X146186500Y-139167871D01*
X146381847Y-138875515D01*
X146516404Y-138550665D01*
X146585000Y-138205807D01*
X146585000Y-137854193D01*
X146516404Y-137509335D01*
X146381847Y-137184485D01*
X146186500Y-136892129D01*
X145937871Y-136643500D01*
X145645515Y-136448153D01*
X145320665Y-136313596D01*
X144975807Y-136245000D01*
X144624193Y-136245000D01*
X144279335Y-136313596D01*
X143954485Y-136448153D01*
X143662129Y-136643500D01*
X143413500Y-136892129D01*
X143218153Y-137184485D01*
X143083596Y-137509335D01*
X143015000Y-137854193D01*
X124035000Y-137854193D01*
X124035000Y-137804461D01*
X123995226Y-137604502D01*
X123917205Y-137416144D01*
X123803937Y-137246626D01*
X123659774Y-137102463D01*
X123490256Y-136989195D01*
X123301898Y-136911174D01*
X123101939Y-136871400D01*
X123039802Y-136871400D01*
X120921700Y-134753299D01*
X120921700Y-133652500D01*
X120989039Y-133652500D01*
X121188998Y-133612726D01*
X121377356Y-133534705D01*
X121546874Y-133421437D01*
X121691037Y-133277274D01*
X121804305Y-133107756D01*
X121882326Y-132919398D01*
X121922100Y-132719439D01*
X121922100Y-132657302D01*
X122454403Y-132125000D01*
X128391789Y-132125000D01*
X128435726Y-132168937D01*
X128605244Y-132282205D01*
X128793602Y-132360226D01*
X128993561Y-132400000D01*
X129055699Y-132400000D01*
X130726701Y-134071003D01*
X130750499Y-134100001D01*
X130866224Y-134194974D01*
X130998253Y-134265546D01*
X131141514Y-134309003D01*
X131253167Y-134320000D01*
X131253175Y-134320000D01*
X131290500Y-134323676D01*
X131327825Y-134320000D01*
X138802091Y-134320000D01*
X138884201Y-134442886D01*
X139077114Y-134635799D01*
X139303957Y-134787371D01*
X139556011Y-134891775D01*
X139823589Y-134945000D01*
X140096411Y-134945000D01*
X140363989Y-134891775D01*
X140616043Y-134787371D01*
X140842886Y-134635799D01*
X141035799Y-134442886D01*
X141187371Y-134216043D01*
X141291775Y-133963989D01*
X141345000Y-133696411D01*
X141345000Y-133423589D01*
X141311229Y-133253812D01*
X141424201Y-133422886D01*
X141617114Y-133615799D01*
X141843957Y-133767371D01*
X142096011Y-133871775D01*
X142363589Y-133925000D01*
X142636411Y-133925000D01*
X142903989Y-133871775D01*
X143156043Y-133767371D01*
X143382886Y-133615799D01*
X143575799Y-133422886D01*
X143727371Y-133196043D01*
X143831775Y-132943989D01*
X143885000Y-132676411D01*
X143885000Y-132403589D01*
X143831775Y-132136011D01*
X143727371Y-131883957D01*
X143639224Y-131752035D01*
X143701185Y-131701185D01*
X143780537Y-131604494D01*
X143839502Y-131494180D01*
X143875812Y-131374482D01*
X143888072Y-131250000D01*
X143888072Y-129750000D01*
X143875812Y-129625518D01*
X143839502Y-129505820D01*
X143780537Y-129395506D01*
X143701185Y-129298815D01*
X143604494Y-129219463D01*
X143494180Y-129160498D01*
X143374482Y-129124188D01*
X143250000Y-129111928D01*
X141750000Y-129111928D01*
X141625518Y-129124188D01*
X141505820Y-129160498D01*
X141395506Y-129219463D01*
X141298815Y-129298815D01*
X141219463Y-129395506D01*
X141160498Y-129505820D01*
X141124188Y-129625518D01*
X141111928Y-129750000D01*
X141111928Y-130796086D01*
X140916993Y-130742612D01*
X140139605Y-131520000D01*
X140916993Y-132297388D01*
X141148772Y-132233807D01*
X141115000Y-132403589D01*
X141115000Y-132676411D01*
X141148771Y-132846188D01*
X141035799Y-132677114D01*
X140842886Y-132484201D01*
X140616043Y-132332629D01*
X140576747Y-132316352D01*
X139960000Y-131699605D01*
X139343253Y-132316352D01*
X139303957Y-132332629D01*
X139077114Y-132484201D01*
X138884201Y-132677114D01*
X138802091Y-132800000D01*
X131605302Y-132800000D01*
X130397794Y-131592492D01*
X138570188Y-131592492D01*
X138611035Y-131862238D01*
X138703723Y-132118832D01*
X138764140Y-132231863D01*
X139003007Y-132297388D01*
X139780395Y-131520000D01*
X139003007Y-130742612D01*
X138764140Y-130808137D01*
X138648240Y-131055116D01*
X138582750Y-131319960D01*
X138570188Y-131592492D01*
X130397794Y-131592492D01*
X130130500Y-131325199D01*
X130130500Y-131263061D01*
X130090726Y-131063102D01*
X130012705Y-130874744D01*
X129899437Y-130705226D01*
X129757218Y-130563007D01*
X139182612Y-130563007D01*
X139960000Y-131340395D01*
X140737388Y-130563007D01*
X140671863Y-130324140D01*
X140424884Y-130208240D01*
X140160040Y-130142750D01*
X139887508Y-130130188D01*
X139617762Y-130171035D01*
X139361168Y-130263723D01*
X139248137Y-130324140D01*
X139182612Y-130563007D01*
X129757218Y-130563007D01*
X129755274Y-130561063D01*
X129585756Y-130447795D01*
X129397398Y-130369774D01*
X129197439Y-130330000D01*
X128993561Y-130330000D01*
X128793602Y-130369774D01*
X128605244Y-130447795D01*
X128435726Y-130561063D01*
X128391789Y-130605000D01*
X122176922Y-130605000D01*
X122139599Y-130601324D01*
X122102276Y-130605000D01*
X122102267Y-130605000D01*
X121990614Y-130615997D01*
X121847353Y-130659454D01*
X121715324Y-130730026D01*
X121715322Y-130730027D01*
X121715323Y-130730027D01*
X121628596Y-130801201D01*
X121628592Y-130801205D01*
X121599599Y-130824999D01*
X121575805Y-130853992D01*
X120921700Y-131508098D01*
X120921700Y-130589801D01*
X121271302Y-130240200D01*
X121333439Y-130240200D01*
X121533398Y-130200426D01*
X121721756Y-130122405D01*
X121891274Y-130009137D01*
X122035437Y-129864974D01*
X122148705Y-129695456D01*
X122226726Y-129507098D01*
X122266500Y-129307139D01*
X122266500Y-129103261D01*
X122226726Y-128903302D01*
X122148705Y-128714944D01*
X122035437Y-128545426D01*
X121891274Y-128401263D01*
X121721756Y-128287995D01*
X121533398Y-128209974D01*
X121333439Y-128170200D01*
X121129561Y-128170200D01*
X120929602Y-128209974D01*
X120741244Y-128287995D01*
X120571726Y-128401263D01*
X120427563Y-128545426D01*
X120314295Y-128714944D01*
X120236274Y-128903302D01*
X120196500Y-129103261D01*
X120196500Y-129165398D01*
X119650698Y-129711201D01*
X119621700Y-129734999D01*
X119597902Y-129763997D01*
X119597901Y-129763998D01*
X119526726Y-129850724D01*
X119456154Y-129982754D01*
X119412698Y-130126015D01*
X119398024Y-130275000D01*
X106213158Y-130275000D01*
X106311760Y-130064884D01*
X106377250Y-129800040D01*
X106389812Y-129527508D01*
X106348965Y-129257762D01*
X106256277Y-129001168D01*
X106195860Y-128888137D01*
X105956993Y-128822612D01*
X105179605Y-129600000D01*
X104820395Y-129600000D01*
X104043007Y-128822612D01*
X103804140Y-128888137D01*
X103688240Y-129135116D01*
X103622750Y-129399960D01*
X103610188Y-129672492D01*
X98685000Y-129672492D01*
X98685000Y-128643007D01*
X104222612Y-128643007D01*
X105000000Y-129420395D01*
X105777388Y-128643007D01*
X105711863Y-128404140D01*
X105464884Y-128288240D01*
X105200040Y-128222750D01*
X104927508Y-128210188D01*
X104657762Y-128251035D01*
X104401168Y-128343723D01*
X104288137Y-128404140D01*
X104222612Y-128643007D01*
X98685000Y-128643007D01*
X98685000Y-125854193D01*
X143015000Y-125854193D01*
X143015000Y-126205807D01*
X143083596Y-126550665D01*
X143218153Y-126875515D01*
X143413500Y-127167871D01*
X143662129Y-127416500D01*
X143954485Y-127611847D01*
X144279335Y-127746404D01*
X144624193Y-127815000D01*
X144975807Y-127815000D01*
X145320665Y-127746404D01*
X145645515Y-127611847D01*
X145937871Y-127416500D01*
X146186500Y-127167871D01*
X146381847Y-126875515D01*
X146516404Y-126550665D01*
X146585000Y-126205807D01*
X146585000Y-125854193D01*
X146516404Y-125509335D01*
X146381847Y-125184485D01*
X146186500Y-124892129D01*
X145937871Y-124643500D01*
X145645515Y-124448153D01*
X145320665Y-124313596D01*
X144975807Y-124245000D01*
X144624193Y-124245000D01*
X144279335Y-124313596D01*
X143954485Y-124448153D01*
X143662129Y-124643500D01*
X143413500Y-124892129D01*
X143218153Y-125184485D01*
X143083596Y-125509335D01*
X143015000Y-125854193D01*
X98685000Y-125854193D01*
X98685000Y-123276349D01*
X100903256Y-123276349D01*
X101107362Y-123632867D01*
X101550223Y-123863575D01*
X102029583Y-124003452D01*
X102527021Y-124047123D01*
X103023422Y-123992909D01*
X103499707Y-123842894D01*
X103892638Y-123632867D01*
X104096744Y-123276349D01*
X143903256Y-123276349D01*
X144107362Y-123632867D01*
X144550223Y-123863575D01*
X145029583Y-124003452D01*
X145527021Y-124047123D01*
X146023422Y-123992909D01*
X146499707Y-123842894D01*
X146892638Y-123632867D01*
X147096744Y-123276349D01*
X145500000Y-121679605D01*
X143903256Y-123276349D01*
X104096744Y-123276349D01*
X102500000Y-121679605D01*
X100903256Y-123276349D01*
X98685000Y-123276349D01*
X98685000Y-121527021D01*
X99952877Y-121527021D01*
X100007091Y-122023422D01*
X100157106Y-122499707D01*
X100367133Y-122892638D01*
X100723651Y-123096744D01*
X102320395Y-121500000D01*
X102679605Y-121500000D01*
X104276349Y-123096744D01*
X104632867Y-122892638D01*
X104863575Y-122449777D01*
X105003452Y-121970417D01*
X105042378Y-121527021D01*
X142952877Y-121527021D01*
X143007091Y-122023422D01*
X143157106Y-122499707D01*
X143367133Y-122892638D01*
X143723651Y-123096744D01*
X145320395Y-121500000D01*
X145679605Y-121500000D01*
X147276349Y-123096744D01*
X147632867Y-122892638D01*
X147863575Y-122449777D01*
X148003452Y-121970417D01*
X148047123Y-121472979D01*
X147992909Y-120976578D01*
X147842894Y-120500293D01*
X147632867Y-120107362D01*
X147276349Y-119903256D01*
X145679605Y-121500000D01*
X145320395Y-121500000D01*
X143723651Y-119903256D01*
X143367133Y-120107362D01*
X143136425Y-120550223D01*
X142996548Y-121029583D01*
X142952877Y-121527021D01*
X105042378Y-121527021D01*
X105047123Y-121472979D01*
X104992909Y-120976578D01*
X104842894Y-120500293D01*
X104632867Y-120107362D01*
X104276349Y-119903256D01*
X102679605Y-121500000D01*
X102320395Y-121500000D01*
X100723651Y-119903256D01*
X100367133Y-120107362D01*
X100136425Y-120550223D01*
X99996548Y-121029583D01*
X99952877Y-121527021D01*
X98685000Y-121527021D01*
X98685000Y-119723651D01*
X100903256Y-119723651D01*
X102500000Y-121320395D01*
X104096744Y-119723651D01*
X143903256Y-119723651D01*
X145500000Y-121320395D01*
X147096744Y-119723651D01*
X146892638Y-119367133D01*
X146449777Y-119136425D01*
X145970417Y-118996548D01*
X145472979Y-118952877D01*
X144976578Y-119007091D01*
X144500293Y-119157106D01*
X144107362Y-119367133D01*
X143903256Y-119723651D01*
X104096744Y-119723651D01*
X103892638Y-119367133D01*
X103449777Y-119136425D01*
X102970417Y-118996548D01*
X102472979Y-118952877D01*
X101976578Y-119007091D01*
X101500293Y-119157106D01*
X101107362Y-119367133D01*
X100903256Y-119723651D01*
X98685000Y-119723651D01*
X98685000Y-118185000D01*
X148815001Y-118185000D01*
X148815000Y-123533646D01*
%TA.AperFunction,Conductor*%
D16*
G36*
X148815000Y-123533646D02*
G01*
X148815001Y-123533656D01*
X148815000Y-148815000D01*
X98685000Y-148815000D01*
X98685000Y-147276349D01*
X100403256Y-147276349D01*
X100607362Y-147632867D01*
X101050223Y-147863575D01*
X101529583Y-148003452D01*
X102027021Y-148047123D01*
X102523422Y-147992909D01*
X102999707Y-147842894D01*
X103392638Y-147632867D01*
X103596744Y-147276349D01*
X102000000Y-145679605D01*
X100403256Y-147276349D01*
X98685000Y-147276349D01*
X98685000Y-145527021D01*
X99452877Y-145527021D01*
X99507091Y-146023422D01*
X99657106Y-146499707D01*
X99867133Y-146892638D01*
X100223651Y-147096744D01*
X101820395Y-145500000D01*
X102179605Y-145500000D01*
X103776349Y-147096744D01*
X104132867Y-146892638D01*
X104193447Y-146776349D01*
X143903256Y-146776349D01*
X144107362Y-147132867D01*
X144550223Y-147363575D01*
X145029583Y-147503452D01*
X145527021Y-147547123D01*
X146023422Y-147492909D01*
X146499707Y-147342894D01*
X146892638Y-147132867D01*
X147096744Y-146776349D01*
X145500000Y-145179605D01*
X143903256Y-146776349D01*
X104193447Y-146776349D01*
X104363575Y-146449777D01*
X104503452Y-145970417D01*
X104547123Y-145472979D01*
X104498419Y-145027021D01*
X142952877Y-145027021D01*
X143007091Y-145523422D01*
X143157106Y-145999707D01*
X143367133Y-146392638D01*
X143723651Y-146596744D01*
X145320395Y-145000000D01*
X145679605Y-145000000D01*
X147276349Y-146596744D01*
X147632867Y-146392638D01*
X147863575Y-145949777D01*
X148003452Y-145470417D01*
X148047123Y-144972979D01*
X147992909Y-144476578D01*
X147842894Y-144000293D01*
X147632867Y-143607362D01*
X147276349Y-143403256D01*
X145679605Y-145000000D01*
X145320395Y-145000000D01*
X143723651Y-143403256D01*
X143367133Y-143607362D01*
X143136425Y-144050223D01*
X142996548Y-144529583D01*
X142952877Y-145027021D01*
X104498419Y-145027021D01*
X104492909Y-144976578D01*
X104342894Y-144500293D01*
X104132867Y-144107362D01*
X103776349Y-143903256D01*
X102179605Y-145500000D01*
X101820395Y-145500000D01*
X100223651Y-143903256D01*
X99867133Y-144107362D01*
X99636425Y-144550223D01*
X99496548Y-145029583D01*
X99452877Y-145527021D01*
X98685000Y-145527021D01*
X98685000Y-143723651D01*
X100403256Y-143723651D01*
X102000000Y-145320395D01*
X103596744Y-143723651D01*
X103392638Y-143367133D01*
X103117214Y-143223651D01*
X143903256Y-143223651D01*
X145500000Y-144820395D01*
X147096744Y-143223651D01*
X146892638Y-142867133D01*
X146449777Y-142636425D01*
X145970417Y-142496548D01*
X145472979Y-142452877D01*
X144976578Y-142507091D01*
X144500293Y-142657106D01*
X144107362Y-142867133D01*
X143903256Y-143223651D01*
X103117214Y-143223651D01*
X102949777Y-143136425D01*
X102470417Y-142996548D01*
X101972979Y-142952877D01*
X101476578Y-143007091D01*
X101000293Y-143157106D01*
X100607362Y-143367133D01*
X100403256Y-143723651D01*
X98685000Y-143723651D01*
X98685000Y-134363589D01*
X103615000Y-134363589D01*
X103615000Y-134636411D01*
X103668225Y-134903989D01*
X103772629Y-135156043D01*
X103924201Y-135382886D01*
X104117114Y-135575799D01*
X104343957Y-135727371D01*
X104596011Y-135831775D01*
X104863589Y-135885000D01*
X105136411Y-135885000D01*
X105403989Y-135831775D01*
X105656043Y-135727371D01*
X105882886Y-135575799D01*
X106075799Y-135382886D01*
X106227371Y-135156043D01*
X106331775Y-134903989D01*
X106385000Y-134636411D01*
X106385000Y-134363589D01*
X106331775Y-134096011D01*
X106227371Y-133843957D01*
X106075799Y-133617114D01*
X105882886Y-133424201D01*
X105656043Y-133272629D01*
X105403989Y-133168225D01*
X105136411Y-133115000D01*
X104863589Y-133115000D01*
X104596011Y-133168225D01*
X104343957Y-133272629D01*
X104117114Y-133424201D01*
X103924201Y-133617114D01*
X103772629Y-133843957D01*
X103668225Y-134096011D01*
X103615000Y-134363589D01*
X98685000Y-134363589D01*
X98685000Y-130556993D01*
X104222612Y-130556993D01*
X104288137Y-130795860D01*
X104535116Y-130911760D01*
X104799960Y-130977250D01*
X105072492Y-130989812D01*
X105342238Y-130948965D01*
X105598832Y-130856277D01*
X105711863Y-130795860D01*
X105777388Y-130556993D01*
X105000000Y-129779605D01*
X104222612Y-130556993D01*
X98685000Y-130556993D01*
X98685000Y-129672492D01*
X103610188Y-129672492D01*
X103651035Y-129942238D01*
X103743723Y-130198832D01*
X103804140Y-130311863D01*
X104043007Y-130377388D01*
X104820395Y-129600000D01*
X105179605Y-129600000D01*
X105956993Y-130377388D01*
X106195860Y-130311863D01*
X106213158Y-130275000D01*
X119398024Y-130275000D01*
X119401701Y-130312332D01*
X119401700Y-135030777D01*
X119398024Y-135068100D01*
X119401700Y-135105422D01*
X119401700Y-135105432D01*
X119412697Y-135217085D01*
X119456154Y-135360346D01*
X119526726Y-135492376D01*
X119566571Y-135540926D01*
X119621699Y-135608101D01*
X119650703Y-135631904D01*
X121965000Y-137946202D01*
X121965000Y-138008339D01*
X122004774Y-138208298D01*
X122082795Y-138396656D01*
X122196063Y-138566174D01*
X122340226Y-138710337D01*
X122509744Y-138823605D01*
X122698102Y-138901626D01*
X122898061Y-138941400D01*
X123101939Y-138941400D01*
X123301898Y-138901626D01*
X123490256Y-138823605D01*
X123659774Y-138710337D01*
X123803937Y-138566174D01*
X123917205Y-138396656D01*
X123995226Y-138208298D01*
X124035000Y-138008339D01*
X124035000Y-137854193D01*
X143015000Y-137854193D01*
X143015000Y-138205807D01*
X143083596Y-138550665D01*
X143218153Y-138875515D01*
X143413500Y-139167871D01*
X143662129Y-139416500D01*
X143954485Y-139611847D01*
X144279335Y-139746404D01*
X144624193Y-139815000D01*
X144975807Y-139815000D01*
X145320665Y-139746404D01*
X145645515Y-139611847D01*
X145937871Y-139416500D01*
X146186500Y-139167871D01*
X146381847Y-138875515D01*
X146516404Y-138550665D01*
X146585000Y-138205807D01*
X146585000Y-137854193D01*
X146516404Y-137509335D01*
X146381847Y-137184485D01*
X146186500Y-136892129D01*
X145937871Y-136643500D01*
X145645515Y-136448153D01*
X145320665Y-136313596D01*
X144975807Y-136245000D01*
X144624193Y-136245000D01*
X144279335Y-136313596D01*
X143954485Y-136448153D01*
X143662129Y-136643500D01*
X143413500Y-136892129D01*
X143218153Y-137184485D01*
X143083596Y-137509335D01*
X143015000Y-137854193D01*
X124035000Y-137854193D01*
X124035000Y-137804461D01*
X123995226Y-137604502D01*
X123917205Y-137416144D01*
X123803937Y-137246626D01*
X123659774Y-137102463D01*
X123490256Y-136989195D01*
X123301898Y-136911174D01*
X123101939Y-136871400D01*
X123039802Y-136871400D01*
X120921700Y-134753299D01*
X120921700Y-133652500D01*
X120989039Y-133652500D01*
X121188998Y-133612726D01*
X121377356Y-133534705D01*
X121546874Y-133421437D01*
X121691037Y-133277274D01*
X121804305Y-133107756D01*
X121882326Y-132919398D01*
X121922100Y-132719439D01*
X121922100Y-132657302D01*
X122454403Y-132125000D01*
X128391789Y-132125000D01*
X128435726Y-132168937D01*
X128605244Y-132282205D01*
X128793602Y-132360226D01*
X128993561Y-132400000D01*
X129055699Y-132400000D01*
X130726701Y-134071003D01*
X130750499Y-134100001D01*
X130866224Y-134194974D01*
X130998253Y-134265546D01*
X131141514Y-134309003D01*
X131253167Y-134320000D01*
X131253175Y-134320000D01*
X131290500Y-134323676D01*
X131327825Y-134320000D01*
X138802091Y-134320000D01*
X138884201Y-134442886D01*
X139077114Y-134635799D01*
X139303957Y-134787371D01*
X139556011Y-134891775D01*
X139823589Y-134945000D01*
X140096411Y-134945000D01*
X140363989Y-134891775D01*
X140616043Y-134787371D01*
X140842886Y-134635799D01*
X141035799Y-134442886D01*
X141187371Y-134216043D01*
X141291775Y-133963989D01*
X141345000Y-133696411D01*
X141345000Y-133423589D01*
X141311229Y-133253812D01*
X141424201Y-133422886D01*
X141617114Y-133615799D01*
X141843957Y-133767371D01*
X142096011Y-133871775D01*
X142363589Y-133925000D01*
X142636411Y-133925000D01*
X142903989Y-133871775D01*
X143156043Y-133767371D01*
X143382886Y-133615799D01*
X143575799Y-133422886D01*
X143727371Y-133196043D01*
X143831775Y-132943989D01*
X143885000Y-132676411D01*
X143885000Y-132403589D01*
X143831775Y-132136011D01*
X143727371Y-131883957D01*
X143639224Y-131752035D01*
X143701185Y-131701185D01*
X143780537Y-131604494D01*
X143839502Y-131494180D01*
X143875812Y-131374482D01*
X143888072Y-131250000D01*
X143888072Y-129750000D01*
X143875812Y-129625518D01*
X143839502Y-129505820D01*
X143780537Y-129395506D01*
X143701185Y-129298815D01*
X143604494Y-129219463D01*
X143494180Y-129160498D01*
X143374482Y-129124188D01*
X143250000Y-129111928D01*
X141750000Y-129111928D01*
X141625518Y-129124188D01*
X141505820Y-129160498D01*
X141395506Y-129219463D01*
X141298815Y-129298815D01*
X141219463Y-129395506D01*
X141160498Y-129505820D01*
X141124188Y-129625518D01*
X141111928Y-129750000D01*
X141111928Y-130796086D01*
X140916993Y-130742612D01*
X140139605Y-131520000D01*
X140916993Y-132297388D01*
X141148772Y-132233807D01*
X141115000Y-132403589D01*
X141115000Y-132676411D01*
X141148771Y-132846188D01*
X141035799Y-132677114D01*
X140842886Y-132484201D01*
X140616043Y-132332629D01*
X140576747Y-132316352D01*
X139960000Y-131699605D01*
X139343253Y-132316352D01*
X139303957Y-132332629D01*
X139077114Y-132484201D01*
X138884201Y-132677114D01*
X138802091Y-132800000D01*
X131605302Y-132800000D01*
X130397794Y-131592492D01*
X138570188Y-131592492D01*
X138611035Y-131862238D01*
X138703723Y-132118832D01*
X138764140Y-132231863D01*
X139003007Y-132297388D01*
X139780395Y-131520000D01*
X139003007Y-130742612D01*
X138764140Y-130808137D01*
X138648240Y-131055116D01*
X138582750Y-131319960D01*
X138570188Y-131592492D01*
X130397794Y-131592492D01*
X130130500Y-131325199D01*
X130130500Y-131263061D01*
X130090726Y-131063102D01*
X130012705Y-130874744D01*
X129899437Y-130705226D01*
X129757218Y-130563007D01*
X139182612Y-130563007D01*
X139960000Y-131340395D01*
X140737388Y-130563007D01*
X140671863Y-130324140D01*
X140424884Y-130208240D01*
X140160040Y-130142750D01*
X139887508Y-130130188D01*
X139617762Y-130171035D01*
X139361168Y-130263723D01*
X139248137Y-130324140D01*
X139182612Y-130563007D01*
X129757218Y-130563007D01*
X129755274Y-130561063D01*
X129585756Y-130447795D01*
X129397398Y-130369774D01*
X129197439Y-130330000D01*
X128993561Y-130330000D01*
X128793602Y-130369774D01*
X128605244Y-130447795D01*
X128435726Y-130561063D01*
X128391789Y-130605000D01*
X122176922Y-130605000D01*
X122139599Y-130601324D01*
X122102276Y-130605000D01*
X122102267Y-130605000D01*
X121990614Y-130615997D01*
X121847353Y-130659454D01*
X121715324Y-130730026D01*
X121715322Y-130730027D01*
X121715323Y-130730027D01*
X121628596Y-130801201D01*
X121628592Y-130801205D01*
X121599599Y-130824999D01*
X121575805Y-130853992D01*
X120921700Y-131508098D01*
X120921700Y-130589801D01*
X121271302Y-130240200D01*
X121333439Y-130240200D01*
X121533398Y-130200426D01*
X121721756Y-130122405D01*
X121891274Y-130009137D01*
X122035437Y-129864974D01*
X122148705Y-129695456D01*
X122226726Y-129507098D01*
X122266500Y-129307139D01*
X122266500Y-129103261D01*
X122226726Y-128903302D01*
X122148705Y-128714944D01*
X122035437Y-128545426D01*
X121891274Y-128401263D01*
X121721756Y-128287995D01*
X121533398Y-128209974D01*
X121333439Y-128170200D01*
X121129561Y-128170200D01*
X120929602Y-128209974D01*
X120741244Y-128287995D01*
X120571726Y-128401263D01*
X120427563Y-128545426D01*
X120314295Y-128714944D01*
X120236274Y-128903302D01*
X120196500Y-129103261D01*
X120196500Y-129165398D01*
X119650698Y-129711201D01*
X119621700Y-129734999D01*
X119597902Y-129763997D01*
X119597901Y-129763998D01*
X119526726Y-129850724D01*
X119456154Y-129982754D01*
X119412698Y-130126015D01*
X119398024Y-130275000D01*
X106213158Y-130275000D01*
X106311760Y-130064884D01*
X106377250Y-129800040D01*
X106389812Y-129527508D01*
X106348965Y-129257762D01*
X106256277Y-129001168D01*
X106195860Y-128888137D01*
X105956993Y-128822612D01*
X105179605Y-129600000D01*
X104820395Y-129600000D01*
X104043007Y-128822612D01*
X103804140Y-128888137D01*
X103688240Y-129135116D01*
X103622750Y-129399960D01*
X103610188Y-129672492D01*
X98685000Y-129672492D01*
X98685000Y-128643007D01*
X104222612Y-128643007D01*
X105000000Y-129420395D01*
X105777388Y-128643007D01*
X105711863Y-128404140D01*
X105464884Y-128288240D01*
X105200040Y-128222750D01*
X104927508Y-128210188D01*
X104657762Y-128251035D01*
X104401168Y-128343723D01*
X104288137Y-128404140D01*
X104222612Y-128643007D01*
X98685000Y-128643007D01*
X98685000Y-125854193D01*
X143015000Y-125854193D01*
X143015000Y-126205807D01*
X143083596Y-126550665D01*
X143218153Y-126875515D01*
X143413500Y-127167871D01*
X143662129Y-127416500D01*
X143954485Y-127611847D01*
X144279335Y-127746404D01*
X144624193Y-127815000D01*
X144975807Y-127815000D01*
X145320665Y-127746404D01*
X145645515Y-127611847D01*
X145937871Y-127416500D01*
X146186500Y-127167871D01*
X146381847Y-126875515D01*
X146516404Y-126550665D01*
X146585000Y-126205807D01*
X146585000Y-125854193D01*
X146516404Y-125509335D01*
X146381847Y-125184485D01*
X146186500Y-124892129D01*
X145937871Y-124643500D01*
X145645515Y-124448153D01*
X145320665Y-124313596D01*
X144975807Y-124245000D01*
X144624193Y-124245000D01*
X144279335Y-124313596D01*
X143954485Y-124448153D01*
X143662129Y-124643500D01*
X143413500Y-124892129D01*
X143218153Y-125184485D01*
X143083596Y-125509335D01*
X143015000Y-125854193D01*
X98685000Y-125854193D01*
X98685000Y-123276349D01*
X100903256Y-123276349D01*
X101107362Y-123632867D01*
X101550223Y-123863575D01*
X102029583Y-124003452D01*
X102527021Y-124047123D01*
X103023422Y-123992909D01*
X103499707Y-123842894D01*
X103892638Y-123632867D01*
X104096744Y-123276349D01*
X143903256Y-123276349D01*
X144107362Y-123632867D01*
X144550223Y-123863575D01*
X145029583Y-124003452D01*
X145527021Y-124047123D01*
X146023422Y-123992909D01*
X146499707Y-123842894D01*
X146892638Y-123632867D01*
X147096744Y-123276349D01*
X145500000Y-121679605D01*
X143903256Y-123276349D01*
X104096744Y-123276349D01*
X102500000Y-121679605D01*
X100903256Y-123276349D01*
X98685000Y-123276349D01*
X98685000Y-121527021D01*
X99952877Y-121527021D01*
X100007091Y-122023422D01*
X100157106Y-122499707D01*
X100367133Y-122892638D01*
X100723651Y-123096744D01*
X102320395Y-121500000D01*
X102679605Y-121500000D01*
X104276349Y-123096744D01*
X104632867Y-122892638D01*
X104863575Y-122449777D01*
X105003452Y-121970417D01*
X105042378Y-121527021D01*
X142952877Y-121527021D01*
X143007091Y-122023422D01*
X143157106Y-122499707D01*
X143367133Y-122892638D01*
X143723651Y-123096744D01*
X145320395Y-121500000D01*
X145679605Y-121500000D01*
X147276349Y-123096744D01*
X147632867Y-122892638D01*
X147863575Y-122449777D01*
X148003452Y-121970417D01*
X148047123Y-121472979D01*
X147992909Y-120976578D01*
X147842894Y-120500293D01*
X147632867Y-120107362D01*
X147276349Y-119903256D01*
X145679605Y-121500000D01*
X145320395Y-121500000D01*
X143723651Y-119903256D01*
X143367133Y-120107362D01*
X143136425Y-120550223D01*
X142996548Y-121029583D01*
X142952877Y-121527021D01*
X105042378Y-121527021D01*
X105047123Y-121472979D01*
X104992909Y-120976578D01*
X104842894Y-120500293D01*
X104632867Y-120107362D01*
X104276349Y-119903256D01*
X102679605Y-121500000D01*
X102320395Y-121500000D01*
X100723651Y-119903256D01*
X100367133Y-120107362D01*
X100136425Y-120550223D01*
X99996548Y-121029583D01*
X99952877Y-121527021D01*
X98685000Y-121527021D01*
X98685000Y-119723651D01*
X100903256Y-119723651D01*
X102500000Y-121320395D01*
X104096744Y-119723651D01*
X143903256Y-119723651D01*
X145500000Y-121320395D01*
X147096744Y-119723651D01*
X146892638Y-119367133D01*
X146449777Y-119136425D01*
X145970417Y-118996548D01*
X145472979Y-118952877D01*
X144976578Y-119007091D01*
X144500293Y-119157106D01*
X144107362Y-119367133D01*
X143903256Y-119723651D01*
X104096744Y-119723651D01*
X103892638Y-119367133D01*
X103449777Y-119136425D01*
X102970417Y-118996548D01*
X102472979Y-118952877D01*
X101976578Y-119007091D01*
X101500293Y-119157106D01*
X101107362Y-119367133D01*
X100903256Y-119723651D01*
X98685000Y-119723651D01*
X98685000Y-118185000D01*
X148815001Y-118185000D01*
X148815000Y-123533646D01*
G37*
%TD.AperFunction*%
%TD*%
M02*
