%TF.GenerationSoftware,KiCad,Pcbnew,5.1.9-73d0e3b20d~88~ubuntu20.04.1*%
%TF.CreationDate,2021-04-13T11:53:52+02:00*%
%TF.ProjectId,piezo,7069657a-6f2e-46b6-9963-61645f706362,rev?*%
%TF.SameCoordinates,Original*%
%TF.FileFunction,Legend,Top*%
%TF.FilePolarity,Positive*%
%FSLAX46Y46*%
G04 Gerber Fmt 4.6, Leading zero omitted, Abs format (unit mm)*
G04 Created by KiCad (PCBNEW 5.1.9-73d0e3b20d~88~ubuntu20.04.1) date 2021-04-13 11:53:52*
%MOMM*%
%LPD*%
G01*
G04 APERTURE LIST*
%ADD10C,0.150000*%
%ADD11C,0.120000*%
G04 APERTURE END LIST*
D10*
X110000000Y-148666666D02*
X110476190Y-148666666D01*
X109904761Y-148952380D02*
X110238095Y-147952380D01*
X110571428Y-148952380D01*
X110904761Y-148952380D02*
X110904761Y-148285714D01*
X110904761Y-148380952D02*
X110952380Y-148333333D01*
X111047619Y-148285714D01*
X111190476Y-148285714D01*
X111285714Y-148333333D01*
X111333333Y-148428571D01*
X111333333Y-148952380D01*
X111333333Y-148428571D02*
X111380952Y-148333333D01*
X111476190Y-148285714D01*
X111619047Y-148285714D01*
X111714285Y-148333333D01*
X111761904Y-148428571D01*
X111761904Y-148952380D01*
X112238095Y-148285714D02*
X112238095Y-149285714D01*
X112238095Y-148333333D02*
X112333333Y-148285714D01*
X112523809Y-148285714D01*
X112619047Y-148333333D01*
X112666666Y-148380952D01*
X112714285Y-148476190D01*
X112714285Y-148761904D01*
X112666666Y-148857142D01*
X112619047Y-148904761D01*
X112523809Y-148952380D01*
X112333333Y-148952380D01*
X112238095Y-148904761D01*
X113285714Y-148952380D02*
X113190476Y-148904761D01*
X113142857Y-148809523D01*
X113142857Y-147952380D01*
X113666666Y-148952380D02*
X113666666Y-148285714D01*
X113666666Y-147952380D02*
X113619047Y-148000000D01*
X113666666Y-148047619D01*
X113714285Y-148000000D01*
X113666666Y-147952380D01*
X113666666Y-148047619D01*
X114000000Y-148285714D02*
X114380952Y-148285714D01*
X114142857Y-148952380D02*
X114142857Y-148095238D01*
X114190476Y-148000000D01*
X114285714Y-147952380D01*
X114380952Y-147952380D01*
X114714285Y-148952380D02*
X114714285Y-148285714D01*
X114714285Y-147952380D02*
X114666666Y-148000000D01*
X114714285Y-148047619D01*
X114761904Y-148000000D01*
X114714285Y-147952380D01*
X114714285Y-148047619D01*
X115571428Y-148904761D02*
X115476190Y-148952380D01*
X115285714Y-148952380D01*
X115190476Y-148904761D01*
X115142857Y-148809523D01*
X115142857Y-148428571D01*
X115190476Y-148333333D01*
X115285714Y-148285714D01*
X115476190Y-148285714D01*
X115571428Y-148333333D01*
X115619047Y-148428571D01*
X115619047Y-148523809D01*
X115142857Y-148619047D01*
X116047619Y-148952380D02*
X116047619Y-148285714D01*
X116047619Y-148476190D02*
X116095238Y-148380952D01*
X116142857Y-148333333D01*
X116238095Y-148285714D01*
X116333333Y-148285714D01*
X117285714Y-148285714D02*
X117666666Y-148285714D01*
X117428571Y-148952380D02*
X117428571Y-148095238D01*
X117476190Y-148000000D01*
X117571428Y-147952380D01*
X117666666Y-147952380D01*
X118142857Y-148952380D02*
X118047619Y-148904761D01*
X118000000Y-148857142D01*
X117952380Y-148761904D01*
X117952380Y-148476190D01*
X118000000Y-148380952D01*
X118047619Y-148333333D01*
X118142857Y-148285714D01*
X118285714Y-148285714D01*
X118380952Y-148333333D01*
X118428571Y-148380952D01*
X118476190Y-148476190D01*
X118476190Y-148761904D01*
X118428571Y-148857142D01*
X118380952Y-148904761D01*
X118285714Y-148952380D01*
X118142857Y-148952380D01*
X118904761Y-148952380D02*
X118904761Y-148285714D01*
X118904761Y-148476190D02*
X118952380Y-148380952D01*
X119000000Y-148333333D01*
X119095238Y-148285714D01*
X119190476Y-148285714D01*
X120285714Y-148285714D02*
X120285714Y-149285714D01*
X120285714Y-148333333D02*
X120380952Y-148285714D01*
X120571428Y-148285714D01*
X120666666Y-148333333D01*
X120714285Y-148380952D01*
X120761904Y-148476190D01*
X120761904Y-148761904D01*
X120714285Y-148857142D01*
X120666666Y-148904761D01*
X120571428Y-148952380D01*
X120380952Y-148952380D01*
X120285714Y-148904761D01*
X121190476Y-148952380D02*
X121190476Y-148285714D01*
X121190476Y-147952380D02*
X121142857Y-148000000D01*
X121190476Y-148047619D01*
X121238095Y-148000000D01*
X121190476Y-147952380D01*
X121190476Y-148047619D01*
X122047619Y-148904761D02*
X121952380Y-148952380D01*
X121761904Y-148952380D01*
X121666666Y-148904761D01*
X121619047Y-148809523D01*
X121619047Y-148428571D01*
X121666666Y-148333333D01*
X121761904Y-148285714D01*
X121952380Y-148285714D01*
X122047619Y-148333333D01*
X122095238Y-148428571D01*
X122095238Y-148523809D01*
X121619047Y-148619047D01*
X122428571Y-148285714D02*
X122952380Y-148285714D01*
X122428571Y-148952380D01*
X122952380Y-148952380D01*
X123476190Y-148952380D02*
X123380952Y-148904761D01*
X123333333Y-148857142D01*
X123285714Y-148761904D01*
X123285714Y-148476190D01*
X123333333Y-148380952D01*
X123380952Y-148333333D01*
X123476190Y-148285714D01*
X123619047Y-148285714D01*
X123714285Y-148333333D01*
X123761904Y-148380952D01*
X123809523Y-148476190D01*
X123809523Y-148761904D01*
X123761904Y-148857142D01*
X123714285Y-148904761D01*
X123619047Y-148952380D01*
X123476190Y-148952380D01*
X125380952Y-148904761D02*
X125285714Y-148952380D01*
X125095238Y-148952380D01*
X125000000Y-148904761D01*
X124952380Y-148809523D01*
X124952380Y-148428571D01*
X125000000Y-148333333D01*
X125095238Y-148285714D01*
X125285714Y-148285714D01*
X125380952Y-148333333D01*
X125428571Y-148428571D01*
X125428571Y-148523809D01*
X124952380Y-148619047D01*
X126000000Y-148952380D02*
X125904761Y-148904761D01*
X125857142Y-148809523D01*
X125857142Y-147952380D01*
X126761904Y-148904761D02*
X126666666Y-148952380D01*
X126476190Y-148952380D01*
X126380952Y-148904761D01*
X126333333Y-148809523D01*
X126333333Y-148428571D01*
X126380952Y-148333333D01*
X126476190Y-148285714D01*
X126666666Y-148285714D01*
X126761904Y-148333333D01*
X126809523Y-148428571D01*
X126809523Y-148523809D01*
X126333333Y-148619047D01*
X127666666Y-148904761D02*
X127571428Y-148952380D01*
X127380952Y-148952380D01*
X127285714Y-148904761D01*
X127238095Y-148857142D01*
X127190476Y-148761904D01*
X127190476Y-148476190D01*
X127238095Y-148380952D01*
X127285714Y-148333333D01*
X127380952Y-148285714D01*
X127571428Y-148285714D01*
X127666666Y-148333333D01*
X127952380Y-148285714D02*
X128333333Y-148285714D01*
X128095238Y-147952380D02*
X128095238Y-148809523D01*
X128142857Y-148904761D01*
X128238095Y-148952380D01*
X128333333Y-148952380D01*
X128666666Y-148952380D02*
X128666666Y-148285714D01*
X128666666Y-148476190D02*
X128714285Y-148380952D01*
X128761904Y-148333333D01*
X128857142Y-148285714D01*
X128952380Y-148285714D01*
X129285714Y-148952380D02*
X129285714Y-148285714D01*
X129285714Y-147952380D02*
X129238095Y-148000000D01*
X129285714Y-148047619D01*
X129333333Y-148000000D01*
X129285714Y-147952380D01*
X129285714Y-148047619D01*
X130190476Y-148904761D02*
X130095238Y-148952380D01*
X129904761Y-148952380D01*
X129809523Y-148904761D01*
X129761904Y-148857142D01*
X129714285Y-148761904D01*
X129714285Y-148476190D01*
X129761904Y-148380952D01*
X129809523Y-148333333D01*
X129904761Y-148285714D01*
X130095238Y-148285714D01*
X130190476Y-148333333D01*
X131809523Y-148904761D02*
X131714285Y-148952380D01*
X131523809Y-148952380D01*
X131428571Y-148904761D01*
X131380952Y-148857142D01*
X131333333Y-148761904D01*
X131333333Y-148476190D01*
X131380952Y-148380952D01*
X131428571Y-148333333D01*
X131523809Y-148285714D01*
X131714285Y-148285714D01*
X131809523Y-148333333D01*
X132238095Y-148952380D02*
X132238095Y-148285714D01*
X132238095Y-148476190D02*
X132285714Y-148380952D01*
X132333333Y-148333333D01*
X132428571Y-148285714D01*
X132523809Y-148285714D01*
X132761904Y-148285714D02*
X133000000Y-148952380D01*
X133238095Y-148285714D02*
X133000000Y-148952380D01*
X132904761Y-149190476D01*
X132857142Y-149238095D01*
X132761904Y-149285714D01*
X133571428Y-148904761D02*
X133666666Y-148952380D01*
X133857142Y-148952380D01*
X133952380Y-148904761D01*
X134000000Y-148809523D01*
X134000000Y-148761904D01*
X133952380Y-148666666D01*
X133857142Y-148619047D01*
X133714285Y-148619047D01*
X133619047Y-148571428D01*
X133571428Y-148476190D01*
X133571428Y-148428571D01*
X133619047Y-148333333D01*
X133714285Y-148285714D01*
X133857142Y-148285714D01*
X133952380Y-148333333D01*
X134285714Y-148285714D02*
X134666666Y-148285714D01*
X134428571Y-147952380D02*
X134428571Y-148809523D01*
X134476190Y-148904761D01*
X134571428Y-148952380D01*
X134666666Y-148952380D01*
X135428571Y-148952380D02*
X135428571Y-148428571D01*
X135380952Y-148333333D01*
X135285714Y-148285714D01*
X135095238Y-148285714D01*
X135000000Y-148333333D01*
X135428571Y-148904761D02*
X135333333Y-148952380D01*
X135095238Y-148952380D01*
X135000000Y-148904761D01*
X134952380Y-148809523D01*
X134952380Y-148714285D01*
X135000000Y-148619047D01*
X135095238Y-148571428D01*
X135333333Y-148571428D01*
X135428571Y-148523809D01*
X136047619Y-148952380D02*
X135952380Y-148904761D01*
X135904761Y-148809523D01*
X135904761Y-147952380D01*
X100452380Y-133952380D02*
X99452380Y-133952380D01*
X99452380Y-133571428D01*
X99500000Y-133476190D01*
X99547619Y-133428571D01*
X99642857Y-133380952D01*
X99785714Y-133380952D01*
X99880952Y-133428571D01*
X99928571Y-133476190D01*
X99976190Y-133571428D01*
X99976190Y-133952380D01*
X100452380Y-132952380D02*
X99452380Y-132952380D01*
X99928571Y-132476190D02*
X99928571Y-132142857D01*
X100452380Y-132000000D02*
X100452380Y-132476190D01*
X99452380Y-132476190D01*
X99452380Y-132000000D01*
X99452380Y-131666666D02*
X99452380Y-131000000D01*
X100452380Y-131666666D01*
X100452380Y-131000000D01*
X99452380Y-130428571D02*
X99452380Y-130238095D01*
X99500000Y-130142857D01*
X99595238Y-130047619D01*
X99785714Y-130000000D01*
X100119047Y-130000000D01*
X100309523Y-130047619D01*
X100404761Y-130142857D01*
X100452380Y-130238095D01*
X100452380Y-130428571D01*
X100404761Y-130523809D01*
X100309523Y-130619047D01*
X100119047Y-130666666D01*
X99785714Y-130666666D01*
X99595238Y-130619047D01*
X99500000Y-130523809D01*
X99452380Y-130428571D01*
D11*
%TO.C,C1*%
X134497500Y-124387500D02*
X133872500Y-124387500D01*
X134185000Y-124075000D02*
X134185000Y-124700000D01*
X130804437Y-124940000D02*
X129740000Y-126004437D01*
X134195563Y-124940000D02*
X135260000Y-126004437D01*
X134195563Y-124940000D02*
X133560000Y-124940000D01*
X130804437Y-124940000D02*
X131440000Y-124940000D01*
X129740000Y-126004437D02*
X129740000Y-130460000D01*
X135260000Y-126004437D02*
X135260000Y-130460000D01*
X135260000Y-130460000D02*
X133560000Y-130460000D01*
X129740000Y-130460000D02*
X131440000Y-130460000D01*
%TO.C,C2*%
X109487500Y-141502500D02*
X109487500Y-142127500D01*
X109175000Y-141815000D02*
X109800000Y-141815000D01*
X110040000Y-145195563D02*
X111104437Y-146260000D01*
X110040000Y-141804437D02*
X111104437Y-140740000D01*
X110040000Y-141804437D02*
X110040000Y-142440000D01*
X110040000Y-145195563D02*
X110040000Y-144560000D01*
X111104437Y-146260000D02*
X115560000Y-146260000D01*
X111104437Y-140740000D02*
X115560000Y-140740000D01*
X115560000Y-140740000D02*
X115560000Y-142440000D01*
X115560000Y-146260000D02*
X115560000Y-144560000D01*
%TO.C,C3*%
X117060000Y-126260000D02*
X117060000Y-124560000D01*
X117060000Y-120740000D02*
X117060000Y-122440000D01*
X112604437Y-120740000D02*
X117060000Y-120740000D01*
X112604437Y-126260000D02*
X117060000Y-126260000D01*
X111540000Y-125195563D02*
X111540000Y-124560000D01*
X111540000Y-121804437D02*
X111540000Y-122440000D01*
X111540000Y-121804437D02*
X112604437Y-120740000D01*
X111540000Y-125195563D02*
X112604437Y-126260000D01*
X110675000Y-121815000D02*
X111300000Y-121815000D01*
X110987500Y-121502500D02*
X110987500Y-122127500D01*
%TO.C,C4*%
X129740000Y-139060000D02*
X131440000Y-139060000D01*
X135260000Y-139060000D02*
X133560000Y-139060000D01*
X135260000Y-134604437D02*
X135260000Y-139060000D01*
X129740000Y-134604437D02*
X129740000Y-139060000D01*
X130804437Y-133540000D02*
X131440000Y-133540000D01*
X134195563Y-133540000D02*
X133560000Y-133540000D01*
X134195563Y-133540000D02*
X135260000Y-134604437D01*
X130804437Y-133540000D02*
X129740000Y-134604437D01*
X134185000Y-132675000D02*
X134185000Y-133300000D01*
X134497500Y-132987500D02*
X133872500Y-132987500D01*
%TO.C,X1*%
X102475000Y-135175000D02*
X102475000Y-128925000D01*
X107525000Y-135175000D02*
X107525000Y-128925000D01*
X107525000Y-135175000D02*
G75*
G02*
X102475000Y-135175000I-2525000J0D01*
G01*
X107525000Y-128925000D02*
G75*
G03*
X102475000Y-128925000I-2525000J0D01*
G01*
%TO.C,R4*%
X118328733Y-134510000D02*
X118671267Y-134510000D01*
X118328733Y-133490000D02*
X118671267Y-133490000D01*
%TO.C,R1*%
X109990000Y-133796267D02*
X109990000Y-133453733D01*
X111010000Y-133796267D02*
X111010000Y-133453733D01*
%TO.C,R2*%
X109990000Y-137671267D02*
X109990000Y-137328733D01*
X111010000Y-137671267D02*
X111010000Y-137328733D01*
%TO.C,R3*%
X111010000Y-129296267D02*
X111010000Y-128953733D01*
X109990000Y-129296267D02*
X109990000Y-128953733D01*
%TO.C,R5*%
X122296267Y-139510000D02*
X121953733Y-139510000D01*
X122296267Y-138490000D02*
X121953733Y-138490000D01*
%TO.C,R6*%
X126671267Y-138490000D02*
X126328733Y-138490000D01*
X126671267Y-139510000D02*
X126328733Y-139510000D01*
%TO.C,R7*%
X126203733Y-127490000D02*
X126546267Y-127490000D01*
X126203733Y-128510000D02*
X126546267Y-128510000D01*
%TO.C,J1*%
X142000000Y-125220000D02*
X143000000Y-125220000D01*
X142500000Y-125720000D02*
X142000000Y-125220000D01*
X143000000Y-125220000D02*
X142500000Y-125720000D01*
X143070000Y-138230000D02*
X137600000Y-138230000D01*
X151000000Y-138230000D02*
X146530000Y-138230000D01*
X151000000Y-125830000D02*
X151000000Y-138230000D01*
X151000000Y-125830000D02*
X146530000Y-125830000D01*
X137600000Y-125830000D02*
X143070000Y-125830000D01*
X137600000Y-138230000D02*
X137600000Y-125830000D01*
%TO.C,D1*%
X113500000Y-138400000D02*
X113500000Y-134500000D01*
X115500000Y-138400000D02*
X115500000Y-134500000D01*
X113500000Y-138400000D02*
X115500000Y-138400000D01*
%TO.C,D2*%
X113500000Y-133100000D02*
X115500000Y-133100000D01*
X115500000Y-133100000D02*
X115500000Y-129200000D01*
X113500000Y-133100000D02*
X113500000Y-129200000D01*
%TO.C,C5*%
X131512500Y-145997500D02*
X131512500Y-145372500D01*
X131825000Y-145685000D02*
X131200000Y-145685000D01*
X130960000Y-142304437D02*
X129895563Y-141240000D01*
X130960000Y-145695563D02*
X129895563Y-146760000D01*
X130960000Y-145695563D02*
X130960000Y-145060000D01*
X130960000Y-142304437D02*
X130960000Y-142940000D01*
X129895563Y-141240000D02*
X125440000Y-141240000D01*
X129895563Y-146760000D02*
X125440000Y-146760000D01*
X125440000Y-146760000D02*
X125440000Y-145060000D01*
X125440000Y-141240000D02*
X125440000Y-142940000D01*
%TO.C,C6*%
X128012500Y-123997500D02*
X128012500Y-123372500D01*
X128325000Y-123685000D02*
X127700000Y-123685000D01*
X127460000Y-120304437D02*
X126395563Y-119240000D01*
X127460000Y-123695563D02*
X126395563Y-124760000D01*
X127460000Y-123695563D02*
X127460000Y-123060000D01*
X127460000Y-120304437D02*
X127460000Y-120940000D01*
X126395563Y-119240000D02*
X121940000Y-119240000D01*
X126395563Y-124760000D02*
X121940000Y-124760000D01*
X121940000Y-124760000D02*
X121940000Y-123060000D01*
X121940000Y-119240000D02*
X121940000Y-120940000D01*
%TO.C,R8*%
X126333276Y-137522500D02*
X126842724Y-137522500D01*
X126333276Y-136477500D02*
X126842724Y-136477500D01*
%TO.C,R9*%
X122842724Y-128522500D02*
X122333276Y-128522500D01*
X122842724Y-127477500D02*
X122333276Y-127477500D01*
%TO.C,U1*%
X128975000Y-129295000D02*
X128975000Y-133905000D01*
X121025000Y-129295000D02*
X128975000Y-129295000D01*
X121025000Y-134705000D02*
X121025000Y-129295000D01*
X128175000Y-134705000D02*
X121025000Y-134705000D01*
X128975000Y-133905000D02*
X128175000Y-134705000D01*
%TO.C,C1*%
D10*
X136557142Y-127866666D02*
X136604761Y-127914285D01*
X136652380Y-128057142D01*
X136652380Y-128152380D01*
X136604761Y-128295238D01*
X136509523Y-128390476D01*
X136414285Y-128438095D01*
X136223809Y-128485714D01*
X136080952Y-128485714D01*
X135890476Y-128438095D01*
X135795238Y-128390476D01*
X135700000Y-128295238D01*
X135652380Y-128152380D01*
X135652380Y-128057142D01*
X135700000Y-127914285D01*
X135747619Y-127866666D01*
X136652380Y-126914285D02*
X136652380Y-127485714D01*
X136652380Y-127200000D02*
X135652380Y-127200000D01*
X135795238Y-127295238D01*
X135890476Y-127390476D01*
X135938095Y-127485714D01*
%TO.C,C2*%
X112633333Y-140157142D02*
X112585714Y-140204761D01*
X112442857Y-140252380D01*
X112347619Y-140252380D01*
X112204761Y-140204761D01*
X112109523Y-140109523D01*
X112061904Y-140014285D01*
X112014285Y-139823809D01*
X112014285Y-139680952D01*
X112061904Y-139490476D01*
X112109523Y-139395238D01*
X112204761Y-139300000D01*
X112347619Y-139252380D01*
X112442857Y-139252380D01*
X112585714Y-139300000D01*
X112633333Y-139347619D01*
X113014285Y-139347619D02*
X113061904Y-139300000D01*
X113157142Y-139252380D01*
X113395238Y-139252380D01*
X113490476Y-139300000D01*
X113538095Y-139347619D01*
X113585714Y-139442857D01*
X113585714Y-139538095D01*
X113538095Y-139680952D01*
X112966666Y-140252380D01*
X113585714Y-140252380D01*
%TO.C,C3*%
X114133333Y-120157142D02*
X114085714Y-120204761D01*
X113942857Y-120252380D01*
X113847619Y-120252380D01*
X113704761Y-120204761D01*
X113609523Y-120109523D01*
X113561904Y-120014285D01*
X113514285Y-119823809D01*
X113514285Y-119680952D01*
X113561904Y-119490476D01*
X113609523Y-119395238D01*
X113704761Y-119300000D01*
X113847619Y-119252380D01*
X113942857Y-119252380D01*
X114085714Y-119300000D01*
X114133333Y-119347619D01*
X114466666Y-119252380D02*
X115085714Y-119252380D01*
X114752380Y-119633333D01*
X114895238Y-119633333D01*
X114990476Y-119680952D01*
X115038095Y-119728571D01*
X115085714Y-119823809D01*
X115085714Y-120061904D01*
X115038095Y-120157142D01*
X114990476Y-120204761D01*
X114895238Y-120252380D01*
X114609523Y-120252380D01*
X114514285Y-120204761D01*
X114466666Y-120157142D01*
%TO.C,C4*%
X136557142Y-136466666D02*
X136604761Y-136514285D01*
X136652380Y-136657142D01*
X136652380Y-136752380D01*
X136604761Y-136895238D01*
X136509523Y-136990476D01*
X136414285Y-137038095D01*
X136223809Y-137085714D01*
X136080952Y-137085714D01*
X135890476Y-137038095D01*
X135795238Y-136990476D01*
X135700000Y-136895238D01*
X135652380Y-136752380D01*
X135652380Y-136657142D01*
X135700000Y-136514285D01*
X135747619Y-136466666D01*
X135985714Y-135609523D02*
X136652380Y-135609523D01*
X135604761Y-135847619D02*
X136319047Y-136085714D01*
X136319047Y-135466666D01*
%TO.C,X1*%
X100927380Y-132859523D02*
X101927380Y-132192857D01*
X100927380Y-132192857D02*
X101927380Y-132859523D01*
X101927380Y-131288095D02*
X101927380Y-131859523D01*
X101927380Y-131573809D02*
X100927380Y-131573809D01*
X101070238Y-131669047D01*
X101165476Y-131764285D01*
X101213095Y-131859523D01*
%TO.C,R4*%
X118333333Y-133022380D02*
X118000000Y-132546190D01*
X117761904Y-133022380D02*
X117761904Y-132022380D01*
X118142857Y-132022380D01*
X118238095Y-132070000D01*
X118285714Y-132117619D01*
X118333333Y-132212857D01*
X118333333Y-132355714D01*
X118285714Y-132450952D01*
X118238095Y-132498571D01*
X118142857Y-132546190D01*
X117761904Y-132546190D01*
X119190476Y-132355714D02*
X119190476Y-133022380D01*
X118952380Y-131974761D02*
X118714285Y-132689047D01*
X119333333Y-132689047D01*
%TO.C,R1*%
X109522380Y-133791666D02*
X109046190Y-134125000D01*
X109522380Y-134363095D02*
X108522380Y-134363095D01*
X108522380Y-133982142D01*
X108570000Y-133886904D01*
X108617619Y-133839285D01*
X108712857Y-133791666D01*
X108855714Y-133791666D01*
X108950952Y-133839285D01*
X108998571Y-133886904D01*
X109046190Y-133982142D01*
X109046190Y-134363095D01*
X109522380Y-132839285D02*
X109522380Y-133410714D01*
X109522380Y-133125000D02*
X108522380Y-133125000D01*
X108665238Y-133220238D01*
X108760476Y-133315476D01*
X108808095Y-133410714D01*
%TO.C,R2*%
X109522380Y-137666666D02*
X109046190Y-138000000D01*
X109522380Y-138238095D02*
X108522380Y-138238095D01*
X108522380Y-137857142D01*
X108570000Y-137761904D01*
X108617619Y-137714285D01*
X108712857Y-137666666D01*
X108855714Y-137666666D01*
X108950952Y-137714285D01*
X108998571Y-137761904D01*
X109046190Y-137857142D01*
X109046190Y-138238095D01*
X108617619Y-137285714D02*
X108570000Y-137238095D01*
X108522380Y-137142857D01*
X108522380Y-136904761D01*
X108570000Y-136809523D01*
X108617619Y-136761904D01*
X108712857Y-136714285D01*
X108808095Y-136714285D01*
X108950952Y-136761904D01*
X109522380Y-137333333D01*
X109522380Y-136714285D01*
%TO.C,R3*%
X109522380Y-129291666D02*
X109046190Y-129625000D01*
X109522380Y-129863095D02*
X108522380Y-129863095D01*
X108522380Y-129482142D01*
X108570000Y-129386904D01*
X108617619Y-129339285D01*
X108712857Y-129291666D01*
X108855714Y-129291666D01*
X108950952Y-129339285D01*
X108998571Y-129386904D01*
X109046190Y-129482142D01*
X109046190Y-129863095D01*
X108522380Y-128958333D02*
X108522380Y-128339285D01*
X108903333Y-128672619D01*
X108903333Y-128529761D01*
X108950952Y-128434523D01*
X108998571Y-128386904D01*
X109093809Y-128339285D01*
X109331904Y-128339285D01*
X109427142Y-128386904D01*
X109474761Y-128434523D01*
X109522380Y-128529761D01*
X109522380Y-128815476D01*
X109474761Y-128910714D01*
X109427142Y-128958333D01*
%TO.C,R5*%
X121958333Y-140882380D02*
X121625000Y-140406190D01*
X121386904Y-140882380D02*
X121386904Y-139882380D01*
X121767857Y-139882380D01*
X121863095Y-139930000D01*
X121910714Y-139977619D01*
X121958333Y-140072857D01*
X121958333Y-140215714D01*
X121910714Y-140310952D01*
X121863095Y-140358571D01*
X121767857Y-140406190D01*
X121386904Y-140406190D01*
X122863095Y-139882380D02*
X122386904Y-139882380D01*
X122339285Y-140358571D01*
X122386904Y-140310952D01*
X122482142Y-140263333D01*
X122720238Y-140263333D01*
X122815476Y-140310952D01*
X122863095Y-140358571D01*
X122910714Y-140453809D01*
X122910714Y-140691904D01*
X122863095Y-140787142D01*
X122815476Y-140834761D01*
X122720238Y-140882380D01*
X122482142Y-140882380D01*
X122386904Y-140834761D01*
X122339285Y-140787142D01*
%TO.C,R6*%
X126333333Y-140882380D02*
X126000000Y-140406190D01*
X125761904Y-140882380D02*
X125761904Y-139882380D01*
X126142857Y-139882380D01*
X126238095Y-139930000D01*
X126285714Y-139977619D01*
X126333333Y-140072857D01*
X126333333Y-140215714D01*
X126285714Y-140310952D01*
X126238095Y-140358571D01*
X126142857Y-140406190D01*
X125761904Y-140406190D01*
X127190476Y-139882380D02*
X127000000Y-139882380D01*
X126904761Y-139930000D01*
X126857142Y-139977619D01*
X126761904Y-140120476D01*
X126714285Y-140310952D01*
X126714285Y-140691904D01*
X126761904Y-140787142D01*
X126809523Y-140834761D01*
X126904761Y-140882380D01*
X127095238Y-140882380D01*
X127190476Y-140834761D01*
X127238095Y-140787142D01*
X127285714Y-140691904D01*
X127285714Y-140453809D01*
X127238095Y-140358571D01*
X127190476Y-140310952D01*
X127095238Y-140263333D01*
X126904761Y-140263333D01*
X126809523Y-140310952D01*
X126761904Y-140358571D01*
X126714285Y-140453809D01*
%TO.C,R7*%
X126208333Y-127022380D02*
X125875000Y-126546190D01*
X125636904Y-127022380D02*
X125636904Y-126022380D01*
X126017857Y-126022380D01*
X126113095Y-126070000D01*
X126160714Y-126117619D01*
X126208333Y-126212857D01*
X126208333Y-126355714D01*
X126160714Y-126450952D01*
X126113095Y-126498571D01*
X126017857Y-126546190D01*
X125636904Y-126546190D01*
X126541666Y-126022380D02*
X127208333Y-126022380D01*
X126779761Y-127022380D01*
%TO.C,J1*%
X146952380Y-131833333D02*
X147666666Y-131833333D01*
X147809523Y-131880952D01*
X147904761Y-131976190D01*
X147952380Y-132119047D01*
X147952380Y-132214285D01*
X147952380Y-130833333D02*
X147952380Y-131404761D01*
X147952380Y-131119047D02*
X146952380Y-131119047D01*
X147095238Y-131214285D01*
X147190476Y-131309523D01*
X147238095Y-131404761D01*
%TO.C,D1*%
X112952380Y-136888095D02*
X111952380Y-136888095D01*
X111952380Y-136650000D01*
X112000000Y-136507142D01*
X112095238Y-136411904D01*
X112190476Y-136364285D01*
X112380952Y-136316666D01*
X112523809Y-136316666D01*
X112714285Y-136364285D01*
X112809523Y-136411904D01*
X112904761Y-136507142D01*
X112952380Y-136650000D01*
X112952380Y-136888095D01*
X112952380Y-135364285D02*
X112952380Y-135935714D01*
X112952380Y-135650000D02*
X111952380Y-135650000D01*
X112095238Y-135745238D01*
X112190476Y-135840476D01*
X112238095Y-135935714D01*
%TO.C,D2*%
X112952380Y-131588095D02*
X111952380Y-131588095D01*
X111952380Y-131350000D01*
X112000000Y-131207142D01*
X112095238Y-131111904D01*
X112190476Y-131064285D01*
X112380952Y-131016666D01*
X112523809Y-131016666D01*
X112714285Y-131064285D01*
X112809523Y-131111904D01*
X112904761Y-131207142D01*
X112952380Y-131350000D01*
X112952380Y-131588095D01*
X112047619Y-130635714D02*
X112000000Y-130588095D01*
X111952380Y-130492857D01*
X111952380Y-130254761D01*
X112000000Y-130159523D01*
X112047619Y-130111904D01*
X112142857Y-130064285D01*
X112238095Y-130064285D01*
X112380952Y-130111904D01*
X112952380Y-130683333D01*
X112952380Y-130064285D01*
%TO.C,J2*%
X145166666Y-118052380D02*
X145166666Y-118766666D01*
X145119047Y-118909523D01*
X145023809Y-119004761D01*
X144880952Y-119052380D01*
X144785714Y-119052380D01*
X145595238Y-118147619D02*
X145642857Y-118100000D01*
X145738095Y-118052380D01*
X145976190Y-118052380D01*
X146071428Y-118100000D01*
X146119047Y-118147619D01*
X146166666Y-118242857D01*
X146166666Y-118338095D01*
X146119047Y-118480952D01*
X145547619Y-119052380D01*
X146166666Y-119052380D01*
%TO.C,J3*%
X145166666Y-141552380D02*
X145166666Y-142266666D01*
X145119047Y-142409523D01*
X145023809Y-142504761D01*
X144880952Y-142552380D01*
X144785714Y-142552380D01*
X145547619Y-141552380D02*
X146166666Y-141552380D01*
X145833333Y-141933333D01*
X145976190Y-141933333D01*
X146071428Y-141980952D01*
X146119047Y-142028571D01*
X146166666Y-142123809D01*
X146166666Y-142361904D01*
X146119047Y-142457142D01*
X146071428Y-142504761D01*
X145976190Y-142552380D01*
X145690476Y-142552380D01*
X145595238Y-142504761D01*
X145547619Y-142457142D01*
%TO.C,J4*%
X102166666Y-118052380D02*
X102166666Y-118766666D01*
X102119047Y-118909523D01*
X102023809Y-119004761D01*
X101880952Y-119052380D01*
X101785714Y-119052380D01*
X103071428Y-118385714D02*
X103071428Y-119052380D01*
X102833333Y-118004761D02*
X102595238Y-118719047D01*
X103214285Y-118719047D01*
%TO.C,J5*%
X101666666Y-142052380D02*
X101666666Y-142766666D01*
X101619047Y-142909523D01*
X101523809Y-143004761D01*
X101380952Y-143052380D01*
X101285714Y-143052380D01*
X102619047Y-142052380D02*
X102142857Y-142052380D01*
X102095238Y-142528571D01*
X102142857Y-142480952D01*
X102238095Y-142433333D01*
X102476190Y-142433333D01*
X102571428Y-142480952D01*
X102619047Y-142528571D01*
X102666666Y-142623809D01*
X102666666Y-142861904D01*
X102619047Y-142957142D01*
X102571428Y-143004761D01*
X102476190Y-143052380D01*
X102238095Y-143052380D01*
X102142857Y-143004761D01*
X102095238Y-142957142D01*
%TO.C,C5*%
X128033333Y-148057142D02*
X127985714Y-148104761D01*
X127842857Y-148152380D01*
X127747619Y-148152380D01*
X127604761Y-148104761D01*
X127509523Y-148009523D01*
X127461904Y-147914285D01*
X127414285Y-147723809D01*
X127414285Y-147580952D01*
X127461904Y-147390476D01*
X127509523Y-147295238D01*
X127604761Y-147200000D01*
X127747619Y-147152380D01*
X127842857Y-147152380D01*
X127985714Y-147200000D01*
X128033333Y-147247619D01*
X128938095Y-147152380D02*
X128461904Y-147152380D01*
X128414285Y-147628571D01*
X128461904Y-147580952D01*
X128557142Y-147533333D01*
X128795238Y-147533333D01*
X128890476Y-147580952D01*
X128938095Y-147628571D01*
X128985714Y-147723809D01*
X128985714Y-147961904D01*
X128938095Y-148057142D01*
X128890476Y-148104761D01*
X128795238Y-148152380D01*
X128557142Y-148152380D01*
X128461904Y-148104761D01*
X128414285Y-148057142D01*
%TO.C,C6*%
X129833333Y-123357142D02*
X129785714Y-123404761D01*
X129642857Y-123452380D01*
X129547619Y-123452380D01*
X129404761Y-123404761D01*
X129309523Y-123309523D01*
X129261904Y-123214285D01*
X129214285Y-123023809D01*
X129214285Y-122880952D01*
X129261904Y-122690476D01*
X129309523Y-122595238D01*
X129404761Y-122500000D01*
X129547619Y-122452380D01*
X129642857Y-122452380D01*
X129785714Y-122500000D01*
X129833333Y-122547619D01*
X130690476Y-122452380D02*
X130500000Y-122452380D01*
X130404761Y-122500000D01*
X130357142Y-122547619D01*
X130261904Y-122690476D01*
X130214285Y-122880952D01*
X130214285Y-123261904D01*
X130261904Y-123357142D01*
X130309523Y-123404761D01*
X130404761Y-123452380D01*
X130595238Y-123452380D01*
X130690476Y-123404761D01*
X130738095Y-123357142D01*
X130785714Y-123261904D01*
X130785714Y-123023809D01*
X130738095Y-122928571D01*
X130690476Y-122880952D01*
X130595238Y-122833333D01*
X130404761Y-122833333D01*
X130309523Y-122880952D01*
X130261904Y-122928571D01*
X130214285Y-123023809D01*
%TO.C,R8*%
X126421333Y-136022380D02*
X126088000Y-135546190D01*
X125849904Y-136022380D02*
X125849904Y-135022380D01*
X126230857Y-135022380D01*
X126326095Y-135070000D01*
X126373714Y-135117619D01*
X126421333Y-135212857D01*
X126421333Y-135355714D01*
X126373714Y-135450952D01*
X126326095Y-135498571D01*
X126230857Y-135546190D01*
X125849904Y-135546190D01*
X126992761Y-135450952D02*
X126897523Y-135403333D01*
X126849904Y-135355714D01*
X126802285Y-135260476D01*
X126802285Y-135212857D01*
X126849904Y-135117619D01*
X126897523Y-135070000D01*
X126992761Y-135022380D01*
X127183238Y-135022380D01*
X127278476Y-135070000D01*
X127326095Y-135117619D01*
X127373714Y-135212857D01*
X127373714Y-135260476D01*
X127326095Y-135355714D01*
X127278476Y-135403333D01*
X127183238Y-135450952D01*
X126992761Y-135450952D01*
X126897523Y-135498571D01*
X126849904Y-135546190D01*
X126802285Y-135641428D01*
X126802285Y-135831904D01*
X126849904Y-135927142D01*
X126897523Y-135974761D01*
X126992761Y-136022380D01*
X127183238Y-136022380D01*
X127278476Y-135974761D01*
X127326095Y-135927142D01*
X127373714Y-135831904D01*
X127373714Y-135641428D01*
X127326095Y-135546190D01*
X127278476Y-135498571D01*
X127183238Y-135450952D01*
%TO.C,R9*%
X122833833Y-126952380D02*
X122500500Y-126476190D01*
X122262404Y-126952380D02*
X122262404Y-125952380D01*
X122643357Y-125952380D01*
X122738595Y-126000000D01*
X122786214Y-126047619D01*
X122833833Y-126142857D01*
X122833833Y-126285714D01*
X122786214Y-126380952D01*
X122738595Y-126428571D01*
X122643357Y-126476190D01*
X122262404Y-126476190D01*
X123310023Y-126952380D02*
X123500500Y-126952380D01*
X123595738Y-126904761D01*
X123643357Y-126857142D01*
X123738595Y-126714285D01*
X123786214Y-126523809D01*
X123786214Y-126142857D01*
X123738595Y-126047619D01*
X123690976Y-126000000D01*
X123595738Y-125952380D01*
X123405261Y-125952380D01*
X123310023Y-126000000D01*
X123262404Y-126047619D01*
X123214785Y-126142857D01*
X123214785Y-126380952D01*
X123262404Y-126476190D01*
X123310023Y-126523809D01*
X123405261Y-126571428D01*
X123595738Y-126571428D01*
X123690976Y-126523809D01*
X123738595Y-126476190D01*
X123786214Y-126380952D01*
%TO.C,U1*%
X124238095Y-135157380D02*
X124238095Y-135966904D01*
X124285714Y-136062142D01*
X124333333Y-136109761D01*
X124428571Y-136157380D01*
X124619047Y-136157380D01*
X124714285Y-136109761D01*
X124761904Y-136062142D01*
X124809523Y-135966904D01*
X124809523Y-135157380D01*
X125809523Y-136157380D02*
X125238095Y-136157380D01*
X125523809Y-136157380D02*
X125523809Y-135157380D01*
X125428571Y-135300238D01*
X125333333Y-135395476D01*
X125238095Y-135443095D01*
%TD*%
M02*
