%TF.GenerationSoftware,KiCad,Pcbnew,5.1.9-73d0e3b20d~88~ubuntu20.04.1*%
%TF.CreationDate,2021-04-13T11:53:52+02:00*%
%TF.ProjectId,piezo,7069657a-6f2e-46b6-9963-61645f706362,rev?*%
%TF.SameCoordinates,Original*%
%TF.FileFunction,Copper,L2,Bot*%
%TF.FilePolarity,Positive*%
%FSLAX46Y46*%
G04 Gerber Fmt 4.6, Leading zero omitted, Abs format (unit mm)*
G04 Created by KiCad (PCBNEW 5.1.9-73d0e3b20d~88~ubuntu20.04.1) date 2021-04-13 11:53:52*
%MOMM*%
%LPD*%
G01*
G04 APERTURE LIST*
%TA.AperFunction,ComponentPad*%
%ADD10C,1.500000*%
%TD*%
%TA.AperFunction,ComponentPad*%
%ADD11R,1.500000X1.500000*%
%TD*%
%TA.AperFunction,ComponentPad*%
%ADD12C,3.800000*%
%TD*%
%TA.AperFunction,ViaPad*%
%ADD13C,0.800000*%
%TD*%
%TA.AperFunction,Conductor*%
%ADD14C,0.250000*%
%TD*%
%TA.AperFunction,Conductor*%
%ADD15C,0.254000*%
%TD*%
%TA.AperFunction,Conductor*%
%ADD16C,0.100000*%
%TD*%
G04 APERTURE END LIST*
D10*
%TO.P,X1,1*%
%TO.N,Net-(D1-Pad2)*%
X105000000Y-134500000D03*
%TO.P,X1,2*%
%TO.N,GND*%
X105000000Y-129600000D03*
%TD*%
D11*
%TO.P,J1,1*%
%TO.N,Net-(C4-Pad1)*%
X142500000Y-130500000D03*
D10*
%TO.P,J1,2*%
%TO.N,GND*%
X139960000Y-131520000D03*
%TO.P,J1,3*%
%TO.N,Net-(C6-Pad1)*%
X142500000Y-132540000D03*
%TO.P,J1,4*%
%TO.N,VCC*%
X139960000Y-133560000D03*
%TD*%
D12*
%TO.P,J2,1*%
%TO.N,GND*%
X145500000Y-121500000D03*
%TD*%
%TO.P,J3,1*%
%TO.N,GND*%
X145500000Y-145000000D03*
%TD*%
%TO.P,J4,1*%
%TO.N,GND*%
X102500000Y-121500000D03*
%TD*%
%TO.P,J5,1*%
%TO.N,GND*%
X102000000Y-145500000D03*
%TD*%
D13*
%TO.N,GND*%
X132000000Y-141500000D03*
X124000000Y-140500000D03*
X119500000Y-137000000D03*
X123500000Y-136500000D03*
X129500000Y-124500000D03*
X117000000Y-127000000D03*
X112500000Y-132500000D03*
X117500000Y-136500000D03*
X131000000Y-136500000D03*
X130500000Y-132500000D03*
%TO.N,VCC*%
X135681500Y-135044900D03*
%TO.N,Net-(D1-Pad2)*%
X122000000Y-135500000D03*
%TO.N,Net-(R5-Pad1)*%
X129500000Y-131000000D03*
X126352800Y-136000100D03*
%TD*%
D14*
%TO.N,GND*%
X139960000Y-131520000D02*
X141038700Y-132598700D01*
X141038700Y-132598700D02*
X141038700Y-140538700D01*
X141038700Y-140538700D02*
X145500000Y-145000000D01*
X145500000Y-121500000D02*
X139960000Y-127040000D01*
X139960000Y-127040000D02*
X139960000Y-131520000D01*
%TO.N,VCC*%
X135681500Y-135044900D02*
X138475100Y-135044900D01*
X138475100Y-135044900D02*
X139960000Y-133560000D01*
%TO.N,Net-(D1-Pad2)*%
X122000000Y-135000000D02*
X122000000Y-135500000D01*
X121530400Y-134530400D02*
X122000000Y-135000000D01*
X105030400Y-134530400D02*
X121530400Y-134530400D01*
X105000000Y-134500000D02*
X105030400Y-134530400D01*
%TO.N,Net-(R5-Pad1)*%
X126352800Y-133142100D02*
X126352800Y-136000100D01*
X129500000Y-131000000D02*
X128500000Y-131000000D01*
X127502550Y-131997450D02*
X127497450Y-131997450D01*
X128500000Y-131000000D02*
X127502550Y-131997450D01*
X127497450Y-131997450D02*
X126352800Y-133142100D01*
%TD*%
D15*
%TO.N,GND*%
X148815000Y-123533646D02*
X148815001Y-123533656D01*
X148815000Y-148815000D01*
X98685000Y-148815000D01*
X98685000Y-147276349D01*
X100403256Y-147276349D01*
X100607362Y-147632867D01*
X101050223Y-147863575D01*
X101529583Y-148003452D01*
X102027021Y-148047123D01*
X102523422Y-147992909D01*
X102999707Y-147842894D01*
X103392638Y-147632867D01*
X103596744Y-147276349D01*
X102000000Y-145679605D01*
X100403256Y-147276349D01*
X98685000Y-147276349D01*
X98685000Y-145527021D01*
X99452877Y-145527021D01*
X99507091Y-146023422D01*
X99657106Y-146499707D01*
X99867133Y-146892638D01*
X100223651Y-147096744D01*
X101820395Y-145500000D01*
X102179605Y-145500000D01*
X103776349Y-147096744D01*
X104132867Y-146892638D01*
X104193447Y-146776349D01*
X143903256Y-146776349D01*
X144107362Y-147132867D01*
X144550223Y-147363575D01*
X145029583Y-147503452D01*
X145527021Y-147547123D01*
X146023422Y-147492909D01*
X146499707Y-147342894D01*
X146892638Y-147132867D01*
X147096744Y-146776349D01*
X145500000Y-145179605D01*
X143903256Y-146776349D01*
X104193447Y-146776349D01*
X104363575Y-146449777D01*
X104503452Y-145970417D01*
X104547123Y-145472979D01*
X104498419Y-145027021D01*
X142952877Y-145027021D01*
X143007091Y-145523422D01*
X143157106Y-145999707D01*
X143367133Y-146392638D01*
X143723651Y-146596744D01*
X145320395Y-145000000D01*
X145679605Y-145000000D01*
X147276349Y-146596744D01*
X147632867Y-146392638D01*
X147863575Y-145949777D01*
X148003452Y-145470417D01*
X148047123Y-144972979D01*
X147992909Y-144476578D01*
X147842894Y-144000293D01*
X147632867Y-143607362D01*
X147276349Y-143403256D01*
X145679605Y-145000000D01*
X145320395Y-145000000D01*
X143723651Y-143403256D01*
X143367133Y-143607362D01*
X143136425Y-144050223D01*
X142996548Y-144529583D01*
X142952877Y-145027021D01*
X104498419Y-145027021D01*
X104492909Y-144976578D01*
X104342894Y-144500293D01*
X104132867Y-144107362D01*
X103776349Y-143903256D01*
X102179605Y-145500000D01*
X101820395Y-145500000D01*
X100223651Y-143903256D01*
X99867133Y-144107362D01*
X99636425Y-144550223D01*
X99496548Y-145029583D01*
X99452877Y-145527021D01*
X98685000Y-145527021D01*
X98685000Y-143723651D01*
X100403256Y-143723651D01*
X102000000Y-145320395D01*
X103596744Y-143723651D01*
X103392638Y-143367133D01*
X103117214Y-143223651D01*
X143903256Y-143223651D01*
X145500000Y-144820395D01*
X147096744Y-143223651D01*
X146892638Y-142867133D01*
X146449777Y-142636425D01*
X145970417Y-142496548D01*
X145472979Y-142452877D01*
X144976578Y-142507091D01*
X144500293Y-142657106D01*
X144107362Y-142867133D01*
X143903256Y-143223651D01*
X103117214Y-143223651D01*
X102949777Y-143136425D01*
X102470417Y-142996548D01*
X101972979Y-142952877D01*
X101476578Y-143007091D01*
X101000293Y-143157106D01*
X100607362Y-143367133D01*
X100403256Y-143723651D01*
X98685000Y-143723651D01*
X98685000Y-137854193D01*
X143015000Y-137854193D01*
X143015000Y-138205807D01*
X143083596Y-138550665D01*
X143218153Y-138875515D01*
X143413500Y-139167871D01*
X143662129Y-139416500D01*
X143954485Y-139611847D01*
X144279335Y-139746404D01*
X144624193Y-139815000D01*
X144975807Y-139815000D01*
X145320665Y-139746404D01*
X145645515Y-139611847D01*
X145937871Y-139416500D01*
X146186500Y-139167871D01*
X146381847Y-138875515D01*
X146516404Y-138550665D01*
X146585000Y-138205807D01*
X146585000Y-137854193D01*
X146516404Y-137509335D01*
X146381847Y-137184485D01*
X146186500Y-136892129D01*
X145937871Y-136643500D01*
X145645515Y-136448153D01*
X145320665Y-136313596D01*
X144975807Y-136245000D01*
X144624193Y-136245000D01*
X144279335Y-136313596D01*
X143954485Y-136448153D01*
X143662129Y-136643500D01*
X143413500Y-136892129D01*
X143218153Y-137184485D01*
X143083596Y-137509335D01*
X143015000Y-137854193D01*
X98685000Y-137854193D01*
X98685000Y-134363589D01*
X103615000Y-134363589D01*
X103615000Y-134636411D01*
X103668225Y-134903989D01*
X103772629Y-135156043D01*
X103924201Y-135382886D01*
X104117114Y-135575799D01*
X104343957Y-135727371D01*
X104596011Y-135831775D01*
X104863589Y-135885000D01*
X105136411Y-135885000D01*
X105403989Y-135831775D01*
X105656043Y-135727371D01*
X105882886Y-135575799D01*
X106075799Y-135382886D01*
X106137596Y-135290400D01*
X120986415Y-135290400D01*
X120965000Y-135398061D01*
X120965000Y-135601939D01*
X121004774Y-135801898D01*
X121082795Y-135990256D01*
X121196063Y-136159774D01*
X121340226Y-136303937D01*
X121509744Y-136417205D01*
X121698102Y-136495226D01*
X121898061Y-136535000D01*
X122101939Y-136535000D01*
X122301898Y-136495226D01*
X122490256Y-136417205D01*
X122659774Y-136303937D01*
X122803937Y-136159774D01*
X122917205Y-135990256D01*
X122955352Y-135898161D01*
X125317800Y-135898161D01*
X125317800Y-136102039D01*
X125357574Y-136301998D01*
X125435595Y-136490356D01*
X125548863Y-136659874D01*
X125693026Y-136804037D01*
X125862544Y-136917305D01*
X126050902Y-136995326D01*
X126250861Y-137035100D01*
X126454739Y-137035100D01*
X126654698Y-136995326D01*
X126843056Y-136917305D01*
X127012574Y-136804037D01*
X127156737Y-136659874D01*
X127270005Y-136490356D01*
X127348026Y-136301998D01*
X127387800Y-136102039D01*
X127387800Y-135898161D01*
X127348026Y-135698202D01*
X127270005Y-135509844D01*
X127156737Y-135340326D01*
X127112800Y-135296389D01*
X127112800Y-134942961D01*
X134646500Y-134942961D01*
X134646500Y-135146839D01*
X134686274Y-135346798D01*
X134764295Y-135535156D01*
X134877563Y-135704674D01*
X135021726Y-135848837D01*
X135191244Y-135962105D01*
X135379602Y-136040126D01*
X135579561Y-136079900D01*
X135783439Y-136079900D01*
X135983398Y-136040126D01*
X136171756Y-135962105D01*
X136341274Y-135848837D01*
X136385211Y-135804900D01*
X138437778Y-135804900D01*
X138475100Y-135808576D01*
X138512422Y-135804900D01*
X138512433Y-135804900D01*
X138624086Y-135793903D01*
X138767347Y-135750446D01*
X138899376Y-135679874D01*
X139015101Y-135584901D01*
X139038904Y-135555897D01*
X139678635Y-134916167D01*
X139823589Y-134945000D01*
X140096411Y-134945000D01*
X140363989Y-134891775D01*
X140616043Y-134787371D01*
X140842886Y-134635799D01*
X141035799Y-134442886D01*
X141187371Y-134216043D01*
X141291775Y-133963989D01*
X141345000Y-133696411D01*
X141345000Y-133423589D01*
X141311229Y-133253812D01*
X141424201Y-133422886D01*
X141617114Y-133615799D01*
X141843957Y-133767371D01*
X142096011Y-133871775D01*
X142363589Y-133925000D01*
X142636411Y-133925000D01*
X142903989Y-133871775D01*
X143156043Y-133767371D01*
X143382886Y-133615799D01*
X143575799Y-133422886D01*
X143727371Y-133196043D01*
X143831775Y-132943989D01*
X143885000Y-132676411D01*
X143885000Y-132403589D01*
X143831775Y-132136011D01*
X143727371Y-131883957D01*
X143639224Y-131752035D01*
X143701185Y-131701185D01*
X143780537Y-131604494D01*
X143839502Y-131494180D01*
X143875812Y-131374482D01*
X143888072Y-131250000D01*
X143888072Y-129750000D01*
X143875812Y-129625518D01*
X143839502Y-129505820D01*
X143780537Y-129395506D01*
X143701185Y-129298815D01*
X143604494Y-129219463D01*
X143494180Y-129160498D01*
X143374482Y-129124188D01*
X143250000Y-129111928D01*
X141750000Y-129111928D01*
X141625518Y-129124188D01*
X141505820Y-129160498D01*
X141395506Y-129219463D01*
X141298815Y-129298815D01*
X141219463Y-129395506D01*
X141160498Y-129505820D01*
X141124188Y-129625518D01*
X141111928Y-129750000D01*
X141111928Y-130796086D01*
X140916993Y-130742612D01*
X140139605Y-131520000D01*
X140916993Y-132297388D01*
X141148772Y-132233807D01*
X141115000Y-132403589D01*
X141115000Y-132676411D01*
X141148771Y-132846188D01*
X141035799Y-132677114D01*
X140842886Y-132484201D01*
X140616043Y-132332629D01*
X140576747Y-132316352D01*
X139960000Y-131699605D01*
X139343253Y-132316352D01*
X139303957Y-132332629D01*
X139077114Y-132484201D01*
X138884201Y-132677114D01*
X138732629Y-132903957D01*
X138628225Y-133156011D01*
X138575000Y-133423589D01*
X138575000Y-133696411D01*
X138603833Y-133841365D01*
X138160299Y-134284900D01*
X136385211Y-134284900D01*
X136341274Y-134240963D01*
X136171756Y-134127695D01*
X135983398Y-134049674D01*
X135783439Y-134009900D01*
X135579561Y-134009900D01*
X135379602Y-134049674D01*
X135191244Y-134127695D01*
X135021726Y-134240963D01*
X134877563Y-134385126D01*
X134764295Y-134554644D01*
X134686274Y-134743002D01*
X134646500Y-134942961D01*
X127112800Y-134942961D01*
X127112800Y-133456901D01*
X127985112Y-132584590D01*
X128042551Y-132537451D01*
X128066354Y-132508448D01*
X128805545Y-131769256D01*
X128840226Y-131803937D01*
X129009744Y-131917205D01*
X129198102Y-131995226D01*
X129398061Y-132035000D01*
X129601939Y-132035000D01*
X129801898Y-131995226D01*
X129990256Y-131917205D01*
X130159774Y-131803937D01*
X130303937Y-131659774D01*
X130348893Y-131592492D01*
X138570188Y-131592492D01*
X138611035Y-131862238D01*
X138703723Y-132118832D01*
X138764140Y-132231863D01*
X139003007Y-132297388D01*
X139780395Y-131520000D01*
X139003007Y-130742612D01*
X138764140Y-130808137D01*
X138648240Y-131055116D01*
X138582750Y-131319960D01*
X138570188Y-131592492D01*
X130348893Y-131592492D01*
X130417205Y-131490256D01*
X130495226Y-131301898D01*
X130535000Y-131101939D01*
X130535000Y-130898061D01*
X130495226Y-130698102D01*
X130439268Y-130563007D01*
X139182612Y-130563007D01*
X139960000Y-131340395D01*
X140737388Y-130563007D01*
X140671863Y-130324140D01*
X140424884Y-130208240D01*
X140160040Y-130142750D01*
X139887508Y-130130188D01*
X139617762Y-130171035D01*
X139361168Y-130263723D01*
X139248137Y-130324140D01*
X139182612Y-130563007D01*
X130439268Y-130563007D01*
X130417205Y-130509744D01*
X130303937Y-130340226D01*
X130159774Y-130196063D01*
X129990256Y-130082795D01*
X129801898Y-130004774D01*
X129601939Y-129965000D01*
X129398061Y-129965000D01*
X129198102Y-130004774D01*
X129009744Y-130082795D01*
X128840226Y-130196063D01*
X128796289Y-130240000D01*
X128537322Y-130240000D01*
X128499999Y-130236324D01*
X128462676Y-130240000D01*
X128462667Y-130240000D01*
X128351014Y-130250997D01*
X128207753Y-130294454D01*
X128075724Y-130365026D01*
X127959999Y-130459999D01*
X127936201Y-130488997D01*
X127014893Y-131410306D01*
X126957449Y-131457449D01*
X126933651Y-131486447D01*
X125841802Y-132578296D01*
X125812799Y-132602099D01*
X125757671Y-132669274D01*
X125717826Y-132717824D01*
X125686582Y-132776277D01*
X125647254Y-132849854D01*
X125603797Y-132993115D01*
X125592800Y-133104768D01*
X125592800Y-133104778D01*
X125589124Y-133142100D01*
X125592800Y-133179423D01*
X125592801Y-135296388D01*
X125548863Y-135340326D01*
X125435595Y-135509844D01*
X125357574Y-135698202D01*
X125317800Y-135898161D01*
X122955352Y-135898161D01*
X122995226Y-135801898D01*
X123035000Y-135601939D01*
X123035000Y-135398061D01*
X122995226Y-135198102D01*
X122917205Y-135009744D01*
X122803937Y-134840226D01*
X122720386Y-134756675D01*
X122705546Y-134707753D01*
X122634974Y-134575724D01*
X122540001Y-134459999D01*
X122510998Y-134436197D01*
X122094204Y-134019403D01*
X122070401Y-133990399D01*
X121954676Y-133895426D01*
X121822647Y-133824854D01*
X121679386Y-133781397D01*
X121567733Y-133770400D01*
X121567722Y-133770400D01*
X121530400Y-133766724D01*
X121493078Y-133770400D01*
X106178222Y-133770400D01*
X106075799Y-133617114D01*
X105882886Y-133424201D01*
X105656043Y-133272629D01*
X105403989Y-133168225D01*
X105136411Y-133115000D01*
X104863589Y-133115000D01*
X104596011Y-133168225D01*
X104343957Y-133272629D01*
X104117114Y-133424201D01*
X103924201Y-133617114D01*
X103772629Y-133843957D01*
X103668225Y-134096011D01*
X103615000Y-134363589D01*
X98685000Y-134363589D01*
X98685000Y-130556993D01*
X104222612Y-130556993D01*
X104288137Y-130795860D01*
X104535116Y-130911760D01*
X104799960Y-130977250D01*
X105072492Y-130989812D01*
X105342238Y-130948965D01*
X105598832Y-130856277D01*
X105711863Y-130795860D01*
X105777388Y-130556993D01*
X105000000Y-129779605D01*
X104222612Y-130556993D01*
X98685000Y-130556993D01*
X98685000Y-129672492D01*
X103610188Y-129672492D01*
X103651035Y-129942238D01*
X103743723Y-130198832D01*
X103804140Y-130311863D01*
X104043007Y-130377388D01*
X104820395Y-129600000D01*
X105179605Y-129600000D01*
X105956993Y-130377388D01*
X106195860Y-130311863D01*
X106311760Y-130064884D01*
X106377250Y-129800040D01*
X106389812Y-129527508D01*
X106348965Y-129257762D01*
X106256277Y-129001168D01*
X106195860Y-128888137D01*
X105956993Y-128822612D01*
X105179605Y-129600000D01*
X104820395Y-129600000D01*
X104043007Y-128822612D01*
X103804140Y-128888137D01*
X103688240Y-129135116D01*
X103622750Y-129399960D01*
X103610188Y-129672492D01*
X98685000Y-129672492D01*
X98685000Y-128643007D01*
X104222612Y-128643007D01*
X105000000Y-129420395D01*
X105777388Y-128643007D01*
X105711863Y-128404140D01*
X105464884Y-128288240D01*
X105200040Y-128222750D01*
X104927508Y-128210188D01*
X104657762Y-128251035D01*
X104401168Y-128343723D01*
X104288137Y-128404140D01*
X104222612Y-128643007D01*
X98685000Y-128643007D01*
X98685000Y-125854193D01*
X143015000Y-125854193D01*
X143015000Y-126205807D01*
X143083596Y-126550665D01*
X143218153Y-126875515D01*
X143413500Y-127167871D01*
X143662129Y-127416500D01*
X143954485Y-127611847D01*
X144279335Y-127746404D01*
X144624193Y-127815000D01*
X144975807Y-127815000D01*
X145320665Y-127746404D01*
X145645515Y-127611847D01*
X145937871Y-127416500D01*
X146186500Y-127167871D01*
X146381847Y-126875515D01*
X146516404Y-126550665D01*
X146585000Y-126205807D01*
X146585000Y-125854193D01*
X146516404Y-125509335D01*
X146381847Y-125184485D01*
X146186500Y-124892129D01*
X145937871Y-124643500D01*
X145645515Y-124448153D01*
X145320665Y-124313596D01*
X144975807Y-124245000D01*
X144624193Y-124245000D01*
X144279335Y-124313596D01*
X143954485Y-124448153D01*
X143662129Y-124643500D01*
X143413500Y-124892129D01*
X143218153Y-125184485D01*
X143083596Y-125509335D01*
X143015000Y-125854193D01*
X98685000Y-125854193D01*
X98685000Y-123276349D01*
X100903256Y-123276349D01*
X101107362Y-123632867D01*
X101550223Y-123863575D01*
X102029583Y-124003452D01*
X102527021Y-124047123D01*
X103023422Y-123992909D01*
X103499707Y-123842894D01*
X103892638Y-123632867D01*
X104096744Y-123276349D01*
X143903256Y-123276349D01*
X144107362Y-123632867D01*
X144550223Y-123863575D01*
X145029583Y-124003452D01*
X145527021Y-124047123D01*
X146023422Y-123992909D01*
X146499707Y-123842894D01*
X146892638Y-123632867D01*
X147096744Y-123276349D01*
X145500000Y-121679605D01*
X143903256Y-123276349D01*
X104096744Y-123276349D01*
X102500000Y-121679605D01*
X100903256Y-123276349D01*
X98685000Y-123276349D01*
X98685000Y-121527021D01*
X99952877Y-121527021D01*
X100007091Y-122023422D01*
X100157106Y-122499707D01*
X100367133Y-122892638D01*
X100723651Y-123096744D01*
X102320395Y-121500000D01*
X102679605Y-121500000D01*
X104276349Y-123096744D01*
X104632867Y-122892638D01*
X104863575Y-122449777D01*
X105003452Y-121970417D01*
X105042378Y-121527021D01*
X142952877Y-121527021D01*
X143007091Y-122023422D01*
X143157106Y-122499707D01*
X143367133Y-122892638D01*
X143723651Y-123096744D01*
X145320395Y-121500000D01*
X145679605Y-121500000D01*
X147276349Y-123096744D01*
X147632867Y-122892638D01*
X147863575Y-122449777D01*
X148003452Y-121970417D01*
X148047123Y-121472979D01*
X147992909Y-120976578D01*
X147842894Y-120500293D01*
X147632867Y-120107362D01*
X147276349Y-119903256D01*
X145679605Y-121500000D01*
X145320395Y-121500000D01*
X143723651Y-119903256D01*
X143367133Y-120107362D01*
X143136425Y-120550223D01*
X142996548Y-121029583D01*
X142952877Y-121527021D01*
X105042378Y-121527021D01*
X105047123Y-121472979D01*
X104992909Y-120976578D01*
X104842894Y-120500293D01*
X104632867Y-120107362D01*
X104276349Y-119903256D01*
X102679605Y-121500000D01*
X102320395Y-121500000D01*
X100723651Y-119903256D01*
X100367133Y-120107362D01*
X100136425Y-120550223D01*
X99996548Y-121029583D01*
X99952877Y-121527021D01*
X98685000Y-121527021D01*
X98685000Y-119723651D01*
X100903256Y-119723651D01*
X102500000Y-121320395D01*
X104096744Y-119723651D01*
X143903256Y-119723651D01*
X145500000Y-121320395D01*
X147096744Y-119723651D01*
X146892638Y-119367133D01*
X146449777Y-119136425D01*
X145970417Y-118996548D01*
X145472979Y-118952877D01*
X144976578Y-119007091D01*
X144500293Y-119157106D01*
X144107362Y-119367133D01*
X143903256Y-119723651D01*
X104096744Y-119723651D01*
X103892638Y-119367133D01*
X103449777Y-119136425D01*
X102970417Y-118996548D01*
X102472979Y-118952877D01*
X101976578Y-119007091D01*
X101500293Y-119157106D01*
X101107362Y-119367133D01*
X100903256Y-119723651D01*
X98685000Y-119723651D01*
X98685000Y-118185000D01*
X148815001Y-118185000D01*
X148815000Y-123533646D01*
%TA.AperFunction,Conductor*%
D16*
G36*
X148815000Y-123533646D02*
G01*
X148815001Y-123533656D01*
X148815000Y-148815000D01*
X98685000Y-148815000D01*
X98685000Y-147276349D01*
X100403256Y-147276349D01*
X100607362Y-147632867D01*
X101050223Y-147863575D01*
X101529583Y-148003452D01*
X102027021Y-148047123D01*
X102523422Y-147992909D01*
X102999707Y-147842894D01*
X103392638Y-147632867D01*
X103596744Y-147276349D01*
X102000000Y-145679605D01*
X100403256Y-147276349D01*
X98685000Y-147276349D01*
X98685000Y-145527021D01*
X99452877Y-145527021D01*
X99507091Y-146023422D01*
X99657106Y-146499707D01*
X99867133Y-146892638D01*
X100223651Y-147096744D01*
X101820395Y-145500000D01*
X102179605Y-145500000D01*
X103776349Y-147096744D01*
X104132867Y-146892638D01*
X104193447Y-146776349D01*
X143903256Y-146776349D01*
X144107362Y-147132867D01*
X144550223Y-147363575D01*
X145029583Y-147503452D01*
X145527021Y-147547123D01*
X146023422Y-147492909D01*
X146499707Y-147342894D01*
X146892638Y-147132867D01*
X147096744Y-146776349D01*
X145500000Y-145179605D01*
X143903256Y-146776349D01*
X104193447Y-146776349D01*
X104363575Y-146449777D01*
X104503452Y-145970417D01*
X104547123Y-145472979D01*
X104498419Y-145027021D01*
X142952877Y-145027021D01*
X143007091Y-145523422D01*
X143157106Y-145999707D01*
X143367133Y-146392638D01*
X143723651Y-146596744D01*
X145320395Y-145000000D01*
X145679605Y-145000000D01*
X147276349Y-146596744D01*
X147632867Y-146392638D01*
X147863575Y-145949777D01*
X148003452Y-145470417D01*
X148047123Y-144972979D01*
X147992909Y-144476578D01*
X147842894Y-144000293D01*
X147632867Y-143607362D01*
X147276349Y-143403256D01*
X145679605Y-145000000D01*
X145320395Y-145000000D01*
X143723651Y-143403256D01*
X143367133Y-143607362D01*
X143136425Y-144050223D01*
X142996548Y-144529583D01*
X142952877Y-145027021D01*
X104498419Y-145027021D01*
X104492909Y-144976578D01*
X104342894Y-144500293D01*
X104132867Y-144107362D01*
X103776349Y-143903256D01*
X102179605Y-145500000D01*
X101820395Y-145500000D01*
X100223651Y-143903256D01*
X99867133Y-144107362D01*
X99636425Y-144550223D01*
X99496548Y-145029583D01*
X99452877Y-145527021D01*
X98685000Y-145527021D01*
X98685000Y-143723651D01*
X100403256Y-143723651D01*
X102000000Y-145320395D01*
X103596744Y-143723651D01*
X103392638Y-143367133D01*
X103117214Y-143223651D01*
X143903256Y-143223651D01*
X145500000Y-144820395D01*
X147096744Y-143223651D01*
X146892638Y-142867133D01*
X146449777Y-142636425D01*
X145970417Y-142496548D01*
X145472979Y-142452877D01*
X144976578Y-142507091D01*
X144500293Y-142657106D01*
X144107362Y-142867133D01*
X143903256Y-143223651D01*
X103117214Y-143223651D01*
X102949777Y-143136425D01*
X102470417Y-142996548D01*
X101972979Y-142952877D01*
X101476578Y-143007091D01*
X101000293Y-143157106D01*
X100607362Y-143367133D01*
X100403256Y-143723651D01*
X98685000Y-143723651D01*
X98685000Y-137854193D01*
X143015000Y-137854193D01*
X143015000Y-138205807D01*
X143083596Y-138550665D01*
X143218153Y-138875515D01*
X143413500Y-139167871D01*
X143662129Y-139416500D01*
X143954485Y-139611847D01*
X144279335Y-139746404D01*
X144624193Y-139815000D01*
X144975807Y-139815000D01*
X145320665Y-139746404D01*
X145645515Y-139611847D01*
X145937871Y-139416500D01*
X146186500Y-139167871D01*
X146381847Y-138875515D01*
X146516404Y-138550665D01*
X146585000Y-138205807D01*
X146585000Y-137854193D01*
X146516404Y-137509335D01*
X146381847Y-137184485D01*
X146186500Y-136892129D01*
X145937871Y-136643500D01*
X145645515Y-136448153D01*
X145320665Y-136313596D01*
X144975807Y-136245000D01*
X144624193Y-136245000D01*
X144279335Y-136313596D01*
X143954485Y-136448153D01*
X143662129Y-136643500D01*
X143413500Y-136892129D01*
X143218153Y-137184485D01*
X143083596Y-137509335D01*
X143015000Y-137854193D01*
X98685000Y-137854193D01*
X98685000Y-134363589D01*
X103615000Y-134363589D01*
X103615000Y-134636411D01*
X103668225Y-134903989D01*
X103772629Y-135156043D01*
X103924201Y-135382886D01*
X104117114Y-135575799D01*
X104343957Y-135727371D01*
X104596011Y-135831775D01*
X104863589Y-135885000D01*
X105136411Y-135885000D01*
X105403989Y-135831775D01*
X105656043Y-135727371D01*
X105882886Y-135575799D01*
X106075799Y-135382886D01*
X106137596Y-135290400D01*
X120986415Y-135290400D01*
X120965000Y-135398061D01*
X120965000Y-135601939D01*
X121004774Y-135801898D01*
X121082795Y-135990256D01*
X121196063Y-136159774D01*
X121340226Y-136303937D01*
X121509744Y-136417205D01*
X121698102Y-136495226D01*
X121898061Y-136535000D01*
X122101939Y-136535000D01*
X122301898Y-136495226D01*
X122490256Y-136417205D01*
X122659774Y-136303937D01*
X122803937Y-136159774D01*
X122917205Y-135990256D01*
X122955352Y-135898161D01*
X125317800Y-135898161D01*
X125317800Y-136102039D01*
X125357574Y-136301998D01*
X125435595Y-136490356D01*
X125548863Y-136659874D01*
X125693026Y-136804037D01*
X125862544Y-136917305D01*
X126050902Y-136995326D01*
X126250861Y-137035100D01*
X126454739Y-137035100D01*
X126654698Y-136995326D01*
X126843056Y-136917305D01*
X127012574Y-136804037D01*
X127156737Y-136659874D01*
X127270005Y-136490356D01*
X127348026Y-136301998D01*
X127387800Y-136102039D01*
X127387800Y-135898161D01*
X127348026Y-135698202D01*
X127270005Y-135509844D01*
X127156737Y-135340326D01*
X127112800Y-135296389D01*
X127112800Y-134942961D01*
X134646500Y-134942961D01*
X134646500Y-135146839D01*
X134686274Y-135346798D01*
X134764295Y-135535156D01*
X134877563Y-135704674D01*
X135021726Y-135848837D01*
X135191244Y-135962105D01*
X135379602Y-136040126D01*
X135579561Y-136079900D01*
X135783439Y-136079900D01*
X135983398Y-136040126D01*
X136171756Y-135962105D01*
X136341274Y-135848837D01*
X136385211Y-135804900D01*
X138437778Y-135804900D01*
X138475100Y-135808576D01*
X138512422Y-135804900D01*
X138512433Y-135804900D01*
X138624086Y-135793903D01*
X138767347Y-135750446D01*
X138899376Y-135679874D01*
X139015101Y-135584901D01*
X139038904Y-135555897D01*
X139678635Y-134916167D01*
X139823589Y-134945000D01*
X140096411Y-134945000D01*
X140363989Y-134891775D01*
X140616043Y-134787371D01*
X140842886Y-134635799D01*
X141035799Y-134442886D01*
X141187371Y-134216043D01*
X141291775Y-133963989D01*
X141345000Y-133696411D01*
X141345000Y-133423589D01*
X141311229Y-133253812D01*
X141424201Y-133422886D01*
X141617114Y-133615799D01*
X141843957Y-133767371D01*
X142096011Y-133871775D01*
X142363589Y-133925000D01*
X142636411Y-133925000D01*
X142903989Y-133871775D01*
X143156043Y-133767371D01*
X143382886Y-133615799D01*
X143575799Y-133422886D01*
X143727371Y-133196043D01*
X143831775Y-132943989D01*
X143885000Y-132676411D01*
X143885000Y-132403589D01*
X143831775Y-132136011D01*
X143727371Y-131883957D01*
X143639224Y-131752035D01*
X143701185Y-131701185D01*
X143780537Y-131604494D01*
X143839502Y-131494180D01*
X143875812Y-131374482D01*
X143888072Y-131250000D01*
X143888072Y-129750000D01*
X143875812Y-129625518D01*
X143839502Y-129505820D01*
X143780537Y-129395506D01*
X143701185Y-129298815D01*
X143604494Y-129219463D01*
X143494180Y-129160498D01*
X143374482Y-129124188D01*
X143250000Y-129111928D01*
X141750000Y-129111928D01*
X141625518Y-129124188D01*
X141505820Y-129160498D01*
X141395506Y-129219463D01*
X141298815Y-129298815D01*
X141219463Y-129395506D01*
X141160498Y-129505820D01*
X141124188Y-129625518D01*
X141111928Y-129750000D01*
X141111928Y-130796086D01*
X140916993Y-130742612D01*
X140139605Y-131520000D01*
X140916993Y-132297388D01*
X141148772Y-132233807D01*
X141115000Y-132403589D01*
X141115000Y-132676411D01*
X141148771Y-132846188D01*
X141035799Y-132677114D01*
X140842886Y-132484201D01*
X140616043Y-132332629D01*
X140576747Y-132316352D01*
X139960000Y-131699605D01*
X139343253Y-132316352D01*
X139303957Y-132332629D01*
X139077114Y-132484201D01*
X138884201Y-132677114D01*
X138732629Y-132903957D01*
X138628225Y-133156011D01*
X138575000Y-133423589D01*
X138575000Y-133696411D01*
X138603833Y-133841365D01*
X138160299Y-134284900D01*
X136385211Y-134284900D01*
X136341274Y-134240963D01*
X136171756Y-134127695D01*
X135983398Y-134049674D01*
X135783439Y-134009900D01*
X135579561Y-134009900D01*
X135379602Y-134049674D01*
X135191244Y-134127695D01*
X135021726Y-134240963D01*
X134877563Y-134385126D01*
X134764295Y-134554644D01*
X134686274Y-134743002D01*
X134646500Y-134942961D01*
X127112800Y-134942961D01*
X127112800Y-133456901D01*
X127985112Y-132584590D01*
X128042551Y-132537451D01*
X128066354Y-132508448D01*
X128805545Y-131769256D01*
X128840226Y-131803937D01*
X129009744Y-131917205D01*
X129198102Y-131995226D01*
X129398061Y-132035000D01*
X129601939Y-132035000D01*
X129801898Y-131995226D01*
X129990256Y-131917205D01*
X130159774Y-131803937D01*
X130303937Y-131659774D01*
X130348893Y-131592492D01*
X138570188Y-131592492D01*
X138611035Y-131862238D01*
X138703723Y-132118832D01*
X138764140Y-132231863D01*
X139003007Y-132297388D01*
X139780395Y-131520000D01*
X139003007Y-130742612D01*
X138764140Y-130808137D01*
X138648240Y-131055116D01*
X138582750Y-131319960D01*
X138570188Y-131592492D01*
X130348893Y-131592492D01*
X130417205Y-131490256D01*
X130495226Y-131301898D01*
X130535000Y-131101939D01*
X130535000Y-130898061D01*
X130495226Y-130698102D01*
X130439268Y-130563007D01*
X139182612Y-130563007D01*
X139960000Y-131340395D01*
X140737388Y-130563007D01*
X140671863Y-130324140D01*
X140424884Y-130208240D01*
X140160040Y-130142750D01*
X139887508Y-130130188D01*
X139617762Y-130171035D01*
X139361168Y-130263723D01*
X139248137Y-130324140D01*
X139182612Y-130563007D01*
X130439268Y-130563007D01*
X130417205Y-130509744D01*
X130303937Y-130340226D01*
X130159774Y-130196063D01*
X129990256Y-130082795D01*
X129801898Y-130004774D01*
X129601939Y-129965000D01*
X129398061Y-129965000D01*
X129198102Y-130004774D01*
X129009744Y-130082795D01*
X128840226Y-130196063D01*
X128796289Y-130240000D01*
X128537322Y-130240000D01*
X128499999Y-130236324D01*
X128462676Y-130240000D01*
X128462667Y-130240000D01*
X128351014Y-130250997D01*
X128207753Y-130294454D01*
X128075724Y-130365026D01*
X127959999Y-130459999D01*
X127936201Y-130488997D01*
X127014893Y-131410306D01*
X126957449Y-131457449D01*
X126933651Y-131486447D01*
X125841802Y-132578296D01*
X125812799Y-132602099D01*
X125757671Y-132669274D01*
X125717826Y-132717824D01*
X125686582Y-132776277D01*
X125647254Y-132849854D01*
X125603797Y-132993115D01*
X125592800Y-133104768D01*
X125592800Y-133104778D01*
X125589124Y-133142100D01*
X125592800Y-133179423D01*
X125592801Y-135296388D01*
X125548863Y-135340326D01*
X125435595Y-135509844D01*
X125357574Y-135698202D01*
X125317800Y-135898161D01*
X122955352Y-135898161D01*
X122995226Y-135801898D01*
X123035000Y-135601939D01*
X123035000Y-135398061D01*
X122995226Y-135198102D01*
X122917205Y-135009744D01*
X122803937Y-134840226D01*
X122720386Y-134756675D01*
X122705546Y-134707753D01*
X122634974Y-134575724D01*
X122540001Y-134459999D01*
X122510998Y-134436197D01*
X122094204Y-134019403D01*
X122070401Y-133990399D01*
X121954676Y-133895426D01*
X121822647Y-133824854D01*
X121679386Y-133781397D01*
X121567733Y-133770400D01*
X121567722Y-133770400D01*
X121530400Y-133766724D01*
X121493078Y-133770400D01*
X106178222Y-133770400D01*
X106075799Y-133617114D01*
X105882886Y-133424201D01*
X105656043Y-133272629D01*
X105403989Y-133168225D01*
X105136411Y-133115000D01*
X104863589Y-133115000D01*
X104596011Y-133168225D01*
X104343957Y-133272629D01*
X104117114Y-133424201D01*
X103924201Y-133617114D01*
X103772629Y-133843957D01*
X103668225Y-134096011D01*
X103615000Y-134363589D01*
X98685000Y-134363589D01*
X98685000Y-130556993D01*
X104222612Y-130556993D01*
X104288137Y-130795860D01*
X104535116Y-130911760D01*
X104799960Y-130977250D01*
X105072492Y-130989812D01*
X105342238Y-130948965D01*
X105598832Y-130856277D01*
X105711863Y-130795860D01*
X105777388Y-130556993D01*
X105000000Y-129779605D01*
X104222612Y-130556993D01*
X98685000Y-130556993D01*
X98685000Y-129672492D01*
X103610188Y-129672492D01*
X103651035Y-129942238D01*
X103743723Y-130198832D01*
X103804140Y-130311863D01*
X104043007Y-130377388D01*
X104820395Y-129600000D01*
X105179605Y-129600000D01*
X105956993Y-130377388D01*
X106195860Y-130311863D01*
X106311760Y-130064884D01*
X106377250Y-129800040D01*
X106389812Y-129527508D01*
X106348965Y-129257762D01*
X106256277Y-129001168D01*
X106195860Y-128888137D01*
X105956993Y-128822612D01*
X105179605Y-129600000D01*
X104820395Y-129600000D01*
X104043007Y-128822612D01*
X103804140Y-128888137D01*
X103688240Y-129135116D01*
X103622750Y-129399960D01*
X103610188Y-129672492D01*
X98685000Y-129672492D01*
X98685000Y-128643007D01*
X104222612Y-128643007D01*
X105000000Y-129420395D01*
X105777388Y-128643007D01*
X105711863Y-128404140D01*
X105464884Y-128288240D01*
X105200040Y-128222750D01*
X104927508Y-128210188D01*
X104657762Y-128251035D01*
X104401168Y-128343723D01*
X104288137Y-128404140D01*
X104222612Y-128643007D01*
X98685000Y-128643007D01*
X98685000Y-125854193D01*
X143015000Y-125854193D01*
X143015000Y-126205807D01*
X143083596Y-126550665D01*
X143218153Y-126875515D01*
X143413500Y-127167871D01*
X143662129Y-127416500D01*
X143954485Y-127611847D01*
X144279335Y-127746404D01*
X144624193Y-127815000D01*
X144975807Y-127815000D01*
X145320665Y-127746404D01*
X145645515Y-127611847D01*
X145937871Y-127416500D01*
X146186500Y-127167871D01*
X146381847Y-126875515D01*
X146516404Y-126550665D01*
X146585000Y-126205807D01*
X146585000Y-125854193D01*
X146516404Y-125509335D01*
X146381847Y-125184485D01*
X146186500Y-124892129D01*
X145937871Y-124643500D01*
X145645515Y-124448153D01*
X145320665Y-124313596D01*
X144975807Y-124245000D01*
X144624193Y-124245000D01*
X144279335Y-124313596D01*
X143954485Y-124448153D01*
X143662129Y-124643500D01*
X143413500Y-124892129D01*
X143218153Y-125184485D01*
X143083596Y-125509335D01*
X143015000Y-125854193D01*
X98685000Y-125854193D01*
X98685000Y-123276349D01*
X100903256Y-123276349D01*
X101107362Y-123632867D01*
X101550223Y-123863575D01*
X102029583Y-124003452D01*
X102527021Y-124047123D01*
X103023422Y-123992909D01*
X103499707Y-123842894D01*
X103892638Y-123632867D01*
X104096744Y-123276349D01*
X143903256Y-123276349D01*
X144107362Y-123632867D01*
X144550223Y-123863575D01*
X145029583Y-124003452D01*
X145527021Y-124047123D01*
X146023422Y-123992909D01*
X146499707Y-123842894D01*
X146892638Y-123632867D01*
X147096744Y-123276349D01*
X145500000Y-121679605D01*
X143903256Y-123276349D01*
X104096744Y-123276349D01*
X102500000Y-121679605D01*
X100903256Y-123276349D01*
X98685000Y-123276349D01*
X98685000Y-121527021D01*
X99952877Y-121527021D01*
X100007091Y-122023422D01*
X100157106Y-122499707D01*
X100367133Y-122892638D01*
X100723651Y-123096744D01*
X102320395Y-121500000D01*
X102679605Y-121500000D01*
X104276349Y-123096744D01*
X104632867Y-122892638D01*
X104863575Y-122449777D01*
X105003452Y-121970417D01*
X105042378Y-121527021D01*
X142952877Y-121527021D01*
X143007091Y-122023422D01*
X143157106Y-122499707D01*
X143367133Y-122892638D01*
X143723651Y-123096744D01*
X145320395Y-121500000D01*
X145679605Y-121500000D01*
X147276349Y-123096744D01*
X147632867Y-122892638D01*
X147863575Y-122449777D01*
X148003452Y-121970417D01*
X148047123Y-121472979D01*
X147992909Y-120976578D01*
X147842894Y-120500293D01*
X147632867Y-120107362D01*
X147276349Y-119903256D01*
X145679605Y-121500000D01*
X145320395Y-121500000D01*
X143723651Y-119903256D01*
X143367133Y-120107362D01*
X143136425Y-120550223D01*
X142996548Y-121029583D01*
X142952877Y-121527021D01*
X105042378Y-121527021D01*
X105047123Y-121472979D01*
X104992909Y-120976578D01*
X104842894Y-120500293D01*
X104632867Y-120107362D01*
X104276349Y-119903256D01*
X102679605Y-121500000D01*
X102320395Y-121500000D01*
X100723651Y-119903256D01*
X100367133Y-120107362D01*
X100136425Y-120550223D01*
X99996548Y-121029583D01*
X99952877Y-121527021D01*
X98685000Y-121527021D01*
X98685000Y-119723651D01*
X100903256Y-119723651D01*
X102500000Y-121320395D01*
X104096744Y-119723651D01*
X143903256Y-119723651D01*
X145500000Y-121320395D01*
X147096744Y-119723651D01*
X146892638Y-119367133D01*
X146449777Y-119136425D01*
X145970417Y-118996548D01*
X145472979Y-118952877D01*
X144976578Y-119007091D01*
X144500293Y-119157106D01*
X144107362Y-119367133D01*
X143903256Y-119723651D01*
X104096744Y-119723651D01*
X103892638Y-119367133D01*
X103449777Y-119136425D01*
X102970417Y-118996548D01*
X102472979Y-118952877D01*
X101976578Y-119007091D01*
X101500293Y-119157106D01*
X101107362Y-119367133D01*
X100903256Y-119723651D01*
X98685000Y-119723651D01*
X98685000Y-118185000D01*
X148815001Y-118185000D01*
X148815000Y-123533646D01*
G37*
%TD.AperFunction*%
%TD*%
M02*
