%TF.GenerationSoftware,KiCad,Pcbnew,5.1.9-73d0e3b20d~88~ubuntu20.04.1*%
%TF.CreationDate,2021-04-13T12:06:45+02:00*%
%TF.ProjectId,piezo,7069657a-6f2e-46b6-9963-61645f706362,rev?*%
%TF.SameCoordinates,Original*%
%TF.FileFunction,Copper,L1,Top*%
%TF.FilePolarity,Positive*%
%FSLAX46Y46*%
G04 Gerber Fmt 4.6, Leading zero omitted, Abs format (unit mm)*
G04 Created by KiCad (PCBNEW 5.1.9-73d0e3b20d~88~ubuntu20.04.1) date 2021-04-13 12:06:45*
%MOMM*%
%LPD*%
G01*
G04 APERTURE LIST*
%TA.AperFunction,ComponentPad*%
%ADD10C,1.500000*%
%TD*%
%TA.AperFunction,ComponentPad*%
%ADD11R,1.500000X1.500000*%
%TD*%
%TA.AperFunction,SMDPad,CuDef*%
%ADD12R,1.200000X0.900000*%
%TD*%
%TA.AperFunction,ComponentPad*%
%ADD13C,3.800000*%
%TD*%
%TA.AperFunction,SMDPad,CuDef*%
%ADD14R,1.550000X0.600000*%
%TD*%
%TA.AperFunction,SMDPad,CuDef*%
%ADD15R,2.710000X3.400000*%
%TD*%
%TA.AperFunction,ViaPad*%
%ADD16C,0.800000*%
%TD*%
%TA.AperFunction,Conductor*%
%ADD17C,0.250000*%
%TD*%
%TA.AperFunction,Conductor*%
%ADD18C,0.254000*%
%TD*%
%TA.AperFunction,Conductor*%
%ADD19C,0.100000*%
%TD*%
G04 APERTURE END LIST*
%TO.P,C1,2*%
%TO.N,GND*%
%TA.AperFunction,SMDPad,CuDef*%
G36*
G01*
X131950000Y-128400000D02*
X133050000Y-128400000D01*
G75*
G02*
X133300000Y-128650000I0J-250000D01*
G01*
X133300000Y-131150000D01*
G75*
G02*
X133050000Y-131400000I-250000J0D01*
G01*
X131950000Y-131400000D01*
G75*
G02*
X131700000Y-131150000I0J250000D01*
G01*
X131700000Y-128650000D01*
G75*
G02*
X131950000Y-128400000I250000J0D01*
G01*
G37*
%TD.AperFunction*%
%TO.P,C1,1*%
%TO.N,Net-(C1-Pad1)*%
%TA.AperFunction,SMDPad,CuDef*%
G36*
G01*
X131950000Y-124000000D02*
X133050000Y-124000000D01*
G75*
G02*
X133300000Y-124250000I0J-250000D01*
G01*
X133300000Y-126750000D01*
G75*
G02*
X133050000Y-127000000I-250000J0D01*
G01*
X131950000Y-127000000D01*
G75*
G02*
X131700000Y-126750000I0J250000D01*
G01*
X131700000Y-124250000D01*
G75*
G02*
X131950000Y-124000000I250000J0D01*
G01*
G37*
%TD.AperFunction*%
%TD*%
%TO.P,C2,2*%
%TO.N,GND*%
%TA.AperFunction,SMDPad,CuDef*%
G36*
G01*
X113500000Y-144050000D02*
X113500000Y-142950000D01*
G75*
G02*
X113750000Y-142700000I250000J0D01*
G01*
X116250000Y-142700000D01*
G75*
G02*
X116500000Y-142950000I0J-250000D01*
G01*
X116500000Y-144050000D01*
G75*
G02*
X116250000Y-144300000I-250000J0D01*
G01*
X113750000Y-144300000D01*
G75*
G02*
X113500000Y-144050000I0J250000D01*
G01*
G37*
%TD.AperFunction*%
%TO.P,C2,1*%
%TO.N,VCC*%
%TA.AperFunction,SMDPad,CuDef*%
G36*
G01*
X109100000Y-144050000D02*
X109100000Y-142950000D01*
G75*
G02*
X109350000Y-142700000I250000J0D01*
G01*
X111850000Y-142700000D01*
G75*
G02*
X112100000Y-142950000I0J-250000D01*
G01*
X112100000Y-144050000D01*
G75*
G02*
X111850000Y-144300000I-250000J0D01*
G01*
X109350000Y-144300000D01*
G75*
G02*
X109100000Y-144050000I0J250000D01*
G01*
G37*
%TD.AperFunction*%
%TD*%
%TO.P,C3,1*%
%TO.N,GND*%
%TA.AperFunction,SMDPad,CuDef*%
G36*
G01*
X110600000Y-124050000D02*
X110600000Y-122950000D01*
G75*
G02*
X110850000Y-122700000I250000J0D01*
G01*
X113350000Y-122700000D01*
G75*
G02*
X113600000Y-122950000I0J-250000D01*
G01*
X113600000Y-124050000D01*
G75*
G02*
X113350000Y-124300000I-250000J0D01*
G01*
X110850000Y-124300000D01*
G75*
G02*
X110600000Y-124050000I0J250000D01*
G01*
G37*
%TD.AperFunction*%
%TO.P,C3,2*%
%TO.N,Net-(C3-Pad2)*%
%TA.AperFunction,SMDPad,CuDef*%
G36*
G01*
X115000000Y-124050000D02*
X115000000Y-122950000D01*
G75*
G02*
X115250000Y-122700000I250000J0D01*
G01*
X117750000Y-122700000D01*
G75*
G02*
X118000000Y-122950000I0J-250000D01*
G01*
X118000000Y-124050000D01*
G75*
G02*
X117750000Y-124300000I-250000J0D01*
G01*
X115250000Y-124300000D01*
G75*
G02*
X115000000Y-124050000I0J250000D01*
G01*
G37*
%TD.AperFunction*%
%TD*%
%TO.P,C4,1*%
%TO.N,Net-(C4-Pad1)*%
%TA.AperFunction,SMDPad,CuDef*%
G36*
G01*
X131950000Y-132600000D02*
X133050000Y-132600000D01*
G75*
G02*
X133300000Y-132850000I0J-250000D01*
G01*
X133300000Y-135350000D01*
G75*
G02*
X133050000Y-135600000I-250000J0D01*
G01*
X131950000Y-135600000D01*
G75*
G02*
X131700000Y-135350000I0J250000D01*
G01*
X131700000Y-132850000D01*
G75*
G02*
X131950000Y-132600000I250000J0D01*
G01*
G37*
%TD.AperFunction*%
%TO.P,C4,2*%
%TO.N,Net-(C4-Pad2)*%
%TA.AperFunction,SMDPad,CuDef*%
G36*
G01*
X131950000Y-137000000D02*
X133050000Y-137000000D01*
G75*
G02*
X133300000Y-137250000I0J-250000D01*
G01*
X133300000Y-139750000D01*
G75*
G02*
X133050000Y-140000000I-250000J0D01*
G01*
X131950000Y-140000000D01*
G75*
G02*
X131700000Y-139750000I0J250000D01*
G01*
X131700000Y-137250000D01*
G75*
G02*
X131950000Y-137000000I250000J0D01*
G01*
G37*
%TD.AperFunction*%
%TD*%
D10*
%TO.P,X1,1*%
%TO.N,Net-(D1-Pad2)*%
X105000000Y-134500000D03*
%TO.P,X1,2*%
%TO.N,GND*%
X105000000Y-129600000D03*
%TD*%
%TO.P,R4,2*%
%TO.N,Net-(R4-Pad2)*%
%TA.AperFunction,SMDPad,CuDef*%
G36*
G01*
X118850000Y-134237500D02*
X118850000Y-133762500D01*
G75*
G02*
X119087500Y-133525000I237500J0D01*
G01*
X119662500Y-133525000D01*
G75*
G02*
X119900000Y-133762500I0J-237500D01*
G01*
X119900000Y-134237500D01*
G75*
G02*
X119662500Y-134475000I-237500J0D01*
G01*
X119087500Y-134475000D01*
G75*
G02*
X118850000Y-134237500I0J237500D01*
G01*
G37*
%TD.AperFunction*%
%TO.P,R4,1*%
%TO.N,Net-(C3-Pad2)*%
%TA.AperFunction,SMDPad,CuDef*%
G36*
G01*
X117100000Y-134237500D02*
X117100000Y-133762500D01*
G75*
G02*
X117337500Y-133525000I237500J0D01*
G01*
X117912500Y-133525000D01*
G75*
G02*
X118150000Y-133762500I0J-237500D01*
G01*
X118150000Y-134237500D01*
G75*
G02*
X117912500Y-134475000I-237500J0D01*
G01*
X117337500Y-134475000D01*
G75*
G02*
X117100000Y-134237500I0J237500D01*
G01*
G37*
%TD.AperFunction*%
%TD*%
%TO.P,R1,1*%
%TO.N,Net-(D1-Pad2)*%
%TA.AperFunction,SMDPad,CuDef*%
G36*
G01*
X110737500Y-135025000D02*
X110262500Y-135025000D01*
G75*
G02*
X110025000Y-134787500I0J237500D01*
G01*
X110025000Y-134212500D01*
G75*
G02*
X110262500Y-133975000I237500J0D01*
G01*
X110737500Y-133975000D01*
G75*
G02*
X110975000Y-134212500I0J-237500D01*
G01*
X110975000Y-134787500D01*
G75*
G02*
X110737500Y-135025000I-237500J0D01*
G01*
G37*
%TD.AperFunction*%
%TO.P,R1,2*%
%TO.N,Net-(C1-Pad1)*%
%TA.AperFunction,SMDPad,CuDef*%
G36*
G01*
X110737500Y-133275000D02*
X110262500Y-133275000D01*
G75*
G02*
X110025000Y-133037500I0J237500D01*
G01*
X110025000Y-132462500D01*
G75*
G02*
X110262500Y-132225000I237500J0D01*
G01*
X110737500Y-132225000D01*
G75*
G02*
X110975000Y-132462500I0J-237500D01*
G01*
X110975000Y-133037500D01*
G75*
G02*
X110737500Y-133275000I-237500J0D01*
G01*
G37*
%TD.AperFunction*%
%TD*%
%TO.P,R2,1*%
%TO.N,VCC*%
%TA.AperFunction,SMDPad,CuDef*%
G36*
G01*
X110737500Y-138900000D02*
X110262500Y-138900000D01*
G75*
G02*
X110025000Y-138662500I0J237500D01*
G01*
X110025000Y-138087500D01*
G75*
G02*
X110262500Y-137850000I237500J0D01*
G01*
X110737500Y-137850000D01*
G75*
G02*
X110975000Y-138087500I0J-237500D01*
G01*
X110975000Y-138662500D01*
G75*
G02*
X110737500Y-138900000I-237500J0D01*
G01*
G37*
%TD.AperFunction*%
%TO.P,R2,2*%
%TO.N,Net-(C1-Pad1)*%
%TA.AperFunction,SMDPad,CuDef*%
G36*
G01*
X110737500Y-137150000D02*
X110262500Y-137150000D01*
G75*
G02*
X110025000Y-136912500I0J237500D01*
G01*
X110025000Y-136337500D01*
G75*
G02*
X110262500Y-136100000I237500J0D01*
G01*
X110737500Y-136100000D01*
G75*
G02*
X110975000Y-136337500I0J-237500D01*
G01*
X110975000Y-136912500D01*
G75*
G02*
X110737500Y-137150000I-237500J0D01*
G01*
G37*
%TD.AperFunction*%
%TD*%
%TO.P,R3,2*%
%TO.N,GND*%
%TA.AperFunction,SMDPad,CuDef*%
G36*
G01*
X110737500Y-128775000D02*
X110262500Y-128775000D01*
G75*
G02*
X110025000Y-128537500I0J237500D01*
G01*
X110025000Y-127962500D01*
G75*
G02*
X110262500Y-127725000I237500J0D01*
G01*
X110737500Y-127725000D01*
G75*
G02*
X110975000Y-127962500I0J-237500D01*
G01*
X110975000Y-128537500D01*
G75*
G02*
X110737500Y-128775000I-237500J0D01*
G01*
G37*
%TD.AperFunction*%
%TO.P,R3,1*%
%TO.N,Net-(C1-Pad1)*%
%TA.AperFunction,SMDPad,CuDef*%
G36*
G01*
X110737500Y-130525000D02*
X110262500Y-130525000D01*
G75*
G02*
X110025000Y-130287500I0J237500D01*
G01*
X110025000Y-129712500D01*
G75*
G02*
X110262500Y-129475000I237500J0D01*
G01*
X110737500Y-129475000D01*
G75*
G02*
X110975000Y-129712500I0J-237500D01*
G01*
X110975000Y-130287500D01*
G75*
G02*
X110737500Y-130525000I-237500J0D01*
G01*
G37*
%TD.AperFunction*%
%TD*%
%TO.P,R5,1*%
%TO.N,Net-(R5-Pad1)*%
%TA.AperFunction,SMDPad,CuDef*%
G36*
G01*
X123525000Y-138762500D02*
X123525000Y-139237500D01*
G75*
G02*
X123287500Y-139475000I-237500J0D01*
G01*
X122712500Y-139475000D01*
G75*
G02*
X122475000Y-139237500I0J237500D01*
G01*
X122475000Y-138762500D01*
G75*
G02*
X122712500Y-138525000I237500J0D01*
G01*
X123287500Y-138525000D01*
G75*
G02*
X123525000Y-138762500I0J-237500D01*
G01*
G37*
%TD.AperFunction*%
%TO.P,R5,2*%
%TO.N,Net-(R4-Pad2)*%
%TA.AperFunction,SMDPad,CuDef*%
G36*
G01*
X121775000Y-138762500D02*
X121775000Y-139237500D01*
G75*
G02*
X121537500Y-139475000I-237500J0D01*
G01*
X120962500Y-139475000D01*
G75*
G02*
X120725000Y-139237500I0J237500D01*
G01*
X120725000Y-138762500D01*
G75*
G02*
X120962500Y-138525000I237500J0D01*
G01*
X121537500Y-138525000D01*
G75*
G02*
X121775000Y-138762500I0J-237500D01*
G01*
G37*
%TD.AperFunction*%
%TD*%
%TO.P,R6,2*%
%TO.N,Net-(R6-Pad2)*%
%TA.AperFunction,SMDPad,CuDef*%
G36*
G01*
X126150000Y-138762500D02*
X126150000Y-139237500D01*
G75*
G02*
X125912500Y-139475000I-237500J0D01*
G01*
X125337500Y-139475000D01*
G75*
G02*
X125100000Y-139237500I0J237500D01*
G01*
X125100000Y-138762500D01*
G75*
G02*
X125337500Y-138525000I237500J0D01*
G01*
X125912500Y-138525000D01*
G75*
G02*
X126150000Y-138762500I0J-237500D01*
G01*
G37*
%TD.AperFunction*%
%TO.P,R6,1*%
%TO.N,Net-(C4-Pad2)*%
%TA.AperFunction,SMDPad,CuDef*%
G36*
G01*
X127900000Y-138762500D02*
X127900000Y-139237500D01*
G75*
G02*
X127662500Y-139475000I-237500J0D01*
G01*
X127087500Y-139475000D01*
G75*
G02*
X126850000Y-139237500I0J237500D01*
G01*
X126850000Y-138762500D01*
G75*
G02*
X127087500Y-138525000I237500J0D01*
G01*
X127662500Y-138525000D01*
G75*
G02*
X127900000Y-138762500I0J-237500D01*
G01*
G37*
%TD.AperFunction*%
%TD*%
%TO.P,R7,1*%
%TO.N,GND*%
%TA.AperFunction,SMDPad,CuDef*%
G36*
G01*
X124975000Y-128237500D02*
X124975000Y-127762500D01*
G75*
G02*
X125212500Y-127525000I237500J0D01*
G01*
X125787500Y-127525000D01*
G75*
G02*
X126025000Y-127762500I0J-237500D01*
G01*
X126025000Y-128237500D01*
G75*
G02*
X125787500Y-128475000I-237500J0D01*
G01*
X125212500Y-128475000D01*
G75*
G02*
X124975000Y-128237500I0J237500D01*
G01*
G37*
%TD.AperFunction*%
%TO.P,R7,2*%
%TO.N,Net-(C4-Pad1)*%
%TA.AperFunction,SMDPad,CuDef*%
G36*
G01*
X126725000Y-128237500D02*
X126725000Y-127762500D01*
G75*
G02*
X126962500Y-127525000I237500J0D01*
G01*
X127537500Y-127525000D01*
G75*
G02*
X127775000Y-127762500I0J-237500D01*
G01*
X127775000Y-128237500D01*
G75*
G02*
X127537500Y-128475000I-237500J0D01*
G01*
X126962500Y-128475000D01*
G75*
G02*
X126725000Y-128237500I0J237500D01*
G01*
G37*
%TD.AperFunction*%
%TD*%
D11*
%TO.P,J1,1*%
%TO.N,Net-(C4-Pad1)*%
X142500000Y-130500000D03*
D10*
%TO.P,J1,2*%
%TO.N,GND*%
X139960000Y-131520000D03*
%TO.P,J1,3*%
%TO.N,Net-(C6-Pad1)*%
X142500000Y-132540000D03*
%TO.P,J1,4*%
%TO.N,VCC*%
X139960000Y-133560000D03*
%TD*%
D12*
%TO.P,D1,1*%
%TO.N,VCC*%
X114500000Y-137800000D03*
%TO.P,D1,2*%
%TO.N,Net-(D1-Pad2)*%
X114500000Y-134500000D03*
%TD*%
%TO.P,D2,2*%
%TO.N,GND*%
X114500000Y-129200000D03*
%TO.P,D2,1*%
%TO.N,Net-(D1-Pad2)*%
X114500000Y-132500000D03*
%TD*%
D13*
%TO.P,J2,1*%
%TO.N,GND*%
X145500000Y-121500000D03*
%TD*%
%TO.P,J3,1*%
%TO.N,GND*%
X145500000Y-145000000D03*
%TD*%
%TO.P,J4,1*%
%TO.N,GND*%
X102500000Y-121500000D03*
%TD*%
%TO.P,J5,1*%
%TO.N,GND*%
X102000000Y-145500000D03*
%TD*%
%TO.P,C5,1*%
%TO.N,Net-(C5-Pad1)*%
%TA.AperFunction,SMDPad,CuDef*%
G36*
G01*
X131900000Y-143450000D02*
X131900000Y-144550000D01*
G75*
G02*
X131650000Y-144800000I-250000J0D01*
G01*
X129150000Y-144800000D01*
G75*
G02*
X128900000Y-144550000I0J250000D01*
G01*
X128900000Y-143450000D01*
G75*
G02*
X129150000Y-143200000I250000J0D01*
G01*
X131650000Y-143200000D01*
G75*
G02*
X131900000Y-143450000I0J-250000D01*
G01*
G37*
%TD.AperFunction*%
%TO.P,C5,2*%
%TO.N,GND*%
%TA.AperFunction,SMDPad,CuDef*%
G36*
G01*
X127500000Y-143450000D02*
X127500000Y-144550000D01*
G75*
G02*
X127250000Y-144800000I-250000J0D01*
G01*
X124750000Y-144800000D01*
G75*
G02*
X124500000Y-144550000I0J250000D01*
G01*
X124500000Y-143450000D01*
G75*
G02*
X124750000Y-143200000I250000J0D01*
G01*
X127250000Y-143200000D01*
G75*
G02*
X127500000Y-143450000I0J-250000D01*
G01*
G37*
%TD.AperFunction*%
%TD*%
%TO.P,C6,1*%
%TO.N,Net-(C6-Pad1)*%
%TA.AperFunction,SMDPad,CuDef*%
G36*
G01*
X128400000Y-121450000D02*
X128400000Y-122550000D01*
G75*
G02*
X128150000Y-122800000I-250000J0D01*
G01*
X125650000Y-122800000D01*
G75*
G02*
X125400000Y-122550000I0J250000D01*
G01*
X125400000Y-121450000D01*
G75*
G02*
X125650000Y-121200000I250000J0D01*
G01*
X128150000Y-121200000D01*
G75*
G02*
X128400000Y-121450000I0J-250000D01*
G01*
G37*
%TD.AperFunction*%
%TO.P,C6,2*%
%TO.N,Net-(C6-Pad2)*%
%TA.AperFunction,SMDPad,CuDef*%
G36*
G01*
X124000000Y-121450000D02*
X124000000Y-122550000D01*
G75*
G02*
X123750000Y-122800000I-250000J0D01*
G01*
X121250000Y-122800000D01*
G75*
G02*
X121000000Y-122550000I0J250000D01*
G01*
X121000000Y-121450000D01*
G75*
G02*
X121250000Y-121200000I250000J0D01*
G01*
X123750000Y-121200000D01*
G75*
G02*
X124000000Y-121450000I0J-250000D01*
G01*
G37*
%TD.AperFunction*%
%TD*%
%TO.P,R8,1*%
%TO.N,Net-(R6-Pad2)*%
%TA.AperFunction,SMDPad,CuDef*%
G36*
G01*
X125188000Y-137237500D02*
X125188000Y-136762500D01*
G75*
G02*
X125425500Y-136525000I237500J0D01*
G01*
X125925500Y-136525000D01*
G75*
G02*
X126163000Y-136762500I0J-237500D01*
G01*
X126163000Y-137237500D01*
G75*
G02*
X125925500Y-137475000I-237500J0D01*
G01*
X125425500Y-137475000D01*
G75*
G02*
X125188000Y-137237500I0J237500D01*
G01*
G37*
%TD.AperFunction*%
%TO.P,R8,2*%
%TO.N,Net-(D1-Pad2)*%
%TA.AperFunction,SMDPad,CuDef*%
G36*
G01*
X127013000Y-137237500D02*
X127013000Y-136762500D01*
G75*
G02*
X127250500Y-136525000I237500J0D01*
G01*
X127750500Y-136525000D01*
G75*
G02*
X127988000Y-136762500I0J-237500D01*
G01*
X127988000Y-137237500D01*
G75*
G02*
X127750500Y-137475000I-237500J0D01*
G01*
X127250500Y-137475000D01*
G75*
G02*
X127013000Y-137237500I0J237500D01*
G01*
G37*
%TD.AperFunction*%
%TD*%
%TO.P,R9,2*%
%TO.N,Net-(R5-Pad1)*%
%TA.AperFunction,SMDPad,CuDef*%
G36*
G01*
X122163000Y-127762500D02*
X122163000Y-128237500D01*
G75*
G02*
X121925500Y-128475000I-237500J0D01*
G01*
X121425500Y-128475000D01*
G75*
G02*
X121188000Y-128237500I0J237500D01*
G01*
X121188000Y-127762500D01*
G75*
G02*
X121425500Y-127525000I237500J0D01*
G01*
X121925500Y-127525000D01*
G75*
G02*
X122163000Y-127762500I0J-237500D01*
G01*
G37*
%TD.AperFunction*%
%TO.P,R9,1*%
%TO.N,Net-(C6-Pad2)*%
%TA.AperFunction,SMDPad,CuDef*%
G36*
G01*
X123988000Y-127762500D02*
X123988000Y-128237500D01*
G75*
G02*
X123750500Y-128475000I-237500J0D01*
G01*
X123250500Y-128475000D01*
G75*
G02*
X123013000Y-128237500I0J237500D01*
G01*
X123013000Y-127762500D01*
G75*
G02*
X123250500Y-127525000I237500J0D01*
G01*
X123750500Y-127525000D01*
G75*
G02*
X123988000Y-127762500I0J-237500D01*
G01*
G37*
%TD.AperFunction*%
%TD*%
D14*
%TO.P,U1,8*%
%TO.N,Net-(R4-Pad2)*%
X122300000Y-133905000D03*
%TO.P,U1,1*%
%TO.N,Net-(D1-Pad2)*%
X127700000Y-133905000D03*
%TO.P,U1,7*%
%TO.N,VCC*%
X122300000Y-132635000D03*
%TO.P,U1,2*%
%TO.N,Net-(C5-Pad1)*%
X127700000Y-132635000D03*
%TO.P,U1,6*%
%TO.N,GND*%
X122300000Y-131365000D03*
%TO.P,U1,3*%
%TO.N,VCC*%
X127700000Y-131365000D03*
%TO.P,U1,5*%
%TO.N,Net-(R5-Pad1)*%
X122300000Y-130095000D03*
%TO.P,U1,4*%
%TO.N,Net-(R6-Pad2)*%
X127700000Y-130095000D03*
D15*
%TO.P,U1,9*%
%TO.N,N/C*%
X125000000Y-132000000D03*
%TD*%
D16*
%TO.N,GND*%
X117000000Y-139500000D03*
X109500000Y-140500000D03*
X123000000Y-135500000D03*
X132000000Y-141500000D03*
X130500000Y-137000000D03*
X116000000Y-127000000D03*
X129500000Y-124500000D03*
%TO.N,VCC*%
X120887100Y-132617500D03*
X129095500Y-131365000D03*
%TO.N,Net-(R5-Pad1)*%
X123000000Y-137906400D03*
X121231500Y-129205200D03*
%TD*%
D17*
%TO.N,GND*%
X103917200Y-145125000D02*
X103917200Y-130682800D01*
X103917200Y-130682800D02*
X105000000Y-129600000D01*
X102000000Y-145500000D02*
X103542200Y-145500000D01*
X103542200Y-145500000D02*
X103917200Y-145125000D01*
X115000000Y-143500000D02*
X113375000Y-145125000D01*
X113375000Y-145125000D02*
X103917200Y-145125000D01*
X126000000Y-144000000D02*
X115500000Y-144000000D01*
X115500000Y-144000000D02*
X115000000Y-143500000D01*
X125500000Y-128000000D02*
X124693200Y-128806800D01*
X124693200Y-128806800D02*
X122993600Y-128806800D01*
X122993600Y-128806800D02*
X122588000Y-128401200D01*
X122588000Y-128401200D02*
X122588000Y-127562200D01*
X122588000Y-127562200D02*
X122216300Y-127190500D01*
X122216300Y-127190500D02*
X121189900Y-127190500D01*
X121189900Y-127190500D02*
X120506200Y-127874200D01*
X120506200Y-127874200D02*
X120506200Y-130671500D01*
X120506200Y-130671500D02*
X121199700Y-131365000D01*
X105000000Y-129600000D02*
X109150000Y-129600000D01*
X109150000Y-129600000D02*
X110500000Y-128250000D01*
X145500000Y-145000000D02*
X144898900Y-145601100D01*
X144898900Y-145601100D02*
X127601100Y-145601100D01*
X127601100Y-145601100D02*
X126000000Y-144000000D01*
X112100000Y-126675000D02*
X112750300Y-126675000D01*
X112750300Y-126675000D02*
X114500000Y-128424700D01*
X110500000Y-128250000D02*
X112075000Y-126675000D01*
X112075000Y-126675000D02*
X112100000Y-126675000D01*
X112100000Y-123500000D02*
X112100000Y-126675000D01*
X114500000Y-129200000D02*
X114500000Y-128424700D01*
X102500000Y-121500000D02*
X110100000Y-121500000D01*
X110100000Y-121500000D02*
X112100000Y-123500000D01*
X125500000Y-128000000D02*
X126340500Y-127159500D01*
X126340500Y-127159500D02*
X129759500Y-127159500D01*
X129759500Y-127159500D02*
X132500000Y-129900000D01*
X122300000Y-131365000D02*
X121199700Y-131365000D01*
X139960000Y-131520000D02*
X138340000Y-129900000D01*
X138340000Y-129900000D02*
X132500000Y-129900000D01*
%TO.N,Net-(C1-Pad1)*%
X115237900Y-130000000D02*
X115425400Y-129812500D01*
X115425400Y-129812500D02*
X115425400Y-128551300D01*
X115425400Y-128551300D02*
X114668500Y-127794400D01*
X114668500Y-127794400D02*
X114668500Y-122716900D01*
X114668500Y-122716900D02*
X116564300Y-120821100D01*
X116564300Y-120821100D02*
X123976100Y-120821100D01*
X123976100Y-120821100D02*
X124700000Y-121545000D01*
X124700000Y-121545000D02*
X124700000Y-122447400D01*
X124700000Y-122447400D02*
X127752600Y-125500000D01*
X127752600Y-125500000D02*
X132500000Y-125500000D01*
X110500000Y-130000000D02*
X115237900Y-130000000D01*
X110500000Y-136625000D02*
X113906400Y-136625000D01*
X113906400Y-136625000D02*
X115426700Y-135104700D01*
X115426700Y-135104700D02*
X115426700Y-130188800D01*
X115426700Y-130188800D02*
X115237900Y-130000000D01*
X110500000Y-132750000D02*
X110500000Y-130000000D01*
%TO.N,VCC*%
X114500000Y-137800000D02*
X115425300Y-137800000D01*
X120887100Y-132617500D02*
X119433300Y-132617500D01*
X119433300Y-132617500D02*
X118500000Y-133550800D01*
X118500000Y-133550800D02*
X118500000Y-134725300D01*
X118500000Y-134725300D02*
X115425300Y-137800000D01*
X121199700Y-132635000D02*
X121182200Y-132617500D01*
X121182200Y-132617500D02*
X120887100Y-132617500D01*
X122300000Y-132635000D02*
X121199700Y-132635000D01*
X114500000Y-137800000D02*
X111175000Y-137800000D01*
X111175000Y-137800000D02*
X110600000Y-138375000D01*
X128800300Y-131365000D02*
X129095500Y-131365000D01*
X127700000Y-131365000D02*
X128800300Y-131365000D01*
X110600000Y-138375000D02*
X110600000Y-143500000D01*
X110600000Y-138375000D02*
X110500000Y-138375000D01*
%TO.N,Net-(C4-Pad1)*%
X142500000Y-130500000D02*
X143579600Y-131579600D01*
X143579600Y-131579600D02*
X143579600Y-133073000D01*
X143579600Y-133073000D02*
X142005900Y-134646700D01*
X142005900Y-134646700D02*
X133046700Y-134646700D01*
X133046700Y-134646700D02*
X132500000Y-134100000D01*
X132500000Y-134100000D02*
X132500000Y-133028900D01*
X132500000Y-133028900D02*
X127471100Y-128000000D01*
X127471100Y-128000000D02*
X127250000Y-128000000D01*
%TO.N,Net-(C4-Pad2)*%
X127375000Y-139000000D02*
X132000000Y-139000000D01*
X132000000Y-139000000D02*
X132500000Y-138500000D01*
%TO.N,Net-(D1-Pad2)*%
X127500500Y-136148400D02*
X123675400Y-136148400D01*
X123675400Y-136148400D02*
X122125100Y-137698700D01*
X122125100Y-137698700D02*
X122125100Y-139451300D01*
X122125100Y-139451300D02*
X119613900Y-141962500D01*
X119613900Y-141962500D02*
X113922700Y-141962500D01*
X113922700Y-141962500D02*
X112800000Y-143085200D01*
X112800000Y-143085200D02*
X112800000Y-143952200D01*
X112800000Y-143952200D02*
X112101700Y-144650500D01*
X112101700Y-144650500D02*
X109136600Y-144650500D01*
X109136600Y-144650500D02*
X108759100Y-144273000D01*
X108759100Y-144273000D02*
X108759100Y-136240900D01*
X127700000Y-133905000D02*
X127700000Y-135948900D01*
X127700000Y-135948900D02*
X127500500Y-136148400D01*
X127500500Y-136148400D02*
X127500500Y-137000000D01*
X108759100Y-136240900D02*
X110500000Y-134500000D01*
X105000000Y-134500000D02*
X106740900Y-136240900D01*
X106740900Y-136240900D02*
X108759100Y-136240900D01*
X110500000Y-134500000D02*
X113574700Y-134500000D01*
X114500000Y-134500000D02*
X113574700Y-134500000D01*
X114500000Y-132500000D02*
X114500000Y-134500000D01*
%TO.N,Net-(C3-Pad2)*%
X117625000Y-134000000D02*
X117625000Y-124625000D01*
X117625000Y-124625000D02*
X116500000Y-123500000D01*
%TO.N,Net-(R4-Pad2)*%
X122300000Y-133905000D02*
X121199700Y-133905000D01*
X121190000Y-134000000D02*
X121199700Y-133990300D01*
X121199700Y-133990300D02*
X121199700Y-133905000D01*
X121250000Y-139000000D02*
X121190000Y-138940000D01*
X121190000Y-138940000D02*
X121190000Y-134000000D01*
X121190000Y-134000000D02*
X119375000Y-134000000D01*
%TO.N,Net-(R5-Pad1)*%
X123000000Y-137906400D02*
X123000000Y-139000000D01*
X121199700Y-130095000D02*
X121199700Y-129237000D01*
X121199700Y-129237000D02*
X121231500Y-129205200D01*
X121231500Y-129205200D02*
X121675500Y-128761200D01*
X121675500Y-128761200D02*
X121675500Y-128000000D01*
X122300000Y-130095000D02*
X121199700Y-130095000D01*
%TO.N,Net-(C5-Pad1)*%
X127700000Y-132635000D02*
X128800300Y-132635000D01*
X128800300Y-132635000D02*
X128800300Y-136984300D01*
X128800300Y-136984300D02*
X127754100Y-138030500D01*
X127754100Y-138030500D02*
X127021800Y-138030500D01*
X127021800Y-138030500D02*
X126500000Y-138552300D01*
X126500000Y-138552300D02*
X126500000Y-140100000D01*
X126500000Y-140100000D02*
X130400000Y-144000000D01*
%TO.N,Net-(C6-Pad1)*%
X126900000Y-122000000D02*
X131970300Y-122000000D01*
X131970300Y-122000000D02*
X142500000Y-132529700D01*
X142500000Y-132529700D02*
X142500000Y-132540000D01*
%TO.N,Net-(C6-Pad2)*%
X123500500Y-128000000D02*
X123500500Y-123000500D01*
X123500500Y-123000500D02*
X122500000Y-122000000D01*
%TO.N,Net-(R6-Pad2)*%
X125625000Y-139000000D02*
X125625000Y-137050500D01*
X125625000Y-137050500D02*
X125675500Y-137000000D01*
X127700000Y-130095000D02*
X128852400Y-130095000D01*
X128852400Y-130095000D02*
X131074900Y-132317500D01*
X131074900Y-132317500D02*
X131074900Y-135289800D01*
X131074900Y-135289800D02*
X132085100Y-136300000D01*
X132085100Y-136300000D02*
X132980200Y-136300000D01*
X132980200Y-136300000D02*
X133677300Y-136997100D01*
X133677300Y-136997100D02*
X133677300Y-143336600D01*
X133677300Y-143336600D02*
X131867400Y-145146500D01*
X131867400Y-145146500D02*
X128870200Y-145146500D01*
X128870200Y-145146500D02*
X128200000Y-144476300D01*
X128200000Y-144476300D02*
X128200000Y-143571200D01*
X128200000Y-143571200D02*
X125625000Y-140996200D01*
X125625000Y-140996200D02*
X125625000Y-139000000D01*
%TD*%
D18*
%TO.N,GND*%
X148815000Y-123533646D02*
X148815001Y-123533656D01*
X148815000Y-148815000D01*
X98685000Y-148815000D01*
X98685000Y-147276349D01*
X100403256Y-147276349D01*
X100607362Y-147632867D01*
X101050223Y-147863575D01*
X101529583Y-148003452D01*
X102027021Y-148047123D01*
X102523422Y-147992909D01*
X102999707Y-147842894D01*
X103392638Y-147632867D01*
X103596744Y-147276349D01*
X102000000Y-145679605D01*
X100403256Y-147276349D01*
X98685000Y-147276349D01*
X98685000Y-145527021D01*
X99452877Y-145527021D01*
X99507091Y-146023422D01*
X99657106Y-146499707D01*
X99867133Y-146892638D01*
X100223651Y-147096744D01*
X101820395Y-145500000D01*
X102179605Y-145500000D01*
X103776349Y-147096744D01*
X104132867Y-146892638D01*
X104193447Y-146776349D01*
X143903256Y-146776349D01*
X144107362Y-147132867D01*
X144550223Y-147363575D01*
X145029583Y-147503452D01*
X145527021Y-147547123D01*
X146023422Y-147492909D01*
X146499707Y-147342894D01*
X146892638Y-147132867D01*
X147096744Y-146776349D01*
X145500000Y-145179605D01*
X143903256Y-146776349D01*
X104193447Y-146776349D01*
X104363575Y-146449777D01*
X104503452Y-145970417D01*
X104547123Y-145472979D01*
X104492909Y-144976578D01*
X104342894Y-144500293D01*
X104132867Y-144107362D01*
X103776349Y-143903256D01*
X102179605Y-145500000D01*
X101820395Y-145500000D01*
X100223651Y-143903256D01*
X99867133Y-144107362D01*
X99636425Y-144550223D01*
X99496548Y-145029583D01*
X99452877Y-145527021D01*
X98685000Y-145527021D01*
X98685000Y-143723651D01*
X100403256Y-143723651D01*
X102000000Y-145320395D01*
X103596744Y-143723651D01*
X103392638Y-143367133D01*
X102949777Y-143136425D01*
X102470417Y-142996548D01*
X101972979Y-142952877D01*
X101476578Y-143007091D01*
X101000293Y-143157106D01*
X100607362Y-143367133D01*
X100403256Y-143723651D01*
X98685000Y-143723651D01*
X98685000Y-134363589D01*
X103615000Y-134363589D01*
X103615000Y-134636411D01*
X103668225Y-134903989D01*
X103772629Y-135156043D01*
X103924201Y-135382886D01*
X104117114Y-135575799D01*
X104343957Y-135727371D01*
X104596011Y-135831775D01*
X104863589Y-135885000D01*
X105136411Y-135885000D01*
X105281365Y-135856167D01*
X106177105Y-136751908D01*
X106200899Y-136780901D01*
X106229892Y-136804695D01*
X106229896Y-136804699D01*
X106300585Y-136862711D01*
X106316624Y-136875874D01*
X106448653Y-136946446D01*
X106591914Y-136989903D01*
X106703567Y-137000900D01*
X106703576Y-137000900D01*
X106740899Y-137004576D01*
X106778222Y-137000900D01*
X107999101Y-137000900D01*
X107999100Y-144235678D01*
X107995424Y-144273000D01*
X107999100Y-144310322D01*
X107999100Y-144310332D01*
X108010097Y-144421985D01*
X108037898Y-144513633D01*
X108053554Y-144565246D01*
X108124126Y-144697276D01*
X108139392Y-144715877D01*
X108219099Y-144813001D01*
X108248103Y-144836804D01*
X108572796Y-145161497D01*
X108596599Y-145190501D01*
X108712324Y-145285474D01*
X108777656Y-145320395D01*
X108844353Y-145356046D01*
X108987614Y-145399503D01*
X109136600Y-145414177D01*
X109173933Y-145410500D01*
X112064378Y-145410500D01*
X112101700Y-145414176D01*
X112139022Y-145410500D01*
X112139033Y-145410500D01*
X112250686Y-145399503D01*
X112393947Y-145356046D01*
X112525976Y-145285474D01*
X112641701Y-145190501D01*
X112665503Y-145161498D01*
X113063646Y-144763356D01*
X113145506Y-144830537D01*
X113255820Y-144889502D01*
X113375518Y-144925812D01*
X113500000Y-144938072D01*
X114714250Y-144935000D01*
X114873000Y-144776250D01*
X114873000Y-143627000D01*
X115127000Y-143627000D01*
X115127000Y-144776250D01*
X115285750Y-144935000D01*
X116500000Y-144938072D01*
X116624482Y-144925812D01*
X116744180Y-144889502D01*
X116854494Y-144830537D01*
X116891703Y-144800000D01*
X123861928Y-144800000D01*
X123874188Y-144924482D01*
X123910498Y-145044180D01*
X123969463Y-145154494D01*
X124048815Y-145251185D01*
X124145506Y-145330537D01*
X124255820Y-145389502D01*
X124375518Y-145425812D01*
X124500000Y-145438072D01*
X125714250Y-145435000D01*
X125873000Y-145276250D01*
X125873000Y-144127000D01*
X124023750Y-144127000D01*
X123865000Y-144285750D01*
X123861928Y-144800000D01*
X116891703Y-144800000D01*
X116951185Y-144751185D01*
X117030537Y-144654494D01*
X117089502Y-144544180D01*
X117125812Y-144424482D01*
X117138072Y-144300000D01*
X117135000Y-143785750D01*
X116976250Y-143627000D01*
X115127000Y-143627000D01*
X114873000Y-143627000D01*
X114853000Y-143627000D01*
X114853000Y-143373000D01*
X114873000Y-143373000D01*
X114873000Y-143353000D01*
X115127000Y-143353000D01*
X115127000Y-143373000D01*
X116976250Y-143373000D01*
X117135000Y-143214250D01*
X117135085Y-143200000D01*
X123861928Y-143200000D01*
X123865000Y-143714250D01*
X124023750Y-143873000D01*
X125873000Y-143873000D01*
X125873000Y-142723750D01*
X125714250Y-142565000D01*
X124500000Y-142561928D01*
X124375518Y-142574188D01*
X124255820Y-142610498D01*
X124145506Y-142669463D01*
X124048815Y-142748815D01*
X123969463Y-142845506D01*
X123910498Y-142955820D01*
X123874188Y-143075518D01*
X123861928Y-143200000D01*
X117135085Y-143200000D01*
X117137938Y-142722500D01*
X119576578Y-142722500D01*
X119613900Y-142726176D01*
X119651222Y-142722500D01*
X119651233Y-142722500D01*
X119762886Y-142711503D01*
X119906147Y-142668046D01*
X120038176Y-142597474D01*
X120153901Y-142502501D01*
X120177704Y-142473497D01*
X122553764Y-140097438D01*
X122712500Y-140113072D01*
X123287500Y-140113072D01*
X123458316Y-140096248D01*
X123622567Y-140046423D01*
X123773942Y-139965512D01*
X123906623Y-139856623D01*
X124015512Y-139723942D01*
X124096423Y-139572567D01*
X124146248Y-139408316D01*
X124163072Y-139237500D01*
X124163072Y-138762500D01*
X124146248Y-138591684D01*
X124096423Y-138427433D01*
X124015512Y-138276058D01*
X123983378Y-138236902D01*
X123995226Y-138208298D01*
X124035000Y-138008339D01*
X124035000Y-137804461D01*
X123995226Y-137604502D01*
X123917205Y-137416144D01*
X123803937Y-137246626D01*
X123727956Y-137170645D01*
X123990202Y-136908400D01*
X124549928Y-136908400D01*
X124549928Y-137237500D01*
X124566752Y-137408316D01*
X124616577Y-137572567D01*
X124697488Y-137723942D01*
X124806377Y-137856623D01*
X124865001Y-137904734D01*
X124865000Y-138027036D01*
X124851058Y-138034488D01*
X124718377Y-138143377D01*
X124609488Y-138276058D01*
X124528577Y-138427433D01*
X124478752Y-138591684D01*
X124461928Y-138762500D01*
X124461928Y-139237500D01*
X124478752Y-139408316D01*
X124528577Y-139572567D01*
X124609488Y-139723942D01*
X124718377Y-139856623D01*
X124851058Y-139965512D01*
X124865001Y-139972964D01*
X124865000Y-140958877D01*
X124861324Y-140996200D01*
X124865000Y-141033522D01*
X124865000Y-141033532D01*
X124875997Y-141145185D01*
X124896719Y-141213497D01*
X124919454Y-141288446D01*
X124990026Y-141420476D01*
X125029871Y-141469026D01*
X125084999Y-141536201D01*
X125114003Y-141560004D01*
X126202374Y-142648376D01*
X126127000Y-142723750D01*
X126127000Y-143873000D01*
X126147000Y-143873000D01*
X126147000Y-144127000D01*
X126127000Y-144127000D01*
X126127000Y-145276250D01*
X126285750Y-145435000D01*
X127500000Y-145438072D01*
X127624482Y-145425812D01*
X127744180Y-145389502D01*
X127854494Y-145330537D01*
X127923118Y-145274219D01*
X128306400Y-145657502D01*
X128330199Y-145686501D01*
X128359197Y-145710299D01*
X128445923Y-145781474D01*
X128577953Y-145852046D01*
X128721214Y-145895503D01*
X128832867Y-145906500D01*
X128832877Y-145906500D01*
X128870200Y-145910176D01*
X128907523Y-145906500D01*
X131830078Y-145906500D01*
X131867400Y-145910176D01*
X131904722Y-145906500D01*
X131904733Y-145906500D01*
X132016386Y-145895503D01*
X132159647Y-145852046D01*
X132291676Y-145781474D01*
X132407401Y-145686501D01*
X132431204Y-145657497D01*
X133061680Y-145027021D01*
X142952877Y-145027021D01*
X143007091Y-145523422D01*
X143157106Y-145999707D01*
X143367133Y-146392638D01*
X143723651Y-146596744D01*
X145320395Y-145000000D01*
X145679605Y-145000000D01*
X147276349Y-146596744D01*
X147632867Y-146392638D01*
X147863575Y-145949777D01*
X148003452Y-145470417D01*
X148047123Y-144972979D01*
X147992909Y-144476578D01*
X147842894Y-144000293D01*
X147632867Y-143607362D01*
X147276349Y-143403256D01*
X145679605Y-145000000D01*
X145320395Y-145000000D01*
X143723651Y-143403256D01*
X143367133Y-143607362D01*
X143136425Y-144050223D01*
X142996548Y-144529583D01*
X142952877Y-145027021D01*
X133061680Y-145027021D01*
X134188303Y-143900399D01*
X134217301Y-143876601D01*
X134252097Y-143834202D01*
X134312274Y-143760877D01*
X134382846Y-143628847D01*
X134389363Y-143607362D01*
X134426303Y-143485586D01*
X134437300Y-143373933D01*
X134437300Y-143373924D01*
X134440976Y-143336601D01*
X134437300Y-143299278D01*
X134437300Y-143223651D01*
X143903256Y-143223651D01*
X145500000Y-144820395D01*
X147096744Y-143223651D01*
X146892638Y-142867133D01*
X146449777Y-142636425D01*
X145970417Y-142496548D01*
X145472979Y-142452877D01*
X144976578Y-142507091D01*
X144500293Y-142657106D01*
X144107362Y-142867133D01*
X143903256Y-143223651D01*
X134437300Y-143223651D01*
X134437300Y-137854193D01*
X143015000Y-137854193D01*
X143015000Y-138205807D01*
X143083596Y-138550665D01*
X143218153Y-138875515D01*
X143413500Y-139167871D01*
X143662129Y-139416500D01*
X143954485Y-139611847D01*
X144279335Y-139746404D01*
X144624193Y-139815000D01*
X144975807Y-139815000D01*
X145320665Y-139746404D01*
X145645515Y-139611847D01*
X145937871Y-139416500D01*
X146186500Y-139167871D01*
X146381847Y-138875515D01*
X146516404Y-138550665D01*
X146585000Y-138205807D01*
X146585000Y-137854193D01*
X146516404Y-137509335D01*
X146381847Y-137184485D01*
X146186500Y-136892129D01*
X145937871Y-136643500D01*
X145645515Y-136448153D01*
X145320665Y-136313596D01*
X144975807Y-136245000D01*
X144624193Y-136245000D01*
X144279335Y-136313596D01*
X143954485Y-136448153D01*
X143662129Y-136643500D01*
X143413500Y-136892129D01*
X143218153Y-137184485D01*
X143083596Y-137509335D01*
X143015000Y-137854193D01*
X134437300Y-137854193D01*
X134437300Y-137034422D01*
X134440976Y-136997099D01*
X134437300Y-136959776D01*
X134437300Y-136959767D01*
X134426303Y-136848114D01*
X134382846Y-136704853D01*
X134312274Y-136572824D01*
X134217301Y-136457099D01*
X134188304Y-136433302D01*
X133702754Y-135947753D01*
X133788405Y-135843386D01*
X133870472Y-135689850D01*
X133921008Y-135523254D01*
X133932488Y-135406700D01*
X141968578Y-135406700D01*
X142005900Y-135410376D01*
X142043222Y-135406700D01*
X142043233Y-135406700D01*
X142154886Y-135395703D01*
X142298147Y-135352246D01*
X142430176Y-135281674D01*
X142545901Y-135186701D01*
X142569704Y-135157697D01*
X144090603Y-133636799D01*
X144119601Y-133613001D01*
X144158154Y-133566024D01*
X144214574Y-133497277D01*
X144285146Y-133365247D01*
X144293736Y-133336928D01*
X144328603Y-133221986D01*
X144339600Y-133110333D01*
X144339600Y-133110323D01*
X144343276Y-133073000D01*
X144339600Y-133035677D01*
X144339600Y-131616923D01*
X144343276Y-131579600D01*
X144339600Y-131542277D01*
X144339600Y-131542267D01*
X144328603Y-131430614D01*
X144285146Y-131287353D01*
X144214574Y-131155323D01*
X144143399Y-131068597D01*
X144119601Y-131039599D01*
X144090604Y-131015802D01*
X143888072Y-130813270D01*
X143888072Y-129750000D01*
X143875812Y-129625518D01*
X143839502Y-129505820D01*
X143780537Y-129395506D01*
X143701185Y-129298815D01*
X143604494Y-129219463D01*
X143494180Y-129160498D01*
X143374482Y-129124188D01*
X143250000Y-129111928D01*
X141750000Y-129111928D01*
X141625518Y-129124188D01*
X141505820Y-129160498D01*
X141395506Y-129219463D01*
X141298815Y-129298815D01*
X141219463Y-129395506D01*
X141160498Y-129505820D01*
X141124188Y-129625518D01*
X141111928Y-129750000D01*
X141111928Y-130066826D01*
X136899295Y-125854193D01*
X143015000Y-125854193D01*
X143015000Y-126205807D01*
X143083596Y-126550665D01*
X143218153Y-126875515D01*
X143413500Y-127167871D01*
X143662129Y-127416500D01*
X143954485Y-127611847D01*
X144279335Y-127746404D01*
X144624193Y-127815000D01*
X144975807Y-127815000D01*
X145320665Y-127746404D01*
X145645515Y-127611847D01*
X145937871Y-127416500D01*
X146186500Y-127167871D01*
X146381847Y-126875515D01*
X146516404Y-126550665D01*
X146585000Y-126205807D01*
X146585000Y-125854193D01*
X146516404Y-125509335D01*
X146381847Y-125184485D01*
X146186500Y-124892129D01*
X145937871Y-124643500D01*
X145645515Y-124448153D01*
X145320665Y-124313596D01*
X144975807Y-124245000D01*
X144624193Y-124245000D01*
X144279335Y-124313596D01*
X143954485Y-124448153D01*
X143662129Y-124643500D01*
X143413500Y-124892129D01*
X143218153Y-125184485D01*
X143083596Y-125509335D01*
X143015000Y-125854193D01*
X136899295Y-125854193D01*
X134321451Y-123276349D01*
X143903256Y-123276349D01*
X144107362Y-123632867D01*
X144550223Y-123863575D01*
X145029583Y-124003452D01*
X145527021Y-124047123D01*
X146023422Y-123992909D01*
X146499707Y-123842894D01*
X146892638Y-123632867D01*
X147096744Y-123276349D01*
X145500000Y-121679605D01*
X143903256Y-123276349D01*
X134321451Y-123276349D01*
X132572123Y-121527021D01*
X142952877Y-121527021D01*
X143007091Y-122023422D01*
X143157106Y-122499707D01*
X143367133Y-122892638D01*
X143723651Y-123096744D01*
X145320395Y-121500000D01*
X145679605Y-121500000D01*
X147276349Y-123096744D01*
X147632867Y-122892638D01*
X147863575Y-122449777D01*
X148003452Y-121970417D01*
X148047123Y-121472979D01*
X147992909Y-120976578D01*
X147842894Y-120500293D01*
X147632867Y-120107362D01*
X147276349Y-119903256D01*
X145679605Y-121500000D01*
X145320395Y-121500000D01*
X143723651Y-119903256D01*
X143367133Y-120107362D01*
X143136425Y-120550223D01*
X142996548Y-121029583D01*
X142952877Y-121527021D01*
X132572123Y-121527021D01*
X132534104Y-121489003D01*
X132510301Y-121459999D01*
X132394576Y-121365026D01*
X132262547Y-121294454D01*
X132119286Y-121250997D01*
X132007633Y-121240000D01*
X132007622Y-121240000D01*
X131970300Y-121236324D01*
X131932978Y-121240000D01*
X129009861Y-121240000D01*
X128970472Y-121110150D01*
X128888405Y-120956614D01*
X128777962Y-120822038D01*
X128643386Y-120711595D01*
X128489850Y-120629528D01*
X128323254Y-120578992D01*
X128150000Y-120561928D01*
X125650000Y-120561928D01*
X125476746Y-120578992D01*
X125310150Y-120629528D01*
X125156614Y-120711595D01*
X125038407Y-120808605D01*
X124539903Y-120310102D01*
X124516101Y-120281099D01*
X124400376Y-120186126D01*
X124268347Y-120115554D01*
X124125086Y-120072097D01*
X124013433Y-120061100D01*
X124013422Y-120061100D01*
X123976100Y-120057424D01*
X123938778Y-120061100D01*
X116601622Y-120061100D01*
X116564299Y-120057424D01*
X116526976Y-120061100D01*
X116526967Y-120061100D01*
X116415314Y-120072097D01*
X116299059Y-120107362D01*
X116272053Y-120115554D01*
X116140023Y-120186126D01*
X116056383Y-120254768D01*
X116024299Y-120281099D01*
X116000501Y-120310097D01*
X114157498Y-122153101D01*
X114128500Y-122176899D01*
X114104702Y-122205897D01*
X114104701Y-122205898D01*
X114060332Y-122259961D01*
X114051185Y-122248815D01*
X113954494Y-122169463D01*
X113844180Y-122110498D01*
X113724482Y-122074188D01*
X113600000Y-122061928D01*
X112385750Y-122065000D01*
X112227000Y-122223750D01*
X112227000Y-123373000D01*
X112247000Y-123373000D01*
X112247000Y-123627000D01*
X112227000Y-123627000D01*
X112227000Y-124776250D01*
X112385750Y-124935000D01*
X113600000Y-124938072D01*
X113724482Y-124925812D01*
X113844180Y-124889502D01*
X113908501Y-124855121D01*
X113908500Y-127757077D01*
X113904824Y-127794400D01*
X113908500Y-127831722D01*
X113908500Y-127831732D01*
X113919497Y-127943385D01*
X113950475Y-128045506D01*
X113962954Y-128086646D01*
X113976869Y-128112679D01*
X113900000Y-128111928D01*
X113775518Y-128124188D01*
X113655820Y-128160498D01*
X113545506Y-128219463D01*
X113448815Y-128298815D01*
X113369463Y-128395506D01*
X113310498Y-128505820D01*
X113274188Y-128625518D01*
X113261928Y-128750000D01*
X113265000Y-128914250D01*
X113423750Y-129073000D01*
X114373000Y-129073000D01*
X114373000Y-129053000D01*
X114627000Y-129053000D01*
X114627000Y-129073000D01*
X114647000Y-129073000D01*
X114647000Y-129240000D01*
X111472964Y-129240000D01*
X111465512Y-129226058D01*
X111445901Y-129202161D01*
X111505537Y-129129494D01*
X111564502Y-129019180D01*
X111600812Y-128899482D01*
X111613072Y-128775000D01*
X111610000Y-128535750D01*
X111451250Y-128377000D01*
X110627000Y-128377000D01*
X110627000Y-128397000D01*
X110373000Y-128397000D01*
X110373000Y-128377000D01*
X109548750Y-128377000D01*
X109390000Y-128535750D01*
X109386928Y-128775000D01*
X109399188Y-128899482D01*
X109435498Y-129019180D01*
X109494463Y-129129494D01*
X109554099Y-129202161D01*
X109534488Y-129226058D01*
X109453577Y-129377433D01*
X109403752Y-129541684D01*
X109386928Y-129712500D01*
X109386928Y-130287500D01*
X109403752Y-130458316D01*
X109453577Y-130622567D01*
X109534488Y-130773942D01*
X109643377Y-130906623D01*
X109740001Y-130985920D01*
X109740000Y-131764080D01*
X109643377Y-131843377D01*
X109534488Y-131976058D01*
X109453577Y-132127433D01*
X109403752Y-132291684D01*
X109386928Y-132462500D01*
X109386928Y-133037500D01*
X109403752Y-133208316D01*
X109453577Y-133372567D01*
X109534488Y-133523942D01*
X109617425Y-133625000D01*
X109534488Y-133726058D01*
X109453577Y-133877433D01*
X109403752Y-134041684D01*
X109386928Y-134212500D01*
X109386928Y-134538270D01*
X108444299Y-135480900D01*
X107055703Y-135480900D01*
X106356167Y-134781365D01*
X106385000Y-134636411D01*
X106385000Y-134363589D01*
X106331775Y-134096011D01*
X106227371Y-133843957D01*
X106075799Y-133617114D01*
X105882886Y-133424201D01*
X105656043Y-133272629D01*
X105403989Y-133168225D01*
X105136411Y-133115000D01*
X104863589Y-133115000D01*
X104596011Y-133168225D01*
X104343957Y-133272629D01*
X104117114Y-133424201D01*
X103924201Y-133617114D01*
X103772629Y-133843957D01*
X103668225Y-134096011D01*
X103615000Y-134363589D01*
X98685000Y-134363589D01*
X98685000Y-130556993D01*
X104222612Y-130556993D01*
X104288137Y-130795860D01*
X104535116Y-130911760D01*
X104799960Y-130977250D01*
X105072492Y-130989812D01*
X105342238Y-130948965D01*
X105598832Y-130856277D01*
X105711863Y-130795860D01*
X105777388Y-130556993D01*
X105000000Y-129779605D01*
X104222612Y-130556993D01*
X98685000Y-130556993D01*
X98685000Y-129672492D01*
X103610188Y-129672492D01*
X103651035Y-129942238D01*
X103743723Y-130198832D01*
X103804140Y-130311863D01*
X104043007Y-130377388D01*
X104820395Y-129600000D01*
X105179605Y-129600000D01*
X105956993Y-130377388D01*
X106195860Y-130311863D01*
X106311760Y-130064884D01*
X106377250Y-129800040D01*
X106389812Y-129527508D01*
X106348965Y-129257762D01*
X106256277Y-129001168D01*
X106195860Y-128888137D01*
X105956993Y-128822612D01*
X105179605Y-129600000D01*
X104820395Y-129600000D01*
X104043007Y-128822612D01*
X103804140Y-128888137D01*
X103688240Y-129135116D01*
X103622750Y-129399960D01*
X103610188Y-129672492D01*
X98685000Y-129672492D01*
X98685000Y-128643007D01*
X104222612Y-128643007D01*
X105000000Y-129420395D01*
X105777388Y-128643007D01*
X105711863Y-128404140D01*
X105464884Y-128288240D01*
X105200040Y-128222750D01*
X104927508Y-128210188D01*
X104657762Y-128251035D01*
X104401168Y-128343723D01*
X104288137Y-128404140D01*
X104222612Y-128643007D01*
X98685000Y-128643007D01*
X98685000Y-127725000D01*
X109386928Y-127725000D01*
X109390000Y-127964250D01*
X109548750Y-128123000D01*
X110373000Y-128123000D01*
X110373000Y-127248750D01*
X110627000Y-127248750D01*
X110627000Y-128123000D01*
X111451250Y-128123000D01*
X111610000Y-127964250D01*
X111613072Y-127725000D01*
X111600812Y-127600518D01*
X111564502Y-127480820D01*
X111505537Y-127370506D01*
X111426185Y-127273815D01*
X111329494Y-127194463D01*
X111219180Y-127135498D01*
X111099482Y-127099188D01*
X110975000Y-127086928D01*
X110785750Y-127090000D01*
X110627000Y-127248750D01*
X110373000Y-127248750D01*
X110214250Y-127090000D01*
X110025000Y-127086928D01*
X109900518Y-127099188D01*
X109780820Y-127135498D01*
X109670506Y-127194463D01*
X109573815Y-127273815D01*
X109494463Y-127370506D01*
X109435498Y-127480820D01*
X109399188Y-127600518D01*
X109386928Y-127725000D01*
X98685000Y-127725000D01*
X98685000Y-124300000D01*
X109961928Y-124300000D01*
X109974188Y-124424482D01*
X110010498Y-124544180D01*
X110069463Y-124654494D01*
X110148815Y-124751185D01*
X110245506Y-124830537D01*
X110355820Y-124889502D01*
X110475518Y-124925812D01*
X110600000Y-124938072D01*
X111814250Y-124935000D01*
X111973000Y-124776250D01*
X111973000Y-123627000D01*
X110123750Y-123627000D01*
X109965000Y-123785750D01*
X109961928Y-124300000D01*
X98685000Y-124300000D01*
X98685000Y-123276349D01*
X100903256Y-123276349D01*
X101107362Y-123632867D01*
X101550223Y-123863575D01*
X102029583Y-124003452D01*
X102527021Y-124047123D01*
X103023422Y-123992909D01*
X103499707Y-123842894D01*
X103892638Y-123632867D01*
X104096744Y-123276349D01*
X102500000Y-121679605D01*
X100903256Y-123276349D01*
X98685000Y-123276349D01*
X98685000Y-121527021D01*
X99952877Y-121527021D01*
X100007091Y-122023422D01*
X100157106Y-122499707D01*
X100367133Y-122892638D01*
X100723651Y-123096744D01*
X102320395Y-121500000D01*
X102679605Y-121500000D01*
X104276349Y-123096744D01*
X104632867Y-122892638D01*
X104733221Y-122700000D01*
X109961928Y-122700000D01*
X109965000Y-123214250D01*
X110123750Y-123373000D01*
X111973000Y-123373000D01*
X111973000Y-122223750D01*
X111814250Y-122065000D01*
X110600000Y-122061928D01*
X110475518Y-122074188D01*
X110355820Y-122110498D01*
X110245506Y-122169463D01*
X110148815Y-122248815D01*
X110069463Y-122345506D01*
X110010498Y-122455820D01*
X109974188Y-122575518D01*
X109961928Y-122700000D01*
X104733221Y-122700000D01*
X104863575Y-122449777D01*
X105003452Y-121970417D01*
X105047123Y-121472979D01*
X104992909Y-120976578D01*
X104842894Y-120500293D01*
X104632867Y-120107362D01*
X104276349Y-119903256D01*
X102679605Y-121500000D01*
X102320395Y-121500000D01*
X100723651Y-119903256D01*
X100367133Y-120107362D01*
X100136425Y-120550223D01*
X99996548Y-121029583D01*
X99952877Y-121527021D01*
X98685000Y-121527021D01*
X98685000Y-119723651D01*
X100903256Y-119723651D01*
X102500000Y-121320395D01*
X104096744Y-119723651D01*
X143903256Y-119723651D01*
X145500000Y-121320395D01*
X147096744Y-119723651D01*
X146892638Y-119367133D01*
X146449777Y-119136425D01*
X145970417Y-118996548D01*
X145472979Y-118952877D01*
X144976578Y-119007091D01*
X144500293Y-119157106D01*
X144107362Y-119367133D01*
X143903256Y-119723651D01*
X104096744Y-119723651D01*
X103892638Y-119367133D01*
X103449777Y-119136425D01*
X102970417Y-118996548D01*
X102472979Y-118952877D01*
X101976578Y-119007091D01*
X101500293Y-119157106D01*
X101107362Y-119367133D01*
X100903256Y-119723651D01*
X98685000Y-119723651D01*
X98685000Y-118185000D01*
X148815001Y-118185000D01*
X148815000Y-123533646D01*
%TA.AperFunction,Conductor*%
D19*
G36*
X148815000Y-123533646D02*
G01*
X148815001Y-123533656D01*
X148815000Y-148815000D01*
X98685000Y-148815000D01*
X98685000Y-147276349D01*
X100403256Y-147276349D01*
X100607362Y-147632867D01*
X101050223Y-147863575D01*
X101529583Y-148003452D01*
X102027021Y-148047123D01*
X102523422Y-147992909D01*
X102999707Y-147842894D01*
X103392638Y-147632867D01*
X103596744Y-147276349D01*
X102000000Y-145679605D01*
X100403256Y-147276349D01*
X98685000Y-147276349D01*
X98685000Y-145527021D01*
X99452877Y-145527021D01*
X99507091Y-146023422D01*
X99657106Y-146499707D01*
X99867133Y-146892638D01*
X100223651Y-147096744D01*
X101820395Y-145500000D01*
X102179605Y-145500000D01*
X103776349Y-147096744D01*
X104132867Y-146892638D01*
X104193447Y-146776349D01*
X143903256Y-146776349D01*
X144107362Y-147132867D01*
X144550223Y-147363575D01*
X145029583Y-147503452D01*
X145527021Y-147547123D01*
X146023422Y-147492909D01*
X146499707Y-147342894D01*
X146892638Y-147132867D01*
X147096744Y-146776349D01*
X145500000Y-145179605D01*
X143903256Y-146776349D01*
X104193447Y-146776349D01*
X104363575Y-146449777D01*
X104503452Y-145970417D01*
X104547123Y-145472979D01*
X104492909Y-144976578D01*
X104342894Y-144500293D01*
X104132867Y-144107362D01*
X103776349Y-143903256D01*
X102179605Y-145500000D01*
X101820395Y-145500000D01*
X100223651Y-143903256D01*
X99867133Y-144107362D01*
X99636425Y-144550223D01*
X99496548Y-145029583D01*
X99452877Y-145527021D01*
X98685000Y-145527021D01*
X98685000Y-143723651D01*
X100403256Y-143723651D01*
X102000000Y-145320395D01*
X103596744Y-143723651D01*
X103392638Y-143367133D01*
X102949777Y-143136425D01*
X102470417Y-142996548D01*
X101972979Y-142952877D01*
X101476578Y-143007091D01*
X101000293Y-143157106D01*
X100607362Y-143367133D01*
X100403256Y-143723651D01*
X98685000Y-143723651D01*
X98685000Y-134363589D01*
X103615000Y-134363589D01*
X103615000Y-134636411D01*
X103668225Y-134903989D01*
X103772629Y-135156043D01*
X103924201Y-135382886D01*
X104117114Y-135575799D01*
X104343957Y-135727371D01*
X104596011Y-135831775D01*
X104863589Y-135885000D01*
X105136411Y-135885000D01*
X105281365Y-135856167D01*
X106177105Y-136751908D01*
X106200899Y-136780901D01*
X106229892Y-136804695D01*
X106229896Y-136804699D01*
X106300585Y-136862711D01*
X106316624Y-136875874D01*
X106448653Y-136946446D01*
X106591914Y-136989903D01*
X106703567Y-137000900D01*
X106703576Y-137000900D01*
X106740899Y-137004576D01*
X106778222Y-137000900D01*
X107999101Y-137000900D01*
X107999100Y-144235678D01*
X107995424Y-144273000D01*
X107999100Y-144310322D01*
X107999100Y-144310332D01*
X108010097Y-144421985D01*
X108037898Y-144513633D01*
X108053554Y-144565246D01*
X108124126Y-144697276D01*
X108139392Y-144715877D01*
X108219099Y-144813001D01*
X108248103Y-144836804D01*
X108572796Y-145161497D01*
X108596599Y-145190501D01*
X108712324Y-145285474D01*
X108777656Y-145320395D01*
X108844353Y-145356046D01*
X108987614Y-145399503D01*
X109136600Y-145414177D01*
X109173933Y-145410500D01*
X112064378Y-145410500D01*
X112101700Y-145414176D01*
X112139022Y-145410500D01*
X112139033Y-145410500D01*
X112250686Y-145399503D01*
X112393947Y-145356046D01*
X112525976Y-145285474D01*
X112641701Y-145190501D01*
X112665503Y-145161498D01*
X113063646Y-144763356D01*
X113145506Y-144830537D01*
X113255820Y-144889502D01*
X113375518Y-144925812D01*
X113500000Y-144938072D01*
X114714250Y-144935000D01*
X114873000Y-144776250D01*
X114873000Y-143627000D01*
X115127000Y-143627000D01*
X115127000Y-144776250D01*
X115285750Y-144935000D01*
X116500000Y-144938072D01*
X116624482Y-144925812D01*
X116744180Y-144889502D01*
X116854494Y-144830537D01*
X116891703Y-144800000D01*
X123861928Y-144800000D01*
X123874188Y-144924482D01*
X123910498Y-145044180D01*
X123969463Y-145154494D01*
X124048815Y-145251185D01*
X124145506Y-145330537D01*
X124255820Y-145389502D01*
X124375518Y-145425812D01*
X124500000Y-145438072D01*
X125714250Y-145435000D01*
X125873000Y-145276250D01*
X125873000Y-144127000D01*
X124023750Y-144127000D01*
X123865000Y-144285750D01*
X123861928Y-144800000D01*
X116891703Y-144800000D01*
X116951185Y-144751185D01*
X117030537Y-144654494D01*
X117089502Y-144544180D01*
X117125812Y-144424482D01*
X117138072Y-144300000D01*
X117135000Y-143785750D01*
X116976250Y-143627000D01*
X115127000Y-143627000D01*
X114873000Y-143627000D01*
X114853000Y-143627000D01*
X114853000Y-143373000D01*
X114873000Y-143373000D01*
X114873000Y-143353000D01*
X115127000Y-143353000D01*
X115127000Y-143373000D01*
X116976250Y-143373000D01*
X117135000Y-143214250D01*
X117135085Y-143200000D01*
X123861928Y-143200000D01*
X123865000Y-143714250D01*
X124023750Y-143873000D01*
X125873000Y-143873000D01*
X125873000Y-142723750D01*
X125714250Y-142565000D01*
X124500000Y-142561928D01*
X124375518Y-142574188D01*
X124255820Y-142610498D01*
X124145506Y-142669463D01*
X124048815Y-142748815D01*
X123969463Y-142845506D01*
X123910498Y-142955820D01*
X123874188Y-143075518D01*
X123861928Y-143200000D01*
X117135085Y-143200000D01*
X117137938Y-142722500D01*
X119576578Y-142722500D01*
X119613900Y-142726176D01*
X119651222Y-142722500D01*
X119651233Y-142722500D01*
X119762886Y-142711503D01*
X119906147Y-142668046D01*
X120038176Y-142597474D01*
X120153901Y-142502501D01*
X120177704Y-142473497D01*
X122553764Y-140097438D01*
X122712500Y-140113072D01*
X123287500Y-140113072D01*
X123458316Y-140096248D01*
X123622567Y-140046423D01*
X123773942Y-139965512D01*
X123906623Y-139856623D01*
X124015512Y-139723942D01*
X124096423Y-139572567D01*
X124146248Y-139408316D01*
X124163072Y-139237500D01*
X124163072Y-138762500D01*
X124146248Y-138591684D01*
X124096423Y-138427433D01*
X124015512Y-138276058D01*
X123983378Y-138236902D01*
X123995226Y-138208298D01*
X124035000Y-138008339D01*
X124035000Y-137804461D01*
X123995226Y-137604502D01*
X123917205Y-137416144D01*
X123803937Y-137246626D01*
X123727956Y-137170645D01*
X123990202Y-136908400D01*
X124549928Y-136908400D01*
X124549928Y-137237500D01*
X124566752Y-137408316D01*
X124616577Y-137572567D01*
X124697488Y-137723942D01*
X124806377Y-137856623D01*
X124865001Y-137904734D01*
X124865000Y-138027036D01*
X124851058Y-138034488D01*
X124718377Y-138143377D01*
X124609488Y-138276058D01*
X124528577Y-138427433D01*
X124478752Y-138591684D01*
X124461928Y-138762500D01*
X124461928Y-139237500D01*
X124478752Y-139408316D01*
X124528577Y-139572567D01*
X124609488Y-139723942D01*
X124718377Y-139856623D01*
X124851058Y-139965512D01*
X124865001Y-139972964D01*
X124865000Y-140958877D01*
X124861324Y-140996200D01*
X124865000Y-141033522D01*
X124865000Y-141033532D01*
X124875997Y-141145185D01*
X124896719Y-141213497D01*
X124919454Y-141288446D01*
X124990026Y-141420476D01*
X125029871Y-141469026D01*
X125084999Y-141536201D01*
X125114003Y-141560004D01*
X126202374Y-142648376D01*
X126127000Y-142723750D01*
X126127000Y-143873000D01*
X126147000Y-143873000D01*
X126147000Y-144127000D01*
X126127000Y-144127000D01*
X126127000Y-145276250D01*
X126285750Y-145435000D01*
X127500000Y-145438072D01*
X127624482Y-145425812D01*
X127744180Y-145389502D01*
X127854494Y-145330537D01*
X127923118Y-145274219D01*
X128306400Y-145657502D01*
X128330199Y-145686501D01*
X128359197Y-145710299D01*
X128445923Y-145781474D01*
X128577953Y-145852046D01*
X128721214Y-145895503D01*
X128832867Y-145906500D01*
X128832877Y-145906500D01*
X128870200Y-145910176D01*
X128907523Y-145906500D01*
X131830078Y-145906500D01*
X131867400Y-145910176D01*
X131904722Y-145906500D01*
X131904733Y-145906500D01*
X132016386Y-145895503D01*
X132159647Y-145852046D01*
X132291676Y-145781474D01*
X132407401Y-145686501D01*
X132431204Y-145657497D01*
X133061680Y-145027021D01*
X142952877Y-145027021D01*
X143007091Y-145523422D01*
X143157106Y-145999707D01*
X143367133Y-146392638D01*
X143723651Y-146596744D01*
X145320395Y-145000000D01*
X145679605Y-145000000D01*
X147276349Y-146596744D01*
X147632867Y-146392638D01*
X147863575Y-145949777D01*
X148003452Y-145470417D01*
X148047123Y-144972979D01*
X147992909Y-144476578D01*
X147842894Y-144000293D01*
X147632867Y-143607362D01*
X147276349Y-143403256D01*
X145679605Y-145000000D01*
X145320395Y-145000000D01*
X143723651Y-143403256D01*
X143367133Y-143607362D01*
X143136425Y-144050223D01*
X142996548Y-144529583D01*
X142952877Y-145027021D01*
X133061680Y-145027021D01*
X134188303Y-143900399D01*
X134217301Y-143876601D01*
X134252097Y-143834202D01*
X134312274Y-143760877D01*
X134382846Y-143628847D01*
X134389363Y-143607362D01*
X134426303Y-143485586D01*
X134437300Y-143373933D01*
X134437300Y-143373924D01*
X134440976Y-143336601D01*
X134437300Y-143299278D01*
X134437300Y-143223651D01*
X143903256Y-143223651D01*
X145500000Y-144820395D01*
X147096744Y-143223651D01*
X146892638Y-142867133D01*
X146449777Y-142636425D01*
X145970417Y-142496548D01*
X145472979Y-142452877D01*
X144976578Y-142507091D01*
X144500293Y-142657106D01*
X144107362Y-142867133D01*
X143903256Y-143223651D01*
X134437300Y-143223651D01*
X134437300Y-137854193D01*
X143015000Y-137854193D01*
X143015000Y-138205807D01*
X143083596Y-138550665D01*
X143218153Y-138875515D01*
X143413500Y-139167871D01*
X143662129Y-139416500D01*
X143954485Y-139611847D01*
X144279335Y-139746404D01*
X144624193Y-139815000D01*
X144975807Y-139815000D01*
X145320665Y-139746404D01*
X145645515Y-139611847D01*
X145937871Y-139416500D01*
X146186500Y-139167871D01*
X146381847Y-138875515D01*
X146516404Y-138550665D01*
X146585000Y-138205807D01*
X146585000Y-137854193D01*
X146516404Y-137509335D01*
X146381847Y-137184485D01*
X146186500Y-136892129D01*
X145937871Y-136643500D01*
X145645515Y-136448153D01*
X145320665Y-136313596D01*
X144975807Y-136245000D01*
X144624193Y-136245000D01*
X144279335Y-136313596D01*
X143954485Y-136448153D01*
X143662129Y-136643500D01*
X143413500Y-136892129D01*
X143218153Y-137184485D01*
X143083596Y-137509335D01*
X143015000Y-137854193D01*
X134437300Y-137854193D01*
X134437300Y-137034422D01*
X134440976Y-136997099D01*
X134437300Y-136959776D01*
X134437300Y-136959767D01*
X134426303Y-136848114D01*
X134382846Y-136704853D01*
X134312274Y-136572824D01*
X134217301Y-136457099D01*
X134188304Y-136433302D01*
X133702754Y-135947753D01*
X133788405Y-135843386D01*
X133870472Y-135689850D01*
X133921008Y-135523254D01*
X133932488Y-135406700D01*
X141968578Y-135406700D01*
X142005900Y-135410376D01*
X142043222Y-135406700D01*
X142043233Y-135406700D01*
X142154886Y-135395703D01*
X142298147Y-135352246D01*
X142430176Y-135281674D01*
X142545901Y-135186701D01*
X142569704Y-135157697D01*
X144090603Y-133636799D01*
X144119601Y-133613001D01*
X144158154Y-133566024D01*
X144214574Y-133497277D01*
X144285146Y-133365247D01*
X144293736Y-133336928D01*
X144328603Y-133221986D01*
X144339600Y-133110333D01*
X144339600Y-133110323D01*
X144343276Y-133073000D01*
X144339600Y-133035677D01*
X144339600Y-131616923D01*
X144343276Y-131579600D01*
X144339600Y-131542277D01*
X144339600Y-131542267D01*
X144328603Y-131430614D01*
X144285146Y-131287353D01*
X144214574Y-131155323D01*
X144143399Y-131068597D01*
X144119601Y-131039599D01*
X144090604Y-131015802D01*
X143888072Y-130813270D01*
X143888072Y-129750000D01*
X143875812Y-129625518D01*
X143839502Y-129505820D01*
X143780537Y-129395506D01*
X143701185Y-129298815D01*
X143604494Y-129219463D01*
X143494180Y-129160498D01*
X143374482Y-129124188D01*
X143250000Y-129111928D01*
X141750000Y-129111928D01*
X141625518Y-129124188D01*
X141505820Y-129160498D01*
X141395506Y-129219463D01*
X141298815Y-129298815D01*
X141219463Y-129395506D01*
X141160498Y-129505820D01*
X141124188Y-129625518D01*
X141111928Y-129750000D01*
X141111928Y-130066826D01*
X136899295Y-125854193D01*
X143015000Y-125854193D01*
X143015000Y-126205807D01*
X143083596Y-126550665D01*
X143218153Y-126875515D01*
X143413500Y-127167871D01*
X143662129Y-127416500D01*
X143954485Y-127611847D01*
X144279335Y-127746404D01*
X144624193Y-127815000D01*
X144975807Y-127815000D01*
X145320665Y-127746404D01*
X145645515Y-127611847D01*
X145937871Y-127416500D01*
X146186500Y-127167871D01*
X146381847Y-126875515D01*
X146516404Y-126550665D01*
X146585000Y-126205807D01*
X146585000Y-125854193D01*
X146516404Y-125509335D01*
X146381847Y-125184485D01*
X146186500Y-124892129D01*
X145937871Y-124643500D01*
X145645515Y-124448153D01*
X145320665Y-124313596D01*
X144975807Y-124245000D01*
X144624193Y-124245000D01*
X144279335Y-124313596D01*
X143954485Y-124448153D01*
X143662129Y-124643500D01*
X143413500Y-124892129D01*
X143218153Y-125184485D01*
X143083596Y-125509335D01*
X143015000Y-125854193D01*
X136899295Y-125854193D01*
X134321451Y-123276349D01*
X143903256Y-123276349D01*
X144107362Y-123632867D01*
X144550223Y-123863575D01*
X145029583Y-124003452D01*
X145527021Y-124047123D01*
X146023422Y-123992909D01*
X146499707Y-123842894D01*
X146892638Y-123632867D01*
X147096744Y-123276349D01*
X145500000Y-121679605D01*
X143903256Y-123276349D01*
X134321451Y-123276349D01*
X132572123Y-121527021D01*
X142952877Y-121527021D01*
X143007091Y-122023422D01*
X143157106Y-122499707D01*
X143367133Y-122892638D01*
X143723651Y-123096744D01*
X145320395Y-121500000D01*
X145679605Y-121500000D01*
X147276349Y-123096744D01*
X147632867Y-122892638D01*
X147863575Y-122449777D01*
X148003452Y-121970417D01*
X148047123Y-121472979D01*
X147992909Y-120976578D01*
X147842894Y-120500293D01*
X147632867Y-120107362D01*
X147276349Y-119903256D01*
X145679605Y-121500000D01*
X145320395Y-121500000D01*
X143723651Y-119903256D01*
X143367133Y-120107362D01*
X143136425Y-120550223D01*
X142996548Y-121029583D01*
X142952877Y-121527021D01*
X132572123Y-121527021D01*
X132534104Y-121489003D01*
X132510301Y-121459999D01*
X132394576Y-121365026D01*
X132262547Y-121294454D01*
X132119286Y-121250997D01*
X132007633Y-121240000D01*
X132007622Y-121240000D01*
X131970300Y-121236324D01*
X131932978Y-121240000D01*
X129009861Y-121240000D01*
X128970472Y-121110150D01*
X128888405Y-120956614D01*
X128777962Y-120822038D01*
X128643386Y-120711595D01*
X128489850Y-120629528D01*
X128323254Y-120578992D01*
X128150000Y-120561928D01*
X125650000Y-120561928D01*
X125476746Y-120578992D01*
X125310150Y-120629528D01*
X125156614Y-120711595D01*
X125038407Y-120808605D01*
X124539903Y-120310102D01*
X124516101Y-120281099D01*
X124400376Y-120186126D01*
X124268347Y-120115554D01*
X124125086Y-120072097D01*
X124013433Y-120061100D01*
X124013422Y-120061100D01*
X123976100Y-120057424D01*
X123938778Y-120061100D01*
X116601622Y-120061100D01*
X116564299Y-120057424D01*
X116526976Y-120061100D01*
X116526967Y-120061100D01*
X116415314Y-120072097D01*
X116299059Y-120107362D01*
X116272053Y-120115554D01*
X116140023Y-120186126D01*
X116056383Y-120254768D01*
X116024299Y-120281099D01*
X116000501Y-120310097D01*
X114157498Y-122153101D01*
X114128500Y-122176899D01*
X114104702Y-122205897D01*
X114104701Y-122205898D01*
X114060332Y-122259961D01*
X114051185Y-122248815D01*
X113954494Y-122169463D01*
X113844180Y-122110498D01*
X113724482Y-122074188D01*
X113600000Y-122061928D01*
X112385750Y-122065000D01*
X112227000Y-122223750D01*
X112227000Y-123373000D01*
X112247000Y-123373000D01*
X112247000Y-123627000D01*
X112227000Y-123627000D01*
X112227000Y-124776250D01*
X112385750Y-124935000D01*
X113600000Y-124938072D01*
X113724482Y-124925812D01*
X113844180Y-124889502D01*
X113908501Y-124855121D01*
X113908500Y-127757077D01*
X113904824Y-127794400D01*
X113908500Y-127831722D01*
X113908500Y-127831732D01*
X113919497Y-127943385D01*
X113950475Y-128045506D01*
X113962954Y-128086646D01*
X113976869Y-128112679D01*
X113900000Y-128111928D01*
X113775518Y-128124188D01*
X113655820Y-128160498D01*
X113545506Y-128219463D01*
X113448815Y-128298815D01*
X113369463Y-128395506D01*
X113310498Y-128505820D01*
X113274188Y-128625518D01*
X113261928Y-128750000D01*
X113265000Y-128914250D01*
X113423750Y-129073000D01*
X114373000Y-129073000D01*
X114373000Y-129053000D01*
X114627000Y-129053000D01*
X114627000Y-129073000D01*
X114647000Y-129073000D01*
X114647000Y-129240000D01*
X111472964Y-129240000D01*
X111465512Y-129226058D01*
X111445901Y-129202161D01*
X111505537Y-129129494D01*
X111564502Y-129019180D01*
X111600812Y-128899482D01*
X111613072Y-128775000D01*
X111610000Y-128535750D01*
X111451250Y-128377000D01*
X110627000Y-128377000D01*
X110627000Y-128397000D01*
X110373000Y-128397000D01*
X110373000Y-128377000D01*
X109548750Y-128377000D01*
X109390000Y-128535750D01*
X109386928Y-128775000D01*
X109399188Y-128899482D01*
X109435498Y-129019180D01*
X109494463Y-129129494D01*
X109554099Y-129202161D01*
X109534488Y-129226058D01*
X109453577Y-129377433D01*
X109403752Y-129541684D01*
X109386928Y-129712500D01*
X109386928Y-130287500D01*
X109403752Y-130458316D01*
X109453577Y-130622567D01*
X109534488Y-130773942D01*
X109643377Y-130906623D01*
X109740001Y-130985920D01*
X109740000Y-131764080D01*
X109643377Y-131843377D01*
X109534488Y-131976058D01*
X109453577Y-132127433D01*
X109403752Y-132291684D01*
X109386928Y-132462500D01*
X109386928Y-133037500D01*
X109403752Y-133208316D01*
X109453577Y-133372567D01*
X109534488Y-133523942D01*
X109617425Y-133625000D01*
X109534488Y-133726058D01*
X109453577Y-133877433D01*
X109403752Y-134041684D01*
X109386928Y-134212500D01*
X109386928Y-134538270D01*
X108444299Y-135480900D01*
X107055703Y-135480900D01*
X106356167Y-134781365D01*
X106385000Y-134636411D01*
X106385000Y-134363589D01*
X106331775Y-134096011D01*
X106227371Y-133843957D01*
X106075799Y-133617114D01*
X105882886Y-133424201D01*
X105656043Y-133272629D01*
X105403989Y-133168225D01*
X105136411Y-133115000D01*
X104863589Y-133115000D01*
X104596011Y-133168225D01*
X104343957Y-133272629D01*
X104117114Y-133424201D01*
X103924201Y-133617114D01*
X103772629Y-133843957D01*
X103668225Y-134096011D01*
X103615000Y-134363589D01*
X98685000Y-134363589D01*
X98685000Y-130556993D01*
X104222612Y-130556993D01*
X104288137Y-130795860D01*
X104535116Y-130911760D01*
X104799960Y-130977250D01*
X105072492Y-130989812D01*
X105342238Y-130948965D01*
X105598832Y-130856277D01*
X105711863Y-130795860D01*
X105777388Y-130556993D01*
X105000000Y-129779605D01*
X104222612Y-130556993D01*
X98685000Y-130556993D01*
X98685000Y-129672492D01*
X103610188Y-129672492D01*
X103651035Y-129942238D01*
X103743723Y-130198832D01*
X103804140Y-130311863D01*
X104043007Y-130377388D01*
X104820395Y-129600000D01*
X105179605Y-129600000D01*
X105956993Y-130377388D01*
X106195860Y-130311863D01*
X106311760Y-130064884D01*
X106377250Y-129800040D01*
X106389812Y-129527508D01*
X106348965Y-129257762D01*
X106256277Y-129001168D01*
X106195860Y-128888137D01*
X105956993Y-128822612D01*
X105179605Y-129600000D01*
X104820395Y-129600000D01*
X104043007Y-128822612D01*
X103804140Y-128888137D01*
X103688240Y-129135116D01*
X103622750Y-129399960D01*
X103610188Y-129672492D01*
X98685000Y-129672492D01*
X98685000Y-128643007D01*
X104222612Y-128643007D01*
X105000000Y-129420395D01*
X105777388Y-128643007D01*
X105711863Y-128404140D01*
X105464884Y-128288240D01*
X105200040Y-128222750D01*
X104927508Y-128210188D01*
X104657762Y-128251035D01*
X104401168Y-128343723D01*
X104288137Y-128404140D01*
X104222612Y-128643007D01*
X98685000Y-128643007D01*
X98685000Y-127725000D01*
X109386928Y-127725000D01*
X109390000Y-127964250D01*
X109548750Y-128123000D01*
X110373000Y-128123000D01*
X110373000Y-127248750D01*
X110627000Y-127248750D01*
X110627000Y-128123000D01*
X111451250Y-128123000D01*
X111610000Y-127964250D01*
X111613072Y-127725000D01*
X111600812Y-127600518D01*
X111564502Y-127480820D01*
X111505537Y-127370506D01*
X111426185Y-127273815D01*
X111329494Y-127194463D01*
X111219180Y-127135498D01*
X111099482Y-127099188D01*
X110975000Y-127086928D01*
X110785750Y-127090000D01*
X110627000Y-127248750D01*
X110373000Y-127248750D01*
X110214250Y-127090000D01*
X110025000Y-127086928D01*
X109900518Y-127099188D01*
X109780820Y-127135498D01*
X109670506Y-127194463D01*
X109573815Y-127273815D01*
X109494463Y-127370506D01*
X109435498Y-127480820D01*
X109399188Y-127600518D01*
X109386928Y-127725000D01*
X98685000Y-127725000D01*
X98685000Y-124300000D01*
X109961928Y-124300000D01*
X109974188Y-124424482D01*
X110010498Y-124544180D01*
X110069463Y-124654494D01*
X110148815Y-124751185D01*
X110245506Y-124830537D01*
X110355820Y-124889502D01*
X110475518Y-124925812D01*
X110600000Y-124938072D01*
X111814250Y-124935000D01*
X111973000Y-124776250D01*
X111973000Y-123627000D01*
X110123750Y-123627000D01*
X109965000Y-123785750D01*
X109961928Y-124300000D01*
X98685000Y-124300000D01*
X98685000Y-123276349D01*
X100903256Y-123276349D01*
X101107362Y-123632867D01*
X101550223Y-123863575D01*
X102029583Y-124003452D01*
X102527021Y-124047123D01*
X103023422Y-123992909D01*
X103499707Y-123842894D01*
X103892638Y-123632867D01*
X104096744Y-123276349D01*
X102500000Y-121679605D01*
X100903256Y-123276349D01*
X98685000Y-123276349D01*
X98685000Y-121527021D01*
X99952877Y-121527021D01*
X100007091Y-122023422D01*
X100157106Y-122499707D01*
X100367133Y-122892638D01*
X100723651Y-123096744D01*
X102320395Y-121500000D01*
X102679605Y-121500000D01*
X104276349Y-123096744D01*
X104632867Y-122892638D01*
X104733221Y-122700000D01*
X109961928Y-122700000D01*
X109965000Y-123214250D01*
X110123750Y-123373000D01*
X111973000Y-123373000D01*
X111973000Y-122223750D01*
X111814250Y-122065000D01*
X110600000Y-122061928D01*
X110475518Y-122074188D01*
X110355820Y-122110498D01*
X110245506Y-122169463D01*
X110148815Y-122248815D01*
X110069463Y-122345506D01*
X110010498Y-122455820D01*
X109974188Y-122575518D01*
X109961928Y-122700000D01*
X104733221Y-122700000D01*
X104863575Y-122449777D01*
X105003452Y-121970417D01*
X105047123Y-121472979D01*
X104992909Y-120976578D01*
X104842894Y-120500293D01*
X104632867Y-120107362D01*
X104276349Y-119903256D01*
X102679605Y-121500000D01*
X102320395Y-121500000D01*
X100723651Y-119903256D01*
X100367133Y-120107362D01*
X100136425Y-120550223D01*
X99996548Y-121029583D01*
X99952877Y-121527021D01*
X98685000Y-121527021D01*
X98685000Y-119723651D01*
X100903256Y-119723651D01*
X102500000Y-121320395D01*
X104096744Y-119723651D01*
X143903256Y-119723651D01*
X145500000Y-121320395D01*
X147096744Y-119723651D01*
X146892638Y-119367133D01*
X146449777Y-119136425D01*
X145970417Y-118996548D01*
X145472979Y-118952877D01*
X144976578Y-119007091D01*
X144500293Y-119157106D01*
X144107362Y-119367133D01*
X143903256Y-119723651D01*
X104096744Y-119723651D01*
X103892638Y-119367133D01*
X103449777Y-119136425D01*
X102970417Y-118996548D01*
X102472979Y-118952877D01*
X101976578Y-119007091D01*
X101500293Y-119157106D01*
X101107362Y-119367133D01*
X100903256Y-119723651D01*
X98685000Y-119723651D01*
X98685000Y-118185000D01*
X148815001Y-118185000D01*
X148815000Y-123533646D01*
G37*
%TD.AperFunction*%
D18*
X131078992Y-139923254D02*
X131129528Y-140089850D01*
X131211595Y-140243386D01*
X131322038Y-140377962D01*
X131456614Y-140488405D01*
X131610150Y-140570472D01*
X131776746Y-140621008D01*
X131950000Y-140638072D01*
X132917301Y-140638072D01*
X132917301Y-143021797D01*
X132533681Y-143405417D01*
X132521008Y-143276746D01*
X132470472Y-143110150D01*
X132388405Y-142956614D01*
X132277962Y-142822038D01*
X132143386Y-142711595D01*
X131989850Y-142629528D01*
X131823254Y-142578992D01*
X131650000Y-142561928D01*
X130036730Y-142561928D01*
X127587873Y-140113072D01*
X127662500Y-140113072D01*
X127833316Y-140096248D01*
X127997567Y-140046423D01*
X128148942Y-139965512D01*
X128281623Y-139856623D01*
X128360920Y-139760000D01*
X131062913Y-139760000D01*
X131078992Y-139923254D01*
%TA.AperFunction,Conductor*%
D19*
G36*
X131078992Y-139923254D02*
G01*
X131129528Y-140089850D01*
X131211595Y-140243386D01*
X131322038Y-140377962D01*
X131456614Y-140488405D01*
X131610150Y-140570472D01*
X131776746Y-140621008D01*
X131950000Y-140638072D01*
X132917301Y-140638072D01*
X132917301Y-143021797D01*
X132533681Y-143405417D01*
X132521008Y-143276746D01*
X132470472Y-143110150D01*
X132388405Y-142956614D01*
X132277962Y-142822038D01*
X132143386Y-142711595D01*
X131989850Y-142629528D01*
X131823254Y-142578992D01*
X131650000Y-142561928D01*
X130036730Y-142561928D01*
X127587873Y-140113072D01*
X127662500Y-140113072D01*
X127833316Y-140096248D01*
X127997567Y-140046423D01*
X128148942Y-139965512D01*
X128281623Y-139856623D01*
X128360920Y-139760000D01*
X131062913Y-139760000D01*
X131078992Y-139923254D01*
G37*
%TD.AperFunction*%
D18*
X120430000Y-138072287D02*
X120343377Y-138143377D01*
X120234488Y-138276058D01*
X120153577Y-138427433D01*
X120103752Y-138591684D01*
X120086928Y-138762500D01*
X120086928Y-139237500D01*
X120103752Y-139408316D01*
X120153577Y-139572567D01*
X120234488Y-139723942D01*
X120343377Y-139856623D01*
X120476058Y-139965512D01*
X120515177Y-139986421D01*
X119299099Y-141202500D01*
X113960033Y-141202500D01*
X113922700Y-141198823D01*
X113885367Y-141202500D01*
X113773714Y-141213497D01*
X113630453Y-141256954D01*
X113498424Y-141327526D01*
X113382699Y-141422499D01*
X113358901Y-141451497D01*
X112482649Y-142327750D01*
X112477962Y-142322038D01*
X112343386Y-142211595D01*
X112189850Y-142129528D01*
X112023254Y-142078992D01*
X111850000Y-142061928D01*
X111360000Y-142061928D01*
X111360000Y-139277508D01*
X111465512Y-139148942D01*
X111546423Y-138997567D01*
X111596248Y-138833316D01*
X111613072Y-138662500D01*
X111613072Y-138560000D01*
X113345680Y-138560000D01*
X113369463Y-138604494D01*
X113448815Y-138701185D01*
X113545506Y-138780537D01*
X113655820Y-138839502D01*
X113775518Y-138875812D01*
X113900000Y-138888072D01*
X115100000Y-138888072D01*
X115224482Y-138875812D01*
X115344180Y-138839502D01*
X115454494Y-138780537D01*
X115551185Y-138701185D01*
X115630537Y-138604494D01*
X115676824Y-138517899D01*
X115717547Y-138505546D01*
X115849576Y-138434974D01*
X115965301Y-138340001D01*
X115989104Y-138310997D01*
X119011008Y-135289095D01*
X119040001Y-135265301D01*
X119063795Y-135236308D01*
X119063799Y-135236304D01*
X119134973Y-135149577D01*
X119134974Y-135149576D01*
X119154486Y-135113072D01*
X119662500Y-135113072D01*
X119833316Y-135096248D01*
X119997567Y-135046423D01*
X120148942Y-134965512D01*
X120281623Y-134856623D01*
X120360920Y-134760000D01*
X120430001Y-134760000D01*
X120430000Y-138072287D01*
%TA.AperFunction,Conductor*%
D19*
G36*
X120430000Y-138072287D02*
G01*
X120343377Y-138143377D01*
X120234488Y-138276058D01*
X120153577Y-138427433D01*
X120103752Y-138591684D01*
X120086928Y-138762500D01*
X120086928Y-139237500D01*
X120103752Y-139408316D01*
X120153577Y-139572567D01*
X120234488Y-139723942D01*
X120343377Y-139856623D01*
X120476058Y-139965512D01*
X120515177Y-139986421D01*
X119299099Y-141202500D01*
X113960033Y-141202500D01*
X113922700Y-141198823D01*
X113885367Y-141202500D01*
X113773714Y-141213497D01*
X113630453Y-141256954D01*
X113498424Y-141327526D01*
X113382699Y-141422499D01*
X113358901Y-141451497D01*
X112482649Y-142327750D01*
X112477962Y-142322038D01*
X112343386Y-142211595D01*
X112189850Y-142129528D01*
X112023254Y-142078992D01*
X111850000Y-142061928D01*
X111360000Y-142061928D01*
X111360000Y-139277508D01*
X111465512Y-139148942D01*
X111546423Y-138997567D01*
X111596248Y-138833316D01*
X111613072Y-138662500D01*
X111613072Y-138560000D01*
X113345680Y-138560000D01*
X113369463Y-138604494D01*
X113448815Y-138701185D01*
X113545506Y-138780537D01*
X113655820Y-138839502D01*
X113775518Y-138875812D01*
X113900000Y-138888072D01*
X115100000Y-138888072D01*
X115224482Y-138875812D01*
X115344180Y-138839502D01*
X115454494Y-138780537D01*
X115551185Y-138701185D01*
X115630537Y-138604494D01*
X115676824Y-138517899D01*
X115717547Y-138505546D01*
X115849576Y-138434974D01*
X115965301Y-138340001D01*
X115989104Y-138310997D01*
X119011008Y-135289095D01*
X119040001Y-135265301D01*
X119063795Y-135236308D01*
X119063799Y-135236304D01*
X119134973Y-135149577D01*
X119134974Y-135149576D01*
X119154486Y-135113072D01*
X119662500Y-135113072D01*
X119833316Y-135096248D01*
X119997567Y-135046423D01*
X120148942Y-134965512D01*
X120281623Y-134856623D01*
X120360920Y-134760000D01*
X120430001Y-134760000D01*
X120430000Y-138072287D01*
G37*
%TD.AperFunction*%
D18*
X109534488Y-139148942D02*
X109643377Y-139281623D01*
X109776058Y-139390512D01*
X109840000Y-139424690D01*
X109840001Y-142061928D01*
X109519100Y-142061928D01*
X109519100Y-139120153D01*
X109534488Y-139148942D01*
%TA.AperFunction,Conductor*%
D19*
G36*
X109534488Y-139148942D02*
G01*
X109643377Y-139281623D01*
X109776058Y-139390512D01*
X109840000Y-139424690D01*
X109840001Y-142061928D01*
X109519100Y-142061928D01*
X109519100Y-139120153D01*
X109534488Y-139148942D01*
G37*
%TD.AperFunction*%
D18*
X130314900Y-132632302D02*
X130314901Y-135252468D01*
X130311224Y-135289800D01*
X130314901Y-135327133D01*
X130325898Y-135438786D01*
X130332918Y-135461928D01*
X130369354Y-135582046D01*
X130439926Y-135714076D01*
X130501413Y-135788997D01*
X130534900Y-135829801D01*
X130563898Y-135853599D01*
X131327694Y-136617396D01*
X131322038Y-136622038D01*
X131211595Y-136756614D01*
X131129528Y-136910150D01*
X131078992Y-137076746D01*
X131061928Y-137250000D01*
X131061928Y-138240000D01*
X128619401Y-138240000D01*
X129311303Y-137548099D01*
X129340301Y-137524301D01*
X129435274Y-137408576D01*
X129505846Y-137276547D01*
X129549303Y-137133286D01*
X129560300Y-137021633D01*
X129560300Y-137021624D01*
X129563976Y-136984301D01*
X129560300Y-136946978D01*
X129560300Y-132672333D01*
X129563977Y-132635000D01*
X129549303Y-132486014D01*
X129505846Y-132342753D01*
X129493834Y-132320281D01*
X129585756Y-132282205D01*
X129755274Y-132168937D01*
X129803405Y-132120806D01*
X130314900Y-132632302D01*
%TA.AperFunction,Conductor*%
D19*
G36*
X130314900Y-132632302D02*
G01*
X130314901Y-135252468D01*
X130311224Y-135289800D01*
X130314901Y-135327133D01*
X130325898Y-135438786D01*
X130332918Y-135461928D01*
X130369354Y-135582046D01*
X130439926Y-135714076D01*
X130501413Y-135788997D01*
X130534900Y-135829801D01*
X130563898Y-135853599D01*
X131327694Y-136617396D01*
X131322038Y-136622038D01*
X131211595Y-136756614D01*
X131129528Y-136910150D01*
X131078992Y-137076746D01*
X131061928Y-137250000D01*
X131061928Y-138240000D01*
X128619401Y-138240000D01*
X129311303Y-137548099D01*
X129340301Y-137524301D01*
X129435274Y-137408576D01*
X129505846Y-137276547D01*
X129549303Y-137133286D01*
X129560300Y-137021633D01*
X129560300Y-137021624D01*
X129563976Y-136984301D01*
X129560300Y-136946978D01*
X129560300Y-132672333D01*
X129563977Y-132635000D01*
X129549303Y-132486014D01*
X129505846Y-132342753D01*
X129493834Y-132320281D01*
X129585756Y-132282205D01*
X129755274Y-132168937D01*
X129803405Y-132120806D01*
X130314900Y-132632302D01*
G37*
%TD.AperFunction*%
D18*
X126335498Y-134449180D02*
X126394463Y-134559494D01*
X126473815Y-134656185D01*
X126570506Y-134735537D01*
X126680820Y-134794502D01*
X126800518Y-134830812D01*
X126925000Y-134843072D01*
X126940000Y-134843072D01*
X126940001Y-135388400D01*
X123712722Y-135388400D01*
X123675399Y-135384724D01*
X123638076Y-135388400D01*
X123638067Y-135388400D01*
X123526414Y-135399397D01*
X123383153Y-135442854D01*
X123251124Y-135513426D01*
X123135399Y-135608399D01*
X123111601Y-135637397D01*
X121950000Y-136798999D01*
X121950000Y-134843072D01*
X123075000Y-134843072D01*
X123199482Y-134830812D01*
X123319180Y-134794502D01*
X123429494Y-134735537D01*
X123526185Y-134656185D01*
X123605537Y-134559494D01*
X123664502Y-134449180D01*
X123698206Y-134338072D01*
X126301794Y-134338072D01*
X126335498Y-134449180D01*
%TA.AperFunction,Conductor*%
D19*
G36*
X126335498Y-134449180D02*
G01*
X126394463Y-134559494D01*
X126473815Y-134656185D01*
X126570506Y-134735537D01*
X126680820Y-134794502D01*
X126800518Y-134830812D01*
X126925000Y-134843072D01*
X126940000Y-134843072D01*
X126940001Y-135388400D01*
X123712722Y-135388400D01*
X123675399Y-135384724D01*
X123638076Y-135388400D01*
X123638067Y-135388400D01*
X123526414Y-135399397D01*
X123383153Y-135442854D01*
X123251124Y-135513426D01*
X123135399Y-135608399D01*
X123111601Y-135637397D01*
X121950000Y-136798999D01*
X121950000Y-134843072D01*
X123075000Y-134843072D01*
X123199482Y-134830812D01*
X123319180Y-134794502D01*
X123429494Y-134735537D01*
X123526185Y-134656185D01*
X123605537Y-134559494D01*
X123664502Y-134449180D01*
X123698206Y-134338072D01*
X126301794Y-134338072D01*
X126335498Y-134449180D01*
G37*
%TD.AperFunction*%
D18*
X116865001Y-124939803D02*
X116865000Y-133027036D01*
X116851058Y-133034488D01*
X116718377Y-133143377D01*
X116609488Y-133276058D01*
X116528577Y-133427433D01*
X116478752Y-133591684D01*
X116461928Y-133762500D01*
X116461928Y-134237500D01*
X116478752Y-134408316D01*
X116528577Y-134572567D01*
X116609488Y-134723942D01*
X116718377Y-134856623D01*
X116851058Y-134965512D01*
X117002433Y-135046423D01*
X117080418Y-135070080D01*
X115374040Y-136776459D01*
X115344180Y-136760498D01*
X115224482Y-136724188D01*
X115100000Y-136711928D01*
X114894273Y-136711928D01*
X115937704Y-135668498D01*
X115966701Y-135644701D01*
X116023237Y-135575812D01*
X116061674Y-135528977D01*
X116132246Y-135396947D01*
X116143370Y-135360274D01*
X116175703Y-135253686D01*
X116186700Y-135142033D01*
X116186700Y-135142023D01*
X116190376Y-135104700D01*
X116186700Y-135067377D01*
X116186700Y-130226133D01*
X116190377Y-130188800D01*
X116175703Y-130039814D01*
X116163626Y-130000000D01*
X116163173Y-129998507D01*
X116174403Y-129961486D01*
X116185400Y-129849833D01*
X116185400Y-129849824D01*
X116189076Y-129812501D01*
X116185400Y-129775178D01*
X116185400Y-128588622D01*
X116189076Y-128551299D01*
X116185400Y-128513976D01*
X116185400Y-128513967D01*
X116174403Y-128402314D01*
X116130946Y-128259053D01*
X116060374Y-128127024D01*
X115965401Y-128011299D01*
X115936402Y-127987501D01*
X115428500Y-127479599D01*
X115428500Y-124938072D01*
X116863270Y-124938072D01*
X116865001Y-124939803D01*
%TA.AperFunction,Conductor*%
D19*
G36*
X116865001Y-124939803D02*
G01*
X116865000Y-133027036D01*
X116851058Y-133034488D01*
X116718377Y-133143377D01*
X116609488Y-133276058D01*
X116528577Y-133427433D01*
X116478752Y-133591684D01*
X116461928Y-133762500D01*
X116461928Y-134237500D01*
X116478752Y-134408316D01*
X116528577Y-134572567D01*
X116609488Y-134723942D01*
X116718377Y-134856623D01*
X116851058Y-134965512D01*
X117002433Y-135046423D01*
X117080418Y-135070080D01*
X115374040Y-136776459D01*
X115344180Y-136760498D01*
X115224482Y-136724188D01*
X115100000Y-136711928D01*
X114894273Y-136711928D01*
X115937704Y-135668498D01*
X115966701Y-135644701D01*
X116023237Y-135575812D01*
X116061674Y-135528977D01*
X116132246Y-135396947D01*
X116143370Y-135360274D01*
X116175703Y-135253686D01*
X116186700Y-135142033D01*
X116186700Y-135142023D01*
X116190376Y-135104700D01*
X116186700Y-135067377D01*
X116186700Y-130226133D01*
X116190377Y-130188800D01*
X116175703Y-130039814D01*
X116163626Y-130000000D01*
X116163173Y-129998507D01*
X116174403Y-129961486D01*
X116185400Y-129849833D01*
X116185400Y-129849824D01*
X116189076Y-129812501D01*
X116185400Y-129775178D01*
X116185400Y-128588622D01*
X116189076Y-128551299D01*
X116185400Y-128513976D01*
X116185400Y-128513967D01*
X116174403Y-128402314D01*
X116130946Y-128259053D01*
X116060374Y-128127024D01*
X115965401Y-128011299D01*
X115936402Y-127987501D01*
X115428500Y-127479599D01*
X115428500Y-124938072D01*
X116863270Y-124938072D01*
X116865001Y-124939803D01*
G37*
%TD.AperFunction*%
D18*
X127188801Y-126011003D02*
X127212599Y-126040001D01*
X127328324Y-126134974D01*
X127460353Y-126205546D01*
X127603614Y-126249003D01*
X127715267Y-126260000D01*
X127715276Y-126260000D01*
X127752599Y-126263676D01*
X127789922Y-126260000D01*
X131061928Y-126260000D01*
X131061928Y-126750000D01*
X131078992Y-126923254D01*
X131129528Y-127089850D01*
X131211595Y-127243386D01*
X131322038Y-127377962D01*
X131456614Y-127488405D01*
X131610150Y-127570472D01*
X131776746Y-127621008D01*
X131950000Y-127638072D01*
X133050000Y-127638072D01*
X133223254Y-127621008D01*
X133389850Y-127570472D01*
X133543386Y-127488405D01*
X133677962Y-127377962D01*
X133788405Y-127243386D01*
X133870472Y-127089850D01*
X133921008Y-126923254D01*
X133938072Y-126750000D01*
X133938072Y-125042573D01*
X139242002Y-130346504D01*
X139182612Y-130563007D01*
X139960000Y-131340395D01*
X139974143Y-131326253D01*
X140153748Y-131505858D01*
X140139605Y-131520000D01*
X140916993Y-132297388D01*
X141133496Y-132237998D01*
X141145542Y-132250044D01*
X141115000Y-132403589D01*
X141115000Y-132676411D01*
X141148771Y-132846188D01*
X141035799Y-132677114D01*
X140842886Y-132484201D01*
X140616043Y-132332629D01*
X140576747Y-132316352D01*
X139960000Y-131699605D01*
X139343253Y-132316352D01*
X139303957Y-132332629D01*
X139077114Y-132484201D01*
X138884201Y-132677114D01*
X138732629Y-132903957D01*
X138628225Y-133156011D01*
X138575000Y-133423589D01*
X138575000Y-133696411D01*
X138612851Y-133886700D01*
X133938072Y-133886700D01*
X133938072Y-132850000D01*
X133921008Y-132676746D01*
X133870472Y-132510150D01*
X133788405Y-132356614D01*
X133677962Y-132222038D01*
X133543386Y-132111595D01*
X133389850Y-132029528D01*
X133389091Y-132029298D01*
X133424482Y-132025812D01*
X133544180Y-131989502D01*
X133654494Y-131930537D01*
X133751185Y-131851185D01*
X133830537Y-131754494D01*
X133889502Y-131644180D01*
X133905181Y-131592492D01*
X138570188Y-131592492D01*
X138611035Y-131862238D01*
X138703723Y-132118832D01*
X138764140Y-132231863D01*
X139003007Y-132297388D01*
X139780395Y-131520000D01*
X139003007Y-130742612D01*
X138764140Y-130808137D01*
X138648240Y-131055116D01*
X138582750Y-131319960D01*
X138570188Y-131592492D01*
X133905181Y-131592492D01*
X133925812Y-131524482D01*
X133938072Y-131400000D01*
X133935000Y-130185750D01*
X133776250Y-130027000D01*
X132627000Y-130027000D01*
X132627000Y-130047000D01*
X132373000Y-130047000D01*
X132373000Y-130027000D01*
X131223750Y-130027000D01*
X131065000Y-130185750D01*
X131064159Y-130518257D01*
X128945902Y-128400000D01*
X131061928Y-128400000D01*
X131065000Y-129614250D01*
X131223750Y-129773000D01*
X132373000Y-129773000D01*
X132373000Y-127923750D01*
X132627000Y-127923750D01*
X132627000Y-129773000D01*
X133776250Y-129773000D01*
X133935000Y-129614250D01*
X133938072Y-128400000D01*
X133925812Y-128275518D01*
X133889502Y-128155820D01*
X133830537Y-128045506D01*
X133751185Y-127948815D01*
X133654494Y-127869463D01*
X133544180Y-127810498D01*
X133424482Y-127774188D01*
X133300000Y-127761928D01*
X132785750Y-127765000D01*
X132627000Y-127923750D01*
X132373000Y-127923750D01*
X132214250Y-127765000D01*
X131700000Y-127761928D01*
X131575518Y-127774188D01*
X131455820Y-127810498D01*
X131345506Y-127869463D01*
X131248815Y-127948815D01*
X131169463Y-128045506D01*
X131110498Y-128155820D01*
X131074188Y-128275518D01*
X131061928Y-128400000D01*
X128945902Y-128400000D01*
X128413072Y-127867171D01*
X128413072Y-127762500D01*
X128396248Y-127591684D01*
X128346423Y-127427433D01*
X128265512Y-127276058D01*
X128156623Y-127143377D01*
X128023942Y-127034488D01*
X127872567Y-126953577D01*
X127708316Y-126903752D01*
X127537500Y-126886928D01*
X126962500Y-126886928D01*
X126791684Y-126903752D01*
X126627433Y-126953577D01*
X126476058Y-127034488D01*
X126452161Y-127054099D01*
X126379494Y-126994463D01*
X126269180Y-126935498D01*
X126149482Y-126899188D01*
X126025000Y-126886928D01*
X125785750Y-126890000D01*
X125627000Y-127048750D01*
X125627000Y-127873000D01*
X125647000Y-127873000D01*
X125647000Y-128127000D01*
X125627000Y-128127000D01*
X125627000Y-128951250D01*
X125785750Y-129110000D01*
X126025000Y-129113072D01*
X126149482Y-129100812D01*
X126269180Y-129064502D01*
X126379494Y-129005537D01*
X126452161Y-128945901D01*
X126476058Y-128965512D01*
X126627433Y-129046423D01*
X126791684Y-129096248D01*
X126962500Y-129113072D01*
X127509371Y-129113072D01*
X127553227Y-129156928D01*
X126925000Y-129156928D01*
X126800518Y-129169188D01*
X126680820Y-129205498D01*
X126570506Y-129264463D01*
X126473815Y-129343815D01*
X126394463Y-129440506D01*
X126335498Y-129550820D01*
X126301794Y-129661928D01*
X123698206Y-129661928D01*
X123664502Y-129550820D01*
X123605537Y-129440506D01*
X123526185Y-129343815D01*
X123429494Y-129264463D01*
X123319180Y-129205498D01*
X123199482Y-129169188D01*
X123075000Y-129156928D01*
X122325733Y-129156928D01*
X122381046Y-129053447D01*
X122406903Y-128968205D01*
X122411942Y-128965512D01*
X122544623Y-128856623D01*
X122588000Y-128803768D01*
X122631377Y-128856623D01*
X122764058Y-128965512D01*
X122915433Y-129046423D01*
X123079684Y-129096248D01*
X123250500Y-129113072D01*
X123750500Y-129113072D01*
X123921316Y-129096248D01*
X124085567Y-129046423D01*
X124236942Y-128965512D01*
X124369623Y-128856623D01*
X124423726Y-128790699D01*
X124444463Y-128829494D01*
X124523815Y-128926185D01*
X124620506Y-129005537D01*
X124730820Y-129064502D01*
X124850518Y-129100812D01*
X124975000Y-129113072D01*
X125214250Y-129110000D01*
X125373000Y-128951250D01*
X125373000Y-128127000D01*
X125353000Y-128127000D01*
X125353000Y-127873000D01*
X125373000Y-127873000D01*
X125373000Y-127048750D01*
X125214250Y-126890000D01*
X124975000Y-126886928D01*
X124850518Y-126899188D01*
X124730820Y-126935498D01*
X124620506Y-126994463D01*
X124523815Y-127073815D01*
X124444463Y-127170506D01*
X124423726Y-127209301D01*
X124369623Y-127143377D01*
X124260500Y-127053822D01*
X124260500Y-123274360D01*
X124365768Y-123187969D01*
X127188801Y-126011003D01*
%TA.AperFunction,Conductor*%
D19*
G36*
X127188801Y-126011003D02*
G01*
X127212599Y-126040001D01*
X127328324Y-126134974D01*
X127460353Y-126205546D01*
X127603614Y-126249003D01*
X127715267Y-126260000D01*
X127715276Y-126260000D01*
X127752599Y-126263676D01*
X127789922Y-126260000D01*
X131061928Y-126260000D01*
X131061928Y-126750000D01*
X131078992Y-126923254D01*
X131129528Y-127089850D01*
X131211595Y-127243386D01*
X131322038Y-127377962D01*
X131456614Y-127488405D01*
X131610150Y-127570472D01*
X131776746Y-127621008D01*
X131950000Y-127638072D01*
X133050000Y-127638072D01*
X133223254Y-127621008D01*
X133389850Y-127570472D01*
X133543386Y-127488405D01*
X133677962Y-127377962D01*
X133788405Y-127243386D01*
X133870472Y-127089850D01*
X133921008Y-126923254D01*
X133938072Y-126750000D01*
X133938072Y-125042573D01*
X139242002Y-130346504D01*
X139182612Y-130563007D01*
X139960000Y-131340395D01*
X139974143Y-131326253D01*
X140153748Y-131505858D01*
X140139605Y-131520000D01*
X140916993Y-132297388D01*
X141133496Y-132237998D01*
X141145542Y-132250044D01*
X141115000Y-132403589D01*
X141115000Y-132676411D01*
X141148771Y-132846188D01*
X141035799Y-132677114D01*
X140842886Y-132484201D01*
X140616043Y-132332629D01*
X140576747Y-132316352D01*
X139960000Y-131699605D01*
X139343253Y-132316352D01*
X139303957Y-132332629D01*
X139077114Y-132484201D01*
X138884201Y-132677114D01*
X138732629Y-132903957D01*
X138628225Y-133156011D01*
X138575000Y-133423589D01*
X138575000Y-133696411D01*
X138612851Y-133886700D01*
X133938072Y-133886700D01*
X133938072Y-132850000D01*
X133921008Y-132676746D01*
X133870472Y-132510150D01*
X133788405Y-132356614D01*
X133677962Y-132222038D01*
X133543386Y-132111595D01*
X133389850Y-132029528D01*
X133389091Y-132029298D01*
X133424482Y-132025812D01*
X133544180Y-131989502D01*
X133654494Y-131930537D01*
X133751185Y-131851185D01*
X133830537Y-131754494D01*
X133889502Y-131644180D01*
X133905181Y-131592492D01*
X138570188Y-131592492D01*
X138611035Y-131862238D01*
X138703723Y-132118832D01*
X138764140Y-132231863D01*
X139003007Y-132297388D01*
X139780395Y-131520000D01*
X139003007Y-130742612D01*
X138764140Y-130808137D01*
X138648240Y-131055116D01*
X138582750Y-131319960D01*
X138570188Y-131592492D01*
X133905181Y-131592492D01*
X133925812Y-131524482D01*
X133938072Y-131400000D01*
X133935000Y-130185750D01*
X133776250Y-130027000D01*
X132627000Y-130027000D01*
X132627000Y-130047000D01*
X132373000Y-130047000D01*
X132373000Y-130027000D01*
X131223750Y-130027000D01*
X131065000Y-130185750D01*
X131064159Y-130518257D01*
X128945902Y-128400000D01*
X131061928Y-128400000D01*
X131065000Y-129614250D01*
X131223750Y-129773000D01*
X132373000Y-129773000D01*
X132373000Y-127923750D01*
X132627000Y-127923750D01*
X132627000Y-129773000D01*
X133776250Y-129773000D01*
X133935000Y-129614250D01*
X133938072Y-128400000D01*
X133925812Y-128275518D01*
X133889502Y-128155820D01*
X133830537Y-128045506D01*
X133751185Y-127948815D01*
X133654494Y-127869463D01*
X133544180Y-127810498D01*
X133424482Y-127774188D01*
X133300000Y-127761928D01*
X132785750Y-127765000D01*
X132627000Y-127923750D01*
X132373000Y-127923750D01*
X132214250Y-127765000D01*
X131700000Y-127761928D01*
X131575518Y-127774188D01*
X131455820Y-127810498D01*
X131345506Y-127869463D01*
X131248815Y-127948815D01*
X131169463Y-128045506D01*
X131110498Y-128155820D01*
X131074188Y-128275518D01*
X131061928Y-128400000D01*
X128945902Y-128400000D01*
X128413072Y-127867171D01*
X128413072Y-127762500D01*
X128396248Y-127591684D01*
X128346423Y-127427433D01*
X128265512Y-127276058D01*
X128156623Y-127143377D01*
X128023942Y-127034488D01*
X127872567Y-126953577D01*
X127708316Y-126903752D01*
X127537500Y-126886928D01*
X126962500Y-126886928D01*
X126791684Y-126903752D01*
X126627433Y-126953577D01*
X126476058Y-127034488D01*
X126452161Y-127054099D01*
X126379494Y-126994463D01*
X126269180Y-126935498D01*
X126149482Y-126899188D01*
X126025000Y-126886928D01*
X125785750Y-126890000D01*
X125627000Y-127048750D01*
X125627000Y-127873000D01*
X125647000Y-127873000D01*
X125647000Y-128127000D01*
X125627000Y-128127000D01*
X125627000Y-128951250D01*
X125785750Y-129110000D01*
X126025000Y-129113072D01*
X126149482Y-129100812D01*
X126269180Y-129064502D01*
X126379494Y-129005537D01*
X126452161Y-128945901D01*
X126476058Y-128965512D01*
X126627433Y-129046423D01*
X126791684Y-129096248D01*
X126962500Y-129113072D01*
X127509371Y-129113072D01*
X127553227Y-129156928D01*
X126925000Y-129156928D01*
X126800518Y-129169188D01*
X126680820Y-129205498D01*
X126570506Y-129264463D01*
X126473815Y-129343815D01*
X126394463Y-129440506D01*
X126335498Y-129550820D01*
X126301794Y-129661928D01*
X123698206Y-129661928D01*
X123664502Y-129550820D01*
X123605537Y-129440506D01*
X123526185Y-129343815D01*
X123429494Y-129264463D01*
X123319180Y-129205498D01*
X123199482Y-129169188D01*
X123075000Y-129156928D01*
X122325733Y-129156928D01*
X122381046Y-129053447D01*
X122406903Y-128968205D01*
X122411942Y-128965512D01*
X122544623Y-128856623D01*
X122588000Y-128803768D01*
X122631377Y-128856623D01*
X122764058Y-128965512D01*
X122915433Y-129046423D01*
X123079684Y-129096248D01*
X123250500Y-129113072D01*
X123750500Y-129113072D01*
X123921316Y-129096248D01*
X124085567Y-129046423D01*
X124236942Y-128965512D01*
X124369623Y-128856623D01*
X124423726Y-128790699D01*
X124444463Y-128829494D01*
X124523815Y-128926185D01*
X124620506Y-129005537D01*
X124730820Y-129064502D01*
X124850518Y-129100812D01*
X124975000Y-129113072D01*
X125214250Y-129110000D01*
X125373000Y-128951250D01*
X125373000Y-128127000D01*
X125353000Y-128127000D01*
X125353000Y-127873000D01*
X125373000Y-127873000D01*
X125373000Y-127048750D01*
X125214250Y-126890000D01*
X124975000Y-126886928D01*
X124850518Y-126899188D01*
X124730820Y-126935498D01*
X124620506Y-126994463D01*
X124523815Y-127073815D01*
X124444463Y-127170506D01*
X124423726Y-127209301D01*
X124369623Y-127143377D01*
X124260500Y-127053822D01*
X124260500Y-123274360D01*
X124365768Y-123187969D01*
X127188801Y-126011003D01*
G37*
%TD.AperFunction*%
D18*
X120361928Y-122550000D02*
X120378992Y-122723254D01*
X120429528Y-122889850D01*
X120511595Y-123043386D01*
X120622038Y-123177962D01*
X120756614Y-123288405D01*
X120910150Y-123370472D01*
X121076746Y-123421008D01*
X121250000Y-123438072D01*
X122740501Y-123438072D01*
X122740500Y-127053821D01*
X122631377Y-127143377D01*
X122588000Y-127196232D01*
X122544623Y-127143377D01*
X122411942Y-127034488D01*
X122260567Y-126953577D01*
X122096316Y-126903752D01*
X121925500Y-126886928D01*
X121425500Y-126886928D01*
X121254684Y-126903752D01*
X121090433Y-126953577D01*
X120939058Y-127034488D01*
X120806377Y-127143377D01*
X120697488Y-127276058D01*
X120616577Y-127427433D01*
X120566752Y-127591684D01*
X120549928Y-127762500D01*
X120549928Y-128237500D01*
X120566566Y-128406423D01*
X120427563Y-128545426D01*
X120314295Y-128714944D01*
X120236274Y-128903302D01*
X120196500Y-129103261D01*
X120196500Y-129307139D01*
X120236274Y-129507098D01*
X120314295Y-129695456D01*
X120427563Y-129864974D01*
X120439700Y-129877111D01*
X120439700Y-130057667D01*
X120436023Y-130095000D01*
X120450697Y-130243986D01*
X120494154Y-130387247D01*
X120564726Y-130519276D01*
X120621742Y-130588750D01*
X120659699Y-130635001D01*
X120775424Y-130729974D01*
X120907453Y-130800546D01*
X120940910Y-130810695D01*
X120935498Y-130820820D01*
X120899188Y-130940518D01*
X120886928Y-131065000D01*
X120890000Y-131079250D01*
X121048750Y-131238000D01*
X122173000Y-131238000D01*
X122173000Y-131218000D01*
X122427000Y-131218000D01*
X122427000Y-131238000D01*
X122447000Y-131238000D01*
X122447000Y-131492000D01*
X122427000Y-131492000D01*
X122427000Y-131512000D01*
X122173000Y-131512000D01*
X122173000Y-131492000D01*
X121048750Y-131492000D01*
X120958250Y-131582500D01*
X120785161Y-131582500D01*
X120585202Y-131622274D01*
X120396844Y-131700295D01*
X120227326Y-131813563D01*
X120183389Y-131857500D01*
X119470633Y-131857500D01*
X119433300Y-131853823D01*
X119395967Y-131857500D01*
X119284314Y-131868497D01*
X119141053Y-131911954D01*
X119009024Y-131982526D01*
X118893299Y-132077499D01*
X118869501Y-132106497D01*
X118385000Y-132590999D01*
X118385000Y-124669386D01*
X118488405Y-124543386D01*
X118570472Y-124389850D01*
X118621008Y-124223254D01*
X118638072Y-124050000D01*
X118638072Y-122950000D01*
X118621008Y-122776746D01*
X118570472Y-122610150D01*
X118488405Y-122456614D01*
X118377962Y-122322038D01*
X118243386Y-122211595D01*
X118089850Y-122129528D01*
X117923254Y-122078992D01*
X117750000Y-122061928D01*
X116398274Y-122061928D01*
X116879102Y-121581100D01*
X120361928Y-121581100D01*
X120361928Y-122550000D01*
%TA.AperFunction,Conductor*%
D19*
G36*
X120361928Y-122550000D02*
G01*
X120378992Y-122723254D01*
X120429528Y-122889850D01*
X120511595Y-123043386D01*
X120622038Y-123177962D01*
X120756614Y-123288405D01*
X120910150Y-123370472D01*
X121076746Y-123421008D01*
X121250000Y-123438072D01*
X122740501Y-123438072D01*
X122740500Y-127053821D01*
X122631377Y-127143377D01*
X122588000Y-127196232D01*
X122544623Y-127143377D01*
X122411942Y-127034488D01*
X122260567Y-126953577D01*
X122096316Y-126903752D01*
X121925500Y-126886928D01*
X121425500Y-126886928D01*
X121254684Y-126903752D01*
X121090433Y-126953577D01*
X120939058Y-127034488D01*
X120806377Y-127143377D01*
X120697488Y-127276058D01*
X120616577Y-127427433D01*
X120566752Y-127591684D01*
X120549928Y-127762500D01*
X120549928Y-128237500D01*
X120566566Y-128406423D01*
X120427563Y-128545426D01*
X120314295Y-128714944D01*
X120236274Y-128903302D01*
X120196500Y-129103261D01*
X120196500Y-129307139D01*
X120236274Y-129507098D01*
X120314295Y-129695456D01*
X120427563Y-129864974D01*
X120439700Y-129877111D01*
X120439700Y-130057667D01*
X120436023Y-130095000D01*
X120450697Y-130243986D01*
X120494154Y-130387247D01*
X120564726Y-130519276D01*
X120621742Y-130588750D01*
X120659699Y-130635001D01*
X120775424Y-130729974D01*
X120907453Y-130800546D01*
X120940910Y-130810695D01*
X120935498Y-130820820D01*
X120899188Y-130940518D01*
X120886928Y-131065000D01*
X120890000Y-131079250D01*
X121048750Y-131238000D01*
X122173000Y-131238000D01*
X122173000Y-131218000D01*
X122427000Y-131218000D01*
X122427000Y-131238000D01*
X122447000Y-131238000D01*
X122447000Y-131492000D01*
X122427000Y-131492000D01*
X122427000Y-131512000D01*
X122173000Y-131512000D01*
X122173000Y-131492000D01*
X121048750Y-131492000D01*
X120958250Y-131582500D01*
X120785161Y-131582500D01*
X120585202Y-131622274D01*
X120396844Y-131700295D01*
X120227326Y-131813563D01*
X120183389Y-131857500D01*
X119470633Y-131857500D01*
X119433300Y-131853823D01*
X119395967Y-131857500D01*
X119284314Y-131868497D01*
X119141053Y-131911954D01*
X119009024Y-131982526D01*
X118893299Y-132077499D01*
X118869501Y-132106497D01*
X118385000Y-132590999D01*
X118385000Y-124669386D01*
X118488405Y-124543386D01*
X118570472Y-124389850D01*
X118621008Y-124223254D01*
X118638072Y-124050000D01*
X118638072Y-122950000D01*
X118621008Y-122776746D01*
X118570472Y-122610150D01*
X118488405Y-122456614D01*
X118377962Y-122322038D01*
X118243386Y-122211595D01*
X118089850Y-122129528D01*
X117923254Y-122078992D01*
X117750000Y-122061928D01*
X116398274Y-122061928D01*
X116879102Y-121581100D01*
X120361928Y-121581100D01*
X120361928Y-122550000D01*
G37*
%TD.AperFunction*%
D18*
X132257427Y-123361928D02*
X131950000Y-123361928D01*
X131776746Y-123378992D01*
X131610150Y-123429528D01*
X131456614Y-123511595D01*
X131322038Y-123622038D01*
X131211595Y-123756614D01*
X131129528Y-123910150D01*
X131078992Y-124076746D01*
X131061928Y-124250000D01*
X131061928Y-124740000D01*
X128067402Y-124740000D01*
X126765474Y-123438072D01*
X128150000Y-123438072D01*
X128323254Y-123421008D01*
X128489850Y-123370472D01*
X128643386Y-123288405D01*
X128777962Y-123177962D01*
X128888405Y-123043386D01*
X128970472Y-122889850D01*
X129009861Y-122760000D01*
X131655499Y-122760000D01*
X132257427Y-123361928D01*
%TA.AperFunction,Conductor*%
D19*
G36*
X132257427Y-123361928D02*
G01*
X131950000Y-123361928D01*
X131776746Y-123378992D01*
X131610150Y-123429528D01*
X131456614Y-123511595D01*
X131322038Y-123622038D01*
X131211595Y-123756614D01*
X131129528Y-123910150D01*
X131078992Y-124076746D01*
X131061928Y-124250000D01*
X131061928Y-124740000D01*
X128067402Y-124740000D01*
X126765474Y-123438072D01*
X128150000Y-123438072D01*
X128323254Y-123421008D01*
X128489850Y-123370472D01*
X128643386Y-123288405D01*
X128777962Y-123177962D01*
X128888405Y-123043386D01*
X128970472Y-122889850D01*
X129009861Y-122760000D01*
X131655499Y-122760000D01*
X132257427Y-123361928D01*
G37*
%TD.AperFunction*%
%TD*%
M02*
