%FSLAX45Y45*%
G04 Gerber Fmt 4.5, Leading zero omitted, Abs format (unit mm)*
G04 Created by KiCad (PCBNEW 5.1.6-c6e7f7d~87~ubuntu20.04.1) date 2020-07-30 11:34:01*
%MOMM*%
%LPD*%
G01*
G04 APERTURE LIST*
%TA.AperFunction,Profile*%
%ADD10C,0.100000*%
%TD*%
%ADD11C,0.200000*%
%ADD12C,0.300000*%
G04 APERTURE END LIST*
D10*
X14950000Y-14950000D02*
X14950000Y-11500000D01*
X9800000Y-14950000D02*
X14950000Y-14950000D01*
X9800000Y-14950000D02*
X9800000Y-11500000D01*
X14950000Y-11500000D02*
X9800000Y-11500000D01*
D11*
X11130000Y-12380000D02*
X11170000Y-12420000D01*
X11170000Y-12380000D02*
X11130000Y-12420000D01*
X11130000Y-13930000D02*
X11170000Y-13970000D01*
X11170000Y-13930000D02*
X11130000Y-13970000D01*
X11530000Y-13380000D02*
X11570000Y-13420000D01*
X11570000Y-13380000D02*
X11530000Y-13420000D01*
X11722160Y-13258410D02*
X11762160Y-13298410D01*
X11762160Y-13258410D02*
X11722160Y-13298410D01*
X12330000Y-12730000D02*
X12370000Y-12770000D01*
X12370000Y-12730000D02*
X12330000Y-12770000D01*
X13180000Y-12580000D02*
X13220000Y-12620000D01*
X13220000Y-12580000D02*
X13180000Y-12620000D01*
X13580000Y-12430000D02*
X13620000Y-12470000D01*
X13620000Y-12430000D02*
X13580000Y-12470000D01*
X13880000Y-13630000D02*
X13920000Y-13670000D01*
X13920000Y-13630000D02*
X13880000Y-13670000D01*
X10490000Y-12450000D02*
G75*
G03*
X10490000Y-12450000I-40000J0D01*
G01*
X10998000Y-12450000D02*
G75*
G03*
X10998000Y-12450000I-40000J0D01*
G01*
X10490000Y-13900000D02*
G75*
G03*
X10490000Y-13900000I-40000J0D01*
G01*
X10998000Y-13900000D02*
G75*
G03*
X10998000Y-13900000I-40000J0D01*
G01*
X13996000Y-13107000D02*
X13996000Y-13197000D01*
X13951000Y-13152000D02*
X14041000Y-13152000D01*
X13996000Y-13311000D02*
X13996000Y-13401000D01*
X13951000Y-13356000D02*
X14041000Y-13356000D01*
X14250000Y-13005000D02*
X14250000Y-13095000D01*
X14205000Y-13050000D02*
X14295000Y-13050000D01*
X14250000Y-13209000D02*
X14250000Y-13299000D01*
X14205000Y-13254000D02*
X14295000Y-13254000D01*
X10496670Y-12996669D02*
X10496670Y-12903330D01*
X10403331Y-12903330D01*
X10403331Y-12996669D01*
X10496670Y-12996669D01*
X10496670Y-13496669D02*
X10496670Y-13403330D01*
X10403331Y-13403330D01*
X10403331Y-13496669D01*
X10496670Y-13496669D01*
X10200000Y-12010000D02*
X10310000Y-11900000D01*
X10200000Y-11790000D01*
X10090000Y-11900000D01*
X10200000Y-12010000D01*
X10200000Y-14660000D02*
X10310000Y-14550000D01*
X10200000Y-14440000D01*
X10090000Y-14550000D01*
X10200000Y-14660000D01*
X14550000Y-12010000D02*
X14660000Y-11900000D01*
X14550000Y-11790000D01*
X14440000Y-11900000D01*
X14550000Y-12010000D01*
X14550000Y-14660000D02*
X14660000Y-14550000D01*
X14550000Y-14440000D01*
X14440000Y-14550000D01*
X14550000Y-14660000D01*
D12*
X9836429Y-15420714D02*
X9836429Y-15120714D01*
X9907857Y-15120714D01*
X9950714Y-15135000D01*
X9979286Y-15163571D01*
X9993571Y-15192143D01*
X10007857Y-15249286D01*
X10007857Y-15292143D01*
X9993571Y-15349286D01*
X9979286Y-15377857D01*
X9950714Y-15406429D01*
X9907857Y-15420714D01*
X9836429Y-15420714D01*
X10136429Y-15420714D02*
X10136429Y-15220714D01*
X10136429Y-15277857D02*
X10150714Y-15249286D01*
X10165000Y-15235000D01*
X10193571Y-15220714D01*
X10222143Y-15220714D01*
X10322143Y-15420714D02*
X10322143Y-15220714D01*
X10322143Y-15120714D02*
X10307857Y-15135000D01*
X10322143Y-15149286D01*
X10336429Y-15135000D01*
X10322143Y-15120714D01*
X10322143Y-15149286D01*
X10507857Y-15420714D02*
X10479286Y-15406429D01*
X10465000Y-15377857D01*
X10465000Y-15120714D01*
X10665000Y-15420714D02*
X10636429Y-15406429D01*
X10622143Y-15377857D01*
X10622143Y-15120714D01*
X11007857Y-15420714D02*
X11007857Y-15120714D01*
X11107857Y-15335000D01*
X11207857Y-15120714D01*
X11207857Y-15420714D01*
X11479286Y-15420714D02*
X11479286Y-15263571D01*
X11465000Y-15235000D01*
X11436428Y-15220714D01*
X11379286Y-15220714D01*
X11350714Y-15235000D01*
X11479286Y-15406429D02*
X11450714Y-15420714D01*
X11379286Y-15420714D01*
X11350714Y-15406429D01*
X11336428Y-15377857D01*
X11336428Y-15349286D01*
X11350714Y-15320714D01*
X11379286Y-15306429D01*
X11450714Y-15306429D01*
X11479286Y-15292143D01*
X11622143Y-15220714D02*
X11622143Y-15520714D01*
X11622143Y-15235000D02*
X11650714Y-15220714D01*
X11707857Y-15220714D01*
X11736428Y-15235000D01*
X11750714Y-15249286D01*
X11765000Y-15277857D01*
X11765000Y-15363571D01*
X11750714Y-15392143D01*
X11736428Y-15406429D01*
X11707857Y-15420714D01*
X11650714Y-15420714D01*
X11622143Y-15406429D01*
X11893571Y-15392143D02*
X11907857Y-15406429D01*
X11893571Y-15420714D01*
X11879286Y-15406429D01*
X11893571Y-15392143D01*
X11893571Y-15420714D01*
X11893571Y-15235000D02*
X11907857Y-15249286D01*
X11893571Y-15263571D01*
X11879286Y-15249286D01*
X11893571Y-15235000D01*
X11893571Y-15263571D01*
X9510000Y-15895000D02*
X9550000Y-15935000D01*
X9550000Y-15895000D02*
X9510000Y-15935000D01*
X9893571Y-15750714D02*
X9922143Y-15750714D01*
X9950714Y-15765000D01*
X9965000Y-15779286D01*
X9979286Y-15807857D01*
X9993571Y-15865000D01*
X9993571Y-15936429D01*
X9979286Y-15993571D01*
X9965000Y-16022143D01*
X9950714Y-16036429D01*
X9922143Y-16050714D01*
X9893571Y-16050714D01*
X9865000Y-16036429D01*
X9850714Y-16022143D01*
X9836429Y-15993571D01*
X9822143Y-15936429D01*
X9822143Y-15865000D01*
X9836429Y-15807857D01*
X9850714Y-15779286D01*
X9865000Y-15765000D01*
X9893571Y-15750714D01*
X10122143Y-16022143D02*
X10136429Y-16036429D01*
X10122143Y-16050714D01*
X10107857Y-16036429D01*
X10122143Y-16022143D01*
X10122143Y-16050714D01*
X10393571Y-15850714D02*
X10393571Y-16050714D01*
X10322143Y-15736429D02*
X10250714Y-15950714D01*
X10436429Y-15950714D01*
X10607857Y-15750714D02*
X10636429Y-15750714D01*
X10665000Y-15765000D01*
X10679286Y-15779286D01*
X10693571Y-15807857D01*
X10707857Y-15865000D01*
X10707857Y-15936429D01*
X10693571Y-15993571D01*
X10679286Y-16022143D01*
X10665000Y-16036429D01*
X10636429Y-16050714D01*
X10607857Y-16050714D01*
X10579286Y-16036429D01*
X10565000Y-16022143D01*
X10550714Y-15993571D01*
X10536429Y-15936429D01*
X10536429Y-15865000D01*
X10550714Y-15807857D01*
X10565000Y-15779286D01*
X10579286Y-15765000D01*
X10607857Y-15750714D01*
X10836429Y-16050714D02*
X10836429Y-15850714D01*
X10836429Y-15879286D02*
X10850714Y-15865000D01*
X10879286Y-15850714D01*
X10922143Y-15850714D01*
X10950714Y-15865000D01*
X10965000Y-15893571D01*
X10965000Y-16050714D01*
X10965000Y-15893571D02*
X10979286Y-15865000D01*
X11007857Y-15850714D01*
X11050714Y-15850714D01*
X11079286Y-15865000D01*
X11093571Y-15893571D01*
X11093571Y-16050714D01*
X11236428Y-16050714D02*
X11236428Y-15850714D01*
X11236428Y-15879286D02*
X11250714Y-15865000D01*
X11279286Y-15850714D01*
X11322143Y-15850714D01*
X11350714Y-15865000D01*
X11365000Y-15893571D01*
X11365000Y-16050714D01*
X11365000Y-15893571D02*
X11379286Y-15865000D01*
X11407857Y-15850714D01*
X11450714Y-15850714D01*
X11479286Y-15865000D01*
X11493571Y-15893571D01*
X11493571Y-16050714D01*
X12079286Y-15736429D02*
X11822143Y-16122143D01*
X12465000Y-15750714D02*
X12493571Y-15750714D01*
X12522143Y-15765000D01*
X12536428Y-15779286D01*
X12550714Y-15807857D01*
X12565000Y-15865000D01*
X12565000Y-15936429D01*
X12550714Y-15993571D01*
X12536428Y-16022143D01*
X12522143Y-16036429D01*
X12493571Y-16050714D01*
X12465000Y-16050714D01*
X12436428Y-16036429D01*
X12422143Y-16022143D01*
X12407857Y-15993571D01*
X12393571Y-15936429D01*
X12393571Y-15865000D01*
X12407857Y-15807857D01*
X12422143Y-15779286D01*
X12436428Y-15765000D01*
X12465000Y-15750714D01*
X12693571Y-16022143D02*
X12707857Y-16036429D01*
X12693571Y-16050714D01*
X12679286Y-16036429D01*
X12693571Y-16022143D01*
X12693571Y-16050714D01*
X12893571Y-15750714D02*
X12922143Y-15750714D01*
X12950714Y-15765000D01*
X12965000Y-15779286D01*
X12979286Y-15807857D01*
X12993571Y-15865000D01*
X12993571Y-15936429D01*
X12979286Y-15993571D01*
X12965000Y-16022143D01*
X12950714Y-16036429D01*
X12922143Y-16050714D01*
X12893571Y-16050714D01*
X12865000Y-16036429D01*
X12850714Y-16022143D01*
X12836428Y-15993571D01*
X12822143Y-15936429D01*
X12822143Y-15865000D01*
X12836428Y-15807857D01*
X12850714Y-15779286D01*
X12865000Y-15765000D01*
X12893571Y-15750714D01*
X13279286Y-16050714D02*
X13107857Y-16050714D01*
X13193571Y-16050714D02*
X13193571Y-15750714D01*
X13165000Y-15793571D01*
X13136428Y-15822143D01*
X13107857Y-15836429D01*
X13536428Y-15750714D02*
X13479286Y-15750714D01*
X13450714Y-15765000D01*
X13436428Y-15779286D01*
X13407857Y-15822143D01*
X13393571Y-15879286D01*
X13393571Y-15993571D01*
X13407857Y-16022143D01*
X13422143Y-16036429D01*
X13450714Y-16050714D01*
X13507857Y-16050714D01*
X13536428Y-16036429D01*
X13550714Y-16022143D01*
X13565000Y-15993571D01*
X13565000Y-15922143D01*
X13550714Y-15893571D01*
X13536428Y-15879286D01*
X13507857Y-15865000D01*
X13450714Y-15865000D01*
X13422143Y-15879286D01*
X13407857Y-15893571D01*
X13393571Y-15922143D01*
X13679286Y-15750714D02*
X13679286Y-15807857D01*
X13793571Y-15750714D02*
X13793571Y-15807857D01*
X14236428Y-16165000D02*
X14222143Y-16150714D01*
X14193571Y-16107857D01*
X14179286Y-16079286D01*
X14165000Y-16036429D01*
X14150714Y-15965000D01*
X14150714Y-15907857D01*
X14165000Y-15836429D01*
X14179286Y-15793571D01*
X14193571Y-15765000D01*
X14222143Y-15722143D01*
X14236428Y-15707857D01*
X14393571Y-15879286D02*
X14365000Y-15865000D01*
X14350714Y-15850714D01*
X14336428Y-15822143D01*
X14336428Y-15807857D01*
X14350714Y-15779286D01*
X14365000Y-15765000D01*
X14393571Y-15750714D01*
X14450714Y-15750714D01*
X14479286Y-15765000D01*
X14493571Y-15779286D01*
X14507857Y-15807857D01*
X14507857Y-15822143D01*
X14493571Y-15850714D01*
X14479286Y-15865000D01*
X14450714Y-15879286D01*
X14393571Y-15879286D01*
X14365000Y-15893571D01*
X14350714Y-15907857D01*
X14336428Y-15936429D01*
X14336428Y-15993571D01*
X14350714Y-16022143D01*
X14365000Y-16036429D01*
X14393571Y-16050714D01*
X14450714Y-16050714D01*
X14479286Y-16036429D01*
X14493571Y-16022143D01*
X14507857Y-15993571D01*
X14507857Y-15936429D01*
X14493571Y-15907857D01*
X14479286Y-15893571D01*
X14450714Y-15879286D01*
X14865000Y-16050714D02*
X14865000Y-15750714D01*
X14993571Y-16050714D02*
X14993571Y-15893571D01*
X14979286Y-15865000D01*
X14950714Y-15850714D01*
X14907857Y-15850714D01*
X14879286Y-15865000D01*
X14865000Y-15879286D01*
X15179286Y-16050714D02*
X15150714Y-16036429D01*
X15136428Y-16022143D01*
X15122143Y-15993571D01*
X15122143Y-15907857D01*
X15136428Y-15879286D01*
X15150714Y-15865000D01*
X15179286Y-15850714D01*
X15222143Y-15850714D01*
X15250714Y-15865000D01*
X15265000Y-15879286D01*
X15279286Y-15907857D01*
X15279286Y-15993571D01*
X15265000Y-16022143D01*
X15250714Y-16036429D01*
X15222143Y-16050714D01*
X15179286Y-16050714D01*
X15450714Y-16050714D02*
X15422143Y-16036429D01*
X15407857Y-16007857D01*
X15407857Y-15750714D01*
X15679286Y-16036429D02*
X15650714Y-16050714D01*
X15593571Y-16050714D01*
X15565000Y-16036429D01*
X15550714Y-16007857D01*
X15550714Y-15893571D01*
X15565000Y-15865000D01*
X15593571Y-15850714D01*
X15650714Y-15850714D01*
X15679286Y-15865000D01*
X15693571Y-15893571D01*
X15693571Y-15922143D01*
X15550714Y-15950714D01*
X15807857Y-16036429D02*
X15836428Y-16050714D01*
X15893571Y-16050714D01*
X15922143Y-16036429D01*
X15936428Y-16007857D01*
X15936428Y-15993571D01*
X15922143Y-15965000D01*
X15893571Y-15950714D01*
X15850714Y-15950714D01*
X15822143Y-15936429D01*
X15807857Y-15907857D01*
X15807857Y-15893571D01*
X15822143Y-15865000D01*
X15850714Y-15850714D01*
X15893571Y-15850714D01*
X15922143Y-15865000D01*
X16036428Y-16165000D02*
X16050714Y-16150714D01*
X16079286Y-16107857D01*
X16093571Y-16079286D01*
X16107857Y-16036429D01*
X16122143Y-15965000D01*
X16122143Y-15907857D01*
X16107857Y-15836429D01*
X16093571Y-15793571D01*
X16079286Y-15765000D01*
X16050714Y-15722143D01*
X16036428Y-15707857D01*
X9550000Y-16311000D02*
G75*
G03*
X9550000Y-16311000I-40000J0D01*
G01*
X9893571Y-16146714D02*
X9922143Y-16146714D01*
X9950714Y-16161000D01*
X9965000Y-16175286D01*
X9979286Y-16203857D01*
X9993571Y-16261000D01*
X9993571Y-16332429D01*
X9979286Y-16389571D01*
X9965000Y-16418143D01*
X9950714Y-16432429D01*
X9922143Y-16446714D01*
X9893571Y-16446714D01*
X9865000Y-16432429D01*
X9850714Y-16418143D01*
X9836429Y-16389571D01*
X9822143Y-16332429D01*
X9822143Y-16261000D01*
X9836429Y-16203857D01*
X9850714Y-16175286D01*
X9865000Y-16161000D01*
X9893571Y-16146714D01*
X10122143Y-16418143D02*
X10136429Y-16432429D01*
X10122143Y-16446714D01*
X10107857Y-16432429D01*
X10122143Y-16418143D01*
X10122143Y-16446714D01*
X10307857Y-16275286D02*
X10279286Y-16261000D01*
X10265000Y-16246714D01*
X10250714Y-16218143D01*
X10250714Y-16203857D01*
X10265000Y-16175286D01*
X10279286Y-16161000D01*
X10307857Y-16146714D01*
X10365000Y-16146714D01*
X10393571Y-16161000D01*
X10407857Y-16175286D01*
X10422143Y-16203857D01*
X10422143Y-16218143D01*
X10407857Y-16246714D01*
X10393571Y-16261000D01*
X10365000Y-16275286D01*
X10307857Y-16275286D01*
X10279286Y-16289571D01*
X10265000Y-16303857D01*
X10250714Y-16332429D01*
X10250714Y-16389571D01*
X10265000Y-16418143D01*
X10279286Y-16432429D01*
X10307857Y-16446714D01*
X10365000Y-16446714D01*
X10393571Y-16432429D01*
X10407857Y-16418143D01*
X10422143Y-16389571D01*
X10422143Y-16332429D01*
X10407857Y-16303857D01*
X10393571Y-16289571D01*
X10365000Y-16275286D01*
X10607857Y-16146714D02*
X10636429Y-16146714D01*
X10665000Y-16161000D01*
X10679286Y-16175286D01*
X10693571Y-16203857D01*
X10707857Y-16261000D01*
X10707857Y-16332429D01*
X10693571Y-16389571D01*
X10679286Y-16418143D01*
X10665000Y-16432429D01*
X10636429Y-16446714D01*
X10607857Y-16446714D01*
X10579286Y-16432429D01*
X10565000Y-16418143D01*
X10550714Y-16389571D01*
X10536429Y-16332429D01*
X10536429Y-16261000D01*
X10550714Y-16203857D01*
X10565000Y-16175286D01*
X10579286Y-16161000D01*
X10607857Y-16146714D01*
X10836429Y-16446714D02*
X10836429Y-16246714D01*
X10836429Y-16275286D02*
X10850714Y-16261000D01*
X10879286Y-16246714D01*
X10922143Y-16246714D01*
X10950714Y-16261000D01*
X10965000Y-16289571D01*
X10965000Y-16446714D01*
X10965000Y-16289571D02*
X10979286Y-16261000D01*
X11007857Y-16246714D01*
X11050714Y-16246714D01*
X11079286Y-16261000D01*
X11093571Y-16289571D01*
X11093571Y-16446714D01*
X11236428Y-16446714D02*
X11236428Y-16246714D01*
X11236428Y-16275286D02*
X11250714Y-16261000D01*
X11279286Y-16246714D01*
X11322143Y-16246714D01*
X11350714Y-16261000D01*
X11365000Y-16289571D01*
X11365000Y-16446714D01*
X11365000Y-16289571D02*
X11379286Y-16261000D01*
X11407857Y-16246714D01*
X11450714Y-16246714D01*
X11479286Y-16261000D01*
X11493571Y-16289571D01*
X11493571Y-16446714D01*
X12079286Y-16132429D02*
X11822143Y-16518143D01*
X12465000Y-16146714D02*
X12493571Y-16146714D01*
X12522143Y-16161000D01*
X12536428Y-16175286D01*
X12550714Y-16203857D01*
X12565000Y-16261000D01*
X12565000Y-16332429D01*
X12550714Y-16389571D01*
X12536428Y-16418143D01*
X12522143Y-16432429D01*
X12493571Y-16446714D01*
X12465000Y-16446714D01*
X12436428Y-16432429D01*
X12422143Y-16418143D01*
X12407857Y-16389571D01*
X12393571Y-16332429D01*
X12393571Y-16261000D01*
X12407857Y-16203857D01*
X12422143Y-16175286D01*
X12436428Y-16161000D01*
X12465000Y-16146714D01*
X12693571Y-16418143D02*
X12707857Y-16432429D01*
X12693571Y-16446714D01*
X12679286Y-16432429D01*
X12693571Y-16418143D01*
X12693571Y-16446714D01*
X12893571Y-16146714D02*
X12922143Y-16146714D01*
X12950714Y-16161000D01*
X12965000Y-16175286D01*
X12979286Y-16203857D01*
X12993571Y-16261000D01*
X12993571Y-16332429D01*
X12979286Y-16389571D01*
X12965000Y-16418143D01*
X12950714Y-16432429D01*
X12922143Y-16446714D01*
X12893571Y-16446714D01*
X12865000Y-16432429D01*
X12850714Y-16418143D01*
X12836428Y-16389571D01*
X12822143Y-16332429D01*
X12822143Y-16261000D01*
X12836428Y-16203857D01*
X12850714Y-16175286D01*
X12865000Y-16161000D01*
X12893571Y-16146714D01*
X13093571Y-16146714D02*
X13279286Y-16146714D01*
X13179286Y-16261000D01*
X13222143Y-16261000D01*
X13250714Y-16275286D01*
X13265000Y-16289571D01*
X13279286Y-16318143D01*
X13279286Y-16389571D01*
X13265000Y-16418143D01*
X13250714Y-16432429D01*
X13222143Y-16446714D01*
X13136428Y-16446714D01*
X13107857Y-16432429D01*
X13093571Y-16418143D01*
X13565000Y-16446714D02*
X13393571Y-16446714D01*
X13479286Y-16446714D02*
X13479286Y-16146714D01*
X13450714Y-16189571D01*
X13422143Y-16218143D01*
X13393571Y-16232429D01*
X13679286Y-16146714D02*
X13679286Y-16203857D01*
X13793571Y-16146714D02*
X13793571Y-16203857D01*
X14236428Y-16561000D02*
X14222143Y-16546714D01*
X14193571Y-16503857D01*
X14179286Y-16475286D01*
X14165000Y-16432429D01*
X14150714Y-16361000D01*
X14150714Y-16303857D01*
X14165000Y-16232429D01*
X14179286Y-16189571D01*
X14193571Y-16161000D01*
X14222143Y-16118143D01*
X14236428Y-16103857D01*
X14479286Y-16246714D02*
X14479286Y-16446714D01*
X14407857Y-16132429D02*
X14336428Y-16346714D01*
X14522143Y-16346714D01*
X14865000Y-16446714D02*
X14865000Y-16146714D01*
X14993571Y-16446714D02*
X14993571Y-16289571D01*
X14979286Y-16261000D01*
X14950714Y-16246714D01*
X14907857Y-16246714D01*
X14879286Y-16261000D01*
X14865000Y-16275286D01*
X15179286Y-16446714D02*
X15150714Y-16432429D01*
X15136428Y-16418143D01*
X15122143Y-16389571D01*
X15122143Y-16303857D01*
X15136428Y-16275286D01*
X15150714Y-16261000D01*
X15179286Y-16246714D01*
X15222143Y-16246714D01*
X15250714Y-16261000D01*
X15265000Y-16275286D01*
X15279286Y-16303857D01*
X15279286Y-16389571D01*
X15265000Y-16418143D01*
X15250714Y-16432429D01*
X15222143Y-16446714D01*
X15179286Y-16446714D01*
X15450714Y-16446714D02*
X15422143Y-16432429D01*
X15407857Y-16403857D01*
X15407857Y-16146714D01*
X15679286Y-16432429D02*
X15650714Y-16446714D01*
X15593571Y-16446714D01*
X15565000Y-16432429D01*
X15550714Y-16403857D01*
X15550714Y-16289571D01*
X15565000Y-16261000D01*
X15593571Y-16246714D01*
X15650714Y-16246714D01*
X15679286Y-16261000D01*
X15693571Y-16289571D01*
X15693571Y-16318143D01*
X15550714Y-16346714D01*
X15807857Y-16432429D02*
X15836428Y-16446714D01*
X15893571Y-16446714D01*
X15922143Y-16432429D01*
X15936428Y-16403857D01*
X15936428Y-16389571D01*
X15922143Y-16361000D01*
X15893571Y-16346714D01*
X15850714Y-16346714D01*
X15822143Y-16332429D01*
X15807857Y-16303857D01*
X15807857Y-16289571D01*
X15822143Y-16261000D01*
X15850714Y-16246714D01*
X15893571Y-16246714D01*
X15922143Y-16261000D01*
X16036428Y-16561000D02*
X16050714Y-16546714D01*
X16079286Y-16503857D01*
X16093571Y-16475286D01*
X16107857Y-16432429D01*
X16122143Y-16361000D01*
X16122143Y-16303857D01*
X16107857Y-16232429D01*
X16093571Y-16189571D01*
X16079286Y-16161000D01*
X16050714Y-16118143D01*
X16036428Y-16103857D01*
X9505000Y-16662000D02*
X9505000Y-16752000D01*
X9460000Y-16707000D02*
X9550000Y-16707000D01*
X9893571Y-16542714D02*
X9922143Y-16542714D01*
X9950714Y-16557000D01*
X9965000Y-16571286D01*
X9979286Y-16599857D01*
X9993571Y-16657000D01*
X9993571Y-16728429D01*
X9979286Y-16785572D01*
X9965000Y-16814143D01*
X9950714Y-16828429D01*
X9922143Y-16842714D01*
X9893571Y-16842714D01*
X9865000Y-16828429D01*
X9850714Y-16814143D01*
X9836429Y-16785572D01*
X9822143Y-16728429D01*
X9822143Y-16657000D01*
X9836429Y-16599857D01*
X9850714Y-16571286D01*
X9865000Y-16557000D01*
X9893571Y-16542714D01*
X10122143Y-16814143D02*
X10136429Y-16828429D01*
X10122143Y-16842714D01*
X10107857Y-16828429D01*
X10122143Y-16814143D01*
X10122143Y-16842714D01*
X10279286Y-16842714D02*
X10336429Y-16842714D01*
X10365000Y-16828429D01*
X10379286Y-16814143D01*
X10407857Y-16771286D01*
X10422143Y-16714143D01*
X10422143Y-16599857D01*
X10407857Y-16571286D01*
X10393571Y-16557000D01*
X10365000Y-16542714D01*
X10307857Y-16542714D01*
X10279286Y-16557000D01*
X10265000Y-16571286D01*
X10250714Y-16599857D01*
X10250714Y-16671286D01*
X10265000Y-16699857D01*
X10279286Y-16714143D01*
X10307857Y-16728429D01*
X10365000Y-16728429D01*
X10393571Y-16714143D01*
X10407857Y-16699857D01*
X10422143Y-16671286D01*
X10607857Y-16542714D02*
X10636429Y-16542714D01*
X10665000Y-16557000D01*
X10679286Y-16571286D01*
X10693571Y-16599857D01*
X10707857Y-16657000D01*
X10707857Y-16728429D01*
X10693571Y-16785572D01*
X10679286Y-16814143D01*
X10665000Y-16828429D01*
X10636429Y-16842714D01*
X10607857Y-16842714D01*
X10579286Y-16828429D01*
X10565000Y-16814143D01*
X10550714Y-16785572D01*
X10536429Y-16728429D01*
X10536429Y-16657000D01*
X10550714Y-16599857D01*
X10565000Y-16571286D01*
X10579286Y-16557000D01*
X10607857Y-16542714D01*
X10836429Y-16842714D02*
X10836429Y-16642714D01*
X10836429Y-16671286D02*
X10850714Y-16657000D01*
X10879286Y-16642714D01*
X10922143Y-16642714D01*
X10950714Y-16657000D01*
X10965000Y-16685571D01*
X10965000Y-16842714D01*
X10965000Y-16685571D02*
X10979286Y-16657000D01*
X11007857Y-16642714D01*
X11050714Y-16642714D01*
X11079286Y-16657000D01*
X11093571Y-16685571D01*
X11093571Y-16842714D01*
X11236428Y-16842714D02*
X11236428Y-16642714D01*
X11236428Y-16671286D02*
X11250714Y-16657000D01*
X11279286Y-16642714D01*
X11322143Y-16642714D01*
X11350714Y-16657000D01*
X11365000Y-16685571D01*
X11365000Y-16842714D01*
X11365000Y-16685571D02*
X11379286Y-16657000D01*
X11407857Y-16642714D01*
X11450714Y-16642714D01*
X11479286Y-16657000D01*
X11493571Y-16685571D01*
X11493571Y-16842714D01*
X12079286Y-16528429D02*
X11822143Y-16914143D01*
X12465000Y-16542714D02*
X12493571Y-16542714D01*
X12522143Y-16557000D01*
X12536428Y-16571286D01*
X12550714Y-16599857D01*
X12565000Y-16657000D01*
X12565000Y-16728429D01*
X12550714Y-16785572D01*
X12536428Y-16814143D01*
X12522143Y-16828429D01*
X12493571Y-16842714D01*
X12465000Y-16842714D01*
X12436428Y-16828429D01*
X12422143Y-16814143D01*
X12407857Y-16785572D01*
X12393571Y-16728429D01*
X12393571Y-16657000D01*
X12407857Y-16599857D01*
X12422143Y-16571286D01*
X12436428Y-16557000D01*
X12465000Y-16542714D01*
X12693571Y-16814143D02*
X12707857Y-16828429D01*
X12693571Y-16842714D01*
X12679286Y-16828429D01*
X12693571Y-16814143D01*
X12693571Y-16842714D01*
X12893571Y-16542714D02*
X12922143Y-16542714D01*
X12950714Y-16557000D01*
X12965000Y-16571286D01*
X12979286Y-16599857D01*
X12993571Y-16657000D01*
X12993571Y-16728429D01*
X12979286Y-16785572D01*
X12965000Y-16814143D01*
X12950714Y-16828429D01*
X12922143Y-16842714D01*
X12893571Y-16842714D01*
X12865000Y-16828429D01*
X12850714Y-16814143D01*
X12836428Y-16785572D01*
X12822143Y-16728429D01*
X12822143Y-16657000D01*
X12836428Y-16599857D01*
X12850714Y-16571286D01*
X12865000Y-16557000D01*
X12893571Y-16542714D01*
X13093571Y-16542714D02*
X13279286Y-16542714D01*
X13179286Y-16657000D01*
X13222143Y-16657000D01*
X13250714Y-16671286D01*
X13265000Y-16685571D01*
X13279286Y-16714143D01*
X13279286Y-16785572D01*
X13265000Y-16814143D01*
X13250714Y-16828429D01*
X13222143Y-16842714D01*
X13136428Y-16842714D01*
X13107857Y-16828429D01*
X13093571Y-16814143D01*
X13550714Y-16542714D02*
X13407857Y-16542714D01*
X13393571Y-16685571D01*
X13407857Y-16671286D01*
X13436428Y-16657000D01*
X13507857Y-16657000D01*
X13536428Y-16671286D01*
X13550714Y-16685571D01*
X13565000Y-16714143D01*
X13565000Y-16785572D01*
X13550714Y-16814143D01*
X13536428Y-16828429D01*
X13507857Y-16842714D01*
X13436428Y-16842714D01*
X13407857Y-16828429D01*
X13393571Y-16814143D01*
X13679286Y-16542714D02*
X13679286Y-16599857D01*
X13793571Y-16542714D02*
X13793571Y-16599857D01*
X14236428Y-16957000D02*
X14222143Y-16942714D01*
X14193571Y-16899857D01*
X14179286Y-16871286D01*
X14165000Y-16828429D01*
X14150714Y-16757000D01*
X14150714Y-16699857D01*
X14165000Y-16628429D01*
X14179286Y-16585571D01*
X14193571Y-16557000D01*
X14222143Y-16514143D01*
X14236428Y-16499857D01*
X14479286Y-16642714D02*
X14479286Y-16842714D01*
X14407857Y-16528429D02*
X14336428Y-16742714D01*
X14522143Y-16742714D01*
X14865000Y-16842714D02*
X14865000Y-16542714D01*
X14993571Y-16842714D02*
X14993571Y-16685571D01*
X14979286Y-16657000D01*
X14950714Y-16642714D01*
X14907857Y-16642714D01*
X14879286Y-16657000D01*
X14865000Y-16671286D01*
X15179286Y-16842714D02*
X15150714Y-16828429D01*
X15136428Y-16814143D01*
X15122143Y-16785572D01*
X15122143Y-16699857D01*
X15136428Y-16671286D01*
X15150714Y-16657000D01*
X15179286Y-16642714D01*
X15222143Y-16642714D01*
X15250714Y-16657000D01*
X15265000Y-16671286D01*
X15279286Y-16699857D01*
X15279286Y-16785572D01*
X15265000Y-16814143D01*
X15250714Y-16828429D01*
X15222143Y-16842714D01*
X15179286Y-16842714D01*
X15450714Y-16842714D02*
X15422143Y-16828429D01*
X15407857Y-16799857D01*
X15407857Y-16542714D01*
X15679286Y-16828429D02*
X15650714Y-16842714D01*
X15593571Y-16842714D01*
X15565000Y-16828429D01*
X15550714Y-16799857D01*
X15550714Y-16685571D01*
X15565000Y-16657000D01*
X15593571Y-16642714D01*
X15650714Y-16642714D01*
X15679286Y-16657000D01*
X15693571Y-16685571D01*
X15693571Y-16714143D01*
X15550714Y-16742714D01*
X15807857Y-16828429D02*
X15836428Y-16842714D01*
X15893571Y-16842714D01*
X15922143Y-16828429D01*
X15936428Y-16799857D01*
X15936428Y-16785572D01*
X15922143Y-16757000D01*
X15893571Y-16742714D01*
X15850714Y-16742714D01*
X15822143Y-16728429D01*
X15807857Y-16699857D01*
X15807857Y-16685571D01*
X15822143Y-16657000D01*
X15850714Y-16642714D01*
X15893571Y-16642714D01*
X15922143Y-16657000D01*
X16036428Y-16957000D02*
X16050714Y-16942714D01*
X16079286Y-16899857D01*
X16093571Y-16871286D01*
X16107857Y-16828429D01*
X16122143Y-16757000D01*
X16122143Y-16699857D01*
X16107857Y-16628429D01*
X16093571Y-16585571D01*
X16079286Y-16557000D01*
X16050714Y-16514143D01*
X16036428Y-16499857D01*
X9530670Y-17149670D02*
X9530670Y-17056331D01*
X9437331Y-17056331D01*
X9437331Y-17149670D01*
X9530670Y-17149670D01*
X9993571Y-17238714D02*
X9822143Y-17238714D01*
X9907857Y-17238714D02*
X9907857Y-16938714D01*
X9879286Y-16981572D01*
X9850714Y-17010143D01*
X9822143Y-17024429D01*
X10122143Y-17210143D02*
X10136429Y-17224429D01*
X10122143Y-17238714D01*
X10107857Y-17224429D01*
X10122143Y-17210143D01*
X10122143Y-17238714D01*
X10236429Y-16938714D02*
X10422143Y-16938714D01*
X10322143Y-17053000D01*
X10365000Y-17053000D01*
X10393571Y-17067286D01*
X10407857Y-17081572D01*
X10422143Y-17110143D01*
X10422143Y-17181572D01*
X10407857Y-17210143D01*
X10393571Y-17224429D01*
X10365000Y-17238714D01*
X10279286Y-17238714D01*
X10250714Y-17224429D01*
X10236429Y-17210143D01*
X10536429Y-16967286D02*
X10550714Y-16953000D01*
X10579286Y-16938714D01*
X10650714Y-16938714D01*
X10679286Y-16953000D01*
X10693571Y-16967286D01*
X10707857Y-16995857D01*
X10707857Y-17024429D01*
X10693571Y-17067286D01*
X10522143Y-17238714D01*
X10707857Y-17238714D01*
X10836429Y-17238714D02*
X10836429Y-17038714D01*
X10836429Y-17067286D02*
X10850714Y-17053000D01*
X10879286Y-17038714D01*
X10922143Y-17038714D01*
X10950714Y-17053000D01*
X10965000Y-17081572D01*
X10965000Y-17238714D01*
X10965000Y-17081572D02*
X10979286Y-17053000D01*
X11007857Y-17038714D01*
X11050714Y-17038714D01*
X11079286Y-17053000D01*
X11093571Y-17081572D01*
X11093571Y-17238714D01*
X11236428Y-17238714D02*
X11236428Y-17038714D01*
X11236428Y-17067286D02*
X11250714Y-17053000D01*
X11279286Y-17038714D01*
X11322143Y-17038714D01*
X11350714Y-17053000D01*
X11365000Y-17081572D01*
X11365000Y-17238714D01*
X11365000Y-17081572D02*
X11379286Y-17053000D01*
X11407857Y-17038714D01*
X11450714Y-17038714D01*
X11479286Y-17053000D01*
X11493571Y-17081572D01*
X11493571Y-17238714D01*
X12079286Y-16924429D02*
X11822143Y-17310143D01*
X12465000Y-16938714D02*
X12493571Y-16938714D01*
X12522143Y-16953000D01*
X12536428Y-16967286D01*
X12550714Y-16995857D01*
X12565000Y-17053000D01*
X12565000Y-17124429D01*
X12550714Y-17181572D01*
X12536428Y-17210143D01*
X12522143Y-17224429D01*
X12493571Y-17238714D01*
X12465000Y-17238714D01*
X12436428Y-17224429D01*
X12422143Y-17210143D01*
X12407857Y-17181572D01*
X12393571Y-17124429D01*
X12393571Y-17053000D01*
X12407857Y-16995857D01*
X12422143Y-16967286D01*
X12436428Y-16953000D01*
X12465000Y-16938714D01*
X12693571Y-17210143D02*
X12707857Y-17224429D01*
X12693571Y-17238714D01*
X12679286Y-17224429D01*
X12693571Y-17210143D01*
X12693571Y-17238714D01*
X12893571Y-16938714D02*
X12922143Y-16938714D01*
X12950714Y-16953000D01*
X12965000Y-16967286D01*
X12979286Y-16995857D01*
X12993571Y-17053000D01*
X12993571Y-17124429D01*
X12979286Y-17181572D01*
X12965000Y-17210143D01*
X12950714Y-17224429D01*
X12922143Y-17238714D01*
X12893571Y-17238714D01*
X12865000Y-17224429D01*
X12850714Y-17210143D01*
X12836428Y-17181572D01*
X12822143Y-17124429D01*
X12822143Y-17053000D01*
X12836428Y-16995857D01*
X12850714Y-16967286D01*
X12865000Y-16953000D01*
X12893571Y-16938714D01*
X13265000Y-16938714D02*
X13122143Y-16938714D01*
X13107857Y-17081572D01*
X13122143Y-17067286D01*
X13150714Y-17053000D01*
X13222143Y-17053000D01*
X13250714Y-17067286D01*
X13265000Y-17081572D01*
X13279286Y-17110143D01*
X13279286Y-17181572D01*
X13265000Y-17210143D01*
X13250714Y-17224429D01*
X13222143Y-17238714D01*
X13150714Y-17238714D01*
X13122143Y-17224429D01*
X13107857Y-17210143D01*
X13393571Y-16967286D02*
X13407857Y-16953000D01*
X13436428Y-16938714D01*
X13507857Y-16938714D01*
X13536428Y-16953000D01*
X13550714Y-16967286D01*
X13565000Y-16995857D01*
X13565000Y-17024429D01*
X13550714Y-17067286D01*
X13379286Y-17238714D01*
X13565000Y-17238714D01*
X13679286Y-16938714D02*
X13679286Y-16995857D01*
X13793571Y-16938714D02*
X13793571Y-16995857D01*
X14236428Y-17353000D02*
X14222143Y-17338714D01*
X14193571Y-17295857D01*
X14179286Y-17267286D01*
X14165000Y-17224429D01*
X14150714Y-17153000D01*
X14150714Y-17095857D01*
X14165000Y-17024429D01*
X14179286Y-16981572D01*
X14193571Y-16953000D01*
X14222143Y-16910143D01*
X14236428Y-16895857D01*
X14336428Y-16967286D02*
X14350714Y-16953000D01*
X14379286Y-16938714D01*
X14450714Y-16938714D01*
X14479286Y-16953000D01*
X14493571Y-16967286D01*
X14507857Y-16995857D01*
X14507857Y-17024429D01*
X14493571Y-17067286D01*
X14322143Y-17238714D01*
X14507857Y-17238714D01*
X14865000Y-17238714D02*
X14865000Y-16938714D01*
X14993571Y-17238714D02*
X14993571Y-17081572D01*
X14979286Y-17053000D01*
X14950714Y-17038714D01*
X14907857Y-17038714D01*
X14879286Y-17053000D01*
X14865000Y-17067286D01*
X15179286Y-17238714D02*
X15150714Y-17224429D01*
X15136428Y-17210143D01*
X15122143Y-17181572D01*
X15122143Y-17095857D01*
X15136428Y-17067286D01*
X15150714Y-17053000D01*
X15179286Y-17038714D01*
X15222143Y-17038714D01*
X15250714Y-17053000D01*
X15265000Y-17067286D01*
X15279286Y-17095857D01*
X15279286Y-17181572D01*
X15265000Y-17210143D01*
X15250714Y-17224429D01*
X15222143Y-17238714D01*
X15179286Y-17238714D01*
X15450714Y-17238714D02*
X15422143Y-17224429D01*
X15407857Y-17195857D01*
X15407857Y-16938714D01*
X15679286Y-17224429D02*
X15650714Y-17238714D01*
X15593571Y-17238714D01*
X15565000Y-17224429D01*
X15550714Y-17195857D01*
X15550714Y-17081572D01*
X15565000Y-17053000D01*
X15593571Y-17038714D01*
X15650714Y-17038714D01*
X15679286Y-17053000D01*
X15693571Y-17081572D01*
X15693571Y-17110143D01*
X15550714Y-17138714D01*
X15807857Y-17224429D02*
X15836428Y-17238714D01*
X15893571Y-17238714D01*
X15922143Y-17224429D01*
X15936428Y-17195857D01*
X15936428Y-17181572D01*
X15922143Y-17153000D01*
X15893571Y-17138714D01*
X15850714Y-17138714D01*
X15822143Y-17124429D01*
X15807857Y-17095857D01*
X15807857Y-17081572D01*
X15822143Y-17053000D01*
X15850714Y-17038714D01*
X15893571Y-17038714D01*
X15922143Y-17053000D01*
X16036428Y-17353000D02*
X16050714Y-17338714D01*
X16079286Y-17295857D01*
X16093571Y-17267286D01*
X16107857Y-17224429D01*
X16122143Y-17153000D01*
X16122143Y-17095857D01*
X16107857Y-17024429D01*
X16093571Y-16981572D01*
X16079286Y-16953000D01*
X16050714Y-16910143D01*
X16036428Y-16895857D01*
X9440000Y-17609000D02*
X9550000Y-17499000D01*
X9440000Y-17389000D01*
X9330000Y-17499000D01*
X9440000Y-17609000D01*
X9822143Y-17363286D02*
X9836429Y-17349000D01*
X9865000Y-17334714D01*
X9936429Y-17334714D01*
X9965000Y-17349000D01*
X9979286Y-17363286D01*
X9993571Y-17391857D01*
X9993571Y-17420429D01*
X9979286Y-17463286D01*
X9807857Y-17634714D01*
X9993571Y-17634714D01*
X10122143Y-17606143D02*
X10136429Y-17620429D01*
X10122143Y-17634714D01*
X10107857Y-17620429D01*
X10122143Y-17606143D01*
X10122143Y-17634714D01*
X10250714Y-17363286D02*
X10265000Y-17349000D01*
X10293571Y-17334714D01*
X10365000Y-17334714D01*
X10393571Y-17349000D01*
X10407857Y-17363286D01*
X10422143Y-17391857D01*
X10422143Y-17420429D01*
X10407857Y-17463286D01*
X10236429Y-17634714D01*
X10422143Y-17634714D01*
X10607857Y-17334714D02*
X10636429Y-17334714D01*
X10665000Y-17349000D01*
X10679286Y-17363286D01*
X10693571Y-17391857D01*
X10707857Y-17449000D01*
X10707857Y-17520429D01*
X10693571Y-17577572D01*
X10679286Y-17606143D01*
X10665000Y-17620429D01*
X10636429Y-17634714D01*
X10607857Y-17634714D01*
X10579286Y-17620429D01*
X10565000Y-17606143D01*
X10550714Y-17577572D01*
X10536429Y-17520429D01*
X10536429Y-17449000D01*
X10550714Y-17391857D01*
X10565000Y-17363286D01*
X10579286Y-17349000D01*
X10607857Y-17334714D01*
X10836429Y-17634714D02*
X10836429Y-17434714D01*
X10836429Y-17463286D02*
X10850714Y-17449000D01*
X10879286Y-17434714D01*
X10922143Y-17434714D01*
X10950714Y-17449000D01*
X10965000Y-17477572D01*
X10965000Y-17634714D01*
X10965000Y-17477572D02*
X10979286Y-17449000D01*
X11007857Y-17434714D01*
X11050714Y-17434714D01*
X11079286Y-17449000D01*
X11093571Y-17477572D01*
X11093571Y-17634714D01*
X11236428Y-17634714D02*
X11236428Y-17434714D01*
X11236428Y-17463286D02*
X11250714Y-17449000D01*
X11279286Y-17434714D01*
X11322143Y-17434714D01*
X11350714Y-17449000D01*
X11365000Y-17477572D01*
X11365000Y-17634714D01*
X11365000Y-17477572D02*
X11379286Y-17449000D01*
X11407857Y-17434714D01*
X11450714Y-17434714D01*
X11479286Y-17449000D01*
X11493571Y-17477572D01*
X11493571Y-17634714D01*
X12079286Y-17320429D02*
X11822143Y-17706143D01*
X12465000Y-17334714D02*
X12493571Y-17334714D01*
X12522143Y-17349000D01*
X12536428Y-17363286D01*
X12550714Y-17391857D01*
X12565000Y-17449000D01*
X12565000Y-17520429D01*
X12550714Y-17577572D01*
X12536428Y-17606143D01*
X12522143Y-17620429D01*
X12493571Y-17634714D01*
X12465000Y-17634714D01*
X12436428Y-17620429D01*
X12422143Y-17606143D01*
X12407857Y-17577572D01*
X12393571Y-17520429D01*
X12393571Y-17449000D01*
X12407857Y-17391857D01*
X12422143Y-17363286D01*
X12436428Y-17349000D01*
X12465000Y-17334714D01*
X12693571Y-17606143D02*
X12707857Y-17620429D01*
X12693571Y-17634714D01*
X12679286Y-17620429D01*
X12693571Y-17606143D01*
X12693571Y-17634714D01*
X12893571Y-17334714D02*
X12922143Y-17334714D01*
X12950714Y-17349000D01*
X12965000Y-17363286D01*
X12979286Y-17391857D01*
X12993571Y-17449000D01*
X12993571Y-17520429D01*
X12979286Y-17577572D01*
X12965000Y-17606143D01*
X12950714Y-17620429D01*
X12922143Y-17634714D01*
X12893571Y-17634714D01*
X12865000Y-17620429D01*
X12850714Y-17606143D01*
X12836428Y-17577572D01*
X12822143Y-17520429D01*
X12822143Y-17449000D01*
X12836428Y-17391857D01*
X12850714Y-17363286D01*
X12865000Y-17349000D01*
X12893571Y-17334714D01*
X13165000Y-17463286D02*
X13136428Y-17449000D01*
X13122143Y-17434714D01*
X13107857Y-17406143D01*
X13107857Y-17391857D01*
X13122143Y-17363286D01*
X13136428Y-17349000D01*
X13165000Y-17334714D01*
X13222143Y-17334714D01*
X13250714Y-17349000D01*
X13265000Y-17363286D01*
X13279286Y-17391857D01*
X13279286Y-17406143D01*
X13265000Y-17434714D01*
X13250714Y-17449000D01*
X13222143Y-17463286D01*
X13165000Y-17463286D01*
X13136428Y-17477572D01*
X13122143Y-17491857D01*
X13107857Y-17520429D01*
X13107857Y-17577572D01*
X13122143Y-17606143D01*
X13136428Y-17620429D01*
X13165000Y-17634714D01*
X13222143Y-17634714D01*
X13250714Y-17620429D01*
X13265000Y-17606143D01*
X13279286Y-17577572D01*
X13279286Y-17520429D01*
X13265000Y-17491857D01*
X13250714Y-17477572D01*
X13222143Y-17463286D01*
X13379286Y-17334714D02*
X13579286Y-17334714D01*
X13450714Y-17634714D01*
X13679286Y-17334714D02*
X13679286Y-17391857D01*
X13793571Y-17334714D02*
X13793571Y-17391857D01*
X14236428Y-17749000D02*
X14222143Y-17734714D01*
X14193571Y-17691857D01*
X14179286Y-17663286D01*
X14165000Y-17620429D01*
X14150714Y-17549000D01*
X14150714Y-17491857D01*
X14165000Y-17420429D01*
X14179286Y-17377572D01*
X14193571Y-17349000D01*
X14222143Y-17306143D01*
X14236428Y-17291857D01*
X14479286Y-17434714D02*
X14479286Y-17634714D01*
X14407857Y-17320429D02*
X14336428Y-17534714D01*
X14522143Y-17534714D01*
X14865000Y-17634714D02*
X14865000Y-17334714D01*
X14993571Y-17634714D02*
X14993571Y-17477572D01*
X14979286Y-17449000D01*
X14950714Y-17434714D01*
X14907857Y-17434714D01*
X14879286Y-17449000D01*
X14865000Y-17463286D01*
X15179286Y-17634714D02*
X15150714Y-17620429D01*
X15136428Y-17606143D01*
X15122143Y-17577572D01*
X15122143Y-17491857D01*
X15136428Y-17463286D01*
X15150714Y-17449000D01*
X15179286Y-17434714D01*
X15222143Y-17434714D01*
X15250714Y-17449000D01*
X15265000Y-17463286D01*
X15279286Y-17491857D01*
X15279286Y-17577572D01*
X15265000Y-17606143D01*
X15250714Y-17620429D01*
X15222143Y-17634714D01*
X15179286Y-17634714D01*
X15450714Y-17634714D02*
X15422143Y-17620429D01*
X15407857Y-17591857D01*
X15407857Y-17334714D01*
X15679286Y-17620429D02*
X15650714Y-17634714D01*
X15593571Y-17634714D01*
X15565000Y-17620429D01*
X15550714Y-17591857D01*
X15550714Y-17477572D01*
X15565000Y-17449000D01*
X15593571Y-17434714D01*
X15650714Y-17434714D01*
X15679286Y-17449000D01*
X15693571Y-17477572D01*
X15693571Y-17506143D01*
X15550714Y-17534714D01*
X15807857Y-17620429D02*
X15836428Y-17634714D01*
X15893571Y-17634714D01*
X15922143Y-17620429D01*
X15936428Y-17591857D01*
X15936428Y-17577572D01*
X15922143Y-17549000D01*
X15893571Y-17534714D01*
X15850714Y-17534714D01*
X15822143Y-17520429D01*
X15807857Y-17491857D01*
X15807857Y-17477572D01*
X15822143Y-17449000D01*
X15850714Y-17434714D01*
X15893571Y-17434714D01*
X15922143Y-17449000D01*
X16036428Y-17749000D02*
X16050714Y-17734714D01*
X16079286Y-17691857D01*
X16093571Y-17663286D01*
X16107857Y-17620429D01*
X16122143Y-17549000D01*
X16122143Y-17491857D01*
X16107857Y-17420429D01*
X16093571Y-17377572D01*
X16079286Y-17349000D01*
X16050714Y-17306143D01*
X16036428Y-17291857D01*
M02*
