M48
; DRILL file {KiCad 5.1.6-c6e7f7d~87~ubuntu20.04.1} date Sat Aug  1 21:45:26 2020
; FORMAT={-:-/ absolute / metric / decimal}
; #@! TF.CreationDate,2020-08-01T21:45:26+02:00
; #@! TF.GenerationSoftware,Kicad,Pcbnew,5.1.6-c6e7f7d~87~ubuntu20.04.1
; #@! TF.FileFunction,Plated,1,2,PTH
FMAT,2
METRIC
T1C0.400
T2C0.800
T3C0.900
T4C1.320
T5C2.200
%
G90
G05
T1
X111.5Y-124.0
X111.5Y-139.0
X116.0Y-134.0
X117.422Y-132.784
X118.5Y-136.5
X120.6Y-130.8
X120.6Y-132.0
X120.6Y-133.2
X122.4Y-130.8
X122.4Y-132.0
X122.4Y-133.2
X123.5Y-128.0
X126.0Y-135.0
X127.5Y-135.5
X128.0Y-129.0
X131.0Y-129.5
X132.0Y-126.5
X134.0Y-122.0
X135.5Y-124.5
X138.5Y-135.0
X141.0Y-128.0
T2
X104.5Y-124.5
X109.58Y-124.5
X104.5Y-139.0
X109.58Y-139.0
T3
X139.96Y-131.52
X139.96Y-133.56
X142.5Y-130.5
X142.5Y-132.54
T4
X104.5Y-129.5
X104.5Y-134.5
T5
X102.0Y-145.5
X145.5Y-145.5
X145.5Y-119.0
X102.0Y-119.0
T0
M30
