%FSLAX45Y45*%
G04 Gerber Fmt 4.5, Leading zero omitted, Abs format (unit mm)*
G04 Created by KiCad (PCBNEW 5.1.9-73d0e3b20d~88~ubuntu20.04.1) date 2021-04-13 12:06:39*
%MOMM*%
%LPD*%
G01*
G04 APERTURE LIST*
%TA.AperFunction,Profile*%
%ADD10C,0.100000*%
%TD*%
%ADD11C,0.200000*%
%ADD12C,0.300000*%
G04 APERTURE END LIST*
D10*
X14950000Y-14950000D02*
X14950000Y-12350000D01*
X9800000Y-14950000D02*
X14950000Y-14950000D01*
X9800000Y-11750000D02*
X9800000Y-14950000D01*
X14950000Y-11750000D02*
X9800000Y-11750000D01*
X14950000Y-12350000D02*
X14950000Y-11750000D01*
D11*
X10930000Y-14030000D02*
X10970000Y-14070000D01*
X10970000Y-14030000D02*
X10930000Y-14070000D01*
X11580000Y-12680000D02*
X11620000Y-12720000D01*
X11620000Y-12680000D02*
X11580000Y-12720000D01*
X11680000Y-13930000D02*
X11720000Y-13970000D01*
X11720000Y-13930000D02*
X11680000Y-13970000D01*
X12068710Y-13241750D02*
X12108710Y-13281750D01*
X12108710Y-13241750D02*
X12068710Y-13281750D01*
X12103150Y-12900520D02*
X12143150Y-12940520D01*
X12143150Y-12900520D02*
X12103150Y-12940520D01*
X12280000Y-13530000D02*
X12320000Y-13570000D01*
X12320000Y-13530000D02*
X12280000Y-13570000D01*
X12280000Y-13770640D02*
X12320000Y-13810640D01*
X12320000Y-13770640D02*
X12280000Y-13810640D01*
X12889550Y-13116500D02*
X12929550Y-13156500D01*
X12929550Y-13116500D02*
X12889550Y-13156500D01*
X12930000Y-12430000D02*
X12970000Y-12470000D01*
X12970000Y-12430000D02*
X12930000Y-12470000D01*
X13030000Y-13680000D02*
X13070000Y-13720000D01*
X13070000Y-13680000D02*
X13030000Y-13720000D01*
X13180000Y-14130000D02*
X13220000Y-14170000D01*
X13220000Y-14130000D02*
X13180000Y-14170000D01*
X10540000Y-12960000D02*
G75*
G03*
X10540000Y-12960000I-40000J0D01*
G01*
X10540000Y-13450000D02*
G75*
G03*
X10540000Y-13450000I-40000J0D01*
G01*
X13996000Y-13107000D02*
X13996000Y-13197000D01*
X13951000Y-13152000D02*
X14041000Y-13152000D01*
X13996000Y-13311000D02*
X13996000Y-13401000D01*
X13951000Y-13356000D02*
X14041000Y-13356000D01*
X14250000Y-13005000D02*
X14250000Y-13095000D01*
X14205000Y-13050000D02*
X14295000Y-13050000D01*
X14250000Y-13209000D02*
X14250000Y-13299000D01*
X14205000Y-13254000D02*
X14295000Y-13254000D01*
X10277783Y-14627782D02*
X10277783Y-14472217D01*
X10122218Y-14472217D01*
X10122218Y-14627782D01*
X10277783Y-14627782D01*
X10327783Y-12227782D02*
X10327783Y-12072217D01*
X10172218Y-12072217D01*
X10172218Y-12227782D01*
X10327783Y-12227782D01*
X14627782Y-12227782D02*
X14627782Y-12072217D01*
X14472217Y-12072217D01*
X14472217Y-12227782D01*
X14627782Y-12227782D01*
X14627782Y-14577782D02*
X14627782Y-14422217D01*
X14472217Y-14422217D01*
X14472217Y-14577782D01*
X14627782Y-14577782D01*
D12*
X9836429Y-15420714D02*
X9836429Y-15120714D01*
X9907857Y-15120714D01*
X9950714Y-15135000D01*
X9979286Y-15163571D01*
X9993571Y-15192143D01*
X10007857Y-15249286D01*
X10007857Y-15292143D01*
X9993571Y-15349286D01*
X9979286Y-15377857D01*
X9950714Y-15406429D01*
X9907857Y-15420714D01*
X9836429Y-15420714D01*
X10136429Y-15420714D02*
X10136429Y-15220714D01*
X10136429Y-15277857D02*
X10150714Y-15249286D01*
X10165000Y-15235000D01*
X10193571Y-15220714D01*
X10222143Y-15220714D01*
X10322143Y-15420714D02*
X10322143Y-15220714D01*
X10322143Y-15120714D02*
X10307857Y-15135000D01*
X10322143Y-15149286D01*
X10336429Y-15135000D01*
X10322143Y-15120714D01*
X10322143Y-15149286D01*
X10507857Y-15420714D02*
X10479286Y-15406429D01*
X10465000Y-15377857D01*
X10465000Y-15120714D01*
X10665000Y-15420714D02*
X10636429Y-15406429D01*
X10622143Y-15377857D01*
X10622143Y-15120714D01*
X11007857Y-15420714D02*
X11007857Y-15120714D01*
X11107857Y-15335000D01*
X11207857Y-15120714D01*
X11207857Y-15420714D01*
X11479286Y-15420714D02*
X11479286Y-15263571D01*
X11465000Y-15235000D01*
X11436428Y-15220714D01*
X11379286Y-15220714D01*
X11350714Y-15235000D01*
X11479286Y-15406429D02*
X11450714Y-15420714D01*
X11379286Y-15420714D01*
X11350714Y-15406429D01*
X11336428Y-15377857D01*
X11336428Y-15349286D01*
X11350714Y-15320714D01*
X11379286Y-15306429D01*
X11450714Y-15306429D01*
X11479286Y-15292143D01*
X11622143Y-15220714D02*
X11622143Y-15520714D01*
X11622143Y-15235000D02*
X11650714Y-15220714D01*
X11707857Y-15220714D01*
X11736428Y-15235000D01*
X11750714Y-15249286D01*
X11765000Y-15277857D01*
X11765000Y-15363571D01*
X11750714Y-15392143D01*
X11736428Y-15406429D01*
X11707857Y-15420714D01*
X11650714Y-15420714D01*
X11622143Y-15406429D01*
X11893571Y-15392143D02*
X11907857Y-15406429D01*
X11893571Y-15420714D01*
X11879286Y-15406429D01*
X11893571Y-15392143D01*
X11893571Y-15420714D01*
X11893571Y-15235000D02*
X11907857Y-15249286D01*
X11893571Y-15263571D01*
X11879286Y-15249286D01*
X11893571Y-15235000D01*
X11893571Y-15263571D01*
X9510000Y-15895000D02*
X9550000Y-15935000D01*
X9550000Y-15895000D02*
X9510000Y-15935000D01*
X9893571Y-15750714D02*
X9922143Y-15750714D01*
X9950714Y-15765000D01*
X9965000Y-15779286D01*
X9979286Y-15807857D01*
X9993571Y-15865000D01*
X9993571Y-15936429D01*
X9979286Y-15993571D01*
X9965000Y-16022143D01*
X9950714Y-16036429D01*
X9922143Y-16050714D01*
X9893571Y-16050714D01*
X9865000Y-16036429D01*
X9850714Y-16022143D01*
X9836429Y-15993571D01*
X9822143Y-15936429D01*
X9822143Y-15865000D01*
X9836429Y-15807857D01*
X9850714Y-15779286D01*
X9865000Y-15765000D01*
X9893571Y-15750714D01*
X10122143Y-16022143D02*
X10136429Y-16036429D01*
X10122143Y-16050714D01*
X10107857Y-16036429D01*
X10122143Y-16022143D01*
X10122143Y-16050714D01*
X10393571Y-15850714D02*
X10393571Y-16050714D01*
X10322143Y-15736429D02*
X10250714Y-15950714D01*
X10436429Y-15950714D01*
X10607857Y-15750714D02*
X10636429Y-15750714D01*
X10665000Y-15765000D01*
X10679286Y-15779286D01*
X10693571Y-15807857D01*
X10707857Y-15865000D01*
X10707857Y-15936429D01*
X10693571Y-15993571D01*
X10679286Y-16022143D01*
X10665000Y-16036429D01*
X10636429Y-16050714D01*
X10607857Y-16050714D01*
X10579286Y-16036429D01*
X10565000Y-16022143D01*
X10550714Y-15993571D01*
X10536429Y-15936429D01*
X10536429Y-15865000D01*
X10550714Y-15807857D01*
X10565000Y-15779286D01*
X10579286Y-15765000D01*
X10607857Y-15750714D01*
X10836429Y-16050714D02*
X10836429Y-15850714D01*
X10836429Y-15879286D02*
X10850714Y-15865000D01*
X10879286Y-15850714D01*
X10922143Y-15850714D01*
X10950714Y-15865000D01*
X10965000Y-15893571D01*
X10965000Y-16050714D01*
X10965000Y-15893571D02*
X10979286Y-15865000D01*
X11007857Y-15850714D01*
X11050714Y-15850714D01*
X11079286Y-15865000D01*
X11093571Y-15893571D01*
X11093571Y-16050714D01*
X11236428Y-16050714D02*
X11236428Y-15850714D01*
X11236428Y-15879286D02*
X11250714Y-15865000D01*
X11279286Y-15850714D01*
X11322143Y-15850714D01*
X11350714Y-15865000D01*
X11365000Y-15893571D01*
X11365000Y-16050714D01*
X11365000Y-15893571D02*
X11379286Y-15865000D01*
X11407857Y-15850714D01*
X11450714Y-15850714D01*
X11479286Y-15865000D01*
X11493571Y-15893571D01*
X11493571Y-16050714D01*
X12079286Y-15736429D02*
X11822143Y-16122143D01*
X12465000Y-15750714D02*
X12493571Y-15750714D01*
X12522143Y-15765000D01*
X12536428Y-15779286D01*
X12550714Y-15807857D01*
X12565000Y-15865000D01*
X12565000Y-15936429D01*
X12550714Y-15993571D01*
X12536428Y-16022143D01*
X12522143Y-16036429D01*
X12493571Y-16050714D01*
X12465000Y-16050714D01*
X12436428Y-16036429D01*
X12422143Y-16022143D01*
X12407857Y-15993571D01*
X12393571Y-15936429D01*
X12393571Y-15865000D01*
X12407857Y-15807857D01*
X12422143Y-15779286D01*
X12436428Y-15765000D01*
X12465000Y-15750714D01*
X12693571Y-16022143D02*
X12707857Y-16036429D01*
X12693571Y-16050714D01*
X12679286Y-16036429D01*
X12693571Y-16022143D01*
X12693571Y-16050714D01*
X12893571Y-15750714D02*
X12922143Y-15750714D01*
X12950714Y-15765000D01*
X12965000Y-15779286D01*
X12979286Y-15807857D01*
X12993571Y-15865000D01*
X12993571Y-15936429D01*
X12979286Y-15993571D01*
X12965000Y-16022143D01*
X12950714Y-16036429D01*
X12922143Y-16050714D01*
X12893571Y-16050714D01*
X12865000Y-16036429D01*
X12850714Y-16022143D01*
X12836428Y-15993571D01*
X12822143Y-15936429D01*
X12822143Y-15865000D01*
X12836428Y-15807857D01*
X12850714Y-15779286D01*
X12865000Y-15765000D01*
X12893571Y-15750714D01*
X13279286Y-16050714D02*
X13107857Y-16050714D01*
X13193571Y-16050714D02*
X13193571Y-15750714D01*
X13165000Y-15793571D01*
X13136428Y-15822143D01*
X13107857Y-15836429D01*
X13536428Y-15750714D02*
X13479286Y-15750714D01*
X13450714Y-15765000D01*
X13436428Y-15779286D01*
X13407857Y-15822143D01*
X13393571Y-15879286D01*
X13393571Y-15993571D01*
X13407857Y-16022143D01*
X13422143Y-16036429D01*
X13450714Y-16050714D01*
X13507857Y-16050714D01*
X13536428Y-16036429D01*
X13550714Y-16022143D01*
X13565000Y-15993571D01*
X13565000Y-15922143D01*
X13550714Y-15893571D01*
X13536428Y-15879286D01*
X13507857Y-15865000D01*
X13450714Y-15865000D01*
X13422143Y-15879286D01*
X13407857Y-15893571D01*
X13393571Y-15922143D01*
X13679286Y-15750714D02*
X13679286Y-15807857D01*
X13793571Y-15750714D02*
X13793571Y-15807857D01*
X14236428Y-16165000D02*
X14222143Y-16150714D01*
X14193571Y-16107857D01*
X14179286Y-16079286D01*
X14165000Y-16036429D01*
X14150714Y-15965000D01*
X14150714Y-15907857D01*
X14165000Y-15836429D01*
X14179286Y-15793571D01*
X14193571Y-15765000D01*
X14222143Y-15722143D01*
X14236428Y-15707857D01*
X14507857Y-16050714D02*
X14336428Y-16050714D01*
X14422143Y-16050714D02*
X14422143Y-15750714D01*
X14393571Y-15793571D01*
X14365000Y-15822143D01*
X14336428Y-15836429D01*
X14793571Y-16050714D02*
X14622143Y-16050714D01*
X14707857Y-16050714D02*
X14707857Y-15750714D01*
X14679286Y-15793571D01*
X14650714Y-15822143D01*
X14622143Y-15836429D01*
X15150714Y-16050714D02*
X15150714Y-15750714D01*
X15279286Y-16050714D02*
X15279286Y-15893571D01*
X15265000Y-15865000D01*
X15236428Y-15850714D01*
X15193571Y-15850714D01*
X15165000Y-15865000D01*
X15150714Y-15879286D01*
X15465000Y-16050714D02*
X15436428Y-16036429D01*
X15422143Y-16022143D01*
X15407857Y-15993571D01*
X15407857Y-15907857D01*
X15422143Y-15879286D01*
X15436428Y-15865000D01*
X15465000Y-15850714D01*
X15507857Y-15850714D01*
X15536428Y-15865000D01*
X15550714Y-15879286D01*
X15565000Y-15907857D01*
X15565000Y-15993571D01*
X15550714Y-16022143D01*
X15536428Y-16036429D01*
X15507857Y-16050714D01*
X15465000Y-16050714D01*
X15736428Y-16050714D02*
X15707857Y-16036429D01*
X15693571Y-16007857D01*
X15693571Y-15750714D01*
X15965000Y-16036429D02*
X15936428Y-16050714D01*
X15879286Y-16050714D01*
X15850714Y-16036429D01*
X15836428Y-16007857D01*
X15836428Y-15893571D01*
X15850714Y-15865000D01*
X15879286Y-15850714D01*
X15936428Y-15850714D01*
X15965000Y-15865000D01*
X15979286Y-15893571D01*
X15979286Y-15922143D01*
X15836428Y-15950714D01*
X16093571Y-16036429D02*
X16122143Y-16050714D01*
X16179286Y-16050714D01*
X16207857Y-16036429D01*
X16222143Y-16007857D01*
X16222143Y-15993571D01*
X16207857Y-15965000D01*
X16179286Y-15950714D01*
X16136428Y-15950714D01*
X16107857Y-15936429D01*
X16093571Y-15907857D01*
X16093571Y-15893571D01*
X16107857Y-15865000D01*
X16136428Y-15850714D01*
X16179286Y-15850714D01*
X16207857Y-15865000D01*
X16322143Y-16165000D02*
X16336428Y-16150714D01*
X16365000Y-16107857D01*
X16379286Y-16079286D01*
X16393571Y-16036429D01*
X16407857Y-15965000D01*
X16407857Y-15907857D01*
X16393571Y-15836429D01*
X16379286Y-15793571D01*
X16365000Y-15765000D01*
X16336428Y-15722143D01*
X16322143Y-15707857D01*
X9550000Y-16311000D02*
G75*
G03*
X9550000Y-16311000I-40000J0D01*
G01*
X9893571Y-16146714D02*
X9922143Y-16146714D01*
X9950714Y-16161000D01*
X9965000Y-16175286D01*
X9979286Y-16203857D01*
X9993571Y-16261000D01*
X9993571Y-16332429D01*
X9979286Y-16389571D01*
X9965000Y-16418143D01*
X9950714Y-16432429D01*
X9922143Y-16446714D01*
X9893571Y-16446714D01*
X9865000Y-16432429D01*
X9850714Y-16418143D01*
X9836429Y-16389571D01*
X9822143Y-16332429D01*
X9822143Y-16261000D01*
X9836429Y-16203857D01*
X9850714Y-16175286D01*
X9865000Y-16161000D01*
X9893571Y-16146714D01*
X10122143Y-16418143D02*
X10136429Y-16432429D01*
X10122143Y-16446714D01*
X10107857Y-16432429D01*
X10122143Y-16418143D01*
X10122143Y-16446714D01*
X10307857Y-16275286D02*
X10279286Y-16261000D01*
X10265000Y-16246714D01*
X10250714Y-16218143D01*
X10250714Y-16203857D01*
X10265000Y-16175286D01*
X10279286Y-16161000D01*
X10307857Y-16146714D01*
X10365000Y-16146714D01*
X10393571Y-16161000D01*
X10407857Y-16175286D01*
X10422143Y-16203857D01*
X10422143Y-16218143D01*
X10407857Y-16246714D01*
X10393571Y-16261000D01*
X10365000Y-16275286D01*
X10307857Y-16275286D01*
X10279286Y-16289571D01*
X10265000Y-16303857D01*
X10250714Y-16332429D01*
X10250714Y-16389571D01*
X10265000Y-16418143D01*
X10279286Y-16432429D01*
X10307857Y-16446714D01*
X10365000Y-16446714D01*
X10393571Y-16432429D01*
X10407857Y-16418143D01*
X10422143Y-16389571D01*
X10422143Y-16332429D01*
X10407857Y-16303857D01*
X10393571Y-16289571D01*
X10365000Y-16275286D01*
X10607857Y-16146714D02*
X10636429Y-16146714D01*
X10665000Y-16161000D01*
X10679286Y-16175286D01*
X10693571Y-16203857D01*
X10707857Y-16261000D01*
X10707857Y-16332429D01*
X10693571Y-16389571D01*
X10679286Y-16418143D01*
X10665000Y-16432429D01*
X10636429Y-16446714D01*
X10607857Y-16446714D01*
X10579286Y-16432429D01*
X10565000Y-16418143D01*
X10550714Y-16389571D01*
X10536429Y-16332429D01*
X10536429Y-16261000D01*
X10550714Y-16203857D01*
X10565000Y-16175286D01*
X10579286Y-16161000D01*
X10607857Y-16146714D01*
X10836429Y-16446714D02*
X10836429Y-16246714D01*
X10836429Y-16275286D02*
X10850714Y-16261000D01*
X10879286Y-16246714D01*
X10922143Y-16246714D01*
X10950714Y-16261000D01*
X10965000Y-16289571D01*
X10965000Y-16446714D01*
X10965000Y-16289571D02*
X10979286Y-16261000D01*
X11007857Y-16246714D01*
X11050714Y-16246714D01*
X11079286Y-16261000D01*
X11093571Y-16289571D01*
X11093571Y-16446714D01*
X11236428Y-16446714D02*
X11236428Y-16246714D01*
X11236428Y-16275286D02*
X11250714Y-16261000D01*
X11279286Y-16246714D01*
X11322143Y-16246714D01*
X11350714Y-16261000D01*
X11365000Y-16289571D01*
X11365000Y-16446714D01*
X11365000Y-16289571D02*
X11379286Y-16261000D01*
X11407857Y-16246714D01*
X11450714Y-16246714D01*
X11479286Y-16261000D01*
X11493571Y-16289571D01*
X11493571Y-16446714D01*
X12079286Y-16132429D02*
X11822143Y-16518143D01*
X12465000Y-16146714D02*
X12493571Y-16146714D01*
X12522143Y-16161000D01*
X12536428Y-16175286D01*
X12550714Y-16203857D01*
X12565000Y-16261000D01*
X12565000Y-16332429D01*
X12550714Y-16389571D01*
X12536428Y-16418143D01*
X12522143Y-16432429D01*
X12493571Y-16446714D01*
X12465000Y-16446714D01*
X12436428Y-16432429D01*
X12422143Y-16418143D01*
X12407857Y-16389571D01*
X12393571Y-16332429D01*
X12393571Y-16261000D01*
X12407857Y-16203857D01*
X12422143Y-16175286D01*
X12436428Y-16161000D01*
X12465000Y-16146714D01*
X12693571Y-16418143D02*
X12707857Y-16432429D01*
X12693571Y-16446714D01*
X12679286Y-16432429D01*
X12693571Y-16418143D01*
X12693571Y-16446714D01*
X12893571Y-16146714D02*
X12922143Y-16146714D01*
X12950714Y-16161000D01*
X12965000Y-16175286D01*
X12979286Y-16203857D01*
X12993571Y-16261000D01*
X12993571Y-16332429D01*
X12979286Y-16389571D01*
X12965000Y-16418143D01*
X12950714Y-16432429D01*
X12922143Y-16446714D01*
X12893571Y-16446714D01*
X12865000Y-16432429D01*
X12850714Y-16418143D01*
X12836428Y-16389571D01*
X12822143Y-16332429D01*
X12822143Y-16261000D01*
X12836428Y-16203857D01*
X12850714Y-16175286D01*
X12865000Y-16161000D01*
X12893571Y-16146714D01*
X13093571Y-16146714D02*
X13279286Y-16146714D01*
X13179286Y-16261000D01*
X13222143Y-16261000D01*
X13250714Y-16275286D01*
X13265000Y-16289571D01*
X13279286Y-16318143D01*
X13279286Y-16389571D01*
X13265000Y-16418143D01*
X13250714Y-16432429D01*
X13222143Y-16446714D01*
X13136428Y-16446714D01*
X13107857Y-16432429D01*
X13093571Y-16418143D01*
X13565000Y-16446714D02*
X13393571Y-16446714D01*
X13479286Y-16446714D02*
X13479286Y-16146714D01*
X13450714Y-16189571D01*
X13422143Y-16218143D01*
X13393571Y-16232429D01*
X13679286Y-16146714D02*
X13679286Y-16203857D01*
X13793571Y-16146714D02*
X13793571Y-16203857D01*
X14236428Y-16561000D02*
X14222143Y-16546714D01*
X14193571Y-16503857D01*
X14179286Y-16475286D01*
X14165000Y-16432429D01*
X14150714Y-16361000D01*
X14150714Y-16303857D01*
X14165000Y-16232429D01*
X14179286Y-16189571D01*
X14193571Y-16161000D01*
X14222143Y-16118143D01*
X14236428Y-16103857D01*
X14336428Y-16175286D02*
X14350714Y-16161000D01*
X14379286Y-16146714D01*
X14450714Y-16146714D01*
X14479286Y-16161000D01*
X14493571Y-16175286D01*
X14507857Y-16203857D01*
X14507857Y-16232429D01*
X14493571Y-16275286D01*
X14322143Y-16446714D01*
X14507857Y-16446714D01*
X14865000Y-16446714D02*
X14865000Y-16146714D01*
X14993571Y-16446714D02*
X14993571Y-16289571D01*
X14979286Y-16261000D01*
X14950714Y-16246714D01*
X14907857Y-16246714D01*
X14879286Y-16261000D01*
X14865000Y-16275286D01*
X15179286Y-16446714D02*
X15150714Y-16432429D01*
X15136428Y-16418143D01*
X15122143Y-16389571D01*
X15122143Y-16303857D01*
X15136428Y-16275286D01*
X15150714Y-16261000D01*
X15179286Y-16246714D01*
X15222143Y-16246714D01*
X15250714Y-16261000D01*
X15265000Y-16275286D01*
X15279286Y-16303857D01*
X15279286Y-16389571D01*
X15265000Y-16418143D01*
X15250714Y-16432429D01*
X15222143Y-16446714D01*
X15179286Y-16446714D01*
X15450714Y-16446714D02*
X15422143Y-16432429D01*
X15407857Y-16403857D01*
X15407857Y-16146714D01*
X15679286Y-16432429D02*
X15650714Y-16446714D01*
X15593571Y-16446714D01*
X15565000Y-16432429D01*
X15550714Y-16403857D01*
X15550714Y-16289571D01*
X15565000Y-16261000D01*
X15593571Y-16246714D01*
X15650714Y-16246714D01*
X15679286Y-16261000D01*
X15693571Y-16289571D01*
X15693571Y-16318143D01*
X15550714Y-16346714D01*
X15807857Y-16432429D02*
X15836428Y-16446714D01*
X15893571Y-16446714D01*
X15922143Y-16432429D01*
X15936428Y-16403857D01*
X15936428Y-16389571D01*
X15922143Y-16361000D01*
X15893571Y-16346714D01*
X15850714Y-16346714D01*
X15822143Y-16332429D01*
X15807857Y-16303857D01*
X15807857Y-16289571D01*
X15822143Y-16261000D01*
X15850714Y-16246714D01*
X15893571Y-16246714D01*
X15922143Y-16261000D01*
X16036428Y-16561000D02*
X16050714Y-16546714D01*
X16079286Y-16503857D01*
X16093571Y-16475286D01*
X16107857Y-16432429D01*
X16122143Y-16361000D01*
X16122143Y-16303857D01*
X16107857Y-16232429D01*
X16093571Y-16189571D01*
X16079286Y-16161000D01*
X16050714Y-16118143D01*
X16036428Y-16103857D01*
X9505000Y-16662000D02*
X9505000Y-16752000D01*
X9460000Y-16707000D02*
X9550000Y-16707000D01*
X9893571Y-16542714D02*
X9922143Y-16542714D01*
X9950714Y-16557000D01*
X9965000Y-16571286D01*
X9979286Y-16599857D01*
X9993571Y-16657000D01*
X9993571Y-16728429D01*
X9979286Y-16785572D01*
X9965000Y-16814143D01*
X9950714Y-16828429D01*
X9922143Y-16842714D01*
X9893571Y-16842714D01*
X9865000Y-16828429D01*
X9850714Y-16814143D01*
X9836429Y-16785572D01*
X9822143Y-16728429D01*
X9822143Y-16657000D01*
X9836429Y-16599857D01*
X9850714Y-16571286D01*
X9865000Y-16557000D01*
X9893571Y-16542714D01*
X10122143Y-16814143D02*
X10136429Y-16828429D01*
X10122143Y-16842714D01*
X10107857Y-16828429D01*
X10122143Y-16814143D01*
X10122143Y-16842714D01*
X10279286Y-16842714D02*
X10336429Y-16842714D01*
X10365000Y-16828429D01*
X10379286Y-16814143D01*
X10407857Y-16771286D01*
X10422143Y-16714143D01*
X10422143Y-16599857D01*
X10407857Y-16571286D01*
X10393571Y-16557000D01*
X10365000Y-16542714D01*
X10307857Y-16542714D01*
X10279286Y-16557000D01*
X10265000Y-16571286D01*
X10250714Y-16599857D01*
X10250714Y-16671286D01*
X10265000Y-16699857D01*
X10279286Y-16714143D01*
X10307857Y-16728429D01*
X10365000Y-16728429D01*
X10393571Y-16714143D01*
X10407857Y-16699857D01*
X10422143Y-16671286D01*
X10607857Y-16542714D02*
X10636429Y-16542714D01*
X10665000Y-16557000D01*
X10679286Y-16571286D01*
X10693571Y-16599857D01*
X10707857Y-16657000D01*
X10707857Y-16728429D01*
X10693571Y-16785572D01*
X10679286Y-16814143D01*
X10665000Y-16828429D01*
X10636429Y-16842714D01*
X10607857Y-16842714D01*
X10579286Y-16828429D01*
X10565000Y-16814143D01*
X10550714Y-16785572D01*
X10536429Y-16728429D01*
X10536429Y-16657000D01*
X10550714Y-16599857D01*
X10565000Y-16571286D01*
X10579286Y-16557000D01*
X10607857Y-16542714D01*
X10836429Y-16842714D02*
X10836429Y-16642714D01*
X10836429Y-16671286D02*
X10850714Y-16657000D01*
X10879286Y-16642714D01*
X10922143Y-16642714D01*
X10950714Y-16657000D01*
X10965000Y-16685571D01*
X10965000Y-16842714D01*
X10965000Y-16685571D02*
X10979286Y-16657000D01*
X11007857Y-16642714D01*
X11050714Y-16642714D01*
X11079286Y-16657000D01*
X11093571Y-16685571D01*
X11093571Y-16842714D01*
X11236428Y-16842714D02*
X11236428Y-16642714D01*
X11236428Y-16671286D02*
X11250714Y-16657000D01*
X11279286Y-16642714D01*
X11322143Y-16642714D01*
X11350714Y-16657000D01*
X11365000Y-16685571D01*
X11365000Y-16842714D01*
X11365000Y-16685571D02*
X11379286Y-16657000D01*
X11407857Y-16642714D01*
X11450714Y-16642714D01*
X11479286Y-16657000D01*
X11493571Y-16685571D01*
X11493571Y-16842714D01*
X12079286Y-16528429D02*
X11822143Y-16914143D01*
X12465000Y-16542714D02*
X12493571Y-16542714D01*
X12522143Y-16557000D01*
X12536428Y-16571286D01*
X12550714Y-16599857D01*
X12565000Y-16657000D01*
X12565000Y-16728429D01*
X12550714Y-16785572D01*
X12536428Y-16814143D01*
X12522143Y-16828429D01*
X12493571Y-16842714D01*
X12465000Y-16842714D01*
X12436428Y-16828429D01*
X12422143Y-16814143D01*
X12407857Y-16785572D01*
X12393571Y-16728429D01*
X12393571Y-16657000D01*
X12407857Y-16599857D01*
X12422143Y-16571286D01*
X12436428Y-16557000D01*
X12465000Y-16542714D01*
X12693571Y-16814143D02*
X12707857Y-16828429D01*
X12693571Y-16842714D01*
X12679286Y-16828429D01*
X12693571Y-16814143D01*
X12693571Y-16842714D01*
X12893571Y-16542714D02*
X12922143Y-16542714D01*
X12950714Y-16557000D01*
X12965000Y-16571286D01*
X12979286Y-16599857D01*
X12993571Y-16657000D01*
X12993571Y-16728429D01*
X12979286Y-16785572D01*
X12965000Y-16814143D01*
X12950714Y-16828429D01*
X12922143Y-16842714D01*
X12893571Y-16842714D01*
X12865000Y-16828429D01*
X12850714Y-16814143D01*
X12836428Y-16785572D01*
X12822143Y-16728429D01*
X12822143Y-16657000D01*
X12836428Y-16599857D01*
X12850714Y-16571286D01*
X12865000Y-16557000D01*
X12893571Y-16542714D01*
X13093571Y-16542714D02*
X13279286Y-16542714D01*
X13179286Y-16657000D01*
X13222143Y-16657000D01*
X13250714Y-16671286D01*
X13265000Y-16685571D01*
X13279286Y-16714143D01*
X13279286Y-16785572D01*
X13265000Y-16814143D01*
X13250714Y-16828429D01*
X13222143Y-16842714D01*
X13136428Y-16842714D01*
X13107857Y-16828429D01*
X13093571Y-16814143D01*
X13550714Y-16542714D02*
X13407857Y-16542714D01*
X13393571Y-16685571D01*
X13407857Y-16671286D01*
X13436428Y-16657000D01*
X13507857Y-16657000D01*
X13536428Y-16671286D01*
X13550714Y-16685571D01*
X13565000Y-16714143D01*
X13565000Y-16785572D01*
X13550714Y-16814143D01*
X13536428Y-16828429D01*
X13507857Y-16842714D01*
X13436428Y-16842714D01*
X13407857Y-16828429D01*
X13393571Y-16814143D01*
X13679286Y-16542714D02*
X13679286Y-16599857D01*
X13793571Y-16542714D02*
X13793571Y-16599857D01*
X14236428Y-16957000D02*
X14222143Y-16942714D01*
X14193571Y-16899857D01*
X14179286Y-16871286D01*
X14165000Y-16828429D01*
X14150714Y-16757000D01*
X14150714Y-16699857D01*
X14165000Y-16628429D01*
X14179286Y-16585571D01*
X14193571Y-16557000D01*
X14222143Y-16514143D01*
X14236428Y-16499857D01*
X14479286Y-16642714D02*
X14479286Y-16842714D01*
X14407857Y-16528429D02*
X14336428Y-16742714D01*
X14522143Y-16742714D01*
X14865000Y-16842714D02*
X14865000Y-16542714D01*
X14993571Y-16842714D02*
X14993571Y-16685571D01*
X14979286Y-16657000D01*
X14950714Y-16642714D01*
X14907857Y-16642714D01*
X14879286Y-16657000D01*
X14865000Y-16671286D01*
X15179286Y-16842714D02*
X15150714Y-16828429D01*
X15136428Y-16814143D01*
X15122143Y-16785572D01*
X15122143Y-16699857D01*
X15136428Y-16671286D01*
X15150714Y-16657000D01*
X15179286Y-16642714D01*
X15222143Y-16642714D01*
X15250714Y-16657000D01*
X15265000Y-16671286D01*
X15279286Y-16699857D01*
X15279286Y-16785572D01*
X15265000Y-16814143D01*
X15250714Y-16828429D01*
X15222143Y-16842714D01*
X15179286Y-16842714D01*
X15450714Y-16842714D02*
X15422143Y-16828429D01*
X15407857Y-16799857D01*
X15407857Y-16542714D01*
X15679286Y-16828429D02*
X15650714Y-16842714D01*
X15593571Y-16842714D01*
X15565000Y-16828429D01*
X15550714Y-16799857D01*
X15550714Y-16685571D01*
X15565000Y-16657000D01*
X15593571Y-16642714D01*
X15650714Y-16642714D01*
X15679286Y-16657000D01*
X15693571Y-16685571D01*
X15693571Y-16714143D01*
X15550714Y-16742714D01*
X15807857Y-16828429D02*
X15836428Y-16842714D01*
X15893571Y-16842714D01*
X15922143Y-16828429D01*
X15936428Y-16799857D01*
X15936428Y-16785572D01*
X15922143Y-16757000D01*
X15893571Y-16742714D01*
X15850714Y-16742714D01*
X15822143Y-16728429D01*
X15807857Y-16699857D01*
X15807857Y-16685571D01*
X15822143Y-16657000D01*
X15850714Y-16642714D01*
X15893571Y-16642714D01*
X15922143Y-16657000D01*
X16036428Y-16957000D02*
X16050714Y-16942714D01*
X16079286Y-16899857D01*
X16093571Y-16871286D01*
X16107857Y-16828429D01*
X16122143Y-16757000D01*
X16122143Y-16699857D01*
X16107857Y-16628429D01*
X16093571Y-16585571D01*
X16079286Y-16557000D01*
X16050714Y-16514143D01*
X16036428Y-16499857D01*
X9517783Y-17180783D02*
X9517783Y-17025218D01*
X9362218Y-17025218D01*
X9362218Y-17180783D01*
X9517783Y-17180783D01*
X9822143Y-16967286D02*
X9836429Y-16953000D01*
X9865000Y-16938714D01*
X9936429Y-16938714D01*
X9965000Y-16953000D01*
X9979286Y-16967286D01*
X9993571Y-16995857D01*
X9993571Y-17024429D01*
X9979286Y-17067286D01*
X9807857Y-17238714D01*
X9993571Y-17238714D01*
X10122143Y-17210143D02*
X10136429Y-17224429D01*
X10122143Y-17238714D01*
X10107857Y-17224429D01*
X10122143Y-17210143D01*
X10122143Y-17238714D01*
X10250714Y-16967286D02*
X10265000Y-16953000D01*
X10293571Y-16938714D01*
X10365000Y-16938714D01*
X10393571Y-16953000D01*
X10407857Y-16967286D01*
X10422143Y-16995857D01*
X10422143Y-17024429D01*
X10407857Y-17067286D01*
X10236429Y-17238714D01*
X10422143Y-17238714D01*
X10607857Y-16938714D02*
X10636429Y-16938714D01*
X10665000Y-16953000D01*
X10679286Y-16967286D01*
X10693571Y-16995857D01*
X10707857Y-17053000D01*
X10707857Y-17124429D01*
X10693571Y-17181572D01*
X10679286Y-17210143D01*
X10665000Y-17224429D01*
X10636429Y-17238714D01*
X10607857Y-17238714D01*
X10579286Y-17224429D01*
X10565000Y-17210143D01*
X10550714Y-17181572D01*
X10536429Y-17124429D01*
X10536429Y-17053000D01*
X10550714Y-16995857D01*
X10565000Y-16967286D01*
X10579286Y-16953000D01*
X10607857Y-16938714D01*
X10836429Y-17238714D02*
X10836429Y-17038714D01*
X10836429Y-17067286D02*
X10850714Y-17053000D01*
X10879286Y-17038714D01*
X10922143Y-17038714D01*
X10950714Y-17053000D01*
X10965000Y-17081572D01*
X10965000Y-17238714D01*
X10965000Y-17081572D02*
X10979286Y-17053000D01*
X11007857Y-17038714D01*
X11050714Y-17038714D01*
X11079286Y-17053000D01*
X11093571Y-17081572D01*
X11093571Y-17238714D01*
X11236428Y-17238714D02*
X11236428Y-17038714D01*
X11236428Y-17067286D02*
X11250714Y-17053000D01*
X11279286Y-17038714D01*
X11322143Y-17038714D01*
X11350714Y-17053000D01*
X11365000Y-17081572D01*
X11365000Y-17238714D01*
X11365000Y-17081572D02*
X11379286Y-17053000D01*
X11407857Y-17038714D01*
X11450714Y-17038714D01*
X11479286Y-17053000D01*
X11493571Y-17081572D01*
X11493571Y-17238714D01*
X12079286Y-16924429D02*
X11822143Y-17310143D01*
X12465000Y-16938714D02*
X12493571Y-16938714D01*
X12522143Y-16953000D01*
X12536428Y-16967286D01*
X12550714Y-16995857D01*
X12565000Y-17053000D01*
X12565000Y-17124429D01*
X12550714Y-17181572D01*
X12536428Y-17210143D01*
X12522143Y-17224429D01*
X12493571Y-17238714D01*
X12465000Y-17238714D01*
X12436428Y-17224429D01*
X12422143Y-17210143D01*
X12407857Y-17181572D01*
X12393571Y-17124429D01*
X12393571Y-17053000D01*
X12407857Y-16995857D01*
X12422143Y-16967286D01*
X12436428Y-16953000D01*
X12465000Y-16938714D01*
X12693571Y-17210143D02*
X12707857Y-17224429D01*
X12693571Y-17238714D01*
X12679286Y-17224429D01*
X12693571Y-17210143D01*
X12693571Y-17238714D01*
X12893571Y-16938714D02*
X12922143Y-16938714D01*
X12950714Y-16953000D01*
X12965000Y-16967286D01*
X12979286Y-16995857D01*
X12993571Y-17053000D01*
X12993571Y-17124429D01*
X12979286Y-17181572D01*
X12965000Y-17210143D01*
X12950714Y-17224429D01*
X12922143Y-17238714D01*
X12893571Y-17238714D01*
X12865000Y-17224429D01*
X12850714Y-17210143D01*
X12836428Y-17181572D01*
X12822143Y-17124429D01*
X12822143Y-17053000D01*
X12836428Y-16995857D01*
X12850714Y-16967286D01*
X12865000Y-16953000D01*
X12893571Y-16938714D01*
X13165000Y-17067286D02*
X13136428Y-17053000D01*
X13122143Y-17038714D01*
X13107857Y-17010143D01*
X13107857Y-16995857D01*
X13122143Y-16967286D01*
X13136428Y-16953000D01*
X13165000Y-16938714D01*
X13222143Y-16938714D01*
X13250714Y-16953000D01*
X13265000Y-16967286D01*
X13279286Y-16995857D01*
X13279286Y-17010143D01*
X13265000Y-17038714D01*
X13250714Y-17053000D01*
X13222143Y-17067286D01*
X13165000Y-17067286D01*
X13136428Y-17081572D01*
X13122143Y-17095857D01*
X13107857Y-17124429D01*
X13107857Y-17181572D01*
X13122143Y-17210143D01*
X13136428Y-17224429D01*
X13165000Y-17238714D01*
X13222143Y-17238714D01*
X13250714Y-17224429D01*
X13265000Y-17210143D01*
X13279286Y-17181572D01*
X13279286Y-17124429D01*
X13265000Y-17095857D01*
X13250714Y-17081572D01*
X13222143Y-17067286D01*
X13379286Y-16938714D02*
X13579286Y-16938714D01*
X13450714Y-17238714D01*
X13679286Y-16938714D02*
X13679286Y-16995857D01*
X13793571Y-16938714D02*
X13793571Y-16995857D01*
X14236428Y-17353000D02*
X14222143Y-17338714D01*
X14193571Y-17295857D01*
X14179286Y-17267286D01*
X14165000Y-17224429D01*
X14150714Y-17153000D01*
X14150714Y-17095857D01*
X14165000Y-17024429D01*
X14179286Y-16981572D01*
X14193571Y-16953000D01*
X14222143Y-16910143D01*
X14236428Y-16895857D01*
X14479286Y-17038714D02*
X14479286Y-17238714D01*
X14407857Y-16924429D02*
X14336428Y-17138714D01*
X14522143Y-17138714D01*
X14865000Y-17238714D02*
X14865000Y-16938714D01*
X14993571Y-17238714D02*
X14993571Y-17081572D01*
X14979286Y-17053000D01*
X14950714Y-17038714D01*
X14907857Y-17038714D01*
X14879286Y-17053000D01*
X14865000Y-17067286D01*
X15179286Y-17238714D02*
X15150714Y-17224429D01*
X15136428Y-17210143D01*
X15122143Y-17181572D01*
X15122143Y-17095857D01*
X15136428Y-17067286D01*
X15150714Y-17053000D01*
X15179286Y-17038714D01*
X15222143Y-17038714D01*
X15250714Y-17053000D01*
X15265000Y-17067286D01*
X15279286Y-17095857D01*
X15279286Y-17181572D01*
X15265000Y-17210143D01*
X15250714Y-17224429D01*
X15222143Y-17238714D01*
X15179286Y-17238714D01*
X15450714Y-17238714D02*
X15422143Y-17224429D01*
X15407857Y-17195857D01*
X15407857Y-16938714D01*
X15679286Y-17224429D02*
X15650714Y-17238714D01*
X15593571Y-17238714D01*
X15565000Y-17224429D01*
X15550714Y-17195857D01*
X15550714Y-17081572D01*
X15565000Y-17053000D01*
X15593571Y-17038714D01*
X15650714Y-17038714D01*
X15679286Y-17053000D01*
X15693571Y-17081572D01*
X15693571Y-17110143D01*
X15550714Y-17138714D01*
X15807857Y-17224429D02*
X15836428Y-17238714D01*
X15893571Y-17238714D01*
X15922143Y-17224429D01*
X15936428Y-17195857D01*
X15936428Y-17181572D01*
X15922143Y-17153000D01*
X15893571Y-17138714D01*
X15850714Y-17138714D01*
X15822143Y-17124429D01*
X15807857Y-17095857D01*
X15807857Y-17081572D01*
X15822143Y-17053000D01*
X15850714Y-17038714D01*
X15893571Y-17038714D01*
X15922143Y-17053000D01*
X16036428Y-17353000D02*
X16050714Y-17338714D01*
X16079286Y-17295857D01*
X16093571Y-17267286D01*
X16107857Y-17224429D01*
X16122143Y-17153000D01*
X16122143Y-17095857D01*
X16107857Y-17024429D01*
X16093571Y-16981572D01*
X16079286Y-16953000D01*
X16050714Y-16910143D01*
X16036428Y-16895857D01*
M02*
