%TF.GenerationSoftware,KiCad,Pcbnew,5.1.6-c6e7f7d~87~ubuntu20.04.1*%
%TF.CreationDate,2020-08-01T21:45:28+02:00*%
%TF.ProjectId,piezo,7069657a-6f2e-46b6-9963-61645f706362,rev?*%
%TF.SameCoordinates,Original*%
%TF.FileFunction,Copper,L2,Bot*%
%TF.FilePolarity,Positive*%
%FSLAX46Y46*%
G04 Gerber Fmt 4.6, Leading zero omitted, Abs format (unit mm)*
G04 Created by KiCad (PCBNEW 5.1.6-c6e7f7d~87~ubuntu20.04.1) date 2020-08-01 21:45:28*
%MOMM*%
%LPD*%
G01*
G04 APERTURE LIST*
%TA.AperFunction,SMDPad,CuDef*%
%ADD10R,2.710000X3.400000*%
%TD*%
%TA.AperFunction,ComponentPad*%
%ADD11R,1.500000X1.500000*%
%TD*%
%TA.AperFunction,ComponentPad*%
%ADD12C,1.500000*%
%TD*%
%TA.AperFunction,ComponentPad*%
%ADD13C,3.800000*%
%TD*%
%TA.AperFunction,ComponentPad*%
%ADD14R,3.960000X1.980000*%
%TD*%
%TA.AperFunction,ComponentPad*%
%ADD15O,3.960000X1.980000*%
%TD*%
%TA.AperFunction,ComponentPad*%
%ADD16O,1.600000X1.600000*%
%TD*%
%TA.AperFunction,ComponentPad*%
%ADD17R,1.600000X1.600000*%
%TD*%
%TA.AperFunction,ViaPad*%
%ADD18C,0.800000*%
%TD*%
%TA.AperFunction,Conductor*%
%ADD19C,0.250000*%
%TD*%
%TA.AperFunction,Conductor*%
%ADD20C,0.254000*%
%TD*%
G04 APERTURE END LIST*
D10*
%TO.P,U1,9*%
%TO.N,N/C*%
X121500000Y-132000000D03*
%TD*%
D11*
%TO.P,J5,1*%
%TO.N,Net-(C1-Pad1)*%
X142500000Y-130500000D03*
D12*
%TO.P,J5,2*%
%TO.N,GND*%
X139960000Y-131520000D03*
%TO.P,J5,3*%
%TO.N,Net-(C2-Pad1)*%
X142500000Y-132540000D03*
%TO.P,J5,4*%
%TO.N,VCC*%
X139960000Y-133560000D03*
%TD*%
D13*
%TO.P,J1,1*%
%TO.N,GND*%
X145500000Y-119000000D03*
%TD*%
%TO.P,J2,1*%
%TO.N,GND*%
X145500000Y-145500000D03*
%TD*%
%TO.P,J3,1*%
%TO.N,GND*%
X102000000Y-119000000D03*
%TD*%
%TO.P,J4,1*%
%TO.N,GND*%
X102000000Y-145500000D03*
%TD*%
D14*
%TO.P,X1,1*%
%TO.N,Net-(R1-Pad2)*%
X104500000Y-134500000D03*
D15*
%TO.P,X1,2*%
%TO.N,Net-(R2-Pad2)*%
X104500000Y-129500000D03*
%TD*%
D16*
%TO.P,D1,2*%
%TO.N,Net-(D1-Pad2)*%
X109580000Y-139000000D03*
D17*
%TO.P,D1,1*%
%TO.N,Net-(D1-Pad1)*%
X104500000Y-139000000D03*
%TD*%
%TO.P,D2,1*%
%TO.N,Net-(D1-Pad1)*%
X104500000Y-124500000D03*
D16*
%TO.P,D2,2*%
%TO.N,Net-(D2-Pad2)*%
X109580000Y-124500000D03*
%TD*%
D18*
%TO.N,*%
X120600000Y-130800000D03*
X122400000Y-130800000D03*
X122400000Y-133200000D03*
X120600000Y-133200000D03*
X120600000Y-132000000D03*
X122400000Y-132000000D03*
%TO.N,GND*%
X118500000Y-136500000D03*
X111500000Y-139000000D03*
X138500000Y-135000000D03*
X141000000Y-128000000D03*
X135500000Y-124500000D03*
X134000000Y-122000000D03*
X132000000Y-126500000D03*
X123500000Y-128000000D03*
X111500000Y-124000000D03*
X131000000Y-129500000D03*
X127500000Y-135500000D03*
X116000000Y-134000000D03*
X126000000Y-135000000D03*
X128000000Y-129000000D03*
%TO.N,VCC*%
X117421600Y-132784100D03*
%TD*%
D19*
%TO.N,GND*%
X145500000Y-119000000D02*
X139960000Y-124540000D01*
X139960000Y-124540000D02*
X139960000Y-131520000D01*
X145500000Y-145500000D02*
X141424600Y-141424600D01*
X141424600Y-141424600D02*
X141424600Y-132984600D01*
X141424600Y-132984600D02*
X139960000Y-131520000D01*
X102000000Y-145500000D02*
X102000000Y-119000000D01*
%TO.N,VCC*%
X139960000Y-133560000D02*
X139394600Y-134125400D01*
X139394600Y-134125400D02*
X118762900Y-134125400D01*
X118762900Y-134125400D02*
X117421600Y-132784100D01*
%TO.N,Net-(D1-Pad1)*%
X104500000Y-139000000D02*
X104500000Y-137874700D01*
X104500000Y-124500000D02*
X104500000Y-125625300D01*
X104500000Y-125625300D02*
X106805400Y-127930700D01*
X106805400Y-127930700D02*
X106805400Y-135710000D01*
X106805400Y-135710000D02*
X104640700Y-137874700D01*
X104640700Y-137874700D02*
X104500000Y-137874700D01*
%TD*%
D20*
%TO.N,GND*%
G36*
X149023000Y-149023000D02*
G01*
X98477000Y-149023000D01*
X98477000Y-129500000D01*
X102086144Y-129500000D01*
X102113503Y-129777781D01*
X102194529Y-130044886D01*
X102326107Y-130291052D01*
X102503182Y-130506818D01*
X102718948Y-130683893D01*
X102965114Y-130815471D01*
X103232219Y-130896497D01*
X103440390Y-130917000D01*
X105559610Y-130917000D01*
X105767781Y-130896497D01*
X106034886Y-130815471D01*
X106253400Y-130698673D01*
X106253401Y-133080934D01*
X102520000Y-133080934D01*
X102436293Y-133089178D01*
X102355804Y-133113595D01*
X102281624Y-133153245D01*
X102216605Y-133206605D01*
X102163245Y-133271624D01*
X102123595Y-133345804D01*
X102099178Y-133426293D01*
X102090934Y-133510000D01*
X102090934Y-135490000D01*
X102099178Y-135573707D01*
X102123595Y-135654196D01*
X102163245Y-135728376D01*
X102216605Y-135793395D01*
X102281624Y-135846755D01*
X102355804Y-135886405D01*
X102436293Y-135910822D01*
X102520000Y-135919066D01*
X105815689Y-135919066D01*
X104405409Y-137329346D01*
X104391789Y-137330688D01*
X104287737Y-137362252D01*
X104191842Y-137413509D01*
X104107789Y-137482489D01*
X104038809Y-137566542D01*
X103987552Y-137662437D01*
X103955988Y-137766489D01*
X103955550Y-137770934D01*
X103700000Y-137770934D01*
X103616293Y-137779178D01*
X103535804Y-137803595D01*
X103461624Y-137843245D01*
X103396605Y-137896605D01*
X103343245Y-137961624D01*
X103303595Y-138035804D01*
X103279178Y-138116293D01*
X103270934Y-138200000D01*
X103270934Y-139800000D01*
X103279178Y-139883707D01*
X103303595Y-139964196D01*
X103343245Y-140038376D01*
X103396605Y-140103395D01*
X103461624Y-140156755D01*
X103535804Y-140196405D01*
X103616293Y-140220822D01*
X103700000Y-140229066D01*
X105300000Y-140229066D01*
X105383707Y-140220822D01*
X105464196Y-140196405D01*
X105538376Y-140156755D01*
X105603395Y-140103395D01*
X105656755Y-140038376D01*
X105696405Y-139964196D01*
X105720822Y-139883707D01*
X105729066Y-139800000D01*
X105729066Y-138879151D01*
X108353000Y-138879151D01*
X108353000Y-139120849D01*
X108400153Y-139357903D01*
X108492647Y-139581202D01*
X108626927Y-139782167D01*
X108797833Y-139953073D01*
X108998798Y-140087353D01*
X109222097Y-140179847D01*
X109459151Y-140227000D01*
X109700849Y-140227000D01*
X109937903Y-140179847D01*
X110161202Y-140087353D01*
X110362167Y-139953073D01*
X110533073Y-139782167D01*
X110667353Y-139581202D01*
X110759847Y-139357903D01*
X110807000Y-139120849D01*
X110807000Y-138879151D01*
X110759847Y-138642097D01*
X110667353Y-138418798D01*
X110533073Y-138217833D01*
X110362167Y-138046927D01*
X110161202Y-137912647D01*
X110069540Y-137874679D01*
X143223000Y-137874679D01*
X143223000Y-138185321D01*
X143283604Y-138489994D01*
X143402481Y-138776989D01*
X143575064Y-139035279D01*
X143794721Y-139254936D01*
X144053011Y-139427519D01*
X144340006Y-139546396D01*
X144644679Y-139607000D01*
X144955321Y-139607000D01*
X145259994Y-139546396D01*
X145546989Y-139427519D01*
X145805279Y-139254936D01*
X146024936Y-139035279D01*
X146197519Y-138776989D01*
X146316396Y-138489994D01*
X146377000Y-138185321D01*
X146377000Y-137874679D01*
X146316396Y-137570006D01*
X146197519Y-137283011D01*
X146024936Y-137024721D01*
X145805279Y-136805064D01*
X145546989Y-136632481D01*
X145259994Y-136513604D01*
X144955321Y-136453000D01*
X144644679Y-136453000D01*
X144340006Y-136513604D01*
X144053011Y-136632481D01*
X143794721Y-136805064D01*
X143575064Y-137024721D01*
X143402481Y-137283011D01*
X143283604Y-137570006D01*
X143223000Y-137874679D01*
X110069540Y-137874679D01*
X109937903Y-137820153D01*
X109700849Y-137773000D01*
X109459151Y-137773000D01*
X109222097Y-137820153D01*
X108998798Y-137912647D01*
X108797833Y-138046927D01*
X108626927Y-138217833D01*
X108492647Y-138418798D01*
X108400153Y-138642097D01*
X108353000Y-138879151D01*
X105729066Y-138879151D01*
X105729066Y-138200000D01*
X105720822Y-138116293D01*
X105696405Y-138035804D01*
X105656755Y-137961624D01*
X105603395Y-137896605D01*
X105538376Y-137843245D01*
X105482608Y-137813436D01*
X107176554Y-136119492D01*
X107197611Y-136102211D01*
X107266591Y-136018158D01*
X107317848Y-135922263D01*
X107349412Y-135818211D01*
X107357400Y-135737109D01*
X107357400Y-135737107D01*
X107360070Y-135710001D01*
X107357400Y-135682895D01*
X107357400Y-132702648D01*
X116594600Y-132702648D01*
X116594600Y-132865552D01*
X116626382Y-133025327D01*
X116688723Y-133175831D01*
X116779228Y-133311281D01*
X116894419Y-133426472D01*
X117029869Y-133516977D01*
X117180373Y-133579318D01*
X117340148Y-133611100D01*
X117467955Y-133611100D01*
X118353408Y-134496554D01*
X118370689Y-134517611D01*
X118391745Y-134534891D01*
X118391746Y-134534892D01*
X118454742Y-134586591D01*
X118550637Y-134637848D01*
X118654689Y-134669412D01*
X118762900Y-134680070D01*
X118790008Y-134677400D01*
X139367494Y-134677400D01*
X139394600Y-134680070D01*
X139421706Y-134677400D01*
X139421709Y-134677400D01*
X139502811Y-134669412D01*
X139537386Y-134658924D01*
X139616682Y-134691769D01*
X139844076Y-134737000D01*
X140075924Y-134737000D01*
X140303318Y-134691769D01*
X140517519Y-134603044D01*
X140710294Y-134474236D01*
X140874236Y-134310294D01*
X141003044Y-134117519D01*
X141091769Y-133903318D01*
X141137000Y-133675924D01*
X141137000Y-133444076D01*
X141091769Y-133216682D01*
X141003044Y-133002481D01*
X140874236Y-132809706D01*
X140710294Y-132645764D01*
X140517519Y-132516956D01*
X140303318Y-132428231D01*
X140075924Y-132383000D01*
X139844076Y-132383000D01*
X139616682Y-132428231D01*
X139402481Y-132516956D01*
X139209706Y-132645764D01*
X139045764Y-132809706D01*
X138916956Y-133002481D01*
X138828231Y-133216682D01*
X138783000Y-133444076D01*
X138783000Y-133573400D01*
X123284066Y-133573400D01*
X123284066Y-130300000D01*
X123275822Y-130216293D01*
X123251405Y-130135804D01*
X123211755Y-130061624D01*
X123158395Y-129996605D01*
X123093376Y-129943245D01*
X123019196Y-129903595D01*
X122938707Y-129879178D01*
X122855000Y-129870934D01*
X120145000Y-129870934D01*
X120061293Y-129879178D01*
X119980804Y-129903595D01*
X119906624Y-129943245D01*
X119841605Y-129996605D01*
X119788245Y-130061624D01*
X119748595Y-130135804D01*
X119724178Y-130216293D01*
X119715934Y-130300000D01*
X119715934Y-133573400D01*
X118991546Y-133573400D01*
X118248600Y-132830455D01*
X118248600Y-132702648D01*
X118216818Y-132542873D01*
X118154477Y-132392369D01*
X118063972Y-132256919D01*
X117948781Y-132141728D01*
X117813331Y-132051223D01*
X117662827Y-131988882D01*
X117503052Y-131957100D01*
X117340148Y-131957100D01*
X117180373Y-131988882D01*
X117029869Y-132051223D01*
X116894419Y-132141728D01*
X116779228Y-132256919D01*
X116688723Y-132392369D01*
X116626382Y-132542873D01*
X116594600Y-132702648D01*
X107357400Y-132702648D01*
X107357400Y-129750000D01*
X141320934Y-129750000D01*
X141320934Y-131250000D01*
X141329178Y-131333707D01*
X141353595Y-131414196D01*
X141393245Y-131488376D01*
X141446605Y-131553395D01*
X141511624Y-131606755D01*
X141585804Y-131646405D01*
X141666293Y-131670822D01*
X141701209Y-131674261D01*
X141585764Y-131789706D01*
X141456956Y-131982481D01*
X141368231Y-132196682D01*
X141323000Y-132424076D01*
X141323000Y-132655924D01*
X141368231Y-132883318D01*
X141456956Y-133097519D01*
X141585764Y-133290294D01*
X141749706Y-133454236D01*
X141942481Y-133583044D01*
X142156682Y-133671769D01*
X142384076Y-133717000D01*
X142615924Y-133717000D01*
X142843318Y-133671769D01*
X143057519Y-133583044D01*
X143250294Y-133454236D01*
X143414236Y-133290294D01*
X143543044Y-133097519D01*
X143631769Y-132883318D01*
X143677000Y-132655924D01*
X143677000Y-132424076D01*
X143631769Y-132196682D01*
X143543044Y-131982481D01*
X143414236Y-131789706D01*
X143298791Y-131674261D01*
X143333707Y-131670822D01*
X143414196Y-131646405D01*
X143488376Y-131606755D01*
X143553395Y-131553395D01*
X143606755Y-131488376D01*
X143646405Y-131414196D01*
X143670822Y-131333707D01*
X143679066Y-131250000D01*
X143679066Y-129750000D01*
X143670822Y-129666293D01*
X143646405Y-129585804D01*
X143606755Y-129511624D01*
X143553395Y-129446605D01*
X143488376Y-129393245D01*
X143414196Y-129353595D01*
X143333707Y-129329178D01*
X143250000Y-129320934D01*
X141750000Y-129320934D01*
X141666293Y-129329178D01*
X141585804Y-129353595D01*
X141511624Y-129393245D01*
X141446605Y-129446605D01*
X141393245Y-129511624D01*
X141353595Y-129585804D01*
X141329178Y-129666293D01*
X141320934Y-129750000D01*
X107357400Y-129750000D01*
X107357400Y-127957806D01*
X107360070Y-127930700D01*
X107357400Y-127903591D01*
X107349412Y-127822489D01*
X107317848Y-127718437D01*
X107266591Y-127622542D01*
X107197611Y-127538489D01*
X107176549Y-127521204D01*
X105530024Y-125874679D01*
X143223000Y-125874679D01*
X143223000Y-126185321D01*
X143283604Y-126489994D01*
X143402481Y-126776989D01*
X143575064Y-127035279D01*
X143794721Y-127254936D01*
X144053011Y-127427519D01*
X144340006Y-127546396D01*
X144644679Y-127607000D01*
X144955321Y-127607000D01*
X145259994Y-127546396D01*
X145546989Y-127427519D01*
X145805279Y-127254936D01*
X146024936Y-127035279D01*
X146197519Y-126776989D01*
X146316396Y-126489994D01*
X146377000Y-126185321D01*
X146377000Y-125874679D01*
X146316396Y-125570006D01*
X146197519Y-125283011D01*
X146024936Y-125024721D01*
X145805279Y-124805064D01*
X145546989Y-124632481D01*
X145259994Y-124513604D01*
X144955321Y-124453000D01*
X144644679Y-124453000D01*
X144340006Y-124513604D01*
X144053011Y-124632481D01*
X143794721Y-124805064D01*
X143575064Y-125024721D01*
X143402481Y-125283011D01*
X143283604Y-125570006D01*
X143223000Y-125874679D01*
X105530024Y-125874679D01*
X105376842Y-125721498D01*
X105383707Y-125720822D01*
X105464196Y-125696405D01*
X105538376Y-125656755D01*
X105603395Y-125603395D01*
X105656755Y-125538376D01*
X105696405Y-125464196D01*
X105720822Y-125383707D01*
X105729066Y-125300000D01*
X105729066Y-124379151D01*
X108353000Y-124379151D01*
X108353000Y-124620849D01*
X108400153Y-124857903D01*
X108492647Y-125081202D01*
X108626927Y-125282167D01*
X108797833Y-125453073D01*
X108998798Y-125587353D01*
X109222097Y-125679847D01*
X109459151Y-125727000D01*
X109700849Y-125727000D01*
X109937903Y-125679847D01*
X110161202Y-125587353D01*
X110362167Y-125453073D01*
X110533073Y-125282167D01*
X110667353Y-125081202D01*
X110759847Y-124857903D01*
X110807000Y-124620849D01*
X110807000Y-124379151D01*
X110759847Y-124142097D01*
X110667353Y-123918798D01*
X110533073Y-123717833D01*
X110362167Y-123546927D01*
X110161202Y-123412647D01*
X109937903Y-123320153D01*
X109700849Y-123273000D01*
X109459151Y-123273000D01*
X109222097Y-123320153D01*
X108998798Y-123412647D01*
X108797833Y-123546927D01*
X108626927Y-123717833D01*
X108492647Y-123918798D01*
X108400153Y-124142097D01*
X108353000Y-124379151D01*
X105729066Y-124379151D01*
X105729066Y-123700000D01*
X105720822Y-123616293D01*
X105696405Y-123535804D01*
X105656755Y-123461624D01*
X105603395Y-123396605D01*
X105538376Y-123343245D01*
X105464196Y-123303595D01*
X105383707Y-123279178D01*
X105300000Y-123270934D01*
X103700000Y-123270934D01*
X103616293Y-123279178D01*
X103535804Y-123303595D01*
X103461624Y-123343245D01*
X103396605Y-123396605D01*
X103343245Y-123461624D01*
X103303595Y-123535804D01*
X103279178Y-123616293D01*
X103270934Y-123700000D01*
X103270934Y-125300000D01*
X103279178Y-125383707D01*
X103303595Y-125464196D01*
X103343245Y-125538376D01*
X103396605Y-125603395D01*
X103461624Y-125656755D01*
X103535804Y-125696405D01*
X103616293Y-125720822D01*
X103700000Y-125729066D01*
X103955551Y-125729066D01*
X103955989Y-125733510D01*
X103987552Y-125837562D01*
X104038809Y-125933457D01*
X104038810Y-125933458D01*
X104107790Y-126017511D01*
X104128852Y-126034796D01*
X106253400Y-128159345D01*
X106253400Y-128301327D01*
X106034886Y-128184529D01*
X105767781Y-128103503D01*
X105559610Y-128083000D01*
X103440390Y-128083000D01*
X103232219Y-128103503D01*
X102965114Y-128184529D01*
X102718948Y-128316107D01*
X102503182Y-128493182D01*
X102326107Y-128708948D01*
X102194529Y-128955114D01*
X102113503Y-129222219D01*
X102086144Y-129500000D01*
X98477000Y-129500000D01*
X98477000Y-115477000D01*
X149023001Y-115477000D01*
X149023000Y-149023000D01*
G37*
X149023000Y-149023000D02*
X98477000Y-149023000D01*
X98477000Y-129500000D01*
X102086144Y-129500000D01*
X102113503Y-129777781D01*
X102194529Y-130044886D01*
X102326107Y-130291052D01*
X102503182Y-130506818D01*
X102718948Y-130683893D01*
X102965114Y-130815471D01*
X103232219Y-130896497D01*
X103440390Y-130917000D01*
X105559610Y-130917000D01*
X105767781Y-130896497D01*
X106034886Y-130815471D01*
X106253400Y-130698673D01*
X106253401Y-133080934D01*
X102520000Y-133080934D01*
X102436293Y-133089178D01*
X102355804Y-133113595D01*
X102281624Y-133153245D01*
X102216605Y-133206605D01*
X102163245Y-133271624D01*
X102123595Y-133345804D01*
X102099178Y-133426293D01*
X102090934Y-133510000D01*
X102090934Y-135490000D01*
X102099178Y-135573707D01*
X102123595Y-135654196D01*
X102163245Y-135728376D01*
X102216605Y-135793395D01*
X102281624Y-135846755D01*
X102355804Y-135886405D01*
X102436293Y-135910822D01*
X102520000Y-135919066D01*
X105815689Y-135919066D01*
X104405409Y-137329346D01*
X104391789Y-137330688D01*
X104287737Y-137362252D01*
X104191842Y-137413509D01*
X104107789Y-137482489D01*
X104038809Y-137566542D01*
X103987552Y-137662437D01*
X103955988Y-137766489D01*
X103955550Y-137770934D01*
X103700000Y-137770934D01*
X103616293Y-137779178D01*
X103535804Y-137803595D01*
X103461624Y-137843245D01*
X103396605Y-137896605D01*
X103343245Y-137961624D01*
X103303595Y-138035804D01*
X103279178Y-138116293D01*
X103270934Y-138200000D01*
X103270934Y-139800000D01*
X103279178Y-139883707D01*
X103303595Y-139964196D01*
X103343245Y-140038376D01*
X103396605Y-140103395D01*
X103461624Y-140156755D01*
X103535804Y-140196405D01*
X103616293Y-140220822D01*
X103700000Y-140229066D01*
X105300000Y-140229066D01*
X105383707Y-140220822D01*
X105464196Y-140196405D01*
X105538376Y-140156755D01*
X105603395Y-140103395D01*
X105656755Y-140038376D01*
X105696405Y-139964196D01*
X105720822Y-139883707D01*
X105729066Y-139800000D01*
X105729066Y-138879151D01*
X108353000Y-138879151D01*
X108353000Y-139120849D01*
X108400153Y-139357903D01*
X108492647Y-139581202D01*
X108626927Y-139782167D01*
X108797833Y-139953073D01*
X108998798Y-140087353D01*
X109222097Y-140179847D01*
X109459151Y-140227000D01*
X109700849Y-140227000D01*
X109937903Y-140179847D01*
X110161202Y-140087353D01*
X110362167Y-139953073D01*
X110533073Y-139782167D01*
X110667353Y-139581202D01*
X110759847Y-139357903D01*
X110807000Y-139120849D01*
X110807000Y-138879151D01*
X110759847Y-138642097D01*
X110667353Y-138418798D01*
X110533073Y-138217833D01*
X110362167Y-138046927D01*
X110161202Y-137912647D01*
X110069540Y-137874679D01*
X143223000Y-137874679D01*
X143223000Y-138185321D01*
X143283604Y-138489994D01*
X143402481Y-138776989D01*
X143575064Y-139035279D01*
X143794721Y-139254936D01*
X144053011Y-139427519D01*
X144340006Y-139546396D01*
X144644679Y-139607000D01*
X144955321Y-139607000D01*
X145259994Y-139546396D01*
X145546989Y-139427519D01*
X145805279Y-139254936D01*
X146024936Y-139035279D01*
X146197519Y-138776989D01*
X146316396Y-138489994D01*
X146377000Y-138185321D01*
X146377000Y-137874679D01*
X146316396Y-137570006D01*
X146197519Y-137283011D01*
X146024936Y-137024721D01*
X145805279Y-136805064D01*
X145546989Y-136632481D01*
X145259994Y-136513604D01*
X144955321Y-136453000D01*
X144644679Y-136453000D01*
X144340006Y-136513604D01*
X144053011Y-136632481D01*
X143794721Y-136805064D01*
X143575064Y-137024721D01*
X143402481Y-137283011D01*
X143283604Y-137570006D01*
X143223000Y-137874679D01*
X110069540Y-137874679D01*
X109937903Y-137820153D01*
X109700849Y-137773000D01*
X109459151Y-137773000D01*
X109222097Y-137820153D01*
X108998798Y-137912647D01*
X108797833Y-138046927D01*
X108626927Y-138217833D01*
X108492647Y-138418798D01*
X108400153Y-138642097D01*
X108353000Y-138879151D01*
X105729066Y-138879151D01*
X105729066Y-138200000D01*
X105720822Y-138116293D01*
X105696405Y-138035804D01*
X105656755Y-137961624D01*
X105603395Y-137896605D01*
X105538376Y-137843245D01*
X105482608Y-137813436D01*
X107176554Y-136119492D01*
X107197611Y-136102211D01*
X107266591Y-136018158D01*
X107317848Y-135922263D01*
X107349412Y-135818211D01*
X107357400Y-135737109D01*
X107357400Y-135737107D01*
X107360070Y-135710001D01*
X107357400Y-135682895D01*
X107357400Y-132702648D01*
X116594600Y-132702648D01*
X116594600Y-132865552D01*
X116626382Y-133025327D01*
X116688723Y-133175831D01*
X116779228Y-133311281D01*
X116894419Y-133426472D01*
X117029869Y-133516977D01*
X117180373Y-133579318D01*
X117340148Y-133611100D01*
X117467955Y-133611100D01*
X118353408Y-134496554D01*
X118370689Y-134517611D01*
X118391745Y-134534891D01*
X118391746Y-134534892D01*
X118454742Y-134586591D01*
X118550637Y-134637848D01*
X118654689Y-134669412D01*
X118762900Y-134680070D01*
X118790008Y-134677400D01*
X139367494Y-134677400D01*
X139394600Y-134680070D01*
X139421706Y-134677400D01*
X139421709Y-134677400D01*
X139502811Y-134669412D01*
X139537386Y-134658924D01*
X139616682Y-134691769D01*
X139844076Y-134737000D01*
X140075924Y-134737000D01*
X140303318Y-134691769D01*
X140517519Y-134603044D01*
X140710294Y-134474236D01*
X140874236Y-134310294D01*
X141003044Y-134117519D01*
X141091769Y-133903318D01*
X141137000Y-133675924D01*
X141137000Y-133444076D01*
X141091769Y-133216682D01*
X141003044Y-133002481D01*
X140874236Y-132809706D01*
X140710294Y-132645764D01*
X140517519Y-132516956D01*
X140303318Y-132428231D01*
X140075924Y-132383000D01*
X139844076Y-132383000D01*
X139616682Y-132428231D01*
X139402481Y-132516956D01*
X139209706Y-132645764D01*
X139045764Y-132809706D01*
X138916956Y-133002481D01*
X138828231Y-133216682D01*
X138783000Y-133444076D01*
X138783000Y-133573400D01*
X123284066Y-133573400D01*
X123284066Y-130300000D01*
X123275822Y-130216293D01*
X123251405Y-130135804D01*
X123211755Y-130061624D01*
X123158395Y-129996605D01*
X123093376Y-129943245D01*
X123019196Y-129903595D01*
X122938707Y-129879178D01*
X122855000Y-129870934D01*
X120145000Y-129870934D01*
X120061293Y-129879178D01*
X119980804Y-129903595D01*
X119906624Y-129943245D01*
X119841605Y-129996605D01*
X119788245Y-130061624D01*
X119748595Y-130135804D01*
X119724178Y-130216293D01*
X119715934Y-130300000D01*
X119715934Y-133573400D01*
X118991546Y-133573400D01*
X118248600Y-132830455D01*
X118248600Y-132702648D01*
X118216818Y-132542873D01*
X118154477Y-132392369D01*
X118063972Y-132256919D01*
X117948781Y-132141728D01*
X117813331Y-132051223D01*
X117662827Y-131988882D01*
X117503052Y-131957100D01*
X117340148Y-131957100D01*
X117180373Y-131988882D01*
X117029869Y-132051223D01*
X116894419Y-132141728D01*
X116779228Y-132256919D01*
X116688723Y-132392369D01*
X116626382Y-132542873D01*
X116594600Y-132702648D01*
X107357400Y-132702648D01*
X107357400Y-129750000D01*
X141320934Y-129750000D01*
X141320934Y-131250000D01*
X141329178Y-131333707D01*
X141353595Y-131414196D01*
X141393245Y-131488376D01*
X141446605Y-131553395D01*
X141511624Y-131606755D01*
X141585804Y-131646405D01*
X141666293Y-131670822D01*
X141701209Y-131674261D01*
X141585764Y-131789706D01*
X141456956Y-131982481D01*
X141368231Y-132196682D01*
X141323000Y-132424076D01*
X141323000Y-132655924D01*
X141368231Y-132883318D01*
X141456956Y-133097519D01*
X141585764Y-133290294D01*
X141749706Y-133454236D01*
X141942481Y-133583044D01*
X142156682Y-133671769D01*
X142384076Y-133717000D01*
X142615924Y-133717000D01*
X142843318Y-133671769D01*
X143057519Y-133583044D01*
X143250294Y-133454236D01*
X143414236Y-133290294D01*
X143543044Y-133097519D01*
X143631769Y-132883318D01*
X143677000Y-132655924D01*
X143677000Y-132424076D01*
X143631769Y-132196682D01*
X143543044Y-131982481D01*
X143414236Y-131789706D01*
X143298791Y-131674261D01*
X143333707Y-131670822D01*
X143414196Y-131646405D01*
X143488376Y-131606755D01*
X143553395Y-131553395D01*
X143606755Y-131488376D01*
X143646405Y-131414196D01*
X143670822Y-131333707D01*
X143679066Y-131250000D01*
X143679066Y-129750000D01*
X143670822Y-129666293D01*
X143646405Y-129585804D01*
X143606755Y-129511624D01*
X143553395Y-129446605D01*
X143488376Y-129393245D01*
X143414196Y-129353595D01*
X143333707Y-129329178D01*
X143250000Y-129320934D01*
X141750000Y-129320934D01*
X141666293Y-129329178D01*
X141585804Y-129353595D01*
X141511624Y-129393245D01*
X141446605Y-129446605D01*
X141393245Y-129511624D01*
X141353595Y-129585804D01*
X141329178Y-129666293D01*
X141320934Y-129750000D01*
X107357400Y-129750000D01*
X107357400Y-127957806D01*
X107360070Y-127930700D01*
X107357400Y-127903591D01*
X107349412Y-127822489D01*
X107317848Y-127718437D01*
X107266591Y-127622542D01*
X107197611Y-127538489D01*
X107176549Y-127521204D01*
X105530024Y-125874679D01*
X143223000Y-125874679D01*
X143223000Y-126185321D01*
X143283604Y-126489994D01*
X143402481Y-126776989D01*
X143575064Y-127035279D01*
X143794721Y-127254936D01*
X144053011Y-127427519D01*
X144340006Y-127546396D01*
X144644679Y-127607000D01*
X144955321Y-127607000D01*
X145259994Y-127546396D01*
X145546989Y-127427519D01*
X145805279Y-127254936D01*
X146024936Y-127035279D01*
X146197519Y-126776989D01*
X146316396Y-126489994D01*
X146377000Y-126185321D01*
X146377000Y-125874679D01*
X146316396Y-125570006D01*
X146197519Y-125283011D01*
X146024936Y-125024721D01*
X145805279Y-124805064D01*
X145546989Y-124632481D01*
X145259994Y-124513604D01*
X144955321Y-124453000D01*
X144644679Y-124453000D01*
X144340006Y-124513604D01*
X144053011Y-124632481D01*
X143794721Y-124805064D01*
X143575064Y-125024721D01*
X143402481Y-125283011D01*
X143283604Y-125570006D01*
X143223000Y-125874679D01*
X105530024Y-125874679D01*
X105376842Y-125721498D01*
X105383707Y-125720822D01*
X105464196Y-125696405D01*
X105538376Y-125656755D01*
X105603395Y-125603395D01*
X105656755Y-125538376D01*
X105696405Y-125464196D01*
X105720822Y-125383707D01*
X105729066Y-125300000D01*
X105729066Y-124379151D01*
X108353000Y-124379151D01*
X108353000Y-124620849D01*
X108400153Y-124857903D01*
X108492647Y-125081202D01*
X108626927Y-125282167D01*
X108797833Y-125453073D01*
X108998798Y-125587353D01*
X109222097Y-125679847D01*
X109459151Y-125727000D01*
X109700849Y-125727000D01*
X109937903Y-125679847D01*
X110161202Y-125587353D01*
X110362167Y-125453073D01*
X110533073Y-125282167D01*
X110667353Y-125081202D01*
X110759847Y-124857903D01*
X110807000Y-124620849D01*
X110807000Y-124379151D01*
X110759847Y-124142097D01*
X110667353Y-123918798D01*
X110533073Y-123717833D01*
X110362167Y-123546927D01*
X110161202Y-123412647D01*
X109937903Y-123320153D01*
X109700849Y-123273000D01*
X109459151Y-123273000D01*
X109222097Y-123320153D01*
X108998798Y-123412647D01*
X108797833Y-123546927D01*
X108626927Y-123717833D01*
X108492647Y-123918798D01*
X108400153Y-124142097D01*
X108353000Y-124379151D01*
X105729066Y-124379151D01*
X105729066Y-123700000D01*
X105720822Y-123616293D01*
X105696405Y-123535804D01*
X105656755Y-123461624D01*
X105603395Y-123396605D01*
X105538376Y-123343245D01*
X105464196Y-123303595D01*
X105383707Y-123279178D01*
X105300000Y-123270934D01*
X103700000Y-123270934D01*
X103616293Y-123279178D01*
X103535804Y-123303595D01*
X103461624Y-123343245D01*
X103396605Y-123396605D01*
X103343245Y-123461624D01*
X103303595Y-123535804D01*
X103279178Y-123616293D01*
X103270934Y-123700000D01*
X103270934Y-125300000D01*
X103279178Y-125383707D01*
X103303595Y-125464196D01*
X103343245Y-125538376D01*
X103396605Y-125603395D01*
X103461624Y-125656755D01*
X103535804Y-125696405D01*
X103616293Y-125720822D01*
X103700000Y-125729066D01*
X103955551Y-125729066D01*
X103955989Y-125733510D01*
X103987552Y-125837562D01*
X104038809Y-125933457D01*
X104038810Y-125933458D01*
X104107790Y-126017511D01*
X104128852Y-126034796D01*
X106253400Y-128159345D01*
X106253400Y-128301327D01*
X106034886Y-128184529D01*
X105767781Y-128103503D01*
X105559610Y-128083000D01*
X103440390Y-128083000D01*
X103232219Y-128103503D01*
X102965114Y-128184529D01*
X102718948Y-128316107D01*
X102503182Y-128493182D01*
X102326107Y-128708948D01*
X102194529Y-128955114D01*
X102113503Y-129222219D01*
X102086144Y-129500000D01*
X98477000Y-129500000D01*
X98477000Y-115477000D01*
X149023001Y-115477000D01*
X149023000Y-149023000D01*
%TD*%
M02*
