M48
; DRILL file {KiCad 5.1.9-73d0e3b20d~88~ubuntu20.04.1} date Tue Apr 13 12:06:40 2021
; FORMAT={-:-/ absolute / metric / decimal}
; #@! TF.CreationDate,2021-04-13T12:06:40+02:00
; #@! TF.GenerationSoftware,Kicad,Pcbnew,5.1.9-73d0e3b20d~88~ubuntu20.04.1
; #@! TF.FileFunction,Plated,1,2,PTH
FMAT,2
METRIC
T1C0.400
T2C0.800
T3C0.900
T4C2.200
%
G90
G05
T1
X109.5Y-140.5
X116.0Y-127.0
X117.0Y-139.5
X120.887Y-132.618
X121.231Y-129.205
X123.0Y-135.5
X123.0Y-137.906
X129.095Y-131.365
X129.5Y-124.5
X130.5Y-137.0
X132.0Y-141.5
T2
X105.0Y-129.6
X105.0Y-134.5
T3
X139.96Y-131.52
X139.96Y-133.56
X142.5Y-130.5
X142.5Y-132.54
T4
X102.0Y-145.5
X102.5Y-121.5
X145.5Y-121.5
X145.5Y-145.0
T0
M30
