%TF.GenerationSoftware,KiCad,Pcbnew,5.1.6-c6e7f7d~87~ubuntu20.04.1*%
%TF.CreationDate,2020-08-01T21:45:28+02:00*%
%TF.ProjectId,piezo,7069657a-6f2e-46b6-9963-61645f706362,rev?*%
%TF.SameCoordinates,Original*%
%TF.FileFunction,Legend,Top*%
%TF.FilePolarity,Positive*%
%FSLAX46Y46*%
G04 Gerber Fmt 4.6, Leading zero omitted, Abs format (unit mm)*
G04 Created by KiCad (PCBNEW 5.1.6-c6e7f7d~87~ubuntu20.04.1) date 2020-08-01 21:45:28*
%MOMM*%
%LPD*%
G01*
G04 APERTURE LIST*
%ADD10C,0.150000*%
%ADD11C,0.120000*%
G04 APERTURE END LIST*
D10*
X110000000Y-148666666D02*
X110476190Y-148666666D01*
X109904761Y-148952380D02*
X110238095Y-147952380D01*
X110571428Y-148952380D01*
X110904761Y-148952380D02*
X110904761Y-148285714D01*
X110904761Y-148380952D02*
X110952380Y-148333333D01*
X111047619Y-148285714D01*
X111190476Y-148285714D01*
X111285714Y-148333333D01*
X111333333Y-148428571D01*
X111333333Y-148952380D01*
X111333333Y-148428571D02*
X111380952Y-148333333D01*
X111476190Y-148285714D01*
X111619047Y-148285714D01*
X111714285Y-148333333D01*
X111761904Y-148428571D01*
X111761904Y-148952380D01*
X112238095Y-148285714D02*
X112238095Y-149285714D01*
X112238095Y-148333333D02*
X112333333Y-148285714D01*
X112523809Y-148285714D01*
X112619047Y-148333333D01*
X112666666Y-148380952D01*
X112714285Y-148476190D01*
X112714285Y-148761904D01*
X112666666Y-148857142D01*
X112619047Y-148904761D01*
X112523809Y-148952380D01*
X112333333Y-148952380D01*
X112238095Y-148904761D01*
X113285714Y-148952380D02*
X113190476Y-148904761D01*
X113142857Y-148809523D01*
X113142857Y-147952380D01*
X113666666Y-148952380D02*
X113666666Y-148285714D01*
X113666666Y-147952380D02*
X113619047Y-148000000D01*
X113666666Y-148047619D01*
X113714285Y-148000000D01*
X113666666Y-147952380D01*
X113666666Y-148047619D01*
X114000000Y-148285714D02*
X114380952Y-148285714D01*
X114142857Y-148952380D02*
X114142857Y-148095238D01*
X114190476Y-148000000D01*
X114285714Y-147952380D01*
X114380952Y-147952380D01*
X114714285Y-148952380D02*
X114714285Y-148285714D01*
X114714285Y-147952380D02*
X114666666Y-148000000D01*
X114714285Y-148047619D01*
X114761904Y-148000000D01*
X114714285Y-147952380D01*
X114714285Y-148047619D01*
X115571428Y-148904761D02*
X115476190Y-148952380D01*
X115285714Y-148952380D01*
X115190476Y-148904761D01*
X115142857Y-148809523D01*
X115142857Y-148428571D01*
X115190476Y-148333333D01*
X115285714Y-148285714D01*
X115476190Y-148285714D01*
X115571428Y-148333333D01*
X115619047Y-148428571D01*
X115619047Y-148523809D01*
X115142857Y-148619047D01*
X116047619Y-148952380D02*
X116047619Y-148285714D01*
X116047619Y-148476190D02*
X116095238Y-148380952D01*
X116142857Y-148333333D01*
X116238095Y-148285714D01*
X116333333Y-148285714D01*
X117285714Y-148285714D02*
X117666666Y-148285714D01*
X117428571Y-148952380D02*
X117428571Y-148095238D01*
X117476190Y-148000000D01*
X117571428Y-147952380D01*
X117666666Y-147952380D01*
X118142857Y-148952380D02*
X118047619Y-148904761D01*
X118000000Y-148857142D01*
X117952380Y-148761904D01*
X117952380Y-148476190D01*
X118000000Y-148380952D01*
X118047619Y-148333333D01*
X118142857Y-148285714D01*
X118285714Y-148285714D01*
X118380952Y-148333333D01*
X118428571Y-148380952D01*
X118476190Y-148476190D01*
X118476190Y-148761904D01*
X118428571Y-148857142D01*
X118380952Y-148904761D01*
X118285714Y-148952380D01*
X118142857Y-148952380D01*
X118904761Y-148952380D02*
X118904761Y-148285714D01*
X118904761Y-148476190D02*
X118952380Y-148380952D01*
X119000000Y-148333333D01*
X119095238Y-148285714D01*
X119190476Y-148285714D01*
X120285714Y-148285714D02*
X120285714Y-149285714D01*
X120285714Y-148333333D02*
X120380952Y-148285714D01*
X120571428Y-148285714D01*
X120666666Y-148333333D01*
X120714285Y-148380952D01*
X120761904Y-148476190D01*
X120761904Y-148761904D01*
X120714285Y-148857142D01*
X120666666Y-148904761D01*
X120571428Y-148952380D01*
X120380952Y-148952380D01*
X120285714Y-148904761D01*
X121190476Y-148952380D02*
X121190476Y-148285714D01*
X121190476Y-147952380D02*
X121142857Y-148000000D01*
X121190476Y-148047619D01*
X121238095Y-148000000D01*
X121190476Y-147952380D01*
X121190476Y-148047619D01*
X122047619Y-148904761D02*
X121952380Y-148952380D01*
X121761904Y-148952380D01*
X121666666Y-148904761D01*
X121619047Y-148809523D01*
X121619047Y-148428571D01*
X121666666Y-148333333D01*
X121761904Y-148285714D01*
X121952380Y-148285714D01*
X122047619Y-148333333D01*
X122095238Y-148428571D01*
X122095238Y-148523809D01*
X121619047Y-148619047D01*
X122428571Y-148285714D02*
X122952380Y-148285714D01*
X122428571Y-148952380D01*
X122952380Y-148952380D01*
X123476190Y-148952380D02*
X123380952Y-148904761D01*
X123333333Y-148857142D01*
X123285714Y-148761904D01*
X123285714Y-148476190D01*
X123333333Y-148380952D01*
X123380952Y-148333333D01*
X123476190Y-148285714D01*
X123619047Y-148285714D01*
X123714285Y-148333333D01*
X123761904Y-148380952D01*
X123809523Y-148476190D01*
X123809523Y-148761904D01*
X123761904Y-148857142D01*
X123714285Y-148904761D01*
X123619047Y-148952380D01*
X123476190Y-148952380D01*
X125380952Y-148904761D02*
X125285714Y-148952380D01*
X125095238Y-148952380D01*
X125000000Y-148904761D01*
X124952380Y-148809523D01*
X124952380Y-148428571D01*
X125000000Y-148333333D01*
X125095238Y-148285714D01*
X125285714Y-148285714D01*
X125380952Y-148333333D01*
X125428571Y-148428571D01*
X125428571Y-148523809D01*
X124952380Y-148619047D01*
X126000000Y-148952380D02*
X125904761Y-148904761D01*
X125857142Y-148809523D01*
X125857142Y-147952380D01*
X126761904Y-148904761D02*
X126666666Y-148952380D01*
X126476190Y-148952380D01*
X126380952Y-148904761D01*
X126333333Y-148809523D01*
X126333333Y-148428571D01*
X126380952Y-148333333D01*
X126476190Y-148285714D01*
X126666666Y-148285714D01*
X126761904Y-148333333D01*
X126809523Y-148428571D01*
X126809523Y-148523809D01*
X126333333Y-148619047D01*
X127666666Y-148904761D02*
X127571428Y-148952380D01*
X127380952Y-148952380D01*
X127285714Y-148904761D01*
X127238095Y-148857142D01*
X127190476Y-148761904D01*
X127190476Y-148476190D01*
X127238095Y-148380952D01*
X127285714Y-148333333D01*
X127380952Y-148285714D01*
X127571428Y-148285714D01*
X127666666Y-148333333D01*
X127952380Y-148285714D02*
X128333333Y-148285714D01*
X128095238Y-147952380D02*
X128095238Y-148809523D01*
X128142857Y-148904761D01*
X128238095Y-148952380D01*
X128333333Y-148952380D01*
X128666666Y-148952380D02*
X128666666Y-148285714D01*
X128666666Y-148476190D02*
X128714285Y-148380952D01*
X128761904Y-148333333D01*
X128857142Y-148285714D01*
X128952380Y-148285714D01*
X129285714Y-148952380D02*
X129285714Y-148285714D01*
X129285714Y-147952380D02*
X129238095Y-148000000D01*
X129285714Y-148047619D01*
X129333333Y-148000000D01*
X129285714Y-147952380D01*
X129285714Y-148047619D01*
X130190476Y-148904761D02*
X130095238Y-148952380D01*
X129904761Y-148952380D01*
X129809523Y-148904761D01*
X129761904Y-148857142D01*
X129714285Y-148761904D01*
X129714285Y-148476190D01*
X129761904Y-148380952D01*
X129809523Y-148333333D01*
X129904761Y-148285714D01*
X130095238Y-148285714D01*
X130190476Y-148333333D01*
X131809523Y-148904761D02*
X131714285Y-148952380D01*
X131523809Y-148952380D01*
X131428571Y-148904761D01*
X131380952Y-148857142D01*
X131333333Y-148761904D01*
X131333333Y-148476190D01*
X131380952Y-148380952D01*
X131428571Y-148333333D01*
X131523809Y-148285714D01*
X131714285Y-148285714D01*
X131809523Y-148333333D01*
X132238095Y-148952380D02*
X132238095Y-148285714D01*
X132238095Y-148476190D02*
X132285714Y-148380952D01*
X132333333Y-148333333D01*
X132428571Y-148285714D01*
X132523809Y-148285714D01*
X132761904Y-148285714D02*
X133000000Y-148952380D01*
X133238095Y-148285714D02*
X133000000Y-148952380D01*
X132904761Y-149190476D01*
X132857142Y-149238095D01*
X132761904Y-149285714D01*
X133571428Y-148904761D02*
X133666666Y-148952380D01*
X133857142Y-148952380D01*
X133952380Y-148904761D01*
X134000000Y-148809523D01*
X134000000Y-148761904D01*
X133952380Y-148666666D01*
X133857142Y-148619047D01*
X133714285Y-148619047D01*
X133619047Y-148571428D01*
X133571428Y-148476190D01*
X133571428Y-148428571D01*
X133619047Y-148333333D01*
X133714285Y-148285714D01*
X133857142Y-148285714D01*
X133952380Y-148333333D01*
X134285714Y-148285714D02*
X134666666Y-148285714D01*
X134428571Y-147952380D02*
X134428571Y-148809523D01*
X134476190Y-148904761D01*
X134571428Y-148952380D01*
X134666666Y-148952380D01*
X135428571Y-148952380D02*
X135428571Y-148428571D01*
X135380952Y-148333333D01*
X135285714Y-148285714D01*
X135095238Y-148285714D01*
X135000000Y-148333333D01*
X135428571Y-148904761D02*
X135333333Y-148952380D01*
X135095238Y-148952380D01*
X135000000Y-148904761D01*
X134952380Y-148809523D01*
X134952380Y-148714285D01*
X135000000Y-148619047D01*
X135095238Y-148571428D01*
X135333333Y-148571428D01*
X135428571Y-148523809D01*
X136047619Y-148952380D02*
X135952380Y-148904761D01*
X135904761Y-148809523D01*
X135904761Y-147952380D01*
X100452380Y-133952380D02*
X99452380Y-133952380D01*
X99452380Y-133571428D01*
X99500000Y-133476190D01*
X99547619Y-133428571D01*
X99642857Y-133380952D01*
X99785714Y-133380952D01*
X99880952Y-133428571D01*
X99928571Y-133476190D01*
X99976190Y-133571428D01*
X99976190Y-133952380D01*
X100452380Y-132952380D02*
X99452380Y-132952380D01*
X99928571Y-132476190D02*
X99928571Y-132142857D01*
X100452380Y-132000000D02*
X100452380Y-132476190D01*
X99452380Y-132476190D01*
X99452380Y-132000000D01*
X99452380Y-131666666D02*
X99452380Y-131000000D01*
X100452380Y-131666666D01*
X100452380Y-131000000D01*
X99452380Y-130428571D02*
X99452380Y-130238095D01*
X99500000Y-130142857D01*
X99595238Y-130047619D01*
X99785714Y-130000000D01*
X100119047Y-130000000D01*
X100309523Y-130047619D01*
X100404761Y-130142857D01*
X100452380Y-130238095D01*
X100452380Y-130428571D01*
X100404761Y-130523809D01*
X100309523Y-130619047D01*
X100119047Y-130666666D01*
X99785714Y-130666666D01*
X99595238Y-130619047D01*
X99500000Y-130523809D01*
X99452380Y-130428571D01*
D11*
%TO.C,U1*%
X125475000Y-133905000D02*
X124675000Y-134705000D01*
X124675000Y-134705000D02*
X117525000Y-134705000D01*
X117525000Y-134705000D02*
X117525000Y-129295000D01*
X117525000Y-129295000D02*
X125475000Y-129295000D01*
X125475000Y-129295000D02*
X125475000Y-133905000D01*
%TO.C,C1*%
X136112500Y-137997500D02*
X136112500Y-137372500D01*
X136425000Y-137685000D02*
X135800000Y-137685000D01*
X135560000Y-134304437D02*
X134495563Y-133240000D01*
X135560000Y-137695563D02*
X134495563Y-138760000D01*
X135560000Y-137695563D02*
X135560000Y-137060000D01*
X135560000Y-134304437D02*
X135560000Y-134940000D01*
X134495563Y-133240000D02*
X130040000Y-133240000D01*
X134495563Y-138760000D02*
X130040000Y-138760000D01*
X130040000Y-138760000D02*
X130040000Y-137060000D01*
X130040000Y-133240000D02*
X130040000Y-134940000D01*
%TO.C,J5*%
X137600000Y-138230000D02*
X137600000Y-125830000D01*
X137600000Y-125830000D02*
X143070000Y-125830000D01*
X151000000Y-125830000D02*
X146530000Y-125830000D01*
X151000000Y-125830000D02*
X151000000Y-138230000D01*
X151000000Y-138230000D02*
X146530000Y-138230000D01*
X143070000Y-138230000D02*
X137600000Y-138230000D01*
X143000000Y-125220000D02*
X142500000Y-125720000D01*
X142500000Y-125720000D02*
X142000000Y-125220000D01*
X142000000Y-125220000D02*
X143000000Y-125220000D01*
%TO.C,C2*%
X130040000Y-125240000D02*
X130040000Y-126940000D01*
X130040000Y-130760000D02*
X130040000Y-129060000D01*
X134495563Y-130760000D02*
X130040000Y-130760000D01*
X134495563Y-125240000D02*
X130040000Y-125240000D01*
X135560000Y-126304437D02*
X135560000Y-126940000D01*
X135560000Y-129695563D02*
X135560000Y-129060000D01*
X135560000Y-129695563D02*
X134495563Y-130760000D01*
X135560000Y-126304437D02*
X134495563Y-125240000D01*
X136425000Y-129685000D02*
X135800000Y-129685000D01*
X136112500Y-129997500D02*
X136112500Y-129372500D01*
%TO.C,C3*%
X133887500Y-141502500D02*
X133887500Y-142127500D01*
X133575000Y-141815000D02*
X134200000Y-141815000D01*
X134440000Y-145195563D02*
X135504437Y-146260000D01*
X134440000Y-141804437D02*
X135504437Y-140740000D01*
X134440000Y-141804437D02*
X134440000Y-142440000D01*
X134440000Y-145195563D02*
X134440000Y-144560000D01*
X135504437Y-146260000D02*
X139960000Y-146260000D01*
X135504437Y-140740000D02*
X139960000Y-140740000D01*
X139960000Y-140740000D02*
X139960000Y-142440000D01*
X139960000Y-146260000D02*
X139960000Y-144560000D01*
%TO.C,C4*%
X116760000Y-129540000D02*
X115060000Y-129540000D01*
X111240000Y-129540000D02*
X112940000Y-129540000D01*
X111240000Y-133995563D02*
X111240000Y-129540000D01*
X116760000Y-133995563D02*
X116760000Y-129540000D01*
X115695563Y-135060000D02*
X115060000Y-135060000D01*
X112304437Y-135060000D02*
X112940000Y-135060000D01*
X112304437Y-135060000D02*
X111240000Y-133995563D01*
X115695563Y-135060000D02*
X116760000Y-133995563D01*
X112315000Y-135925000D02*
X112315000Y-135300000D01*
X112002500Y-135612500D02*
X112627500Y-135612500D01*
%TO.C,C5*%
X135487500Y-119002500D02*
X135487500Y-119627500D01*
X135175000Y-119315000D02*
X135800000Y-119315000D01*
X136040000Y-122695563D02*
X137104437Y-123760000D01*
X136040000Y-119304437D02*
X137104437Y-118240000D01*
X136040000Y-119304437D02*
X136040000Y-119940000D01*
X136040000Y-122695563D02*
X136040000Y-122060000D01*
X137104437Y-123760000D02*
X141560000Y-123760000D01*
X137104437Y-118240000D02*
X141560000Y-118240000D01*
X141560000Y-118240000D02*
X141560000Y-119940000D01*
X141560000Y-123760000D02*
X141560000Y-122060000D01*
%TO.C,R1*%
X116611252Y-138090000D02*
X114388748Y-138090000D01*
X116611252Y-139910000D02*
X114388748Y-139910000D01*
%TO.C,R2*%
X116523252Y-125410000D02*
X114300748Y-125410000D01*
X116523252Y-123590000D02*
X114300748Y-123590000D01*
%TO.C,R3*%
X123699252Y-138090000D02*
X121476748Y-138090000D01*
X123699252Y-139910000D02*
X121476748Y-139910000D01*
%TO.C,R4*%
X123699252Y-125410000D02*
X121476748Y-125410000D01*
X123699252Y-123590000D02*
X121476748Y-123590000D01*
%TO.C,R5*%
X128410000Y-136199252D02*
X128410000Y-133976748D01*
X126590000Y-136199252D02*
X126590000Y-133976748D01*
%TO.C,R6*%
X126590000Y-129523252D02*
X126590000Y-127300748D01*
X128410000Y-129523252D02*
X128410000Y-127300748D01*
%TO.C,X1*%
X98200000Y-137150000D02*
X110800000Y-137150000D01*
X110800000Y-137150000D02*
X110800000Y-126800000D01*
X110800000Y-126800000D02*
X109850000Y-126800000D01*
X109850000Y-126800000D02*
X110100000Y-126300000D01*
X110100000Y-126300000D02*
X108200000Y-126300000D01*
X108200000Y-126300000D02*
X108150000Y-126300000D01*
X108150000Y-126300000D02*
X108400000Y-126800000D01*
X108400000Y-126800000D02*
X103000000Y-126800000D01*
X103000000Y-126800000D02*
X103300000Y-126300000D01*
X103300000Y-126300000D02*
X98200000Y-126300000D01*
X98200000Y-126300000D02*
X98200000Y-137150000D01*
%TO.C,D1*%
X110906371Y-139000000D02*
G75*
G03*
X110906371Y-139000000I-1326371J0D01*
G01*
X108253629Y-139000000D02*
X105600000Y-139000000D01*
%TO.C,D2*%
X108253629Y-124500000D02*
X105600000Y-124500000D01*
X110906371Y-124500000D02*
G75*
G03*
X110906371Y-124500000I-1326371J0D01*
G01*
%TO.C,U1*%
D10*
X120738095Y-135157380D02*
X120738095Y-135966904D01*
X120785714Y-136062142D01*
X120833333Y-136109761D01*
X120928571Y-136157380D01*
X121119047Y-136157380D01*
X121214285Y-136109761D01*
X121261904Y-136062142D01*
X121309523Y-135966904D01*
X121309523Y-135157380D01*
X122309523Y-136157380D02*
X121738095Y-136157380D01*
X122023809Y-136157380D02*
X122023809Y-135157380D01*
X121928571Y-135300238D01*
X121833333Y-135395476D01*
X121738095Y-135443095D01*
%TO.C,C1*%
X132633333Y-140057142D02*
X132585714Y-140104761D01*
X132442857Y-140152380D01*
X132347619Y-140152380D01*
X132204761Y-140104761D01*
X132109523Y-140009523D01*
X132061904Y-139914285D01*
X132014285Y-139723809D01*
X132014285Y-139580952D01*
X132061904Y-139390476D01*
X132109523Y-139295238D01*
X132204761Y-139200000D01*
X132347619Y-139152380D01*
X132442857Y-139152380D01*
X132585714Y-139200000D01*
X132633333Y-139247619D01*
X133585714Y-140152380D02*
X133014285Y-140152380D01*
X133300000Y-140152380D02*
X133300000Y-139152380D01*
X133204761Y-139295238D01*
X133109523Y-139390476D01*
X133014285Y-139438095D01*
%TO.C,J5*%
X146952380Y-131833333D02*
X147666666Y-131833333D01*
X147809523Y-131880952D01*
X147904761Y-131976190D01*
X147952380Y-132119047D01*
X147952380Y-132214285D01*
X146952380Y-130880952D02*
X146952380Y-131357142D01*
X147428571Y-131404761D01*
X147380952Y-131357142D01*
X147333333Y-131261904D01*
X147333333Y-131023809D01*
X147380952Y-130928571D01*
X147428571Y-130880952D01*
X147523809Y-130833333D01*
X147761904Y-130833333D01*
X147857142Y-130880952D01*
X147904761Y-130928571D01*
X147952380Y-131023809D01*
X147952380Y-131261904D01*
X147904761Y-131357142D01*
X147857142Y-131404761D01*
%TO.C,J1*%
X145166666Y-115552380D02*
X145166666Y-116266666D01*
X145119047Y-116409523D01*
X145023809Y-116504761D01*
X144880952Y-116552380D01*
X144785714Y-116552380D01*
X146166666Y-116552380D02*
X145595238Y-116552380D01*
X145880952Y-116552380D02*
X145880952Y-115552380D01*
X145785714Y-115695238D01*
X145690476Y-115790476D01*
X145595238Y-115838095D01*
%TO.C,J2*%
X145166666Y-142052380D02*
X145166666Y-142766666D01*
X145119047Y-142909523D01*
X145023809Y-143004761D01*
X144880952Y-143052380D01*
X144785714Y-143052380D01*
X145595238Y-142147619D02*
X145642857Y-142100000D01*
X145738095Y-142052380D01*
X145976190Y-142052380D01*
X146071428Y-142100000D01*
X146119047Y-142147619D01*
X146166666Y-142242857D01*
X146166666Y-142338095D01*
X146119047Y-142480952D01*
X145547619Y-143052380D01*
X146166666Y-143052380D01*
%TO.C,J3*%
X101666666Y-115552380D02*
X101666666Y-116266666D01*
X101619047Y-116409523D01*
X101523809Y-116504761D01*
X101380952Y-116552380D01*
X101285714Y-116552380D01*
X102047619Y-115552380D02*
X102666666Y-115552380D01*
X102333333Y-115933333D01*
X102476190Y-115933333D01*
X102571428Y-115980952D01*
X102619047Y-116028571D01*
X102666666Y-116123809D01*
X102666666Y-116361904D01*
X102619047Y-116457142D01*
X102571428Y-116504761D01*
X102476190Y-116552380D01*
X102190476Y-116552380D01*
X102095238Y-116504761D01*
X102047619Y-116457142D01*
%TO.C,J4*%
X101666666Y-142052380D02*
X101666666Y-142766666D01*
X101619047Y-142909523D01*
X101523809Y-143004761D01*
X101380952Y-143052380D01*
X101285714Y-143052380D01*
X102571428Y-142385714D02*
X102571428Y-143052380D01*
X102333333Y-142004761D02*
X102095238Y-142719047D01*
X102714285Y-142719047D01*
%TO.C,C2*%
X132633333Y-132057142D02*
X132585714Y-132104761D01*
X132442857Y-132152380D01*
X132347619Y-132152380D01*
X132204761Y-132104761D01*
X132109523Y-132009523D01*
X132061904Y-131914285D01*
X132014285Y-131723809D01*
X132014285Y-131580952D01*
X132061904Y-131390476D01*
X132109523Y-131295238D01*
X132204761Y-131200000D01*
X132347619Y-131152380D01*
X132442857Y-131152380D01*
X132585714Y-131200000D01*
X132633333Y-131247619D01*
X133014285Y-131247619D02*
X133061904Y-131200000D01*
X133157142Y-131152380D01*
X133395238Y-131152380D01*
X133490476Y-131200000D01*
X133538095Y-131247619D01*
X133585714Y-131342857D01*
X133585714Y-131438095D01*
X133538095Y-131580952D01*
X132966666Y-132152380D01*
X133585714Y-132152380D01*
%TO.C,C3*%
X137033333Y-140157142D02*
X136985714Y-140204761D01*
X136842857Y-140252380D01*
X136747619Y-140252380D01*
X136604761Y-140204761D01*
X136509523Y-140109523D01*
X136461904Y-140014285D01*
X136414285Y-139823809D01*
X136414285Y-139680952D01*
X136461904Y-139490476D01*
X136509523Y-139395238D01*
X136604761Y-139300000D01*
X136747619Y-139252380D01*
X136842857Y-139252380D01*
X136985714Y-139300000D01*
X137033333Y-139347619D01*
X137366666Y-139252380D02*
X137985714Y-139252380D01*
X137652380Y-139633333D01*
X137795238Y-139633333D01*
X137890476Y-139680952D01*
X137938095Y-139728571D01*
X137985714Y-139823809D01*
X137985714Y-140061904D01*
X137938095Y-140157142D01*
X137890476Y-140204761D01*
X137795238Y-140252380D01*
X137509523Y-140252380D01*
X137414285Y-140204761D01*
X137366666Y-140157142D01*
%TO.C,C4*%
X110657142Y-132466666D02*
X110704761Y-132514285D01*
X110752380Y-132657142D01*
X110752380Y-132752380D01*
X110704761Y-132895238D01*
X110609523Y-132990476D01*
X110514285Y-133038095D01*
X110323809Y-133085714D01*
X110180952Y-133085714D01*
X109990476Y-133038095D01*
X109895238Y-132990476D01*
X109800000Y-132895238D01*
X109752380Y-132752380D01*
X109752380Y-132657142D01*
X109800000Y-132514285D01*
X109847619Y-132466666D01*
X110085714Y-131609523D02*
X110752380Y-131609523D01*
X109704761Y-131847619D02*
X110419047Y-132085714D01*
X110419047Y-131466666D01*
%TO.C,C5*%
X138633333Y-117657142D02*
X138585714Y-117704761D01*
X138442857Y-117752380D01*
X138347619Y-117752380D01*
X138204761Y-117704761D01*
X138109523Y-117609523D01*
X138061904Y-117514285D01*
X138014285Y-117323809D01*
X138014285Y-117180952D01*
X138061904Y-116990476D01*
X138109523Y-116895238D01*
X138204761Y-116800000D01*
X138347619Y-116752380D01*
X138442857Y-116752380D01*
X138585714Y-116800000D01*
X138633333Y-116847619D01*
X139538095Y-116752380D02*
X139061904Y-116752380D01*
X139014285Y-117228571D01*
X139061904Y-117180952D01*
X139157142Y-117133333D01*
X139395238Y-117133333D01*
X139490476Y-117180952D01*
X139538095Y-117228571D01*
X139585714Y-117323809D01*
X139585714Y-117561904D01*
X139538095Y-117657142D01*
X139490476Y-117704761D01*
X139395238Y-117752380D01*
X139157142Y-117752380D01*
X139061904Y-117704761D01*
X139014285Y-117657142D01*
%TO.C,R1*%
X115333333Y-141302380D02*
X115000000Y-140826190D01*
X114761904Y-141302380D02*
X114761904Y-140302380D01*
X115142857Y-140302380D01*
X115238095Y-140350000D01*
X115285714Y-140397619D01*
X115333333Y-140492857D01*
X115333333Y-140635714D01*
X115285714Y-140730952D01*
X115238095Y-140778571D01*
X115142857Y-140826190D01*
X114761904Y-140826190D01*
X116285714Y-141302380D02*
X115714285Y-141302380D01*
X116000000Y-141302380D02*
X116000000Y-140302380D01*
X115904761Y-140445238D01*
X115809523Y-140540476D01*
X115714285Y-140588095D01*
%TO.C,R2*%
X115245333Y-126802380D02*
X114912000Y-126326190D01*
X114673904Y-126802380D02*
X114673904Y-125802380D01*
X115054857Y-125802380D01*
X115150095Y-125850000D01*
X115197714Y-125897619D01*
X115245333Y-125992857D01*
X115245333Y-126135714D01*
X115197714Y-126230952D01*
X115150095Y-126278571D01*
X115054857Y-126326190D01*
X114673904Y-126326190D01*
X115626285Y-125897619D02*
X115673904Y-125850000D01*
X115769142Y-125802380D01*
X116007238Y-125802380D01*
X116102476Y-125850000D01*
X116150095Y-125897619D01*
X116197714Y-125992857D01*
X116197714Y-126088095D01*
X116150095Y-126230952D01*
X115578666Y-126802380D01*
X116197714Y-126802380D01*
%TO.C,R3*%
X122421333Y-141302380D02*
X122088000Y-140826190D01*
X121849904Y-141302380D02*
X121849904Y-140302380D01*
X122230857Y-140302380D01*
X122326095Y-140350000D01*
X122373714Y-140397619D01*
X122421333Y-140492857D01*
X122421333Y-140635714D01*
X122373714Y-140730952D01*
X122326095Y-140778571D01*
X122230857Y-140826190D01*
X121849904Y-140826190D01*
X122754666Y-140302380D02*
X123373714Y-140302380D01*
X123040380Y-140683333D01*
X123183238Y-140683333D01*
X123278476Y-140730952D01*
X123326095Y-140778571D01*
X123373714Y-140873809D01*
X123373714Y-141111904D01*
X123326095Y-141207142D01*
X123278476Y-141254761D01*
X123183238Y-141302380D01*
X122897523Y-141302380D01*
X122802285Y-141254761D01*
X122754666Y-141207142D01*
%TO.C,R4*%
X122421333Y-126802380D02*
X122088000Y-126326190D01*
X121849904Y-126802380D02*
X121849904Y-125802380D01*
X122230857Y-125802380D01*
X122326095Y-125850000D01*
X122373714Y-125897619D01*
X122421333Y-125992857D01*
X122421333Y-126135714D01*
X122373714Y-126230952D01*
X122326095Y-126278571D01*
X122230857Y-126326190D01*
X121849904Y-126326190D01*
X123278476Y-126135714D02*
X123278476Y-126802380D01*
X123040380Y-125754761D02*
X122802285Y-126469047D01*
X123421333Y-126469047D01*
%TO.C,R5*%
X126102380Y-135254666D02*
X125626190Y-135588000D01*
X126102380Y-135826095D02*
X125102380Y-135826095D01*
X125102380Y-135445142D01*
X125150000Y-135349904D01*
X125197619Y-135302285D01*
X125292857Y-135254666D01*
X125435714Y-135254666D01*
X125530952Y-135302285D01*
X125578571Y-135349904D01*
X125626190Y-135445142D01*
X125626190Y-135826095D01*
X125102380Y-134349904D02*
X125102380Y-134826095D01*
X125578571Y-134873714D01*
X125530952Y-134826095D01*
X125483333Y-134730857D01*
X125483333Y-134492761D01*
X125530952Y-134397523D01*
X125578571Y-134349904D01*
X125673809Y-134302285D01*
X125911904Y-134302285D01*
X126007142Y-134349904D01*
X126054761Y-134397523D01*
X126102380Y-134492761D01*
X126102380Y-134730857D01*
X126054761Y-134826095D01*
X126007142Y-134873714D01*
%TO.C,R6*%
X126102380Y-128578666D02*
X125626190Y-128912000D01*
X126102380Y-129150095D02*
X125102380Y-129150095D01*
X125102380Y-128769142D01*
X125150000Y-128673904D01*
X125197619Y-128626285D01*
X125292857Y-128578666D01*
X125435714Y-128578666D01*
X125530952Y-128626285D01*
X125578571Y-128673904D01*
X125626190Y-128769142D01*
X125626190Y-129150095D01*
X125102380Y-127721523D02*
X125102380Y-127912000D01*
X125150000Y-128007238D01*
X125197619Y-128054857D01*
X125340476Y-128150095D01*
X125530952Y-128197714D01*
X125911904Y-128197714D01*
X126007142Y-128150095D01*
X126054761Y-128102476D01*
X126102380Y-128007238D01*
X126102380Y-127816761D01*
X126054761Y-127721523D01*
X126007142Y-127673904D01*
X125911904Y-127626285D01*
X125673809Y-127626285D01*
X125578571Y-127673904D01*
X125530952Y-127721523D01*
X125483333Y-127816761D01*
X125483333Y-128007238D01*
X125530952Y-128102476D01*
X125578571Y-128150095D01*
X125673809Y-128197714D01*
%TO.C,X1*%
X96962380Y-137229523D02*
X97962380Y-136562857D01*
X96962380Y-136562857D02*
X97962380Y-137229523D01*
X97962380Y-135658095D02*
X97962380Y-136229523D01*
X97962380Y-135943809D02*
X96962380Y-135943809D01*
X97105238Y-136039047D01*
X97200476Y-136134285D01*
X97248095Y-136229523D01*
%TO.C,D1*%
X106301904Y-137126009D02*
X106301904Y-136126009D01*
X106540000Y-136126009D01*
X106682857Y-136173629D01*
X106778095Y-136268867D01*
X106825714Y-136364105D01*
X106873333Y-136554581D01*
X106873333Y-136697438D01*
X106825714Y-136887914D01*
X106778095Y-136983152D01*
X106682857Y-137078390D01*
X106540000Y-137126009D01*
X106301904Y-137126009D01*
X107825714Y-137126009D02*
X107254285Y-137126009D01*
X107540000Y-137126009D02*
X107540000Y-136126009D01*
X107444761Y-136268867D01*
X107349523Y-136364105D01*
X107254285Y-136411724D01*
X105738095Y-140252380D02*
X105738095Y-139252380D01*
X106309523Y-140252380D02*
X105880952Y-139680952D01*
X106309523Y-139252380D02*
X105738095Y-139823809D01*
%TO.C,D2*%
X106301904Y-122626009D02*
X106301904Y-121626009D01*
X106540000Y-121626009D01*
X106682857Y-121673629D01*
X106778095Y-121768867D01*
X106825714Y-121864105D01*
X106873333Y-122054581D01*
X106873333Y-122197438D01*
X106825714Y-122387914D01*
X106778095Y-122483152D01*
X106682857Y-122578390D01*
X106540000Y-122626009D01*
X106301904Y-122626009D01*
X107254285Y-121721248D02*
X107301904Y-121673629D01*
X107397142Y-121626009D01*
X107635238Y-121626009D01*
X107730476Y-121673629D01*
X107778095Y-121721248D01*
X107825714Y-121816486D01*
X107825714Y-121911724D01*
X107778095Y-122054581D01*
X107206666Y-122626009D01*
X107825714Y-122626009D01*
X105738095Y-125752380D02*
X105738095Y-124752380D01*
X106309523Y-125752380D02*
X105880952Y-125180952D01*
X106309523Y-124752380D02*
X105738095Y-125323809D01*
%TD*%
M02*
