%TF.GenerationSoftware,KiCad,Pcbnew,5.1.9*%
%TF.CreationDate,2021-04-12T10:51:11+02:00*%
%TF.ProjectId,piezo,7069657a-6f2e-46b6-9963-61645f706362,rev?*%
%TF.SameCoordinates,Original*%
%TF.FileFunction,Copper,L2,Bot*%
%TF.FilePolarity,Positive*%
%FSLAX46Y46*%
G04 Gerber Fmt 4.6, Leading zero omitted, Abs format (unit mm)*
G04 Created by KiCad (PCBNEW 5.1.9) date 2021-04-12 10:51:11*
%MOMM*%
%LPD*%
G01*
G04 APERTURE LIST*
%TA.AperFunction,ComponentPad*%
%ADD10C,1.500000*%
%TD*%
%TA.AperFunction,ComponentPad*%
%ADD11R,1.500000X1.500000*%
%TD*%
%TA.AperFunction,ComponentPad*%
%ADD12C,3.800000*%
%TD*%
%TA.AperFunction,ViaPad*%
%ADD13C,0.800000*%
%TD*%
%TA.AperFunction,Conductor*%
%ADD14C,0.250000*%
%TD*%
%TA.AperFunction,Conductor*%
%ADD15C,0.254000*%
%TD*%
%TA.AperFunction,Conductor*%
%ADD16C,0.100000*%
%TD*%
G04 APERTURE END LIST*
D10*
%TO.P,X1,1*%
%TO.N,Net-(D1-Pad2)*%
X105000000Y-134500000D03*
%TO.P,X1,2*%
%TO.N,GND*%
X105000000Y-129600000D03*
%TD*%
D11*
%TO.P,J1,1*%
%TO.N,Net-(C4-Pad1)*%
X142500000Y-130500000D03*
D10*
%TO.P,J1,2*%
%TO.N,GND*%
X139960000Y-131520000D03*
%TO.P,J1,3*%
%TO.N,Net-(J1-Pad3)*%
X142500000Y-132540000D03*
%TO.P,J1,4*%
%TO.N,VCC*%
X139960000Y-133560000D03*
%TD*%
D12*
%TO.P,J2,1*%
%TO.N,GND*%
X145500000Y-121500000D03*
%TD*%
%TO.P,J3,1*%
%TO.N,GND*%
X145500000Y-145000000D03*
%TD*%
%TO.P,J4,1*%
%TO.N,GND*%
X102500000Y-121500000D03*
%TD*%
%TO.P,J5,1*%
%TO.N,GND*%
X102000000Y-145500000D03*
%TD*%
D13*
%TO.N,GND*%
X136000000Y-133500000D03*
X121000000Y-134500000D03*
X116000000Y-126000000D03*
%TO.N,VCC*%
X120267500Y-137592800D03*
X124864500Y-137749500D03*
%TD*%
D14*
%TO.N,VCC*%
X124864500Y-137749500D02*
X120424200Y-137749500D01*
X120424200Y-137749500D02*
X120267500Y-137592800D01*
X139960000Y-133560000D02*
X135770500Y-137749500D01*
X135770500Y-137749500D02*
X124864500Y-137749500D01*
%TD*%
D15*
%TO.N,GND*%
X148815000Y-123533646D02*
X148815001Y-123533656D01*
X148815000Y-148815000D01*
X98685000Y-148815000D01*
X98685000Y-137490861D01*
X119232500Y-137490861D01*
X119232500Y-137694739D01*
X119272274Y-137894698D01*
X119350295Y-138083056D01*
X119463563Y-138252574D01*
X119607726Y-138396737D01*
X119777244Y-138510005D01*
X119965602Y-138588026D01*
X120165561Y-138627800D01*
X120369439Y-138627800D01*
X120569398Y-138588026D01*
X120757756Y-138510005D01*
X120758512Y-138509500D01*
X124160789Y-138509500D01*
X124204726Y-138553437D01*
X124374244Y-138666705D01*
X124562602Y-138744726D01*
X124762561Y-138784500D01*
X124966439Y-138784500D01*
X125166398Y-138744726D01*
X125354756Y-138666705D01*
X125524274Y-138553437D01*
X125568211Y-138509500D01*
X135733178Y-138509500D01*
X135770500Y-138513176D01*
X135807822Y-138509500D01*
X135807833Y-138509500D01*
X135919486Y-138498503D01*
X136062747Y-138455046D01*
X136194776Y-138384474D01*
X136310501Y-138289501D01*
X136334304Y-138260497D01*
X136740608Y-137854193D01*
X143015000Y-137854193D01*
X143015000Y-138205807D01*
X143083596Y-138550665D01*
X143218153Y-138875515D01*
X143413500Y-139167871D01*
X143662129Y-139416500D01*
X143954485Y-139611847D01*
X144279335Y-139746404D01*
X144624193Y-139815000D01*
X144975807Y-139815000D01*
X145320665Y-139746404D01*
X145645515Y-139611847D01*
X145937871Y-139416500D01*
X146186500Y-139167871D01*
X146381847Y-138875515D01*
X146516404Y-138550665D01*
X146585000Y-138205807D01*
X146585000Y-137854193D01*
X146516404Y-137509335D01*
X146381847Y-137184485D01*
X146186500Y-136892129D01*
X145937871Y-136643500D01*
X145645515Y-136448153D01*
X145320665Y-136313596D01*
X144975807Y-136245000D01*
X144624193Y-136245000D01*
X144279335Y-136313596D01*
X143954485Y-136448153D01*
X143662129Y-136643500D01*
X143413500Y-136892129D01*
X143218153Y-137184485D01*
X143083596Y-137509335D01*
X143015000Y-137854193D01*
X136740608Y-137854193D01*
X139678635Y-134916167D01*
X139823589Y-134945000D01*
X140096411Y-134945000D01*
X140363989Y-134891775D01*
X140616043Y-134787371D01*
X140842886Y-134635799D01*
X141035799Y-134442886D01*
X141187371Y-134216043D01*
X141291775Y-133963989D01*
X141345000Y-133696411D01*
X141345000Y-133423589D01*
X141311229Y-133253812D01*
X141424201Y-133422886D01*
X141617114Y-133615799D01*
X141843957Y-133767371D01*
X142096011Y-133871775D01*
X142363589Y-133925000D01*
X142636411Y-133925000D01*
X142903989Y-133871775D01*
X143156043Y-133767371D01*
X143382886Y-133615799D01*
X143575799Y-133422886D01*
X143727371Y-133196043D01*
X143831775Y-132943989D01*
X143885000Y-132676411D01*
X143885000Y-132403589D01*
X143831775Y-132136011D01*
X143727371Y-131883957D01*
X143639224Y-131752035D01*
X143701185Y-131701185D01*
X143780537Y-131604494D01*
X143839502Y-131494180D01*
X143875812Y-131374482D01*
X143888072Y-131250000D01*
X143888072Y-129750000D01*
X143875812Y-129625518D01*
X143839502Y-129505820D01*
X143780537Y-129395506D01*
X143701185Y-129298815D01*
X143604494Y-129219463D01*
X143494180Y-129160498D01*
X143374482Y-129124188D01*
X143250000Y-129111928D01*
X141750000Y-129111928D01*
X141625518Y-129124188D01*
X141505820Y-129160498D01*
X141395506Y-129219463D01*
X141298815Y-129298815D01*
X141219463Y-129395506D01*
X141160498Y-129505820D01*
X141124188Y-129625518D01*
X141111928Y-129750000D01*
X141111928Y-131250000D01*
X141124188Y-131374482D01*
X141160498Y-131494180D01*
X141219463Y-131604494D01*
X141298815Y-131701185D01*
X141360776Y-131752035D01*
X141272629Y-131883957D01*
X141168225Y-132136011D01*
X141115000Y-132403589D01*
X141115000Y-132676411D01*
X141148771Y-132846188D01*
X141035799Y-132677114D01*
X140842886Y-132484201D01*
X140616043Y-132332629D01*
X140363989Y-132228225D01*
X140096411Y-132175000D01*
X139823589Y-132175000D01*
X139556011Y-132228225D01*
X139303957Y-132332629D01*
X139077114Y-132484201D01*
X138884201Y-132677114D01*
X138732629Y-132903957D01*
X138628225Y-133156011D01*
X138575000Y-133423589D01*
X138575000Y-133696411D01*
X138603833Y-133841365D01*
X135455699Y-136989500D01*
X125568211Y-136989500D01*
X125524274Y-136945563D01*
X125354756Y-136832295D01*
X125166398Y-136754274D01*
X124966439Y-136714500D01*
X124762561Y-136714500D01*
X124562602Y-136754274D01*
X124374244Y-136832295D01*
X124204726Y-136945563D01*
X124160789Y-136989500D01*
X121109172Y-136989500D01*
X121071437Y-136933026D01*
X120927274Y-136788863D01*
X120757756Y-136675595D01*
X120569398Y-136597574D01*
X120369439Y-136557800D01*
X120165561Y-136557800D01*
X119965602Y-136597574D01*
X119777244Y-136675595D01*
X119607726Y-136788863D01*
X119463563Y-136933026D01*
X119350295Y-137102544D01*
X119272274Y-137290902D01*
X119232500Y-137490861D01*
X98685000Y-137490861D01*
X98685000Y-134363589D01*
X103615000Y-134363589D01*
X103615000Y-134636411D01*
X103668225Y-134903989D01*
X103772629Y-135156043D01*
X103924201Y-135382886D01*
X104117114Y-135575799D01*
X104343957Y-135727371D01*
X104596011Y-135831775D01*
X104863589Y-135885000D01*
X105136411Y-135885000D01*
X105403989Y-135831775D01*
X105656043Y-135727371D01*
X105882886Y-135575799D01*
X106075799Y-135382886D01*
X106227371Y-135156043D01*
X106331775Y-134903989D01*
X106385000Y-134636411D01*
X106385000Y-134363589D01*
X106331775Y-134096011D01*
X106227371Y-133843957D01*
X106075799Y-133617114D01*
X105882886Y-133424201D01*
X105656043Y-133272629D01*
X105403989Y-133168225D01*
X105136411Y-133115000D01*
X104863589Y-133115000D01*
X104596011Y-133168225D01*
X104343957Y-133272629D01*
X104117114Y-133424201D01*
X103924201Y-133617114D01*
X103772629Y-133843957D01*
X103668225Y-134096011D01*
X103615000Y-134363589D01*
X98685000Y-134363589D01*
X98685000Y-125854193D01*
X143015000Y-125854193D01*
X143015000Y-126205807D01*
X143083596Y-126550665D01*
X143218153Y-126875515D01*
X143413500Y-127167871D01*
X143662129Y-127416500D01*
X143954485Y-127611847D01*
X144279335Y-127746404D01*
X144624193Y-127815000D01*
X144975807Y-127815000D01*
X145320665Y-127746404D01*
X145645515Y-127611847D01*
X145937871Y-127416500D01*
X146186500Y-127167871D01*
X146381847Y-126875515D01*
X146516404Y-126550665D01*
X146585000Y-126205807D01*
X146585000Y-125854193D01*
X146516404Y-125509335D01*
X146381847Y-125184485D01*
X146186500Y-124892129D01*
X145937871Y-124643500D01*
X145645515Y-124448153D01*
X145320665Y-124313596D01*
X144975807Y-124245000D01*
X144624193Y-124245000D01*
X144279335Y-124313596D01*
X143954485Y-124448153D01*
X143662129Y-124643500D01*
X143413500Y-124892129D01*
X143218153Y-125184485D01*
X143083596Y-125509335D01*
X143015000Y-125854193D01*
X98685000Y-125854193D01*
X98685000Y-118185000D01*
X148815001Y-118185000D01*
X148815000Y-123533646D01*
%TA.AperFunction,Conductor*%
D16*
G36*
X148815000Y-123533646D02*
G01*
X148815001Y-123533656D01*
X148815000Y-148815000D01*
X98685000Y-148815000D01*
X98685000Y-137490861D01*
X119232500Y-137490861D01*
X119232500Y-137694739D01*
X119272274Y-137894698D01*
X119350295Y-138083056D01*
X119463563Y-138252574D01*
X119607726Y-138396737D01*
X119777244Y-138510005D01*
X119965602Y-138588026D01*
X120165561Y-138627800D01*
X120369439Y-138627800D01*
X120569398Y-138588026D01*
X120757756Y-138510005D01*
X120758512Y-138509500D01*
X124160789Y-138509500D01*
X124204726Y-138553437D01*
X124374244Y-138666705D01*
X124562602Y-138744726D01*
X124762561Y-138784500D01*
X124966439Y-138784500D01*
X125166398Y-138744726D01*
X125354756Y-138666705D01*
X125524274Y-138553437D01*
X125568211Y-138509500D01*
X135733178Y-138509500D01*
X135770500Y-138513176D01*
X135807822Y-138509500D01*
X135807833Y-138509500D01*
X135919486Y-138498503D01*
X136062747Y-138455046D01*
X136194776Y-138384474D01*
X136310501Y-138289501D01*
X136334304Y-138260497D01*
X136740608Y-137854193D01*
X143015000Y-137854193D01*
X143015000Y-138205807D01*
X143083596Y-138550665D01*
X143218153Y-138875515D01*
X143413500Y-139167871D01*
X143662129Y-139416500D01*
X143954485Y-139611847D01*
X144279335Y-139746404D01*
X144624193Y-139815000D01*
X144975807Y-139815000D01*
X145320665Y-139746404D01*
X145645515Y-139611847D01*
X145937871Y-139416500D01*
X146186500Y-139167871D01*
X146381847Y-138875515D01*
X146516404Y-138550665D01*
X146585000Y-138205807D01*
X146585000Y-137854193D01*
X146516404Y-137509335D01*
X146381847Y-137184485D01*
X146186500Y-136892129D01*
X145937871Y-136643500D01*
X145645515Y-136448153D01*
X145320665Y-136313596D01*
X144975807Y-136245000D01*
X144624193Y-136245000D01*
X144279335Y-136313596D01*
X143954485Y-136448153D01*
X143662129Y-136643500D01*
X143413500Y-136892129D01*
X143218153Y-137184485D01*
X143083596Y-137509335D01*
X143015000Y-137854193D01*
X136740608Y-137854193D01*
X139678635Y-134916167D01*
X139823589Y-134945000D01*
X140096411Y-134945000D01*
X140363989Y-134891775D01*
X140616043Y-134787371D01*
X140842886Y-134635799D01*
X141035799Y-134442886D01*
X141187371Y-134216043D01*
X141291775Y-133963989D01*
X141345000Y-133696411D01*
X141345000Y-133423589D01*
X141311229Y-133253812D01*
X141424201Y-133422886D01*
X141617114Y-133615799D01*
X141843957Y-133767371D01*
X142096011Y-133871775D01*
X142363589Y-133925000D01*
X142636411Y-133925000D01*
X142903989Y-133871775D01*
X143156043Y-133767371D01*
X143382886Y-133615799D01*
X143575799Y-133422886D01*
X143727371Y-133196043D01*
X143831775Y-132943989D01*
X143885000Y-132676411D01*
X143885000Y-132403589D01*
X143831775Y-132136011D01*
X143727371Y-131883957D01*
X143639224Y-131752035D01*
X143701185Y-131701185D01*
X143780537Y-131604494D01*
X143839502Y-131494180D01*
X143875812Y-131374482D01*
X143888072Y-131250000D01*
X143888072Y-129750000D01*
X143875812Y-129625518D01*
X143839502Y-129505820D01*
X143780537Y-129395506D01*
X143701185Y-129298815D01*
X143604494Y-129219463D01*
X143494180Y-129160498D01*
X143374482Y-129124188D01*
X143250000Y-129111928D01*
X141750000Y-129111928D01*
X141625518Y-129124188D01*
X141505820Y-129160498D01*
X141395506Y-129219463D01*
X141298815Y-129298815D01*
X141219463Y-129395506D01*
X141160498Y-129505820D01*
X141124188Y-129625518D01*
X141111928Y-129750000D01*
X141111928Y-131250000D01*
X141124188Y-131374482D01*
X141160498Y-131494180D01*
X141219463Y-131604494D01*
X141298815Y-131701185D01*
X141360776Y-131752035D01*
X141272629Y-131883957D01*
X141168225Y-132136011D01*
X141115000Y-132403589D01*
X141115000Y-132676411D01*
X141148771Y-132846188D01*
X141035799Y-132677114D01*
X140842886Y-132484201D01*
X140616043Y-132332629D01*
X140363989Y-132228225D01*
X140096411Y-132175000D01*
X139823589Y-132175000D01*
X139556011Y-132228225D01*
X139303957Y-132332629D01*
X139077114Y-132484201D01*
X138884201Y-132677114D01*
X138732629Y-132903957D01*
X138628225Y-133156011D01*
X138575000Y-133423589D01*
X138575000Y-133696411D01*
X138603833Y-133841365D01*
X135455699Y-136989500D01*
X125568211Y-136989500D01*
X125524274Y-136945563D01*
X125354756Y-136832295D01*
X125166398Y-136754274D01*
X124966439Y-136714500D01*
X124762561Y-136714500D01*
X124562602Y-136754274D01*
X124374244Y-136832295D01*
X124204726Y-136945563D01*
X124160789Y-136989500D01*
X121109172Y-136989500D01*
X121071437Y-136933026D01*
X120927274Y-136788863D01*
X120757756Y-136675595D01*
X120569398Y-136597574D01*
X120369439Y-136557800D01*
X120165561Y-136557800D01*
X119965602Y-136597574D01*
X119777244Y-136675595D01*
X119607726Y-136788863D01*
X119463563Y-136933026D01*
X119350295Y-137102544D01*
X119272274Y-137290902D01*
X119232500Y-137490861D01*
X98685000Y-137490861D01*
X98685000Y-134363589D01*
X103615000Y-134363589D01*
X103615000Y-134636411D01*
X103668225Y-134903989D01*
X103772629Y-135156043D01*
X103924201Y-135382886D01*
X104117114Y-135575799D01*
X104343957Y-135727371D01*
X104596011Y-135831775D01*
X104863589Y-135885000D01*
X105136411Y-135885000D01*
X105403989Y-135831775D01*
X105656043Y-135727371D01*
X105882886Y-135575799D01*
X106075799Y-135382886D01*
X106227371Y-135156043D01*
X106331775Y-134903989D01*
X106385000Y-134636411D01*
X106385000Y-134363589D01*
X106331775Y-134096011D01*
X106227371Y-133843957D01*
X106075799Y-133617114D01*
X105882886Y-133424201D01*
X105656043Y-133272629D01*
X105403989Y-133168225D01*
X105136411Y-133115000D01*
X104863589Y-133115000D01*
X104596011Y-133168225D01*
X104343957Y-133272629D01*
X104117114Y-133424201D01*
X103924201Y-133617114D01*
X103772629Y-133843957D01*
X103668225Y-134096011D01*
X103615000Y-134363589D01*
X98685000Y-134363589D01*
X98685000Y-125854193D01*
X143015000Y-125854193D01*
X143015000Y-126205807D01*
X143083596Y-126550665D01*
X143218153Y-126875515D01*
X143413500Y-127167871D01*
X143662129Y-127416500D01*
X143954485Y-127611847D01*
X144279335Y-127746404D01*
X144624193Y-127815000D01*
X144975807Y-127815000D01*
X145320665Y-127746404D01*
X145645515Y-127611847D01*
X145937871Y-127416500D01*
X146186500Y-127167871D01*
X146381847Y-126875515D01*
X146516404Y-126550665D01*
X146585000Y-126205807D01*
X146585000Y-125854193D01*
X146516404Y-125509335D01*
X146381847Y-125184485D01*
X146186500Y-124892129D01*
X145937871Y-124643500D01*
X145645515Y-124448153D01*
X145320665Y-124313596D01*
X144975807Y-124245000D01*
X144624193Y-124245000D01*
X144279335Y-124313596D01*
X143954485Y-124448153D01*
X143662129Y-124643500D01*
X143413500Y-124892129D01*
X143218153Y-125184485D01*
X143083596Y-125509335D01*
X143015000Y-125854193D01*
X98685000Y-125854193D01*
X98685000Y-118185000D01*
X148815001Y-118185000D01*
X148815000Y-123533646D01*
G37*
%TD.AperFunction*%
%TD*%
D15*
%TO.N,GND*%
X148815000Y-123533646D02*
X148815001Y-123533656D01*
X148815000Y-148815000D01*
X98685000Y-148815000D01*
X98685000Y-137490861D01*
X119232500Y-137490861D01*
X119232500Y-137694739D01*
X119272274Y-137894698D01*
X119350295Y-138083056D01*
X119463563Y-138252574D01*
X119607726Y-138396737D01*
X119777244Y-138510005D01*
X119965602Y-138588026D01*
X120165561Y-138627800D01*
X120369439Y-138627800D01*
X120569398Y-138588026D01*
X120757756Y-138510005D01*
X120758512Y-138509500D01*
X124160789Y-138509500D01*
X124204726Y-138553437D01*
X124374244Y-138666705D01*
X124562602Y-138744726D01*
X124762561Y-138784500D01*
X124966439Y-138784500D01*
X125166398Y-138744726D01*
X125354756Y-138666705D01*
X125524274Y-138553437D01*
X125568211Y-138509500D01*
X135733178Y-138509500D01*
X135770500Y-138513176D01*
X135807822Y-138509500D01*
X135807833Y-138509500D01*
X135919486Y-138498503D01*
X136062747Y-138455046D01*
X136194776Y-138384474D01*
X136310501Y-138289501D01*
X136334304Y-138260497D01*
X136740608Y-137854193D01*
X143015000Y-137854193D01*
X143015000Y-138205807D01*
X143083596Y-138550665D01*
X143218153Y-138875515D01*
X143413500Y-139167871D01*
X143662129Y-139416500D01*
X143954485Y-139611847D01*
X144279335Y-139746404D01*
X144624193Y-139815000D01*
X144975807Y-139815000D01*
X145320665Y-139746404D01*
X145645515Y-139611847D01*
X145937871Y-139416500D01*
X146186500Y-139167871D01*
X146381847Y-138875515D01*
X146516404Y-138550665D01*
X146585000Y-138205807D01*
X146585000Y-137854193D01*
X146516404Y-137509335D01*
X146381847Y-137184485D01*
X146186500Y-136892129D01*
X145937871Y-136643500D01*
X145645515Y-136448153D01*
X145320665Y-136313596D01*
X144975807Y-136245000D01*
X144624193Y-136245000D01*
X144279335Y-136313596D01*
X143954485Y-136448153D01*
X143662129Y-136643500D01*
X143413500Y-136892129D01*
X143218153Y-137184485D01*
X143083596Y-137509335D01*
X143015000Y-137854193D01*
X136740608Y-137854193D01*
X139678635Y-134916167D01*
X139823589Y-134945000D01*
X140096411Y-134945000D01*
X140363989Y-134891775D01*
X140616043Y-134787371D01*
X140842886Y-134635799D01*
X141035799Y-134442886D01*
X141187371Y-134216043D01*
X141291775Y-133963989D01*
X141345000Y-133696411D01*
X141345000Y-133423589D01*
X141311229Y-133253812D01*
X141424201Y-133422886D01*
X141617114Y-133615799D01*
X141843957Y-133767371D01*
X142096011Y-133871775D01*
X142363589Y-133925000D01*
X142636411Y-133925000D01*
X142903989Y-133871775D01*
X143156043Y-133767371D01*
X143382886Y-133615799D01*
X143575799Y-133422886D01*
X143727371Y-133196043D01*
X143831775Y-132943989D01*
X143885000Y-132676411D01*
X143885000Y-132403589D01*
X143831775Y-132136011D01*
X143727371Y-131883957D01*
X143639224Y-131752035D01*
X143701185Y-131701185D01*
X143780537Y-131604494D01*
X143839502Y-131494180D01*
X143875812Y-131374482D01*
X143888072Y-131250000D01*
X143888072Y-129750000D01*
X143875812Y-129625518D01*
X143839502Y-129505820D01*
X143780537Y-129395506D01*
X143701185Y-129298815D01*
X143604494Y-129219463D01*
X143494180Y-129160498D01*
X143374482Y-129124188D01*
X143250000Y-129111928D01*
X141750000Y-129111928D01*
X141625518Y-129124188D01*
X141505820Y-129160498D01*
X141395506Y-129219463D01*
X141298815Y-129298815D01*
X141219463Y-129395506D01*
X141160498Y-129505820D01*
X141124188Y-129625518D01*
X141111928Y-129750000D01*
X141111928Y-131250000D01*
X141124188Y-131374482D01*
X141160498Y-131494180D01*
X141219463Y-131604494D01*
X141298815Y-131701185D01*
X141360776Y-131752035D01*
X141272629Y-131883957D01*
X141168225Y-132136011D01*
X141115000Y-132403589D01*
X141115000Y-132676411D01*
X141148771Y-132846188D01*
X141035799Y-132677114D01*
X140842886Y-132484201D01*
X140616043Y-132332629D01*
X140363989Y-132228225D01*
X140096411Y-132175000D01*
X139823589Y-132175000D01*
X139556011Y-132228225D01*
X139303957Y-132332629D01*
X139077114Y-132484201D01*
X138884201Y-132677114D01*
X138732629Y-132903957D01*
X138628225Y-133156011D01*
X138575000Y-133423589D01*
X138575000Y-133696411D01*
X138603833Y-133841365D01*
X135455699Y-136989500D01*
X125568211Y-136989500D01*
X125524274Y-136945563D01*
X125354756Y-136832295D01*
X125166398Y-136754274D01*
X124966439Y-136714500D01*
X124762561Y-136714500D01*
X124562602Y-136754274D01*
X124374244Y-136832295D01*
X124204726Y-136945563D01*
X124160789Y-136989500D01*
X121109172Y-136989500D01*
X121071437Y-136933026D01*
X120927274Y-136788863D01*
X120757756Y-136675595D01*
X120569398Y-136597574D01*
X120369439Y-136557800D01*
X120165561Y-136557800D01*
X119965602Y-136597574D01*
X119777244Y-136675595D01*
X119607726Y-136788863D01*
X119463563Y-136933026D01*
X119350295Y-137102544D01*
X119272274Y-137290902D01*
X119232500Y-137490861D01*
X98685000Y-137490861D01*
X98685000Y-134363589D01*
X103615000Y-134363589D01*
X103615000Y-134636411D01*
X103668225Y-134903989D01*
X103772629Y-135156043D01*
X103924201Y-135382886D01*
X104117114Y-135575799D01*
X104343957Y-135727371D01*
X104596011Y-135831775D01*
X104863589Y-135885000D01*
X105136411Y-135885000D01*
X105403989Y-135831775D01*
X105656043Y-135727371D01*
X105882886Y-135575799D01*
X106075799Y-135382886D01*
X106227371Y-135156043D01*
X106331775Y-134903989D01*
X106385000Y-134636411D01*
X106385000Y-134363589D01*
X106331775Y-134096011D01*
X106227371Y-133843957D01*
X106075799Y-133617114D01*
X105882886Y-133424201D01*
X105656043Y-133272629D01*
X105403989Y-133168225D01*
X105136411Y-133115000D01*
X104863589Y-133115000D01*
X104596011Y-133168225D01*
X104343957Y-133272629D01*
X104117114Y-133424201D01*
X103924201Y-133617114D01*
X103772629Y-133843957D01*
X103668225Y-134096011D01*
X103615000Y-134363589D01*
X98685000Y-134363589D01*
X98685000Y-125854193D01*
X143015000Y-125854193D01*
X143015000Y-126205807D01*
X143083596Y-126550665D01*
X143218153Y-126875515D01*
X143413500Y-127167871D01*
X143662129Y-127416500D01*
X143954485Y-127611847D01*
X144279335Y-127746404D01*
X144624193Y-127815000D01*
X144975807Y-127815000D01*
X145320665Y-127746404D01*
X145645515Y-127611847D01*
X145937871Y-127416500D01*
X146186500Y-127167871D01*
X146381847Y-126875515D01*
X146516404Y-126550665D01*
X146585000Y-126205807D01*
X146585000Y-125854193D01*
X146516404Y-125509335D01*
X146381847Y-125184485D01*
X146186500Y-124892129D01*
X145937871Y-124643500D01*
X145645515Y-124448153D01*
X145320665Y-124313596D01*
X144975807Y-124245000D01*
X144624193Y-124245000D01*
X144279335Y-124313596D01*
X143954485Y-124448153D01*
X143662129Y-124643500D01*
X143413500Y-124892129D01*
X143218153Y-125184485D01*
X143083596Y-125509335D01*
X143015000Y-125854193D01*
X98685000Y-125854193D01*
X98685000Y-118185000D01*
X148815001Y-118185000D01*
X148815000Y-123533646D01*
%TA.AperFunction,Conductor*%
D16*
G36*
X148815000Y-123533646D02*
G01*
X148815001Y-123533656D01*
X148815000Y-148815000D01*
X98685000Y-148815000D01*
X98685000Y-137490861D01*
X119232500Y-137490861D01*
X119232500Y-137694739D01*
X119272274Y-137894698D01*
X119350295Y-138083056D01*
X119463563Y-138252574D01*
X119607726Y-138396737D01*
X119777244Y-138510005D01*
X119965602Y-138588026D01*
X120165561Y-138627800D01*
X120369439Y-138627800D01*
X120569398Y-138588026D01*
X120757756Y-138510005D01*
X120758512Y-138509500D01*
X124160789Y-138509500D01*
X124204726Y-138553437D01*
X124374244Y-138666705D01*
X124562602Y-138744726D01*
X124762561Y-138784500D01*
X124966439Y-138784500D01*
X125166398Y-138744726D01*
X125354756Y-138666705D01*
X125524274Y-138553437D01*
X125568211Y-138509500D01*
X135733178Y-138509500D01*
X135770500Y-138513176D01*
X135807822Y-138509500D01*
X135807833Y-138509500D01*
X135919486Y-138498503D01*
X136062747Y-138455046D01*
X136194776Y-138384474D01*
X136310501Y-138289501D01*
X136334304Y-138260497D01*
X136740608Y-137854193D01*
X143015000Y-137854193D01*
X143015000Y-138205807D01*
X143083596Y-138550665D01*
X143218153Y-138875515D01*
X143413500Y-139167871D01*
X143662129Y-139416500D01*
X143954485Y-139611847D01*
X144279335Y-139746404D01*
X144624193Y-139815000D01*
X144975807Y-139815000D01*
X145320665Y-139746404D01*
X145645515Y-139611847D01*
X145937871Y-139416500D01*
X146186500Y-139167871D01*
X146381847Y-138875515D01*
X146516404Y-138550665D01*
X146585000Y-138205807D01*
X146585000Y-137854193D01*
X146516404Y-137509335D01*
X146381847Y-137184485D01*
X146186500Y-136892129D01*
X145937871Y-136643500D01*
X145645515Y-136448153D01*
X145320665Y-136313596D01*
X144975807Y-136245000D01*
X144624193Y-136245000D01*
X144279335Y-136313596D01*
X143954485Y-136448153D01*
X143662129Y-136643500D01*
X143413500Y-136892129D01*
X143218153Y-137184485D01*
X143083596Y-137509335D01*
X143015000Y-137854193D01*
X136740608Y-137854193D01*
X139678635Y-134916167D01*
X139823589Y-134945000D01*
X140096411Y-134945000D01*
X140363989Y-134891775D01*
X140616043Y-134787371D01*
X140842886Y-134635799D01*
X141035799Y-134442886D01*
X141187371Y-134216043D01*
X141291775Y-133963989D01*
X141345000Y-133696411D01*
X141345000Y-133423589D01*
X141311229Y-133253812D01*
X141424201Y-133422886D01*
X141617114Y-133615799D01*
X141843957Y-133767371D01*
X142096011Y-133871775D01*
X142363589Y-133925000D01*
X142636411Y-133925000D01*
X142903989Y-133871775D01*
X143156043Y-133767371D01*
X143382886Y-133615799D01*
X143575799Y-133422886D01*
X143727371Y-133196043D01*
X143831775Y-132943989D01*
X143885000Y-132676411D01*
X143885000Y-132403589D01*
X143831775Y-132136011D01*
X143727371Y-131883957D01*
X143639224Y-131752035D01*
X143701185Y-131701185D01*
X143780537Y-131604494D01*
X143839502Y-131494180D01*
X143875812Y-131374482D01*
X143888072Y-131250000D01*
X143888072Y-129750000D01*
X143875812Y-129625518D01*
X143839502Y-129505820D01*
X143780537Y-129395506D01*
X143701185Y-129298815D01*
X143604494Y-129219463D01*
X143494180Y-129160498D01*
X143374482Y-129124188D01*
X143250000Y-129111928D01*
X141750000Y-129111928D01*
X141625518Y-129124188D01*
X141505820Y-129160498D01*
X141395506Y-129219463D01*
X141298815Y-129298815D01*
X141219463Y-129395506D01*
X141160498Y-129505820D01*
X141124188Y-129625518D01*
X141111928Y-129750000D01*
X141111928Y-131250000D01*
X141124188Y-131374482D01*
X141160498Y-131494180D01*
X141219463Y-131604494D01*
X141298815Y-131701185D01*
X141360776Y-131752035D01*
X141272629Y-131883957D01*
X141168225Y-132136011D01*
X141115000Y-132403589D01*
X141115000Y-132676411D01*
X141148771Y-132846188D01*
X141035799Y-132677114D01*
X140842886Y-132484201D01*
X140616043Y-132332629D01*
X140363989Y-132228225D01*
X140096411Y-132175000D01*
X139823589Y-132175000D01*
X139556011Y-132228225D01*
X139303957Y-132332629D01*
X139077114Y-132484201D01*
X138884201Y-132677114D01*
X138732629Y-132903957D01*
X138628225Y-133156011D01*
X138575000Y-133423589D01*
X138575000Y-133696411D01*
X138603833Y-133841365D01*
X135455699Y-136989500D01*
X125568211Y-136989500D01*
X125524274Y-136945563D01*
X125354756Y-136832295D01*
X125166398Y-136754274D01*
X124966439Y-136714500D01*
X124762561Y-136714500D01*
X124562602Y-136754274D01*
X124374244Y-136832295D01*
X124204726Y-136945563D01*
X124160789Y-136989500D01*
X121109172Y-136989500D01*
X121071437Y-136933026D01*
X120927274Y-136788863D01*
X120757756Y-136675595D01*
X120569398Y-136597574D01*
X120369439Y-136557800D01*
X120165561Y-136557800D01*
X119965602Y-136597574D01*
X119777244Y-136675595D01*
X119607726Y-136788863D01*
X119463563Y-136933026D01*
X119350295Y-137102544D01*
X119272274Y-137290902D01*
X119232500Y-137490861D01*
X98685000Y-137490861D01*
X98685000Y-134363589D01*
X103615000Y-134363589D01*
X103615000Y-134636411D01*
X103668225Y-134903989D01*
X103772629Y-135156043D01*
X103924201Y-135382886D01*
X104117114Y-135575799D01*
X104343957Y-135727371D01*
X104596011Y-135831775D01*
X104863589Y-135885000D01*
X105136411Y-135885000D01*
X105403989Y-135831775D01*
X105656043Y-135727371D01*
X105882886Y-135575799D01*
X106075799Y-135382886D01*
X106227371Y-135156043D01*
X106331775Y-134903989D01*
X106385000Y-134636411D01*
X106385000Y-134363589D01*
X106331775Y-134096011D01*
X106227371Y-133843957D01*
X106075799Y-133617114D01*
X105882886Y-133424201D01*
X105656043Y-133272629D01*
X105403989Y-133168225D01*
X105136411Y-133115000D01*
X104863589Y-133115000D01*
X104596011Y-133168225D01*
X104343957Y-133272629D01*
X104117114Y-133424201D01*
X103924201Y-133617114D01*
X103772629Y-133843957D01*
X103668225Y-134096011D01*
X103615000Y-134363589D01*
X98685000Y-134363589D01*
X98685000Y-125854193D01*
X143015000Y-125854193D01*
X143015000Y-126205807D01*
X143083596Y-126550665D01*
X143218153Y-126875515D01*
X143413500Y-127167871D01*
X143662129Y-127416500D01*
X143954485Y-127611847D01*
X144279335Y-127746404D01*
X144624193Y-127815000D01*
X144975807Y-127815000D01*
X145320665Y-127746404D01*
X145645515Y-127611847D01*
X145937871Y-127416500D01*
X146186500Y-127167871D01*
X146381847Y-126875515D01*
X146516404Y-126550665D01*
X146585000Y-126205807D01*
X146585000Y-125854193D01*
X146516404Y-125509335D01*
X146381847Y-125184485D01*
X146186500Y-124892129D01*
X145937871Y-124643500D01*
X145645515Y-124448153D01*
X145320665Y-124313596D01*
X144975807Y-124245000D01*
X144624193Y-124245000D01*
X144279335Y-124313596D01*
X143954485Y-124448153D01*
X143662129Y-124643500D01*
X143413500Y-124892129D01*
X143218153Y-125184485D01*
X143083596Y-125509335D01*
X143015000Y-125854193D01*
X98685000Y-125854193D01*
X98685000Y-118185000D01*
X148815001Y-118185000D01*
X148815000Y-123533646D01*
G37*
%TD.AperFunction*%
%TD*%
M02*
