%TF.GenerationSoftware,KiCad,Pcbnew,5.1.9-73d0e3b20d~88~ubuntu20.04.1*%
%TF.CreationDate,2021-04-09T11:01:18+02:00*%
%TF.ProjectId,piezo,7069657a-6f2e-46b6-9963-61645f706362,rev?*%
%TF.SameCoordinates,Original*%
%TF.FileFunction,Copper,L2,Bot*%
%TF.FilePolarity,Positive*%
%FSLAX46Y46*%
G04 Gerber Fmt 4.6, Leading zero omitted, Abs format (unit mm)*
G04 Created by KiCad (PCBNEW 5.1.9-73d0e3b20d~88~ubuntu20.04.1) date 2021-04-09 11:01:18*
%MOMM*%
%LPD*%
G01*
G04 APERTURE LIST*
%TA.AperFunction,ComponentPad*%
%ADD10C,1.500000*%
%TD*%
%TA.AperFunction,ComponentPad*%
%ADD11R,1.500000X1.500000*%
%TD*%
%TA.AperFunction,ComponentPad*%
%ADD12C,3.800000*%
%TD*%
%TA.AperFunction,ViaPad*%
%ADD13C,0.800000*%
%TD*%
%TA.AperFunction,Conductor*%
%ADD14C,0.250000*%
%TD*%
%TA.AperFunction,Conductor*%
%ADD15C,0.254000*%
%TD*%
%TA.AperFunction,Conductor*%
%ADD16C,0.100000*%
%TD*%
G04 APERTURE END LIST*
D10*
%TO.P,X1,1*%
%TO.N,Net-(D1-Pad2)*%
X105000000Y-134500000D03*
%TO.P,X1,2*%
%TO.N,GND*%
X105000000Y-129600000D03*
%TD*%
D11*
%TO.P,J1,1*%
%TO.N,Net-(C4-Pad1)*%
X142500000Y-130500000D03*
D10*
%TO.P,J1,2*%
%TO.N,GND*%
X139960000Y-131520000D03*
%TO.P,J1,3*%
%TO.N,Net-(J1-Pad3)*%
X142500000Y-132540000D03*
%TO.P,J1,4*%
%TO.N,VCC*%
X139960000Y-133560000D03*
%TD*%
D12*
%TO.P,J2,1*%
%TO.N,GND*%
X145500000Y-121500000D03*
%TD*%
%TO.P,J3,1*%
%TO.N,GND*%
X145500000Y-145000000D03*
%TD*%
%TO.P,J4,1*%
%TO.N,GND*%
X102500000Y-121500000D03*
%TD*%
%TO.P,J5,1*%
%TO.N,GND*%
X102000000Y-145500000D03*
%TD*%
D13*
%TO.N,Net-(D1-Pad2)*%
X113500000Y-134500000D03*
X110000000Y-134500000D03*
%TD*%
D14*
%TO.N,GND*%
X141424600Y-132984600D02*
X139960000Y-131520000D01*
X141424600Y-140924600D02*
X141424600Y-132984600D01*
X145500000Y-145000000D02*
X141424600Y-140924600D01*
X139960000Y-127040000D02*
X139960000Y-131520000D01*
X145500000Y-121500000D02*
X139960000Y-127040000D01*
%TO.N,Net-(D1-Pad2)*%
X113500000Y-134500000D02*
X110000000Y-134500000D01*
%TD*%
D15*
%TO.N,GND*%
X148815000Y-123533646D02*
X148815001Y-123533656D01*
X148815000Y-148815000D01*
X98685000Y-148815000D01*
X98685000Y-137854193D01*
X143015000Y-137854193D01*
X143015000Y-138205807D01*
X143083596Y-138550665D01*
X143218153Y-138875515D01*
X143413500Y-139167871D01*
X143662129Y-139416500D01*
X143954485Y-139611847D01*
X144279335Y-139746404D01*
X144624193Y-139815000D01*
X144975807Y-139815000D01*
X145320665Y-139746404D01*
X145645515Y-139611847D01*
X145937871Y-139416500D01*
X146186500Y-139167871D01*
X146381847Y-138875515D01*
X146516404Y-138550665D01*
X146585000Y-138205807D01*
X146585000Y-137854193D01*
X146516404Y-137509335D01*
X146381847Y-137184485D01*
X146186500Y-136892129D01*
X145937871Y-136643500D01*
X145645515Y-136448153D01*
X145320665Y-136313596D01*
X144975807Y-136245000D01*
X144624193Y-136245000D01*
X144279335Y-136313596D01*
X143954485Y-136448153D01*
X143662129Y-136643500D01*
X143413500Y-136892129D01*
X143218153Y-137184485D01*
X143083596Y-137509335D01*
X143015000Y-137854193D01*
X98685000Y-137854193D01*
X98685000Y-134363589D01*
X103615000Y-134363589D01*
X103615000Y-134636411D01*
X103668225Y-134903989D01*
X103772629Y-135156043D01*
X103924201Y-135382886D01*
X104117114Y-135575799D01*
X104343957Y-135727371D01*
X104596011Y-135831775D01*
X104863589Y-135885000D01*
X105136411Y-135885000D01*
X105403989Y-135831775D01*
X105656043Y-135727371D01*
X105882886Y-135575799D01*
X106075799Y-135382886D01*
X106227371Y-135156043D01*
X106331775Y-134903989D01*
X106385000Y-134636411D01*
X106385000Y-134398061D01*
X108965000Y-134398061D01*
X108965000Y-134601939D01*
X109004774Y-134801898D01*
X109082795Y-134990256D01*
X109196063Y-135159774D01*
X109340226Y-135303937D01*
X109509744Y-135417205D01*
X109698102Y-135495226D01*
X109898061Y-135535000D01*
X110101939Y-135535000D01*
X110301898Y-135495226D01*
X110490256Y-135417205D01*
X110659774Y-135303937D01*
X110703711Y-135260000D01*
X112796289Y-135260000D01*
X112840226Y-135303937D01*
X113009744Y-135417205D01*
X113198102Y-135495226D01*
X113398061Y-135535000D01*
X113601939Y-135535000D01*
X113801898Y-135495226D01*
X113990256Y-135417205D01*
X114159774Y-135303937D01*
X114303937Y-135159774D01*
X114417205Y-134990256D01*
X114495226Y-134801898D01*
X114535000Y-134601939D01*
X114535000Y-134398061D01*
X114495226Y-134198102D01*
X114417205Y-134009744D01*
X114303937Y-133840226D01*
X114159774Y-133696063D01*
X113990256Y-133582795D01*
X113801898Y-133504774D01*
X113601939Y-133465000D01*
X113398061Y-133465000D01*
X113198102Y-133504774D01*
X113009744Y-133582795D01*
X112840226Y-133696063D01*
X112796289Y-133740000D01*
X110703711Y-133740000D01*
X110659774Y-133696063D01*
X110490256Y-133582795D01*
X110301898Y-133504774D01*
X110101939Y-133465000D01*
X109898061Y-133465000D01*
X109698102Y-133504774D01*
X109509744Y-133582795D01*
X109340226Y-133696063D01*
X109196063Y-133840226D01*
X109082795Y-134009744D01*
X109004774Y-134198102D01*
X108965000Y-134398061D01*
X106385000Y-134398061D01*
X106385000Y-134363589D01*
X106331775Y-134096011D01*
X106227371Y-133843957D01*
X106075799Y-133617114D01*
X105882886Y-133424201D01*
X105881971Y-133423589D01*
X138575000Y-133423589D01*
X138575000Y-133696411D01*
X138628225Y-133963989D01*
X138732629Y-134216043D01*
X138884201Y-134442886D01*
X139077114Y-134635799D01*
X139303957Y-134787371D01*
X139556011Y-134891775D01*
X139823589Y-134945000D01*
X140096411Y-134945000D01*
X140363989Y-134891775D01*
X140616043Y-134787371D01*
X140842886Y-134635799D01*
X141035799Y-134442886D01*
X141187371Y-134216043D01*
X141291775Y-133963989D01*
X141345000Y-133696411D01*
X141345000Y-133423589D01*
X141311229Y-133253812D01*
X141424201Y-133422886D01*
X141617114Y-133615799D01*
X141843957Y-133767371D01*
X142096011Y-133871775D01*
X142363589Y-133925000D01*
X142636411Y-133925000D01*
X142903989Y-133871775D01*
X143156043Y-133767371D01*
X143382886Y-133615799D01*
X143575799Y-133422886D01*
X143727371Y-133196043D01*
X143831775Y-132943989D01*
X143885000Y-132676411D01*
X143885000Y-132403589D01*
X143831775Y-132136011D01*
X143727371Y-131883957D01*
X143639224Y-131752035D01*
X143701185Y-131701185D01*
X143780537Y-131604494D01*
X143839502Y-131494180D01*
X143875812Y-131374482D01*
X143888072Y-131250000D01*
X143888072Y-129750000D01*
X143875812Y-129625518D01*
X143839502Y-129505820D01*
X143780537Y-129395506D01*
X143701185Y-129298815D01*
X143604494Y-129219463D01*
X143494180Y-129160498D01*
X143374482Y-129124188D01*
X143250000Y-129111928D01*
X141750000Y-129111928D01*
X141625518Y-129124188D01*
X141505820Y-129160498D01*
X141395506Y-129219463D01*
X141298815Y-129298815D01*
X141219463Y-129395506D01*
X141160498Y-129505820D01*
X141124188Y-129625518D01*
X141111928Y-129750000D01*
X141111928Y-131250000D01*
X141124188Y-131374482D01*
X141160498Y-131494180D01*
X141219463Y-131604494D01*
X141298815Y-131701185D01*
X141360776Y-131752035D01*
X141272629Y-131883957D01*
X141168225Y-132136011D01*
X141115000Y-132403589D01*
X141115000Y-132676411D01*
X141148771Y-132846188D01*
X141035799Y-132677114D01*
X140842886Y-132484201D01*
X140616043Y-132332629D01*
X140363989Y-132228225D01*
X140096411Y-132175000D01*
X139823589Y-132175000D01*
X139556011Y-132228225D01*
X139303957Y-132332629D01*
X139077114Y-132484201D01*
X138884201Y-132677114D01*
X138732629Y-132903957D01*
X138628225Y-133156011D01*
X138575000Y-133423589D01*
X105881971Y-133423589D01*
X105656043Y-133272629D01*
X105403989Y-133168225D01*
X105136411Y-133115000D01*
X104863589Y-133115000D01*
X104596011Y-133168225D01*
X104343957Y-133272629D01*
X104117114Y-133424201D01*
X103924201Y-133617114D01*
X103772629Y-133843957D01*
X103668225Y-134096011D01*
X103615000Y-134363589D01*
X98685000Y-134363589D01*
X98685000Y-125854193D01*
X143015000Y-125854193D01*
X143015000Y-126205807D01*
X143083596Y-126550665D01*
X143218153Y-126875515D01*
X143413500Y-127167871D01*
X143662129Y-127416500D01*
X143954485Y-127611847D01*
X144279335Y-127746404D01*
X144624193Y-127815000D01*
X144975807Y-127815000D01*
X145320665Y-127746404D01*
X145645515Y-127611847D01*
X145937871Y-127416500D01*
X146186500Y-127167871D01*
X146381847Y-126875515D01*
X146516404Y-126550665D01*
X146585000Y-126205807D01*
X146585000Y-125854193D01*
X146516404Y-125509335D01*
X146381847Y-125184485D01*
X146186500Y-124892129D01*
X145937871Y-124643500D01*
X145645515Y-124448153D01*
X145320665Y-124313596D01*
X144975807Y-124245000D01*
X144624193Y-124245000D01*
X144279335Y-124313596D01*
X143954485Y-124448153D01*
X143662129Y-124643500D01*
X143413500Y-124892129D01*
X143218153Y-125184485D01*
X143083596Y-125509335D01*
X143015000Y-125854193D01*
X98685000Y-125854193D01*
X98685000Y-118185000D01*
X148815001Y-118185000D01*
X148815000Y-123533646D01*
%TA.AperFunction,Conductor*%
D16*
G36*
X148815000Y-123533646D02*
G01*
X148815001Y-123533656D01*
X148815000Y-148815000D01*
X98685000Y-148815000D01*
X98685000Y-137854193D01*
X143015000Y-137854193D01*
X143015000Y-138205807D01*
X143083596Y-138550665D01*
X143218153Y-138875515D01*
X143413500Y-139167871D01*
X143662129Y-139416500D01*
X143954485Y-139611847D01*
X144279335Y-139746404D01*
X144624193Y-139815000D01*
X144975807Y-139815000D01*
X145320665Y-139746404D01*
X145645515Y-139611847D01*
X145937871Y-139416500D01*
X146186500Y-139167871D01*
X146381847Y-138875515D01*
X146516404Y-138550665D01*
X146585000Y-138205807D01*
X146585000Y-137854193D01*
X146516404Y-137509335D01*
X146381847Y-137184485D01*
X146186500Y-136892129D01*
X145937871Y-136643500D01*
X145645515Y-136448153D01*
X145320665Y-136313596D01*
X144975807Y-136245000D01*
X144624193Y-136245000D01*
X144279335Y-136313596D01*
X143954485Y-136448153D01*
X143662129Y-136643500D01*
X143413500Y-136892129D01*
X143218153Y-137184485D01*
X143083596Y-137509335D01*
X143015000Y-137854193D01*
X98685000Y-137854193D01*
X98685000Y-134363589D01*
X103615000Y-134363589D01*
X103615000Y-134636411D01*
X103668225Y-134903989D01*
X103772629Y-135156043D01*
X103924201Y-135382886D01*
X104117114Y-135575799D01*
X104343957Y-135727371D01*
X104596011Y-135831775D01*
X104863589Y-135885000D01*
X105136411Y-135885000D01*
X105403989Y-135831775D01*
X105656043Y-135727371D01*
X105882886Y-135575799D01*
X106075799Y-135382886D01*
X106227371Y-135156043D01*
X106331775Y-134903989D01*
X106385000Y-134636411D01*
X106385000Y-134398061D01*
X108965000Y-134398061D01*
X108965000Y-134601939D01*
X109004774Y-134801898D01*
X109082795Y-134990256D01*
X109196063Y-135159774D01*
X109340226Y-135303937D01*
X109509744Y-135417205D01*
X109698102Y-135495226D01*
X109898061Y-135535000D01*
X110101939Y-135535000D01*
X110301898Y-135495226D01*
X110490256Y-135417205D01*
X110659774Y-135303937D01*
X110703711Y-135260000D01*
X112796289Y-135260000D01*
X112840226Y-135303937D01*
X113009744Y-135417205D01*
X113198102Y-135495226D01*
X113398061Y-135535000D01*
X113601939Y-135535000D01*
X113801898Y-135495226D01*
X113990256Y-135417205D01*
X114159774Y-135303937D01*
X114303937Y-135159774D01*
X114417205Y-134990256D01*
X114495226Y-134801898D01*
X114535000Y-134601939D01*
X114535000Y-134398061D01*
X114495226Y-134198102D01*
X114417205Y-134009744D01*
X114303937Y-133840226D01*
X114159774Y-133696063D01*
X113990256Y-133582795D01*
X113801898Y-133504774D01*
X113601939Y-133465000D01*
X113398061Y-133465000D01*
X113198102Y-133504774D01*
X113009744Y-133582795D01*
X112840226Y-133696063D01*
X112796289Y-133740000D01*
X110703711Y-133740000D01*
X110659774Y-133696063D01*
X110490256Y-133582795D01*
X110301898Y-133504774D01*
X110101939Y-133465000D01*
X109898061Y-133465000D01*
X109698102Y-133504774D01*
X109509744Y-133582795D01*
X109340226Y-133696063D01*
X109196063Y-133840226D01*
X109082795Y-134009744D01*
X109004774Y-134198102D01*
X108965000Y-134398061D01*
X106385000Y-134398061D01*
X106385000Y-134363589D01*
X106331775Y-134096011D01*
X106227371Y-133843957D01*
X106075799Y-133617114D01*
X105882886Y-133424201D01*
X105881971Y-133423589D01*
X138575000Y-133423589D01*
X138575000Y-133696411D01*
X138628225Y-133963989D01*
X138732629Y-134216043D01*
X138884201Y-134442886D01*
X139077114Y-134635799D01*
X139303957Y-134787371D01*
X139556011Y-134891775D01*
X139823589Y-134945000D01*
X140096411Y-134945000D01*
X140363989Y-134891775D01*
X140616043Y-134787371D01*
X140842886Y-134635799D01*
X141035799Y-134442886D01*
X141187371Y-134216043D01*
X141291775Y-133963989D01*
X141345000Y-133696411D01*
X141345000Y-133423589D01*
X141311229Y-133253812D01*
X141424201Y-133422886D01*
X141617114Y-133615799D01*
X141843957Y-133767371D01*
X142096011Y-133871775D01*
X142363589Y-133925000D01*
X142636411Y-133925000D01*
X142903989Y-133871775D01*
X143156043Y-133767371D01*
X143382886Y-133615799D01*
X143575799Y-133422886D01*
X143727371Y-133196043D01*
X143831775Y-132943989D01*
X143885000Y-132676411D01*
X143885000Y-132403589D01*
X143831775Y-132136011D01*
X143727371Y-131883957D01*
X143639224Y-131752035D01*
X143701185Y-131701185D01*
X143780537Y-131604494D01*
X143839502Y-131494180D01*
X143875812Y-131374482D01*
X143888072Y-131250000D01*
X143888072Y-129750000D01*
X143875812Y-129625518D01*
X143839502Y-129505820D01*
X143780537Y-129395506D01*
X143701185Y-129298815D01*
X143604494Y-129219463D01*
X143494180Y-129160498D01*
X143374482Y-129124188D01*
X143250000Y-129111928D01*
X141750000Y-129111928D01*
X141625518Y-129124188D01*
X141505820Y-129160498D01*
X141395506Y-129219463D01*
X141298815Y-129298815D01*
X141219463Y-129395506D01*
X141160498Y-129505820D01*
X141124188Y-129625518D01*
X141111928Y-129750000D01*
X141111928Y-131250000D01*
X141124188Y-131374482D01*
X141160498Y-131494180D01*
X141219463Y-131604494D01*
X141298815Y-131701185D01*
X141360776Y-131752035D01*
X141272629Y-131883957D01*
X141168225Y-132136011D01*
X141115000Y-132403589D01*
X141115000Y-132676411D01*
X141148771Y-132846188D01*
X141035799Y-132677114D01*
X140842886Y-132484201D01*
X140616043Y-132332629D01*
X140363989Y-132228225D01*
X140096411Y-132175000D01*
X139823589Y-132175000D01*
X139556011Y-132228225D01*
X139303957Y-132332629D01*
X139077114Y-132484201D01*
X138884201Y-132677114D01*
X138732629Y-132903957D01*
X138628225Y-133156011D01*
X138575000Y-133423589D01*
X105881971Y-133423589D01*
X105656043Y-133272629D01*
X105403989Y-133168225D01*
X105136411Y-133115000D01*
X104863589Y-133115000D01*
X104596011Y-133168225D01*
X104343957Y-133272629D01*
X104117114Y-133424201D01*
X103924201Y-133617114D01*
X103772629Y-133843957D01*
X103668225Y-134096011D01*
X103615000Y-134363589D01*
X98685000Y-134363589D01*
X98685000Y-125854193D01*
X143015000Y-125854193D01*
X143015000Y-126205807D01*
X143083596Y-126550665D01*
X143218153Y-126875515D01*
X143413500Y-127167871D01*
X143662129Y-127416500D01*
X143954485Y-127611847D01*
X144279335Y-127746404D01*
X144624193Y-127815000D01*
X144975807Y-127815000D01*
X145320665Y-127746404D01*
X145645515Y-127611847D01*
X145937871Y-127416500D01*
X146186500Y-127167871D01*
X146381847Y-126875515D01*
X146516404Y-126550665D01*
X146585000Y-126205807D01*
X146585000Y-125854193D01*
X146516404Y-125509335D01*
X146381847Y-125184485D01*
X146186500Y-124892129D01*
X145937871Y-124643500D01*
X145645515Y-124448153D01*
X145320665Y-124313596D01*
X144975807Y-124245000D01*
X144624193Y-124245000D01*
X144279335Y-124313596D01*
X143954485Y-124448153D01*
X143662129Y-124643500D01*
X143413500Y-124892129D01*
X143218153Y-125184485D01*
X143083596Y-125509335D01*
X143015000Y-125854193D01*
X98685000Y-125854193D01*
X98685000Y-118185000D01*
X148815001Y-118185000D01*
X148815000Y-123533646D01*
G37*
%TD.AperFunction*%
%TD*%
M02*
