%TF.GenerationSoftware,KiCad,Pcbnew,5.1.6-c6e7f7d~87~ubuntu20.04.1*%
%TF.CreationDate,2020-07-29T10:40:47+02:00*%
%TF.ProjectId,piezo,7069657a-6f2e-46b6-9963-61645f706362,rev?*%
%TF.SameCoordinates,Original*%
%TF.FileFunction,Paste,Top*%
%TF.FilePolarity,Positive*%
%FSLAX46Y46*%
G04 Gerber Fmt 4.6, Leading zero omitted, Abs format (unit mm)*
G04 Created by KiCad (PCBNEW 5.1.6-c6e7f7d~87~ubuntu20.04.1) date 2020-07-29 10:40:47*
%MOMM*%
%LPD*%
G01*
G04 APERTURE LIST*
%ADD10R,1.550000X0.600000*%
%ADD11R,2.710000X3.400000*%
G04 APERTURE END LIST*
%TO.C,C1*%
G36*
G01*
X136500000Y-135450000D02*
X136500000Y-136550000D01*
G75*
G02*
X136250000Y-136800000I-250000J0D01*
G01*
X133750000Y-136800000D01*
G75*
G02*
X133500000Y-136550000I0J250000D01*
G01*
X133500000Y-135450000D01*
G75*
G02*
X133750000Y-135200000I250000J0D01*
G01*
X136250000Y-135200000D01*
G75*
G02*
X136500000Y-135450000I0J-250000D01*
G01*
G37*
G36*
G01*
X132100000Y-135450000D02*
X132100000Y-136550000D01*
G75*
G02*
X131850000Y-136800000I-250000J0D01*
G01*
X129350000Y-136800000D01*
G75*
G02*
X129100000Y-136550000I0J250000D01*
G01*
X129100000Y-135450000D01*
G75*
G02*
X129350000Y-135200000I250000J0D01*
G01*
X131850000Y-135200000D01*
G75*
G02*
X132100000Y-135450000I0J-250000D01*
G01*
G37*
%TD*%
%TO.C,C2*%
G36*
G01*
X136500000Y-127450000D02*
X136500000Y-128550000D01*
G75*
G02*
X136250000Y-128800000I-250000J0D01*
G01*
X133750000Y-128800000D01*
G75*
G02*
X133500000Y-128550000I0J250000D01*
G01*
X133500000Y-127450000D01*
G75*
G02*
X133750000Y-127200000I250000J0D01*
G01*
X136250000Y-127200000D01*
G75*
G02*
X136500000Y-127450000I0J-250000D01*
G01*
G37*
G36*
G01*
X132100000Y-127450000D02*
X132100000Y-128550000D01*
G75*
G02*
X131850000Y-128800000I-250000J0D01*
G01*
X129350000Y-128800000D01*
G75*
G02*
X129100000Y-128550000I0J250000D01*
G01*
X129100000Y-127450000D01*
G75*
G02*
X129350000Y-127200000I250000J0D01*
G01*
X131850000Y-127200000D01*
G75*
G02*
X132100000Y-127450000I0J-250000D01*
G01*
G37*
%TD*%
%TO.C,C3*%
G36*
G01*
X137900000Y-144050000D02*
X137900000Y-142950000D01*
G75*
G02*
X138150000Y-142700000I250000J0D01*
G01*
X140650000Y-142700000D01*
G75*
G02*
X140900000Y-142950000I0J-250000D01*
G01*
X140900000Y-144050000D01*
G75*
G02*
X140650000Y-144300000I-250000J0D01*
G01*
X138150000Y-144300000D01*
G75*
G02*
X137900000Y-144050000I0J250000D01*
G01*
G37*
G36*
G01*
X133500000Y-144050000D02*
X133500000Y-142950000D01*
G75*
G02*
X133750000Y-142700000I250000J0D01*
G01*
X136250000Y-142700000D01*
G75*
G02*
X136500000Y-142950000I0J-250000D01*
G01*
X136500000Y-144050000D01*
G75*
G02*
X136250000Y-144300000I-250000J0D01*
G01*
X133750000Y-144300000D01*
G75*
G02*
X133500000Y-144050000I0J250000D01*
G01*
G37*
%TD*%
%TO.C,C4*%
G36*
G01*
X114550000Y-136000000D02*
X113450000Y-136000000D01*
G75*
G02*
X113200000Y-135750000I0J250000D01*
G01*
X113200000Y-133250000D01*
G75*
G02*
X113450000Y-133000000I250000J0D01*
G01*
X114550000Y-133000000D01*
G75*
G02*
X114800000Y-133250000I0J-250000D01*
G01*
X114800000Y-135750000D01*
G75*
G02*
X114550000Y-136000000I-250000J0D01*
G01*
G37*
G36*
G01*
X114550000Y-131600000D02*
X113450000Y-131600000D01*
G75*
G02*
X113200000Y-131350000I0J250000D01*
G01*
X113200000Y-128850000D01*
G75*
G02*
X113450000Y-128600000I250000J0D01*
G01*
X114550000Y-128600000D01*
G75*
G02*
X114800000Y-128850000I0J-250000D01*
G01*
X114800000Y-131350000D01*
G75*
G02*
X114550000Y-131600000I-250000J0D01*
G01*
G37*
%TD*%
%TO.C,C5*%
G36*
G01*
X139500000Y-121550000D02*
X139500000Y-120450000D01*
G75*
G02*
X139750000Y-120200000I250000J0D01*
G01*
X142250000Y-120200000D01*
G75*
G02*
X142500000Y-120450000I0J-250000D01*
G01*
X142500000Y-121550000D01*
G75*
G02*
X142250000Y-121800000I-250000J0D01*
G01*
X139750000Y-121800000D01*
G75*
G02*
X139500000Y-121550000I0J250000D01*
G01*
G37*
G36*
G01*
X135100000Y-121550000D02*
X135100000Y-120450000D01*
G75*
G02*
X135350000Y-120200000I250000J0D01*
G01*
X137850000Y-120200000D01*
G75*
G02*
X138100000Y-120450000I0J-250000D01*
G01*
X138100000Y-121550000D01*
G75*
G02*
X137850000Y-121800000I-250000J0D01*
G01*
X135350000Y-121800000D01*
G75*
G02*
X135100000Y-121550000I0J250000D01*
G01*
G37*
%TD*%
%TO.C,R1*%
G36*
G01*
X114200000Y-138349999D02*
X114200000Y-139650001D01*
G75*
G02*
X113950001Y-139900000I-249999J0D01*
G01*
X112874999Y-139900000D01*
G75*
G02*
X112625000Y-139650001I0J249999D01*
G01*
X112625000Y-138349999D01*
G75*
G02*
X112874999Y-138100000I249999J0D01*
G01*
X113950001Y-138100000D01*
G75*
G02*
X114200000Y-138349999I0J-249999D01*
G01*
G37*
G36*
G01*
X118375000Y-138349999D02*
X118375000Y-139650001D01*
G75*
G02*
X118125001Y-139900000I-249999J0D01*
G01*
X117049999Y-139900000D01*
G75*
G02*
X116800000Y-139650001I0J249999D01*
G01*
X116800000Y-138349999D01*
G75*
G02*
X117049999Y-138100000I249999J0D01*
G01*
X118125001Y-138100000D01*
G75*
G02*
X118375000Y-138349999I0J-249999D01*
G01*
G37*
%TD*%
%TO.C,R2*%
G36*
G01*
X118287000Y-123849999D02*
X118287000Y-125150001D01*
G75*
G02*
X118037001Y-125400000I-249999J0D01*
G01*
X116961999Y-125400000D01*
G75*
G02*
X116712000Y-125150001I0J249999D01*
G01*
X116712000Y-123849999D01*
G75*
G02*
X116961999Y-123600000I249999J0D01*
G01*
X118037001Y-123600000D01*
G75*
G02*
X118287000Y-123849999I0J-249999D01*
G01*
G37*
G36*
G01*
X114112000Y-123849999D02*
X114112000Y-125150001D01*
G75*
G02*
X113862001Y-125400000I-249999J0D01*
G01*
X112786999Y-125400000D01*
G75*
G02*
X112537000Y-125150001I0J249999D01*
G01*
X112537000Y-123849999D01*
G75*
G02*
X112786999Y-123600000I249999J0D01*
G01*
X113862001Y-123600000D01*
G75*
G02*
X114112000Y-123849999I0J-249999D01*
G01*
G37*
%TD*%
%TO.C,R3*%
G36*
G01*
X121288000Y-138349999D02*
X121288000Y-139650001D01*
G75*
G02*
X121038001Y-139900000I-249999J0D01*
G01*
X119962999Y-139900000D01*
G75*
G02*
X119713000Y-139650001I0J249999D01*
G01*
X119713000Y-138349999D01*
G75*
G02*
X119962999Y-138100000I249999J0D01*
G01*
X121038001Y-138100000D01*
G75*
G02*
X121288000Y-138349999I0J-249999D01*
G01*
G37*
G36*
G01*
X125463000Y-138349999D02*
X125463000Y-139650001D01*
G75*
G02*
X125213001Y-139900000I-249999J0D01*
G01*
X124137999Y-139900000D01*
G75*
G02*
X123888000Y-139650001I0J249999D01*
G01*
X123888000Y-138349999D01*
G75*
G02*
X124137999Y-138100000I249999J0D01*
G01*
X125213001Y-138100000D01*
G75*
G02*
X125463000Y-138349999I0J-249999D01*
G01*
G37*
%TD*%
%TO.C,R4*%
G36*
G01*
X125463000Y-123849999D02*
X125463000Y-125150001D01*
G75*
G02*
X125213001Y-125400000I-249999J0D01*
G01*
X124137999Y-125400000D01*
G75*
G02*
X123888000Y-125150001I0J249999D01*
G01*
X123888000Y-123849999D01*
G75*
G02*
X124137999Y-123600000I249999J0D01*
G01*
X125213001Y-123600000D01*
G75*
G02*
X125463000Y-123849999I0J-249999D01*
G01*
G37*
G36*
G01*
X121288000Y-123849999D02*
X121288000Y-125150001D01*
G75*
G02*
X121038001Y-125400000I-249999J0D01*
G01*
X119962999Y-125400000D01*
G75*
G02*
X119713000Y-125150001I0J249999D01*
G01*
X119713000Y-123849999D01*
G75*
G02*
X119962999Y-123600000I249999J0D01*
G01*
X121038001Y-123600000D01*
G75*
G02*
X121288000Y-123849999I0J-249999D01*
G01*
G37*
%TD*%
%TO.C,R5*%
G36*
G01*
X128150001Y-133788000D02*
X126849999Y-133788000D01*
G75*
G02*
X126600000Y-133538001I0J249999D01*
G01*
X126600000Y-132462999D01*
G75*
G02*
X126849999Y-132213000I249999J0D01*
G01*
X128150001Y-132213000D01*
G75*
G02*
X128400000Y-132462999I0J-249999D01*
G01*
X128400000Y-133538001D01*
G75*
G02*
X128150001Y-133788000I-249999J0D01*
G01*
G37*
G36*
G01*
X128150001Y-137963000D02*
X126849999Y-137963000D01*
G75*
G02*
X126600000Y-137713001I0J249999D01*
G01*
X126600000Y-136637999D01*
G75*
G02*
X126849999Y-136388000I249999J0D01*
G01*
X128150001Y-136388000D01*
G75*
G02*
X128400000Y-136637999I0J-249999D01*
G01*
X128400000Y-137713001D01*
G75*
G02*
X128150001Y-137963000I-249999J0D01*
G01*
G37*
%TD*%
%TO.C,R6*%
G36*
G01*
X128150001Y-131287000D02*
X126849999Y-131287000D01*
G75*
G02*
X126600000Y-131037001I0J249999D01*
G01*
X126600000Y-129961999D01*
G75*
G02*
X126849999Y-129712000I249999J0D01*
G01*
X128150001Y-129712000D01*
G75*
G02*
X128400000Y-129961999I0J-249999D01*
G01*
X128400000Y-131037001D01*
G75*
G02*
X128150001Y-131287000I-249999J0D01*
G01*
G37*
G36*
G01*
X128150001Y-127112000D02*
X126849999Y-127112000D01*
G75*
G02*
X126600000Y-126862001I0J249999D01*
G01*
X126600000Y-125786999D01*
G75*
G02*
X126849999Y-125537000I249999J0D01*
G01*
X128150001Y-125537000D01*
G75*
G02*
X128400000Y-125786999I0J-249999D01*
G01*
X128400000Y-126862001D01*
G75*
G02*
X128150001Y-127112000I-249999J0D01*
G01*
G37*
%TD*%
D10*
%TO.C,U1*%
X118800000Y-133905000D03*
X124200000Y-133905000D03*
X118800000Y-132635000D03*
X124200000Y-132635000D03*
X118800000Y-131365000D03*
X124200000Y-131365000D03*
X118800000Y-130095000D03*
X124200000Y-130095000D03*
D11*
X121500000Y-132000000D03*
%TD*%
M02*
