%TF.GenerationSoftware,KiCad,Pcbnew,5.1.6-c6e7f7d~87~ubuntu20.04.1*%
%TF.CreationDate,2020-07-29T10:40:47+02:00*%
%TF.ProjectId,piezo,7069657a-6f2e-46b6-9963-61645f706362,rev?*%
%TF.SameCoordinates,Original*%
%TF.FileFunction,Copper,L2,Bot*%
%TF.FilePolarity,Positive*%
%FSLAX46Y46*%
G04 Gerber Fmt 4.6, Leading zero omitted, Abs format (unit mm)*
G04 Created by KiCad (PCBNEW 5.1.6-c6e7f7d~87~ubuntu20.04.1) date 2020-07-29 10:40:47*
%MOMM*%
%LPD*%
G01*
G04 APERTURE LIST*
%TA.AperFunction,ComponentPad*%
%ADD10R,1.500000X1.500000*%
%TD*%
%TA.AperFunction,ComponentPad*%
%ADD11C,1.500000*%
%TD*%
%TA.AperFunction,ComponentPad*%
%ADD12C,3.800000*%
%TD*%
%TA.AperFunction,ComponentPad*%
%ADD13R,3.960000X1.980000*%
%TD*%
%TA.AperFunction,ComponentPad*%
%ADD14O,3.960000X1.980000*%
%TD*%
%TA.AperFunction,ViaPad*%
%ADD15C,0.800000*%
%TD*%
%TA.AperFunction,Conductor*%
%ADD16C,0.250000*%
%TD*%
%TA.AperFunction,Conductor*%
%ADD17C,0.254000*%
%TD*%
G04 APERTURE END LIST*
D10*
%TO.P,J5,1*%
%TO.N,Net-(C1-Pad1)*%
X142500000Y-130500000D03*
D11*
%TO.P,J5,2*%
%TO.N,GND*%
X139960000Y-131520000D03*
%TO.P,J5,3*%
%TO.N,Net-(C2-Pad1)*%
X142500000Y-132540000D03*
%TO.P,J5,4*%
%TO.N,VCC*%
X139960000Y-133560000D03*
%TD*%
D12*
%TO.P,J1,1*%
%TO.N,GND*%
X145500000Y-119000000D03*
%TD*%
%TO.P,J2,1*%
%TO.N,GND*%
X145500000Y-145500000D03*
%TD*%
%TO.P,J3,1*%
%TO.N,GND*%
X102000000Y-119000000D03*
%TD*%
%TO.P,J4,1*%
%TO.N,GND*%
X102000000Y-145500000D03*
%TD*%
D13*
%TO.P,X1,1*%
%TO.N,Net-(R1-Pad2)*%
X104500000Y-134500000D03*
D14*
%TO.P,X1,2*%
%TO.N,Net-(R2-Pad2)*%
X104500000Y-129500000D03*
%TD*%
D15*
%TO.N,GND*%
X135500000Y-132000000D03*
X130500000Y-132000000D03*
X123500000Y-128000000D03*
X131500000Y-141000000D03*
X136000000Y-124500000D03*
X124000000Y-136500000D03*
X127500000Y-139000000D03*
%TO.N,VCC*%
X117170800Y-133232800D03*
%TD*%
D16*
%TO.N,GND*%
X145500000Y-119000000D02*
X139960000Y-124540000D01*
X139960000Y-124540000D02*
X139960000Y-131520000D01*
X145500000Y-145500000D02*
X141424600Y-141424600D01*
X141424600Y-141424600D02*
X141424600Y-132984600D01*
X141424600Y-132984600D02*
X139960000Y-131520000D01*
%TO.N,VCC*%
X139960000Y-133560000D02*
X117498000Y-133560000D01*
X117498000Y-133560000D02*
X117170800Y-133232800D01*
%TD*%
D17*
%TO.N,GND*%
G36*
X148873000Y-148873000D02*
G01*
X98627000Y-148873000D01*
X98627000Y-137859905D01*
X143073000Y-137859905D01*
X143073000Y-138200095D01*
X143139368Y-138533747D01*
X143269553Y-138848041D01*
X143458552Y-139130898D01*
X143699102Y-139371448D01*
X143981959Y-139560447D01*
X144296253Y-139690632D01*
X144629905Y-139757000D01*
X144970095Y-139757000D01*
X145303747Y-139690632D01*
X145618041Y-139560447D01*
X145900898Y-139371448D01*
X146141448Y-139130898D01*
X146330447Y-138848041D01*
X146460632Y-138533747D01*
X146527000Y-138200095D01*
X146527000Y-137859905D01*
X146460632Y-137526253D01*
X146330447Y-137211959D01*
X146141448Y-136929102D01*
X145900898Y-136688552D01*
X145618041Y-136499553D01*
X145303747Y-136369368D01*
X144970095Y-136303000D01*
X144629905Y-136303000D01*
X144296253Y-136369368D01*
X143981959Y-136499553D01*
X143699102Y-136688552D01*
X143458552Y-136929102D01*
X143269553Y-137211959D01*
X143139368Y-137526253D01*
X143073000Y-137859905D01*
X98627000Y-137859905D01*
X98627000Y-133510000D01*
X101940209Y-133510000D01*
X101940209Y-135490000D01*
X101951350Y-135603112D01*
X101984343Y-135711876D01*
X102037921Y-135812115D01*
X102110026Y-135899974D01*
X102197885Y-135972079D01*
X102298124Y-136025657D01*
X102406888Y-136058650D01*
X102520000Y-136069791D01*
X106480000Y-136069791D01*
X106593112Y-136058650D01*
X106701876Y-136025657D01*
X106802115Y-135972079D01*
X106889974Y-135899974D01*
X106962079Y-135812115D01*
X107015657Y-135711876D01*
X107048650Y-135603112D01*
X107059791Y-135490000D01*
X107059791Y-133510000D01*
X107048650Y-133396888D01*
X107015657Y-133288124D01*
X106962079Y-133187885D01*
X106919969Y-133136574D01*
X116193800Y-133136574D01*
X116193800Y-133329026D01*
X116231346Y-133517780D01*
X116304994Y-133695583D01*
X116411915Y-133855601D01*
X116547999Y-133991685D01*
X116708017Y-134098606D01*
X116885820Y-134172254D01*
X117074574Y-134209800D01*
X117224500Y-134209800D01*
X117228057Y-134211701D01*
X117360384Y-134251842D01*
X117463520Y-134262000D01*
X117463530Y-134262000D01*
X117498000Y-134265395D01*
X117532470Y-134262000D01*
X138833092Y-134262000D01*
X138929252Y-134405913D01*
X139114087Y-134590748D01*
X139331430Y-134735972D01*
X139572928Y-134836004D01*
X139829302Y-134887000D01*
X140090698Y-134887000D01*
X140347072Y-134836004D01*
X140588570Y-134735972D01*
X140805913Y-134590748D01*
X140990748Y-134405913D01*
X141135972Y-134188570D01*
X141236004Y-133947072D01*
X141287000Y-133690698D01*
X141287000Y-133429302D01*
X141236004Y-133172928D01*
X141135972Y-132931430D01*
X140990748Y-132714087D01*
X140805913Y-132529252D01*
X140588570Y-132384028D01*
X140347072Y-132283996D01*
X140090698Y-132233000D01*
X139829302Y-132233000D01*
X139572928Y-132283996D01*
X139331430Y-132384028D01*
X139114087Y-132529252D01*
X138929252Y-132714087D01*
X138833092Y-132858000D01*
X118073050Y-132858000D01*
X118036606Y-132770017D01*
X117929685Y-132609999D01*
X117793601Y-132473915D01*
X117633583Y-132366994D01*
X117455780Y-132293346D01*
X117267026Y-132255800D01*
X117074574Y-132255800D01*
X116885820Y-132293346D01*
X116708017Y-132366994D01*
X116547999Y-132473915D01*
X116411915Y-132609999D01*
X116304994Y-132770017D01*
X116231346Y-132947820D01*
X116193800Y-133136574D01*
X106919969Y-133136574D01*
X106889974Y-133100026D01*
X106802115Y-133027921D01*
X106701876Y-132974343D01*
X106593112Y-132941350D01*
X106480000Y-132930209D01*
X102520000Y-132930209D01*
X102406888Y-132941350D01*
X102298124Y-132974343D01*
X102197885Y-133027921D01*
X102110026Y-133100026D01*
X102037921Y-133187885D01*
X101984343Y-133288124D01*
X101951350Y-133396888D01*
X101940209Y-133510000D01*
X98627000Y-133510000D01*
X98627000Y-129500000D01*
X101935418Y-129500000D01*
X101965673Y-129807186D01*
X102055276Y-130102566D01*
X102200783Y-130374791D01*
X102396602Y-130613398D01*
X102635209Y-130809217D01*
X102907434Y-130954724D01*
X103202814Y-131044327D01*
X103433018Y-131067000D01*
X105566982Y-131067000D01*
X105797186Y-131044327D01*
X106092566Y-130954724D01*
X106364791Y-130809217D01*
X106603398Y-130613398D01*
X106799217Y-130374791D01*
X106944724Y-130102566D01*
X107034327Y-129807186D01*
X107039959Y-129750000D01*
X141170209Y-129750000D01*
X141170209Y-131250000D01*
X141181350Y-131363112D01*
X141214343Y-131471876D01*
X141267921Y-131572115D01*
X141340026Y-131659974D01*
X141427885Y-131732079D01*
X141439661Y-131738373D01*
X141324028Y-131911430D01*
X141223996Y-132152928D01*
X141173000Y-132409302D01*
X141173000Y-132670698D01*
X141223996Y-132927072D01*
X141324028Y-133168570D01*
X141469252Y-133385913D01*
X141654087Y-133570748D01*
X141871430Y-133715972D01*
X142112928Y-133816004D01*
X142369302Y-133867000D01*
X142630698Y-133867000D01*
X142887072Y-133816004D01*
X143128570Y-133715972D01*
X143345913Y-133570748D01*
X143530748Y-133385913D01*
X143675972Y-133168570D01*
X143776004Y-132927072D01*
X143827000Y-132670698D01*
X143827000Y-132409302D01*
X143776004Y-132152928D01*
X143675972Y-131911430D01*
X143560339Y-131738373D01*
X143572115Y-131732079D01*
X143659974Y-131659974D01*
X143732079Y-131572115D01*
X143785657Y-131471876D01*
X143818650Y-131363112D01*
X143829791Y-131250000D01*
X143829791Y-129750000D01*
X143818650Y-129636888D01*
X143785657Y-129528124D01*
X143732079Y-129427885D01*
X143659974Y-129340026D01*
X143572115Y-129267921D01*
X143471876Y-129214343D01*
X143363112Y-129181350D01*
X143250000Y-129170209D01*
X141750000Y-129170209D01*
X141636888Y-129181350D01*
X141528124Y-129214343D01*
X141427885Y-129267921D01*
X141340026Y-129340026D01*
X141267921Y-129427885D01*
X141214343Y-129528124D01*
X141181350Y-129636888D01*
X141170209Y-129750000D01*
X107039959Y-129750000D01*
X107064582Y-129500000D01*
X107034327Y-129192814D01*
X106944724Y-128897434D01*
X106799217Y-128625209D01*
X106603398Y-128386602D01*
X106364791Y-128190783D01*
X106092566Y-128045276D01*
X105797186Y-127955673D01*
X105566982Y-127933000D01*
X103433018Y-127933000D01*
X103202814Y-127955673D01*
X102907434Y-128045276D01*
X102635209Y-128190783D01*
X102396602Y-128386602D01*
X102200783Y-128625209D01*
X102055276Y-128897434D01*
X101965673Y-129192814D01*
X101935418Y-129500000D01*
X98627000Y-129500000D01*
X98627000Y-125859905D01*
X143073000Y-125859905D01*
X143073000Y-126200095D01*
X143139368Y-126533747D01*
X143269553Y-126848041D01*
X143458552Y-127130898D01*
X143699102Y-127371448D01*
X143981959Y-127560447D01*
X144296253Y-127690632D01*
X144629905Y-127757000D01*
X144970095Y-127757000D01*
X145303747Y-127690632D01*
X145618041Y-127560447D01*
X145900898Y-127371448D01*
X146141448Y-127130898D01*
X146330447Y-126848041D01*
X146460632Y-126533747D01*
X146527000Y-126200095D01*
X146527000Y-125859905D01*
X146460632Y-125526253D01*
X146330447Y-125211959D01*
X146141448Y-124929102D01*
X145900898Y-124688552D01*
X145618041Y-124499553D01*
X145303747Y-124369368D01*
X144970095Y-124303000D01*
X144629905Y-124303000D01*
X144296253Y-124369368D01*
X143981959Y-124499553D01*
X143699102Y-124688552D01*
X143458552Y-124929102D01*
X143269553Y-125211959D01*
X143139368Y-125526253D01*
X143073000Y-125859905D01*
X98627000Y-125859905D01*
X98627000Y-115627000D01*
X148873001Y-115627000D01*
X148873000Y-148873000D01*
G37*
X148873000Y-148873000D02*
X98627000Y-148873000D01*
X98627000Y-137859905D01*
X143073000Y-137859905D01*
X143073000Y-138200095D01*
X143139368Y-138533747D01*
X143269553Y-138848041D01*
X143458552Y-139130898D01*
X143699102Y-139371448D01*
X143981959Y-139560447D01*
X144296253Y-139690632D01*
X144629905Y-139757000D01*
X144970095Y-139757000D01*
X145303747Y-139690632D01*
X145618041Y-139560447D01*
X145900898Y-139371448D01*
X146141448Y-139130898D01*
X146330447Y-138848041D01*
X146460632Y-138533747D01*
X146527000Y-138200095D01*
X146527000Y-137859905D01*
X146460632Y-137526253D01*
X146330447Y-137211959D01*
X146141448Y-136929102D01*
X145900898Y-136688552D01*
X145618041Y-136499553D01*
X145303747Y-136369368D01*
X144970095Y-136303000D01*
X144629905Y-136303000D01*
X144296253Y-136369368D01*
X143981959Y-136499553D01*
X143699102Y-136688552D01*
X143458552Y-136929102D01*
X143269553Y-137211959D01*
X143139368Y-137526253D01*
X143073000Y-137859905D01*
X98627000Y-137859905D01*
X98627000Y-133510000D01*
X101940209Y-133510000D01*
X101940209Y-135490000D01*
X101951350Y-135603112D01*
X101984343Y-135711876D01*
X102037921Y-135812115D01*
X102110026Y-135899974D01*
X102197885Y-135972079D01*
X102298124Y-136025657D01*
X102406888Y-136058650D01*
X102520000Y-136069791D01*
X106480000Y-136069791D01*
X106593112Y-136058650D01*
X106701876Y-136025657D01*
X106802115Y-135972079D01*
X106889974Y-135899974D01*
X106962079Y-135812115D01*
X107015657Y-135711876D01*
X107048650Y-135603112D01*
X107059791Y-135490000D01*
X107059791Y-133510000D01*
X107048650Y-133396888D01*
X107015657Y-133288124D01*
X106962079Y-133187885D01*
X106919969Y-133136574D01*
X116193800Y-133136574D01*
X116193800Y-133329026D01*
X116231346Y-133517780D01*
X116304994Y-133695583D01*
X116411915Y-133855601D01*
X116547999Y-133991685D01*
X116708017Y-134098606D01*
X116885820Y-134172254D01*
X117074574Y-134209800D01*
X117224500Y-134209800D01*
X117228057Y-134211701D01*
X117360384Y-134251842D01*
X117463520Y-134262000D01*
X117463530Y-134262000D01*
X117498000Y-134265395D01*
X117532470Y-134262000D01*
X138833092Y-134262000D01*
X138929252Y-134405913D01*
X139114087Y-134590748D01*
X139331430Y-134735972D01*
X139572928Y-134836004D01*
X139829302Y-134887000D01*
X140090698Y-134887000D01*
X140347072Y-134836004D01*
X140588570Y-134735972D01*
X140805913Y-134590748D01*
X140990748Y-134405913D01*
X141135972Y-134188570D01*
X141236004Y-133947072D01*
X141287000Y-133690698D01*
X141287000Y-133429302D01*
X141236004Y-133172928D01*
X141135972Y-132931430D01*
X140990748Y-132714087D01*
X140805913Y-132529252D01*
X140588570Y-132384028D01*
X140347072Y-132283996D01*
X140090698Y-132233000D01*
X139829302Y-132233000D01*
X139572928Y-132283996D01*
X139331430Y-132384028D01*
X139114087Y-132529252D01*
X138929252Y-132714087D01*
X138833092Y-132858000D01*
X118073050Y-132858000D01*
X118036606Y-132770017D01*
X117929685Y-132609999D01*
X117793601Y-132473915D01*
X117633583Y-132366994D01*
X117455780Y-132293346D01*
X117267026Y-132255800D01*
X117074574Y-132255800D01*
X116885820Y-132293346D01*
X116708017Y-132366994D01*
X116547999Y-132473915D01*
X116411915Y-132609999D01*
X116304994Y-132770017D01*
X116231346Y-132947820D01*
X116193800Y-133136574D01*
X106919969Y-133136574D01*
X106889974Y-133100026D01*
X106802115Y-133027921D01*
X106701876Y-132974343D01*
X106593112Y-132941350D01*
X106480000Y-132930209D01*
X102520000Y-132930209D01*
X102406888Y-132941350D01*
X102298124Y-132974343D01*
X102197885Y-133027921D01*
X102110026Y-133100026D01*
X102037921Y-133187885D01*
X101984343Y-133288124D01*
X101951350Y-133396888D01*
X101940209Y-133510000D01*
X98627000Y-133510000D01*
X98627000Y-129500000D01*
X101935418Y-129500000D01*
X101965673Y-129807186D01*
X102055276Y-130102566D01*
X102200783Y-130374791D01*
X102396602Y-130613398D01*
X102635209Y-130809217D01*
X102907434Y-130954724D01*
X103202814Y-131044327D01*
X103433018Y-131067000D01*
X105566982Y-131067000D01*
X105797186Y-131044327D01*
X106092566Y-130954724D01*
X106364791Y-130809217D01*
X106603398Y-130613398D01*
X106799217Y-130374791D01*
X106944724Y-130102566D01*
X107034327Y-129807186D01*
X107039959Y-129750000D01*
X141170209Y-129750000D01*
X141170209Y-131250000D01*
X141181350Y-131363112D01*
X141214343Y-131471876D01*
X141267921Y-131572115D01*
X141340026Y-131659974D01*
X141427885Y-131732079D01*
X141439661Y-131738373D01*
X141324028Y-131911430D01*
X141223996Y-132152928D01*
X141173000Y-132409302D01*
X141173000Y-132670698D01*
X141223996Y-132927072D01*
X141324028Y-133168570D01*
X141469252Y-133385913D01*
X141654087Y-133570748D01*
X141871430Y-133715972D01*
X142112928Y-133816004D01*
X142369302Y-133867000D01*
X142630698Y-133867000D01*
X142887072Y-133816004D01*
X143128570Y-133715972D01*
X143345913Y-133570748D01*
X143530748Y-133385913D01*
X143675972Y-133168570D01*
X143776004Y-132927072D01*
X143827000Y-132670698D01*
X143827000Y-132409302D01*
X143776004Y-132152928D01*
X143675972Y-131911430D01*
X143560339Y-131738373D01*
X143572115Y-131732079D01*
X143659974Y-131659974D01*
X143732079Y-131572115D01*
X143785657Y-131471876D01*
X143818650Y-131363112D01*
X143829791Y-131250000D01*
X143829791Y-129750000D01*
X143818650Y-129636888D01*
X143785657Y-129528124D01*
X143732079Y-129427885D01*
X143659974Y-129340026D01*
X143572115Y-129267921D01*
X143471876Y-129214343D01*
X143363112Y-129181350D01*
X143250000Y-129170209D01*
X141750000Y-129170209D01*
X141636888Y-129181350D01*
X141528124Y-129214343D01*
X141427885Y-129267921D01*
X141340026Y-129340026D01*
X141267921Y-129427885D01*
X141214343Y-129528124D01*
X141181350Y-129636888D01*
X141170209Y-129750000D01*
X107039959Y-129750000D01*
X107064582Y-129500000D01*
X107034327Y-129192814D01*
X106944724Y-128897434D01*
X106799217Y-128625209D01*
X106603398Y-128386602D01*
X106364791Y-128190783D01*
X106092566Y-128045276D01*
X105797186Y-127955673D01*
X105566982Y-127933000D01*
X103433018Y-127933000D01*
X103202814Y-127955673D01*
X102907434Y-128045276D01*
X102635209Y-128190783D01*
X102396602Y-128386602D01*
X102200783Y-128625209D01*
X102055276Y-128897434D01*
X101965673Y-129192814D01*
X101935418Y-129500000D01*
X98627000Y-129500000D01*
X98627000Y-125859905D01*
X143073000Y-125859905D01*
X143073000Y-126200095D01*
X143139368Y-126533747D01*
X143269553Y-126848041D01*
X143458552Y-127130898D01*
X143699102Y-127371448D01*
X143981959Y-127560447D01*
X144296253Y-127690632D01*
X144629905Y-127757000D01*
X144970095Y-127757000D01*
X145303747Y-127690632D01*
X145618041Y-127560447D01*
X145900898Y-127371448D01*
X146141448Y-127130898D01*
X146330447Y-126848041D01*
X146460632Y-126533747D01*
X146527000Y-126200095D01*
X146527000Y-125859905D01*
X146460632Y-125526253D01*
X146330447Y-125211959D01*
X146141448Y-124929102D01*
X145900898Y-124688552D01*
X145618041Y-124499553D01*
X145303747Y-124369368D01*
X144970095Y-124303000D01*
X144629905Y-124303000D01*
X144296253Y-124369368D01*
X143981959Y-124499553D01*
X143699102Y-124688552D01*
X143458552Y-124929102D01*
X143269553Y-125211959D01*
X143139368Y-125526253D01*
X143073000Y-125859905D01*
X98627000Y-125859905D01*
X98627000Y-115627000D01*
X148873001Y-115627000D01*
X148873000Y-148873000D01*
%TD*%
M02*
